<svg width="28" height="28" viewBox="0 0 28 28" fill="none" xmlns="http://www.w3.org/2000/svg">
<path d="M28 0H0V28H28V0Z" fill="url(#paint0_radial)"/>
<path d="M27.9263 27.2688V0.25192C27.8095 0.165899 27.6928 0.0798771 27.5699 0H0V27.9263H26.8633C27.2442 27.7358 27.5945 27.5146 27.9263 27.2688Z" fill="url(#paint1_radial)"/>
<path d="M14.0098 3.44086C11.1403 3.44086 10.7778 3.45315 9.65339 3.5023C8.52896 3.55146 7.76091 3.72964 7.09118 3.99385C6.39071 4.26421 5.80085 4.62672 5.21714 5.21659C4.62727 5.8003 4.26475 6.39016 3.9944 7.08448C3.73019 7.75422 3.55201 8.52227 3.50285 9.64669C3.4537 10.7711 3.44141 11.1336 3.44141 14.0031C3.44141 16.8725 3.4537 17.235 3.50285 18.3594C3.55201 19.4839 3.73019 20.2519 3.9944 20.9216C4.26475 21.616 4.62727 22.2058 5.21099 22.7957C5.80085 23.3856 6.39071 23.7481 7.08503 24.0184C7.75477 24.2826 8.52282 24.4608 9.65339 24.51C10.7778 24.5591 11.1403 24.5714 14.0098 24.5714C16.8792 24.5714 17.2417 24.5591 18.3661 24.51C19.4906 24.4608 20.2586 24.2826 20.9345 24.0184C21.6288 23.7481 22.2187 23.3856 22.8024 22.7957C23.3922 22.2058 23.7486 21.616 24.0251 20.9216C24.2832 20.2519 24.4614 19.4839 24.5167 18.3594C24.5658 17.235 24.5781 16.8725 24.5781 14.0031C24.5781 11.1336 24.5658 10.7711 24.5167 9.64669C24.4614 8.52227 24.2832 7.75422 24.0251 7.08448C23.7548 6.39016 23.3922 5.8003 22.8024 5.21044C22.2125 4.62058 21.6288 4.26421 20.9283 3.99385C20.2525 3.72964 19.4844 3.55146 18.36 3.5023C17.2356 3.45315 16.8792 3.44086 14.0098 3.44086ZM13.0635 5.34562C13.3462 5.34562 13.6595 5.34562 14.0098 5.34562C16.83 5.34562 17.168 5.35791 18.2801 5.40706C19.3124 5.45622 19.8715 5.62826 20.2402 5.76958C20.7317 5.96006 21.082 6.1874 21.4568 6.56221C21.8254 6.93087 22.0528 7.28725 22.2494 7.7788C22.3969 8.1536 22.5689 8.71274 22.6119 9.73886C22.6611 10.851 22.6734 11.1889 22.6734 14.0092C22.6734 16.8295 22.6611 17.1613 22.6119 18.2796C22.5628 19.3118 22.3907 19.871 22.2494 20.2396C22.0589 20.7312 21.8254 21.0814 21.4568 21.4562C21.0881 21.8249 20.7379 22.0522 20.2402 22.2488C19.8654 22.3963 19.3062 22.5683 18.2801 22.6114C17.168 22.6605 16.83 22.6728 14.0098 22.6728C11.1895 22.6728 10.8515 22.6605 9.73941 22.6114C8.70715 22.5622 8.14801 22.3902 7.77935 22.2488C7.2878 22.0584 6.93142 21.831 6.56276 21.4562C6.19409 21.0875 5.96675 20.7373 5.77013 20.2396C5.62267 19.8648 5.45062 19.3057 5.40761 18.2796C5.35846 17.1674 5.34617 16.8295 5.34617 14.0092C5.34617 11.1889 5.35846 10.8571 5.40761 9.73886C5.45677 8.7066 5.62881 8.14746 5.77013 7.7788C5.96061 7.28725 6.19409 6.93087 6.56276 6.56221C6.93142 6.19354 7.2878 5.9662 7.77935 5.76958C8.15415 5.62212 8.71329 5.45007 9.73941 5.40706C10.7164 5.35791 11.0912 5.34562 13.0635 5.34562ZM19.6503 7.10291C18.9499 7.10291 18.3846 7.6682 18.3846 8.36866C18.3846 9.06912 18.9499 9.6344 19.6503 9.6344C20.3508 9.6344 20.9161 9.06912 20.9161 8.36866C20.9161 7.6682 20.3508 7.09677 19.6503 7.10291ZM14.0098 8.58371C11.0113 8.58371 8.58426 11.0107 8.58426 14.0092C8.58426 17.0077 11.0113 19.4347 14.0098 19.4347C17.0082 19.4347 19.4353 17.0077 19.4353 14.0092C19.4353 11.0107 17.0082 8.58371 14.0098 8.58371ZM14.0098 10.4885C15.9575 10.4885 17.5305 12.0676 17.5305 14.0092C17.5305 15.957 15.9514 17.5299 14.0098 17.5299C12.062 17.5299 10.489 15.9508 10.489 14.0092C10.489 12.0614 12.062 10.4885 14.0098 10.4885Z" fill="white"/>
<defs>
<radialGradient id="paint0_radial" cx="0" cy="0" r="1" gradientUnits="userSpaceOnUse" gradientTransform="translate(-2.15665 20.563) scale(27.6276)">
<stop stop-color="#FFDD55"/>
<stop offset="0.1" stop-color="#FFDD55"/>
<stop offset="0.5" stop-color="#FF543E"/>
<stop offset="1" stop-color="#C837AB"/>
</radialGradient>
<radialGradient id="paint1_radial" cx="0" cy="0" r="1" gradientUnits="userSpaceOnUse" gradientTransform="translate(-0.0896038 -0.598747) scale(15.6666)">
<stop stop-color="#3771C8"/>
<stop offset="0.128" stop-color="#3771C8"/>
<stop offset="1" stop-color="#6600FF" stop-opacity="0"/>
</radialGradient>
</defs>
</svg>
