<svg width="28" height="28" viewBox="0 0 28 28" fill="none" xmlns="http://www.w3.org/2000/svg">
<path d="M28 0H0V28H28V0Z" fill="#EE8206"/>
<path d="M12.9709 18.2304C11.361 18.0645 9.91097 17.6651 8.67595 16.6943C8.52234 16.5714 8.36258 16.4547 8.22126 16.3195C7.68055 15.7972 7.62525 15.2012 8.05536 14.5868C8.42403 14.0584 9.03847 13.9171 9.68363 14.2243C9.80652 14.2857 9.92326 14.3533 10.04 14.4332C12.3503 16.0246 15.5269 16.0676 17.8495 14.5069C18.0769 14.3287 18.3226 14.1874 18.6114 14.1137C19.1644 13.9724 19.6806 14.1751 19.9816 14.6605C20.3196 15.2135 20.3196 15.7542 19.8956 16.1843C19.2566 16.8418 18.4824 17.3211 17.6222 17.6528C16.8111 17.9662 15.9202 18.126 15.0415 18.2304C15.1767 18.3779 15.2382 18.4455 15.318 18.5315C16.5101 19.7297 17.7144 20.9278 18.9002 22.1321C19.3058 22.5438 19.3918 23.0476 19.1644 23.5269C18.9187 24.0492 18.3718 24.3932 17.8372 24.3564C17.4993 24.3318 17.2351 24.1659 16.9955 23.9263C16.0922 23.0169 15.1767 22.1321 14.2919 21.2043C14.0339 20.934 13.911 20.9893 13.6836 21.2227C12.7743 22.1567 11.8587 23.0722 10.9309 23.9877C10.5131 24.3994 10.0216 24.4731 9.53616 24.2396C9.02618 23.9939 8.69438 23.4654 8.71896 22.9432C8.73739 22.5868 8.90943 22.3164 9.15521 22.0707C10.3349 20.8909 11.5147 19.7051 12.6944 18.5254C12.7865 18.4332 12.8603 18.3533 12.9709 18.2304Z" fill="white"/>
<path d="M13.9544 14.1198C11.0849 14.1075 8.73776 11.7296 8.75005 8.86021C8.76848 5.96006 11.1218 3.61905 14.0158 3.6252C16.916 3.63134 19.2447 6.00922 19.2324 8.94009C19.214 11.8095 16.8484 14.1321 13.9544 14.1198ZM16.5596 8.86636C16.5534 7.44086 15.4167 6.30415 13.9974 6.30415C12.5596 6.30415 11.4167 7.45929 11.429 8.89708C11.4413 10.3164 12.5842 11.447 14.0097 11.4409C15.429 11.4347 16.5657 10.2919 16.5596 8.86636Z" fill="white"/>
</svg>
