<svg width="28" height="28" viewBox="0 0 28 28" fill="none" xmlns="http://www.w3.org/2000/svg">
<path d="M28 0H0V28H28V0Z" fill="#1DA1F2"/>
<path d="M3.71094 20.7558C5.57269 21.9355 7.78467 22.6237 10.1564 22.6237C16.8108 22.6237 22.2117 17.2289 22.2117 10.5684C22.2117 10.4025 22.2056 10.2366 22.1994 10.0707C22.439 9.88019 23.9321 8.68817 24.2947 7.92013C24.2947 7.92013 23.0842 8.42397 21.9045 8.54071H21.8983C21.8983 8.54071 21.8983 8.54071 21.9045 8.53456C22.0151 8.46083 23.5389 7.42243 23.7478 6.18741C23.7478 6.18741 22.8937 6.64209 21.6956 7.04148C21.499 7.10907 21.29 7.17051 21.075 7.23195C20.2947 6.41475 19.1948 5.89862 17.9782 5.89862C15.6433 5.89862 13.7509 7.79109 13.7509 10.126C13.7509 10.4578 13.7877 10.7773 13.8615 11.0845C13.5358 11.0722 8.56501 10.7896 5.17945 6.69739C5.17945 6.69739 3.15794 9.45622 6.38375 12.2949C6.38375 12.2949 5.40065 12.2581 4.55886 11.7481C4.55886 11.7481 4.2455 15.0906 7.90141 15.9447C7.90141 15.9447 7.18252 16.2151 6.03352 16.0246C6.03352 16.0246 6.67253 18.7281 9.92292 18.98C9.91677 18.98 7.35456 21.3026 3.71094 20.7558Z" fill="white"/>
</svg>
