<svg width="28" height="28" viewBox="0 0 28 28" fill="none" xmlns="http://www.w3.org/2000/svg">
<path d="M28 0H0V28H28V0Z" fill="#4A76A8"/>
<path d="M7.90308 9.04456C8.51137 10.5438 9.27942 11.957 10.2932 13.2228C10.4284 13.3887 10.5943 13.5423 10.7725 13.6652C11.0306 13.8433 11.2763 13.7819 11.3869 13.4808C11.4975 13.1675 11.602 12.5346 11.6081 12.2028C11.6266 11.3426 11.6081 10.7834 11.559 9.92321C11.5283 9.37636 11.3316 8.89095 10.5267 8.74349C10.2748 8.70048 10.2564 8.49157 10.4161 8.2888C10.7479 7.86484 11.2149 7.79725 11.7187 7.76653C12.5359 7.72352 13.3532 7.76038 14.1704 7.76653C14.5022 7.76653 14.8401 7.79725 15.1657 7.87098C15.5959 7.96315 15.8232 8.26422 15.8908 8.68204C15.9277 8.8971 15.9461 9.1183 15.9399 9.33949C15.9215 10.2734 15.8724 11.2135 15.8601 12.1475C15.8539 12.5161 15.8846 12.891 15.9584 13.2473C16.069 13.745 16.4069 13.8741 16.7571 13.5115C17.1995 13.0507 17.5866 12.5407 17.9492 12.0185C18.6128 11.0661 19.1104 10.0215 19.5344 8.94625C19.7556 8.39326 19.9215 8.27037 20.5237 8.27037C21.6481 8.27037 22.7725 8.26422 23.8969 8.27037C24.0935 8.27037 24.3025 8.2888 24.4929 8.35025C24.8002 8.44856 24.9169 8.69433 24.8493 9.01384C24.6834 9.75117 24.284 10.384 23.8539 10.9862C23.1657 11.957 22.4469 12.9032 21.7402 13.8618C21.6481 13.9847 21.5743 14.1137 21.5006 14.2489C21.2364 14.722 21.2548 14.9923 21.6419 15.3856C22.2502 16.0185 22.9077 16.6083 23.4975 17.2535C23.9277 17.7266 24.327 18.2366 24.665 18.7712C25.0951 19.4532 24.8309 20.0922 24.026 20.2089C23.5221 20.2827 21.0459 20.2089 20.9169 20.2089C20.2533 20.2089 19.6696 19.9755 19.1965 19.5208C18.6742 19.0169 18.2011 18.4639 17.6972 17.9417C17.5436 17.7819 17.3839 17.6344 17.2118 17.4993C16.8002 17.1859 16.4008 17.2535 16.2103 17.7389C16.0444 18.1506 15.9031 19.2381 15.8969 19.3303C15.8601 19.8157 15.5528 20.1229 15.0121 20.1536C13.4453 20.2397 11.9215 20.0615 10.5083 19.3057C9.31014 18.6606 8.35162 17.7512 7.51598 16.6943C6.19493 15.0108 5.15653 13.1613 4.20415 11.2565C4.155 11.1582 3.19033 9.10601 3.16575 9.01384C3.07973 8.68819 3.1596 8.38097 3.4361 8.27037C3.60814 8.20278 6.7848 8.27037 6.83395 8.27037C7.34394 8.30724 7.68802 8.52229 7.90308 9.04456Z" fill="white"/>
</svg>
