<svg width="28" height="28" viewBox="0 0 28 28" fill="none" xmlns="http://www.w3.org/2000/svg">
<rect width="28" height="28" fill="#2E5C82"/>
<g clip-path="url(#clip0)">
<path d="M13.9974 4.66669C8.85095 4.66669 4.66406 8.85358 4.66406 14.0001C4.66406 19.1466 8.85095 23.3335 13.9974 23.3335C19.1438 23.3335 23.3307 19.1466 23.3307 14.0001C23.3307 8.85358 19.1438 4.66669 13.9974 4.66669ZM13.9974 21.9954C13.642 21.9954 13.0689 21.3522 12.5898 19.9152C12.3661 19.2441 12.1858 18.4754 12.0521 17.6406C12.6812 17.5907 13.3335 17.5643 13.9974 17.5643C14.6613 17.5643 15.3136 17.5907 15.9426 17.6407C15.809 18.4755 15.6287 19.2441 15.405 19.9152C14.9259 21.3522 14.3528 21.9954 13.9974 21.9954ZM13.9974 16.2263C13.2738 16.2263 12.5663 16.2554 11.8849 16.311C11.8151 15.5699 11.7782 14.7943 11.7782 14C11.7782 13.2057 11.8151 12.4302 11.8849 11.689C12.5662 11.7446 13.2738 11.7736 13.9971 11.7736C14.7208 11.7736 15.4284 11.7446 16.1099 11.689C16.1797 12.4302 16.2166 13.2057 16.2166 14C16.2166 14.7943 16.1797 15.5699 16.1099 16.311C15.4285 16.2555 14.7209 16.2263 13.9974 16.2263ZM6.00198 14.0001C6.00198 12.7612 6.28527 11.5873 6.79029 10.5396C7.77847 10.9912 9.07751 11.3344 10.5562 11.5427C10.4792 12.3458 10.4402 13.1738 10.4402 14.0001C10.4402 14.8264 10.4792 15.6544 10.5562 16.4575C9.07742 16.6658 7.77847 17.009 6.79029 17.4607C6.28527 16.4128 6.00198 15.2389 6.00198 14.0001ZM13.9974 6.00461C14.3528 6.00461 14.9259 6.64788 15.405 8.0849C15.6287 8.756 15.809 9.52459 15.9426 10.3594C15.3136 10.4094 14.6612 10.4358 13.9971 10.4358C13.3333 10.4358 12.6811 10.4094 12.0521 10.3595C12.1858 9.52468 12.3661 8.756 12.5898 8.08499C13.0689 6.64788 13.642 6.00461 13.9974 6.00461ZM17.4385 11.5425C18.9173 11.3342 20.2162 10.991 21.2043 10.5393C21.7095 11.587 21.9928 12.7611 21.9928 14C21.9928 15.2389 21.7095 16.4128 21.2045 17.4605C20.2163 17.0089 18.9173 16.6658 17.4386 16.4574C17.5156 15.6544 17.5546 14.8263 17.5546 14C17.5545 13.1737 17.5155 12.3456 17.4385 11.5425ZM20.5198 9.38045C19.673 9.74686 18.549 10.0322 17.2723 10.2133C17.0302 8.66484 16.6337 7.28072 16.0879 6.28236C17.9004 6.77391 19.4596 7.88796 20.5198 9.38045ZM11.907 6.28245C11.3612 7.28081 10.9647 8.66493 10.7226 10.2134C9.44588 10.0324 8.32176 9.74704 7.47494 9.38072C8.53511 7.88805 10.0943 6.77391 11.907 6.28245ZM7.47503 18.6195C8.32176 18.2531 9.44588 17.9678 10.7226 17.7867C10.9647 19.3351 11.3612 20.7192 11.907 21.7176C10.0943 21.2261 8.53511 20.1121 7.47503 18.6195ZM16.0879 21.7176C16.6337 20.7192 17.0302 19.3351 17.2722 17.7867C18.5489 17.9678 19.673 18.2531 20.5198 18.6195C19.4597 20.1121 17.9005 21.2261 16.0879 21.7176Z" fill="white"/>
</g>
<defs>
<clipPath id="clip0">
<rect x="4.66406" y="4.66669" width="18.6667" height="18.6667" fill="white"/>
</clipPath>
</defs>
</svg>
