<svg width="28" height="28" viewBox="0 0 28 28" fill="none" xmlns="http://www.w3.org/2000/svg">
<path d="M28 0H0V28H28V0Z" fill="#FF0000"/>
<g clip-path="url(#clip0)">
<path d="M24.4426 8.65141C24.3174 8.17958 24.0728 7.74966 23.7332 7.40482C23.3937 7.05998 22.9712 6.81237 22.5082 6.68685C20.8088 6.22223 13.9983 6.22223 13.9983 6.22223C13.9983 6.22223 7.18599 6.22223 5.49009 6.68685C5.02858 6.81343 4.60779 7.06156 4.26987 7.40635C3.93196 7.75115 3.68878 8.18051 3.56472 8.65141C3.10938 10.3837 3.10938 14 3.10938 14C3.10938 14 3.10938 17.6163 3.56472 19.3486C3.68878 19.8195 3.93196 20.2489 4.26987 20.5937C4.60779 20.9385 5.02858 21.1866 5.49009 21.3132C7.18778 21.7705 13.9983 21.7705 13.9983 21.7705C13.9983 21.7705 20.8105 21.7705 22.5082 21.3059C22.9704 21.181 23.3923 20.9344 23.7317 20.591C24.0712 20.2475 24.3163 19.8191 24.4426 19.3486C24.8961 17.6163 24.8961 14 24.8961 14C24.8961 14 24.8872 10.3837 24.4426 8.65141Z" fill="white"/>
<path d="M11.8203 17.3328L17.4799 14L11.8203 10.6672V17.3328Z" fill="#FF0000"/>
</g>
<defs>
<clipPath id="clip0">
<rect x="3.10938" y="6.22223" width="21.7778" height="15.5556" fill="white"/>
</clipPath>
</defs>
</svg>
