<?xml version="1.0" standalone="no"?>
<!DOCTYPE svg PUBLIC "-//W3C//DTD SVG 1.1//EN" "http://www.w3.org/Graphics/SVG/1.1/DTD/svg11.dtd" >
<svg xmlns="http://www.w3.org/2000/svg" xmlns:xlink="http://www.w3.org/1999/xlink" version="1.1">
<metadata>
Created by FontForge 20170731 at Sun Nov 12 23:43:06 2017
 By Aleksey,,,
Copyright (c) 2017 by . All rights reserved.
</metadata>
<defs>
<font id="ALSSectorBold-Bold" horiz-adv-x="600" >
  <font-face 
    font-family="ALS Sector Bold"
    font-weight="700"
    font-stretch="normal"
    units-per-em="1000"
    panose-1="0 0 0 0 0 0 0 0 0 0"
    ascent="800"
    descent="-200"
    x-height="498"
    cap-height="632"
    bbox="-79 -194 1091 836"
    underline-thickness="50"
    underline-position="-200"
    unicode-range="U+000D-2248"
  />
<missing-glyph horiz-adv-x="304" 
 />
    <glyph glyph-name=".notdef" horiz-adv-x="304" 
 />
    <glyph glyph-name=".null" horiz-adv-x="0" 
 />
    <glyph glyph-name="nonmarkingreturn" horiz-adv-x="333" 
 />
    <glyph glyph-name="NULL" horiz-adv-x="0" 
 />
    <glyph glyph-name="NULL" horiz-adv-x="0" 
 />
    <glyph glyph-name="CR" unicode="&#xd;" horiz-adv-x="304" 
 />
    <glyph glyph-name="space" unicode=" " horiz-adv-x="290" 
 />
    <glyph glyph-name="exclam" unicode="!" horiz-adv-x="247" 
d="M175 225h-103l-34 407h172zM212 67q0 -41 -25 -63t-62 -22q-38 0 -63.5 22t-25.5 63q0 42 25.5 64t63.5 22q37 0 62 -22t25 -64z" />
    <glyph glyph-name="quotedbl" unicode="&#x22;" horiz-adv-x="422" 
d="M165 380h-121v297h121v-297zM367 380h-122v297h122v-297z" />
    <glyph glyph-name="numbersign" unicode="#" horiz-adv-x="704" 
d="M74 393v99h118l29 140h101l-29 -140h149l29 140h101l-29 -140h100v-99h-120l-28 -138h101v-99h-121l-31 -156h-101l31 156h-149l-31 -156h-101l31 156h-97v99h117l28 138h-98zM273 393l-28 -138h149l28 138h-149z" />
    <glyph glyph-name="dollar" unicode="$" horiz-adv-x="518" 
d="M208 -77v73q-91 8 -165 41v129q108 -52 201 -52q55 0 81 15.5t26 52.5q0 22 -18.5 37t-40 21.5t-61.5 14.5q-38 7 -58.5 12t-53 18.5t-50 30t-31 46.5t-13.5 69q0 85 49.5 130.5t133.5 55.5v75h111v-74q77 -8 135 -30v-123q-103 42 -189 42q-47 0 -73 -13t-26 -54
q0 -18 9 -30.5t29.5 -21t36 -13t46.5 -11.5q35 -8 57 -14t52.5 -20t48.5 -31.5t31 -47t13 -67.5q0 -162 -170 -186v-75h-111z" />
    <glyph glyph-name="percent" unicode="%" horiz-adv-x="931" 
d="M710 252q-35 0 -58.5 -22t-23.5 -60t23.5 -59.5t58.5 -21.5q36 0 59.5 21.5t23.5 59.5t-23.5 60t-59.5 22zM290 -17h-80l454 695h82zM710 -17q-80 0 -135.5 52.5t-55.5 134.5t55.5 135t135.5 53t136 -53t56 -135t-56 -134.5t-136 -52.5zM216 537q-35 0 -58.5 -22
t-23.5 -60t23.5 -59.5t58.5 -21.5q36 0 59.5 21.5t23.5 59.5t-23.5 60t-59.5 22zM216 268q-80 0 -135.5 52.5t-55.5 134.5t55.5 135t135.5 53t136 -53t56 -135t-56 -134.5t-136 -52.5z" />
    <glyph glyph-name="ampersand" unicode="&#x26;" horiz-adv-x="863" 
d="M326 -17q-133 0 -205 68.5t-72 169.5q0 72 45.5 125t120.5 80q-30 42 -30 85q0 58 46.5 95t120.5 37q93 0 150 -22v-115q-76 31 -124 31q-25 0 -44 -8.5t-19 -25.5q0 -27 27 -52h281l-28 -102h-143l366 -349h-170l-79 75q-96 -92 -243 -92zM192 225q0 -63 43 -95t106 -32
q91 0 152 51l-194 187q-107 -26 -107 -111z" />
    <glyph glyph-name="quotesingle" unicode="'" horiz-adv-x="208" 
d="M165 380h-121v297h121v-297z" />
    <glyph glyph-name="parenleft" unicode="(" horiz-adv-x="370" 
d="M189 318q0 -132 38.5 -203.5t102.5 -89.5v-111q-133 14 -206.5 118t-73.5 286t73.5 286t206.5 118v-111q-64 -18 -102.5 -89.5t-38.5 -203.5z" />
    <glyph glyph-name="parenright" unicode=")" horiz-adv-x="371" 
d="M191 318q0 132 -38.5 203.5t-102.5 89.5v111q133 -14 206.5 -118t73.5 -286t-73.5 -286t-206.5 -118v111q64 18 102.5 89.5t38.5 203.5z" />
    <glyph glyph-name="asterisk" unicode="*" horiz-adv-x="443" 
d="M331 326l-92 127l24 -154h-84l24 154l-91 -127l-60 60l126 93l-154 -25v85l154 -25l-126 93l60 60l91 -127l-24 154h84l-24 -153l92 126l60 -60l-127 -93l154 25v-85l-154 25l127 -93z" />
    <glyph glyph-name="plus" unicode="+" horiz-adv-x="636" 
d="M377 596v-193h189v-120h-189v-194h-120v194h-188v120h188v193h120z" />
    <glyph glyph-name="comma" unicode="," horiz-adv-x="253" 
d="M128 -137h-107l79 279h139z" />
    <glyph glyph-name="hyphen" unicode="-" horiz-adv-x="396" 
d="M356 184h-309v127h309v-127z" />
    <glyph glyph-name="period" unicode="." horiz-adv-x="233" 
d="M208 67q0 -41 -25 -63t-62 -22q-38 0 -63.5 22t-25.5 63q0 42 25.5 64t63.5 22q37 0 62 -22t25 -64z" />
    <glyph glyph-name="slash" unicode="/" horiz-adv-x="572" 
d="M209 0h-141l306 677h141z" />
    <glyph glyph-name="zero" unicode="0" horiz-adv-x="662" 
d="M331 -18q-135 0 -213 94.5t-78 236.5t78 236t213 94t213 -94.5t78 -236.5t-78 -236t-213 -94zM331 107q75 0 111.5 56.5t36.5 148.5t-36.5 149t-111.5 57t-111.5 -56.5t-36.5 -148.5t36.5 -149t111.5 -57z" />
    <glyph glyph-name="one" unicode="1" horiz-adv-x="407" 
d="M287 632v-520h119v-112h-373v112h119v399h-131l30 121h236z" />
    <glyph glyph-name="two" unicode="2" horiz-adv-x="503" 
d="M462 0h-451v50l193 217q57 63 78 96.5t21 70.5q0 41 -29 61.5t-76 20.5q-86 0 -167 -60v130q82 57 194 57q89 0 152 -52t63 -141q0 -61 -27.5 -109.5t-99.5 -126.5l-85 -93h234v-121z" />
    <glyph glyph-name="three" unicode="3" horiz-adv-x="520" 
d="M33 33v130q89 -59 180 -59q55 0 86.5 28t31.5 73q0 51 -33 73t-84 22q-37 0 -77 -10l-17 55l158 169h-257l29 118h404v-83l-154 -164q82 -3 127.5 -56t45.5 -129q0 -97 -69.5 -157.5t-171.5 -60.5q-135 0 -199 51z" />
    <glyph glyph-name="four" unicode="4" horiz-adv-x="620" 
d="M193 261h176v202zM369 150h-305l-27 80l349 402h112v-371h107l-40 -111h-67v-150h-129v150z" />
    <glyph glyph-name="five" unicode="5" horiz-adv-x="543" 
d="M503 203q0 -99 -78.5 -160t-196.5 -61q-107 0 -185 46v126q83 -50 175 -50q63 0 103 24.5t40 74.5q0 107 -131 107q-66 0 -137 -23l-28 27l35 318h373l-29 -118h-241l-12 -107q47 11 89 11q97 0 160 -54.5t63 -160.5z" />
    <glyph glyph-name="six" unicode="6" horiz-adv-x="628" 
d="M328 94q52 1 85.5 31.5t33.5 77.5q0 50 -35.5 79.5t-83.5 29.5q-33 0 -68.5 -18.5t-53.5 -48.5q0 -69 31.5 -108t90.5 -43zM336 -18q-131 0 -203.5 79.5t-72.5 218.5q0 72 20 136.5t57.5 116t99.5 82t140 30.5q94 0 157 -38v-121q-67 41 -140 41q-85 0 -134.5 -47
t-57.5 -127q57 59 164 59q95 0 158.5 -57.5t63.5 -148.5q0 -98 -72 -161t-180 -63z" />
    <glyph glyph-name="seven" unicode="7" horiz-adv-x="448" 
d="M207 -20l-126 48l191 483h-284l30 121h446z" />
    <glyph glyph-name="eight" unicode="8" horiz-adv-x="592" 
d="M169 196q0 -46 33 -74.5t98 -28.5q60 0 86.5 21.5t26.5 53.5q0 35 -34 56.5t-89 37.5t-67 22q-23 -12 -38.5 -37t-15.5 -51zM77 463q0 82 59.5 131t163.5 49q95 0 153.5 -51.5t58.5 -136.5q0 -32 -22 -67t-54 -55q117 -52 117 -163q0 -93 -75.5 -140.5t-183.5 -47.5
q-114 2 -184.5 54t-70.5 143q0 47 27 87t76 63q-65 48 -65 134zM385 448q0 44 -26.5 65t-62.5 21q-39 0 -66 -16.5t-27 -54.5q0 -14 4.5 -25t17 -20.5t21.5 -15.5t31 -14t32 -11.5t38 -11.5q38 35 38 83z" />
    <glyph glyph-name="nine" unicode="9" horiz-adv-x="609" 
d="M281 643q127 0 197.5 -78.5t70.5 -218.5q0 -98 -31 -178t-102 -133t-172 -53q-92 0 -153 41v118q62 -41 143 -41q157 0 176 170q-57 -59 -152 -59q-90 0 -154.5 56.5t-64.5 152.5q0 98 69.5 160.5t172.5 62.5zM291 532q-54 -1 -86.5 -29.5t-32.5 -79.5q0 -50 35.5 -79.5
t83.5 -29.5q33 0 68.5 18.5t53.5 48.5q0 69 -31.5 108t-90.5 43z" />
    <glyph glyph-name="colon" unicode=":" horiz-adv-x="233" 
d="M208 67q0 -41 -25 -63t-62 -22q-38 0 -63.5 22t-25.5 63q0 42 25.5 64t63.5 22q37 0 62 -22t25 -64zM208 429q0 -41 -25 -63t-62 -22q-38 0 -63.5 22t-25.5 63q0 42 25.5 64t63.5 22q37 0 62 -22t25 -64z" />
    <glyph glyph-name="semicolon" unicode=";" horiz-adv-x="233" 
d="M208 429q0 -41 -25 -63t-62 -22q-38 0 -63.5 22t-25.5 63q0 42 25.5 64t63.5 22q37 0 62 -22t25 -64zM89 -137h-107l79 279h139z" />
    <glyph glyph-name="less" unicode="&#x3c;" horiz-adv-x="557" 
d="M524 491l-263 -153l263 -153v-153l-445 284v44l445 284v-153z" />
    <glyph glyph-name="equal" unicode="=" horiz-adv-x="597" 
d="M545 391h-495v113h495v-113zM545 159h-495v113h495v-113z" />
    <glyph glyph-name="greater" unicode="&#x3e;" horiz-adv-x="558" 
d="M342 338l-263 153v153l445 -284v-44l-445 -284v153z" />
    <glyph glyph-name="question" unicode="?" horiz-adv-x="411" 
d="M17 484v125q68 34 155 34q99 0 161.5 -49.5t62.5 -146.5q0 -74 -49 -125.5t-137 -66.5v-65h-123l-13 160h21q165 0 165 86q0 83 -96 83q-82 0 -147 -35zM75 63q0 33 23.5 56t56.5 23q34 0 57 -23t23 -56t-23 -56.5t-57 -23.5q-33 0 -56.5 23t-23.5 57z" />
    <glyph glyph-name="at" unicode="@" horiz-adv-x="769" 
d="M395 423q-103 0 -173 -63.5t-70 -167.5q0 -98 67.5 -163.5t175.5 -65.5q65 0 125 18v-93q-49 -19 -125 -19q-145 0 -245 94t-100 229q0 141 100 233t245 92q134 0 226.5 -79.5t108.5 -205.5q8 -62 -6 -128l-385 -84q-116 58 -116 172q0 67 46 114t125 47q20 0 42 -4.5
t51.5 -17t48.5 -43t19 -74.5v-60l82 18q0 14 -2 38q-12 97 -77.5 155t-162.5 58zM365 111l86 20v84q0 28 -16 38.5t-35 10.5q-36 0 -55 -22t-19 -52q0 -50 39 -79z" />
    <glyph glyph-name="A" unicode="A" horiz-adv-x="649" 
d="M130 0h-140l312 632h37l320 -632h-147l-52 111h-279zM411 217l-91 195l-90 -195h181z" />
    <glyph glyph-name="B" unicode="B" horiz-adv-x="619" 
d="M76 2v630q118 5 224 5q128 0 191.5 -41.5t63.5 -115.5q0 -102 -93 -144q117 -32 117 -149q0 -92 -77 -141t-209 -49q-134 0 -217 5zM304 270h-93v-161q60 -4 87 -4q140 0 140 87q0 78 -134 78zM293 529q-34 0 -82 -2v-154h89q51 0 82 21t31 61q0 74 -120 74z" />
    <glyph glyph-name="C" unicode="C" horiz-adv-x="614" 
d="M584 169v-138q-91 -49 -208 -49q-146 0 -238.5 93.5t-92.5 235.5q0 149 95.5 240.5t251.5 91.5q94 0 187 -40v-130q-75 40 -176 40q-96 0 -153 -53.5t-57 -148.5q3 -94 60.5 -146.5t140.5 -52.5q105 0 190 57z" />
    <glyph glyph-name="D" unicode="D" horiz-adv-x="706" 
d="M319 0h-243v632h243q152 0 249.5 -88.5t97.5 -227.5q0 -140 -97 -228t-250 -88zM210 515v-399h91q106 0 165.5 53t59.5 147t-59.5 146.5t-165.5 52.5h-91z" />
    <glyph glyph-name="E" unicode="E" horiz-adv-x="568" 
d="M76 0v632h474v-118h-341v-136h299v-118h-299v-142h345v-118h-478z" />
    <glyph glyph-name="F" unicode="F" horiz-adv-x="560" 
d="M76 0v632h476v-118h-341v-155h265v-117h-265v-242h-135z" />
    <glyph glyph-name="G" unicode="G" horiz-adv-x="688" 
d="M358 242v110h260v-318q-46 -25 -115.5 -38.5t-130.5 -13.5q-146 0 -239 93.5t-93 235.5q0 149 96 240.5t252 91.5q113 0 205 -41v-129q-77 41 -187 41q-103 0 -163.5 -51.5t-60.5 -151.5q2 -107 59.5 -158t143.5 -51q72 0 116 16v124h-143z" />
    <glyph glyph-name="H" unicode="H" horiz-adv-x="704" 
d="M493 378v254h135v-632h-135v256h-282v-256h-135v632h135v-254h282z" />
    <glyph glyph-name="I" unicode="I" horiz-adv-x="287" 
d="M76 0v632h135v-632h-135z" />
    <glyph glyph-name="J" unicode="J" horiz-adv-x="460" 
d="M168 -14q-99 0 -153 37v129q53 -43 125 -43q61 0 90.5 28.5t29.5 91.5v403h130v-425q0 -117 -61.5 -169t-160.5 -52z" />
    <glyph glyph-name="K" unicode="K" horiz-adv-x="625" 
d="M76 0v632h135v-263h31l220 263h158l-261 -305l292 -327h-176l-231 266h-33v-266h-135z" />
    <glyph glyph-name="L" unicode="L" horiz-adv-x="544" 
d="M76 0v632h135v-513h308v-119h-443z" />
    <glyph glyph-name="M" unicode="M" horiz-adv-x="894" 
d="M661 328l-210 -334l-214 334l-53 -328h-134l113 632h34l254 -411l256 411h33l114 -632h-135z" />
    <glyph glyph-name="N" unicode="N" horiz-adv-x="708" 
d="M76 0v632h42l385 -376v376h129v-632h-45l-382 377v-377h-129z" />
    <glyph glyph-name="O" unicode="O" horiz-adv-x="751" 
d="M376 -18q-149 0 -241.5 92t-94.5 239q2 147 94.5 238.5t241.5 91.5q150 0 241.5 -91t93.5 -239q-2 -147 -93.5 -239t-241.5 -92zM376 108q85 0 139.5 55.5t54.5 149.5t-54.5 150t-139.5 56t-139 -56t-54 -150t54 -149.5t139 -55.5z" />
    <glyph glyph-name="P" unicode="P" horiz-adv-x="610" 
d="M211 514v-213q29 -6 91 -6q137 0 137 116q0 103 -122 103h-106zM211 190v-190h-135v632h249q131 0 193 -62t62 -162q0 -79 -38.5 -132t-94.5 -74t-126 -21t-110 9z" />
    <glyph glyph-name="Q" unicode="Q" horiz-adv-x="754" 
d="M570 -51q39 0 98 23v-114q-44 -21 -99 -21q-76 0 -136 38.5t-132 114.5q-117 23 -186 110t-70 213q2 147 94.5 238.5t241.5 91.5q150 0 241.5 -91t93.5 -239q-2 -125 -71 -213.5t-184 -107.5q43 -43 109 -43zM381 108q85 0 139.5 55.5t54.5 149.5t-54.5 150t-139.5 56
t-139 -56t-54 -150t54 -149.5t139 -55.5z" />
    <glyph glyph-name="R" unicode="R" horiz-adv-x="627" 
d="M210 233v-233h-134v632h257q116 0 173.5 -51t57.5 -142q0 -124 -97 -177l144 -262h-149l-122 228q-13 -1 -40 -1q-40 0 -90 6zM210 516v-167q54 -10 92 -10q125 0 125 94q0 83 -117 83h-100z" />
    <glyph glyph-name="S" unicode="S" horiz-adv-x="545" 
d="M477 608v-124q-31 13 -88.5 27.5t-108.5 14.5q-53 0 -81 -14t-28 -58q0 -26 19 -42.5t49.5 -25t67 -16t73 -19t67 -30t49.5 -54t19 -85.5q0 -103 -67 -151.5t-177 -48.5q-125 0 -223 45v133q106 -55 209 -55q60 0 88.5 17t28.5 58q0 29 -25.5 46.5t-63.5 23.5t-83 17.5
t-83 26.5t-63.5 53.5t-25.5 95.5q0 104 69 152t182 48q108 0 196 -35z" />
    <glyph glyph-name="T" unicode="T" horiz-adv-x="530" 
d="M0 514v118h530v-118h-200v-514h-130v514h-200z" />
    <glyph glyph-name="U" unicode="U" horiz-adv-x="686" 
d="M343 -17q-121 0 -197 75t-76 205v369h135v-363q0 -75 37 -114.5t101 -39.5t101 39.5t37 114.5v363h135v-369q0 -130 -76 -205t-197 -75z" />
    <glyph glyph-name="V" unicode="V" horiz-adv-x="585" 
d="M297 253l147 379h151l-280 -632h-46l-279 632h150z" />
    <glyph glyph-name="W" unicode="W" horiz-adv-x="842" 
d="M422 589l181 -324l124 367h130l-212 -632h-42l-181 352l-183 -352h-41l-213 632h139l122 -367z" />
    <glyph glyph-name="X" unicode="X" horiz-adv-x="635" 
d="M145 0h-155l251 328l-213 304h157l132 -201l141 201h155l-212 -291l244 -341h-156l-167 240z" />
    <glyph glyph-name="Y" unicode="Y" horiz-adv-x="595" 
d="M365 229v-229h-135v229l-246 403h154l159 -282l160 282h154z" />
    <glyph glyph-name="Z" unicode="Z" horiz-adv-x="551" 
d="M541 0h-521v31l310 482h-295v119h492v-31l-310 -482h324v-119z" />
    <glyph glyph-name="bracketleft" unicode="[" horiz-adv-x="385" 
d="M358 -40h-314v740h314v-109h-186v-522h186v-109z" />
    <glyph glyph-name="backslash" unicode="\" horiz-adv-x="599" 
d="M515 0h-141l-306 677h141z" />
    <glyph glyph-name="bracketright" unicode="]" horiz-adv-x="385" 
d="M358 -40h-314v109h186v522h-186v109h314v-740z" />
    <glyph glyph-name="a" unicode="a" horiz-adv-x="572" 
d="M505 0h-99l-13 69q-35 -45 -79 -62.5t-112 -17.5q-76 0 -120 48.5t-44 116.5q0 89 60 132t154 43q74 0 121 -19v18q0 76 -101 76q-104 0 -180 -38v120q90 29 199 29q214 0 214 -204v-311zM373 158v57q-37 23 -91 23q-106 0 -106 -81q0 -29 20.5 -48t56.5 -19q35 0 68 18
t52 50z" />
    <glyph glyph-name="b" unicode="b" horiz-adv-x="634" 
d="M76 34v643h136v-230q57 67 161 67q102 0 162.5 -69.5t60.5 -188.5q0 -135 -83.5 -204t-213.5 -69q-118 0 -223 51zM212 351v-234q41 -18 93 -18q65 0 107.5 39t42.5 117q0 72 -34.5 105.5t-84.5 33.5q-75 0 -124 -43z" />
    <glyph glyph-name="c" unicode="c" horiz-adv-x="497" 
d="M456 488v-120q-50 31 -133 31q-70 0 -107 -38t-37 -111q0 -70 36 -110t93 -40q95 0 154 35v-120q-64 -32 -155 -32q-117 0 -193 71t-76 192t74.5 195t199.5 74q87 0 144 -27z" />
    <glyph glyph-name="d" unicode="d" horiz-adv-x="620" 
d="M428 173v192q-54 40 -119 40q-63 0 -96.5 -42.5t-33.5 -109.5q0 -66 31.5 -110t88.5 -44q85 0 129 74zM425 471v206h135v-677h-114l-6 63q-67 -73 -171 -73q-109 0 -170 73.5t-61 185.5q0 122 68.5 194t181.5 72q83 0 137 -44z" />
    <glyph glyph-name="e" unicode="e" horiz-adv-x="588" 
d="M499 126v-108q-62 -35 -177 -35q-142 0 -213 74.5t-71 193.5q0 127 77 195t187 68q63 0 110.5 -20.5t75 -56t40.5 -78.5t13 -94q0 -33 -6 -73h-360q15 -97 164 -97q62 0 160 31zM170 283h240q0 58 -29 88t-79 30q-57 0 -92.5 -31.5t-39.5 -86.5z" />
    <glyph glyph-name="f" unicode="f" horiz-adv-x="385" 
d="M345 392h-143v-392h-140v472q0 66 18 111t50.5 65.5t65.5 28t76 7.5q51 0 98 -8v-111q-43 12 -79 12q-41 0 -65 -16t-24 -63h143v-106z" />
    <glyph glyph-name="g" unicode="g" horiz-adv-x="636" 
d="M441 443l8 55h115v-419q-1 -137 -79.5 -205t-198.5 -68q-112 0 -186 43v121q86 -46 172 -46q158 0 158 115v13q-65 -62 -161 -62q-108 0 -169.5 74.5t-61.5 186.5q0 64 21.5 116t57 83.5t77.5 48t86 16.5q105 0 161 -72zM303 403q-62 0 -94 -41.5t-32 -114.5
q0 -62 31 -105t91 -43q88 0 131 72v178q-59 54 -127 54z" />
    <glyph glyph-name="h" unicode="h" horiz-adv-x="606" 
d="M67 0v677h137v-247q53 85 160 85q81 0 128 -48t47 -137v-330h-137v305q0 98 -90 98q-74 -3 -108 -71v-332h-137z" />
    <glyph glyph-name="i" unicode="i" horiz-adv-x="284" 
d="M73 0v498h139v-498h-139zM62 623q0 33 23.5 56t56.5 23q34 0 57 -23t23 -56t-23 -56.5t-57 -23.5q-33 0 -56.5 23t-23.5 57z" />
    <glyph glyph-name="j" unicode="j" horiz-adv-x="266" 
d="M54 498v-489q0 -91 -63 -91q-40 0 -70 15v-104q40 -23 100 -23q42 0 73 13.5t50 35t30.5 54t15.5 66t4 75.5v448h-140zM43 623q0 33 24 56t57 23t56.5 -23t23.5 -56t-23.5 -56.5t-56.5 -23.5t-57 23.5t-24 56.5z" />
    <glyph glyph-name="k" unicode="k" horiz-adv-x="544" 
d="M67 0v677h139v-375h35l152 196h163l-198 -240l205 -258h-168l-163 211h-26v-211h-139z" />
    <glyph glyph-name="l" unicode="l" horiz-adv-x="270" 
d="M67 0v677h139v-677h-139z" />
    <glyph glyph-name="m" unicode="m" horiz-adv-x="894" 
d="M67 0v498h121v-81q54 98 167 98q116 0 149 -102q52 102 164 102q75 0 118.5 -47t43.5 -138v-330h-137v305q0 98 -75 98q-69 -3 -103 -71v-332h-132v305q0 98 -75 98q-65 -3 -103 -71v-332h-138z" />
    <glyph glyph-name="n" unicode="n" horiz-adv-x="605" 
d="M67 0v498h122v-82q46 99 176 99q80 0 128 -47.5t48 -136.5v-331h-138v305q0 55 -23.5 77t-65.5 22q-71 -4 -109 -71v-333h-138z" />
    <glyph glyph-name="o" unicode="o" horiz-adv-x="619" 
d="M309 -17q-130 1 -200.5 77t-70.5 186q0 118 73 193.5t198 75.5q131 0 201.5 -76.5t70.5 -186.5q0 -117 -73.5 -193t-198.5 -76zM309 401q-67 0 -98 -43.5t-31 -103.5q0 -67 32 -112t97 -45q68 0 99.5 43.5t31.5 104.5q0 66 -33 111t-98 45z" />
    <glyph glyph-name="p" unicode="p" horiz-adv-x="634" 
d="M205 45v-235h-138v688h119l6 -78q54 95 171 95q114 0 173.5 -71.5t59.5 -184.5q0 -115 -66.5 -195.5t-180.5 -80.5q-89 0 -144 62zM331 100q62 1 93 44.5t31 111.5q0 65 -31 104.5t-93 39.5q-77 0 -127 -46v-212q50 -42 127 -42z" />
    <glyph glyph-name="q" unicode="q" horiz-adv-x="633" 
d="M435 449l12 49h119v-688h-138v241q-64 -61 -159 -61q-108 0 -169.5 74.5t-61.5 186.5q0 64 21.5 116t57 83.5t77.5 48t86 16.5q99 0 155 -66zM303 403q-62 0 -94 -41.5t-32 -114.5q0 -62 31 -105t91 -43q85 0 129 71v180q-59 53 -125 53z" />
    <glyph glyph-name="r" unicode="r" horiz-adv-x="387" 
d="M67 0v498h121l9 -86q53 100 184 100q12 0 16 -1v-138q-27 6 -57 6q-105 0 -135 -76v-303h-138z" />
    <glyph glyph-name="s" unicode="s" horiz-adv-x="503" 
d="M51 31v113q38 -18 99 -33.5t109 -15.5q33 0 54 12t21 35q0 22 -30 33t-72.5 17.5t-85.5 19t-73 47t-30 91.5q0 79 57 122t162 43q99 0 175 -39v-111q-22 11 -79 23t-102 12q-24 0 -37.5 -2t-25.5 -12t-12 -30q0 -19 17 -31.5t39.5 -19t57.5 -13.5q5 -1 7 -1
q44 -9 68.5 -17t51.5 -24t39 -42t12 -65q0 -72 -62 -116t-162 -44q-111 0 -198 48z" />
    <glyph glyph-name="t" unicode="t" horiz-adv-x="386" 
d="M62 146v447l137 45v-140h153v-106h-153v-222q1 -31 17.5 -44.5t52.5 -13.5q44 0 71 16v-115q-44 -26 -118 -26q-160 0 -160 159z" />
    <glyph glyph-name="u" unicode="u" horiz-adv-x="597" 
d="M531 498v-498h-122v81q-49 -98 -173 -98q-81 0 -128.5 48t-47.5 137v330h138v-305q0 -55 23.5 -76.5t66.5 -21.5q71 3 105 71v332h138z" />
    <glyph glyph-name="v" unicode="v" horiz-adv-x="536" 
d="M388 498h143l-234 -498h-54l-238 498h153l116 -299z" />
    <glyph glyph-name="w" unicode="w" horiz-adv-x="806" 
d="M404 289l-118 -289h-54l-227 498h141l113 -282l119 282h50l119 -282l113 282h141l-227 -498h-54z" />
    <glyph glyph-name="x" unicode="x" horiz-adv-x="484" 
d="M316 252l178 -252h-149l-100 154l-96 -154h-155l177 249l-181 249h154l100 -157l99 157h150z" />
    <glyph glyph-name="y" unicode="y" horiz-adv-x="533" 
d="M215 -190h-140l130 241l-208 447h152l117 -303l112 303h145z" />
    <glyph glyph-name="z" unicode="z" horiz-adv-x="444" 
d="M443 0h-438v60l248 323h-234v115h412v-60l-249 -323h261v-115z" />
    <glyph glyph-name="braceleft" unicode="{" horiz-adv-x="324" 
d="M37 271v92q35 0 57 15.5t22 40.5q0 22 -28.5 92t-31.5 101q-12 132 175 132h72v-114h-72q-48 0 -35 -41l46 -131q32 -97 -70 -141q102 -44 70 -141l-46 -131q-13 -41 35 -41h72v-114h-72q-187 0 -175 132q3 31 31.5 101t28.5 92q0 25 -22 40.5t-57 15.5z" />
    <glyph glyph-name="braceright" unicode="}" horiz-adv-x="324" 
d="M303 363v-92q-35 0 -57 -15.5t-22 -40.5q0 -22 28.5 -92t31.5 -101q12 -132 -175 -132h-72v114h72q48 0 35 41l-46 131q-32 97 70 141q-102 44 -70 141l46 131q13 41 -35 41h-72v114h72q187 0 175 -132q-3 -31 -31.5 -101t-28.5 -92q0 -25 22 -40.5t57 -15.5z" />
    <glyph glyph-name="asciitilde" unicode="~" horiz-adv-x="613" 
d="M508 352l71 -72q-68 -112 -175 -119q-43 -3 -84 20t-75.5 47.5t-61.5 24.5q-50 0 -104 -76l-68 75q76 118 178 124q34 2 67.5 -12t55.5 -33t48.5 -35t47.5 -16q40 0 100 72z" />
    <glyph glyph-name="sterling" unicode="&#xa3;" horiz-adv-x="743" 
d="M644 586v-120q-45 22 -124.5 41.5t-132.5 19.5q-143 0 -143 -80q0 -16 11 -35t31 -45.5t31 -44.5h269v-111h-241q-3 -38 -33 -92h332v-119h-529v48q52 35 82 78.5t30 85.5q0 27 -19.5 59t-43.5 57t-43.5 60.5t-19.5 69.5q0 93 79 139t201 46q141 0 263 -57z" />
    <glyph glyph-name="copyright" unicode="&#xa9;" horiz-adv-x="790" 
d="M405 145q-78 0 -131 53.5t-53 130.5q0 78 53 131.5t134 53.5q77 0 138 -58l-44 -52q-45 40 -95 40q-46 0 -76.5 -33.5t-30.5 -81.5q0 -47 30.5 -80.5t76.5 -33.5q51 0 96 42l48 -50q-60 -62 -146 -62zM394 65q114 0 191 75t77 197q-3 118 -79.5 191t-188.5 73
q-114 0 -191 -75t-77 -197q3 -118 79.5 -191t188.5 -73zM394 -22q-150 0 -255.5 100t-107.5 251q0 154 106 256.5t257 102.5q150 0 255.5 -100t107.5 -251q0 -154 -106 -256.5t-257 -102.5z" />
    <glyph glyph-name="guillemotleft" unicode="&#xab;" horiz-adv-x="560" 
d="M524 428l-145 -179l145 -180l-98 -46l-178 226l178 225zM293 428l-145 -179l145 -180l-98 -46l-178 226l178 225z" />
    <glyph glyph-name="registered" unicode="&#xae;" horiz-adv-x="423" 
d="M392 499q0 -86 -51.5 -136.5t-129.5 -50.5q-76 0 -127.5 49t-52.5 134q0 87 51 137t129 50q77 0 128.5 -49t52.5 -134zM215 515h-26v50h19q30 0 30 -24q0 -26 -23 -26zM137 611v-214h52v72h16l46 -72h59l-56 84q37 11 37 58q0 34 -20.5 53t-55.5 19h-78z" />
    <glyph glyph-name="twosuperior" unicode="&#xb2;" horiz-adv-x="395" 
d="M354 253h-343v40l139 129q21 20 33 31.5t21.5 27.5t9.5 29q0 36 -49 36q-74 0 -146 -43v102q67 38 155 38q73 0 119 -29.5t46 -86.5q0 -38 -21.5 -68.5t-78.5 -80.5l-42 -37h157v-88z" />
    <glyph glyph-name="threesuperior" unicode="&#xb3;" horiz-adv-x="417" 
d="M29 270v94q85 -32 134 -32q79 0 79 47q0 19 -14.5 31t-42.5 12q-39 0 -83 -11l-18 47l114 89h-177l26 85h308v-60l-128 -94q8 1 23 1q56 0 88 -32.5t32 -76.5q0 -59 -50.5 -95.5t-135.5 -36.5q-86 0 -155 32z" />
    <glyph glyph-name="paragraph" unicode="&#xb6;" horiz-adv-x="592" 
d="M345 0h-92v204q-97 0 -166 69t-69 166t69.5 167.5t165.5 70.5h305v-117h-213v-560zM500 0h-93v507h93v-507z" />
    <glyph glyph-name="onesuperior" unicode="&#xb9;" horiz-adv-x="323" 
d="M240 632v-296h82v-87h-288v87h84v207h-97l26 89h193z" />
    <glyph glyph-name="guillemotright" unicode="&#xbb;" horiz-adv-x="560" 
d="M162 249l-145 179l98 46l178 -225l-178 -226l-98 46zM393 249l-145 179l98 46l178 -225l-178 -226l-98 46z" />
    <glyph glyph-name="florin" unicode="&#x192;" horiz-adv-x="652" 
d="M477 392h-143l-60 -378q-15 -114 -70 -161t-150 -47q-69 0 -125 25l42 109q36 -12 70 -12t57 16t34 60l75 468q8 54 27 93.5t42 61.5t54 35.5t58.5 17.5t61.5 4q52 0 97 -8l-18 -111q-41 12 -77 12q-41 0 -67.5 -16t-34.5 -63h143z" />
    <glyph glyph-name="uni0401" unicode="&#x401;" horiz-adv-x="578" 
d="M267 752q0 -33 -20.5 -51t-50.5 -18q-31 0 -52 17.5t-21 51.5q0 35 21 53t52 18q30 0 50.5 -18t20.5 -53zM496 752q0 -34 -20.5 -51.5t-50.5 -17.5q-31 0 -51.5 18t-20.5 51q0 35 20.5 53t51.5 18t51 -18t20 -53zM76 0v632h474v-118h-341v-136h299v-118h-299v-142h345
v-118h-478z" />
    <glyph glyph-name="uni0410" unicode="&#x410;" horiz-adv-x="649" 
d="M130 0h-140l312 632h37l320 -632h-147l-52 111h-279zM411 217l-91 195l-90 -195h181z" />
    <glyph glyph-name="uni0411" unicode="&#x411;" horiz-adv-x="611" 
d="M211 514v-128q66 8 108 8q262 0 262 -195q0 -95 -62 -147t-172 -52h-271v632h456v-118h-321zM211 279v-159h130q51 0 75.5 23t24.5 61q0 84 -126 84q-41 0 -104 -9z" />
    <glyph glyph-name="uni0412" unicode="&#x412;" horiz-adv-x="619" 
d="M76 2v630q118 5 224 5q128 0 191.5 -41.5t63.5 -115.5q0 -102 -93 -144q117 -32 117 -149q0 -92 -77 -141t-209 -49q-134 0 -217 5zM304 270h-93v-161q60 -4 87 -4q140 0 140 87q0 78 -134 78zM293 529q-34 0 -82 -2v-154h89q51 0 82 21t31 61q0 74 -120 74z" />
    <glyph glyph-name="uni0413" unicode="&#x413;" horiz-adv-x="519" 
d="M210 512v-512h-134v632h438v-120h-304z" />
    <glyph glyph-name="uni0414" unicode="&#x414;" horiz-adv-x="721" 
d="M25 -118v238h59q38 88 55 185.5t17 254.5v72h456v-512h74v-238h-127v118h-407v-118h-127zM478 512h-194v-68q0 -180 -60 -324h254v392z" />
    <glyph glyph-name="uni0415" unicode="&#x415;" horiz-adv-x="578" 
d="M76 0v632h474v-118h-341v-136h299v-118h-299v-142h345v-118h-478z" />
    <glyph glyph-name="uni0416" unicode="&#x416;" horiz-adv-x="966" 
d="M417 0v266h-33l-211 -266h-173l272 327l-241 305h155l200 -263h31v263h132v-263h31l200 263h155l-241 -305l272 -327h-173l-211 266h-33v-266h-132z" />
    <glyph glyph-name="uni0417" unicode="&#x417;" horiz-adv-x="568" 
d="M274 643q109 0 178.5 -47.5t69.5 -120.5q0 -106 -122 -150q62 -15 98.5 -53.5t36.5 -96.5q0 -85 -73.5 -139t-195.5 -54q-130 0 -228 55v124q108 -60 225 -60q54 0 89 21.5t35 60.5q0 76 -123 76h-126v112h110q127 0 127 78q0 75 -120 75q-55 0 -114 -13.5t-87 -28.5v117
q86 44 220 44z" />
    <glyph glyph-name="uni0418" unicode="&#x418;" horiz-adv-x="708" 
d="M632 632v-632h-129v377l-382 -377h-45v632h129v-376l385 376h42z" />
    <glyph glyph-name="uni0419" unicode="&#x419;" horiz-adv-x="708" 
d="M632 632v-632h-129v377l-382 -377h-45v632h129v-376l385 376h42zM368 658q-83 0 -135.5 48.5t-53.5 129.5h112q0 -36 20.5 -56t56.5 -20q37 0 57.5 20t20.5 56h112q-1 -81 -54 -129.5t-136 -48.5z" />
    <glyph glyph-name="uni041A" unicode="&#x41a;" horiz-adv-x="625" 
d="M76 0v632h135v-263h31l220 263h158l-261 -305l292 -327h-176l-231 266h-33v-266h-135z" />
    <glyph glyph-name="uni041B" unicode="&#x41b;" horiz-adv-x="672" 
d="M148 632h448v-632h-133v512h-190v-54q0 -183 -23 -286t-65.5 -141.5t-114.5 -38.5q-46 0 -70 7l9 107q5 -1 18 -1q43 0 67 25.5t39 114t15 256.5v131z" />
    <glyph glyph-name="uni041C" unicode="&#x41c;" horiz-adv-x="900" 
d="M661 328l-210 -334l-214 334l-53 -328h-134l113 632h34l254 -411l256 411h33l114 -632h-135z" />
    <glyph glyph-name="uni041D" unicode="&#x41d;" horiz-adv-x="704" 
d="M493 378v254h135v-632h-135v256h-282v-256h-135v632h135v-254h282z" />
    <glyph glyph-name="uni041E" unicode="&#x41e;" horiz-adv-x="751" 
d="M376 -18q-149 0 -241.5 92t-94.5 239q2 147 94.5 238.5t241.5 91.5q150 0 241.5 -91t93.5 -239q-2 -147 -93.5 -239t-241.5 -92zM376 108q85 0 139.5 55.5t54.5 149.5t-54.5 150t-139.5 56t-139 -56t-54 -150t54 -149.5t139 -55.5z" />
    <glyph glyph-name="uni041F" unicode="&#x41f;" horiz-adv-x="694" 
d="M76 0v632h542v-632h-135v510h-272v-510h-135z" />
    <glyph glyph-name="uni0420" unicode="&#x420;" 
d="M211 514v-213q29 -6 91 -6q137 0 137 116q0 103 -122 103h-106zM211 190v-190h-135v632h249q131 0 193 -62t62 -162q0 -79 -38.5 -132t-94.5 -74t-126 -21t-110 9z" />
    <glyph glyph-name="uni0421" unicode="&#x421;" horiz-adv-x="614" 
d="M584 169v-138q-91 -49 -208 -49q-146 0 -238.5 93.5t-92.5 235.5q0 149 95.5 240.5t251.5 91.5q94 0 187 -40v-130q-75 40 -176 40q-96 0 -153 -53.5t-57 -148.5q3 -94 60.5 -146.5t140.5 -52.5q105 0 190 57z" />
    <glyph glyph-name="uni0422" unicode="&#x422;" horiz-adv-x="530" 
d="M0 514v118h530v-118h-200v-514h-130v514h-200z" />
    <glyph glyph-name="uni0423" unicode="&#x423;" horiz-adv-x="590" 
d="M316 286l153 346h145l-238 -479q-43 -87 -93.5 -125t-116.5 -38q-44 0 -81 12v115q30 -10 55 -10q62 0 103 48l-253 477h149z" />
    <glyph glyph-name="uni0424" unicode="&#x424;" horiz-adv-x="825" 
d="M480 481v-322q80 0 128 44t48 117q0 72 -48.5 116.5t-127.5 44.5zM480 -25h-135v68q-143 0 -229 79.5t-86 200.5q0 120 86 197t229 77v57h135v-57q143 0 229 -77t86 -198t-85.5 -200t-229.5 -79v-68zM345 159v322q-80 0 -128.5 -44.5t-48.5 -116.5q0 -73 48.5 -117
t128.5 -44z" />
    <glyph glyph-name="uni0425" unicode="&#x425;" horiz-adv-x="635" 
d="M145 0h-155l251 328l-213 304h157l132 -201l141 201h155l-212 -291l244 -341h-156l-167 240z" />
    <glyph glyph-name="uni0426" unicode="&#x426;" horiz-adv-x="731" 
d="M476 120v512h135v-512h95v-238h-130v118h-500v632h135v-512h265z" />
    <glyph glyph-name="uni0427" unicode="&#x427;" horiz-adv-x="624" 
d="M413 0v216q-80 -29 -156 -29q-45 0 -83.5 11t-72 36t-52.5 71t-19 110v217h135v-191q0 -76 31 -102.5t96 -26.5q70 0 121 22v298h135v-632h-135z" />
    <glyph glyph-name="uni0428" unicode="&#x428;" horiz-adv-x="1018" 
d="M942 632v-632h-866v632h134v-512h232v512h134v-512h232v512h134z" />
    <glyph glyph-name="uni0429" unicode="&#x429;" horiz-adv-x="1048" 
d="M893 -118v118h-817v632h134v-512h232v512h134v-512h232v512h134v-512h81v-238h-130z" />
    <glyph glyph-name="uni042A" unicode="&#x42a;" horiz-adv-x="697" 
d="M166 0v514h-147v118h282v-217q57 10 119 10q116 0 186.5 -50.5t70.5 -163.5q0 -92 -63 -151.5t-178 -59.5h-270zM415 120q122 0 122 96q0 95 -126 95q-38 0 -110 -9v-182h114z" />
    <glyph glyph-name="uni042B" unicode="&#x42b;" horiz-adv-x="855" 
d="M644 0v632h135v-632h-135zM318 120q122 0 122 96q0 95 -126 95q-31 0 -103 -9v-182h107zM76 0v632h135v-217q57 10 112 10q116 0 186.5 -50.5t70.5 -163.5q0 -92 -63 -151.5t-178 -59.5h-263z" />
    <glyph glyph-name="uni042C" unicode="&#x42c;" horiz-adv-x="617" 
d="M325 120q122 0 122 96q0 95 -126 95q-38 0 -110 -9v-182h114zM76 0v632h135v-217q57 10 119 10q116 0 186.5 -50.5t70.5 -163.5q0 -92 -63 -151.5t-178 -59.5h-270z" />
    <glyph glyph-name="uni042D" unicode="&#x42d;" horiz-adv-x="592" 
d="M107 259v115h305q-22 152 -208 152q-94 0 -167 -39v120q82 36 180 36q165 0 250 -90t85 -227q0 -159 -81 -251.5t-241 -92.5q-99 0 -195 35v118q80 -35 179 -35q182 0 196 159h-303z" />
    <glyph glyph-name="uni042E" unicode="&#x42e;" horiz-adv-x="955" 
d="M601 -18q-121 0 -206.5 75.5t-103.5 198.5h-80v-256h-135v632h135v-254h81q20 120 105 192.5t204 72.5q136 0 224.5 -92t89.5 -238q-1 -146 -89.5 -238.5t-224.5 -92.5zM601 108q77 0 126 55.5t49 149.5t-49.5 150t-125.5 56t-125 -56t-49 -150t49 -149.5t125 -55.5z" />
    <glyph glyph-name="uni042F" unicode="&#x42f;" horiz-adv-x="676" 
d="M443 205q-57 -9 -105 -9h-16l-118 -196h-159l137 224q-132 54 -136 190q0 106 63 162t180 56h295v-632h-141v205zM187 414q1 -103 161 -103q55 0 95 8v196h-135q-121 0 -121 -101z" />
    <glyph glyph-name="uni0430" unicode="&#x430;" horiz-adv-x="572" 
d="M505 0h-99l-13 69q-35 -45 -79 -62.5t-112 -17.5q-76 0 -120 48.5t-44 116.5q0 89 60 132t154 43q74 0 121 -19v18q0 76 -101 76q-104 0 -180 -38v120q90 29 199 29q214 0 214 -204v-311zM373 158v57q-37 23 -91 23q-106 0 -106 -81q0 -29 20.5 -48t56.5 -19q35 0 68 18
t52 50z" />
    <glyph glyph-name="uni0431" unicode="&#x431;" horiz-adv-x="614" 
d="M360 447q96 0 155.5 -60.5t59.5 -158.5q0 -103 -70 -174t-181 -71q-139 0 -211 82.5t-72 217.5q0 79 20 138t56 101t97.5 73t134 51t176.5 38v-131q-18 -3 -58 -8.5t-65.5 -10.5t-62 -13.5t-61 -21.5t-49.5 -32t-40 -47.5t-20 -64.5q72 92 191 92zM313 102
q54 0 90.5 32.5t36.5 81.5q0 52 -33 83t-85 31q-42 0 -82 -21.5t-62 -54.5q0 -71 37 -111.5t98 -40.5z" />
    <glyph glyph-name="uni0432" unicode="&#x432;" horiz-adv-x="554" 
d="M199 102h112q38 0 57.5 15.5t19.5 41.5q0 24 -20 39t-60 15h-109v-111zM199 294h100q34 0 53 15.5t19 39.5t-19.5 39t-59.5 15h-93v-109zM67 498q84 7 231 7q96 0 151.5 -27.5t55.5 -101.5q0 -79 -86 -115q105 -32 105 -123q0 -145 -238 -145q-132 0 -219 7v498z" />
    <glyph glyph-name="uni0433" unicode="&#x433;" horiz-adv-x="446" 
d="M430 382h-225v-382h-138v498h363v-116z" />
    <glyph glyph-name="uni0434" unicode="&#x434;" horiz-adv-x="667" 
d="M234 109h186v281h-145v-16q0 -163 -41 -265zM510 0h-351v-118h-117v227h57q51 107 51 351v38h403v-389h74v-227h-117v118z" />
    <glyph glyph-name="uni0435" unicode="&#x435;" horiz-adv-x="588" 
d="M499 126v-108q-62 -35 -177 -35q-142 0 -213 74.5t-71 193.5q0 127 77 195t187 68q63 0 110.5 -20.5t75 -56t40.5 -78.5t13 -94q0 -33 -6 -73h-360q15 -97 164 -97q62 0 160 31zM170 283h240q0 58 -29 88t-79 30q-57 0 -92.5 -31.5t-39.5 -86.5z" />
    <glyph glyph-name="uni0436" unicode="&#x436;" horiz-adv-x="867" 
d="M374 0v198h-48l-138 -198h-173l200 257l-172 241h157l128 -197h46v197h129v-197h46l128 197h157l-172 -241l200 -257h-173l-138 198h-48v-198h-129z" />
    <glyph glyph-name="uni0437" unicode="&#x437;" horiz-adv-x="508" 
d="M59 376v112q26 12 89.5 19.5t111.5 7.5q92 0 145 -35.5t53 -102.5q0 -43 -24 -74.5t-66 -43.5q48 -9 75 -41t27 -80q0 -79 -61 -117t-154 -38q-51 0 -111.5 8.5t-88.5 22.5v118q81 -37 169 -37q110 0 110 55q0 53 -83 53h-137v96h136q69 0 69 53q0 51 -96 51
q-37 0 -87 -9t-77 -18z" />
    <glyph glyph-name="uni0438" unicode="&#x438;" horiz-adv-x="608" 
d="M541 498v-498h-129v280l-294 -280h-51v498h129v-280l294 280h51z" />
    <glyph glyph-name="uni0439" unicode="&#x439;" horiz-adv-x="608" 
d="M318 534q-80 0 -130.5 46.5t-51.5 124.5h108q0 -35 19.5 -54t54.5 -19t54.5 19t19.5 54h108q-1 -78 -51.5 -124.5t-130.5 -46.5zM541 498v-498h-129v280l-294 -280h-51v498h129v-280l294 280h51z" />
    <glyph glyph-name="uni043A" unicode="&#x43a;" horiz-adv-x="573" 
d="M67 0v498h138v-197h44l139 197h165l-186 -241l204 -257h-170l-148 198h-48v-198h-138z" />
    <glyph glyph-name="uni043B" unicode="&#x43b;" horiz-adv-x="602" 
d="M138 498h397v-498h-134v386h-140q0 -165 -19.5 -251t-55 -113t-103.5 -27q-38 0 -68 6l10 106q8 -1 24 -1q33 0 50 22t28 109.5t11 260.5z" />
    <glyph glyph-name="uni043C" unicode="&#x43c;" horiz-adv-x="784" 
d="M566 241l-174 -252l-178 251l-44 -241h-135l99 500h45l213 -310l214 310h44l99 -500h-134z" />
    <glyph glyph-name="uni043D" unicode="&#x43d;" horiz-adv-x="597" 
d="M530 498v-498h-138v195h-187v-195h-138v498h138v-195h187v195h138z" />
    <glyph glyph-name="uni043E" unicode="&#x43e;" horiz-adv-x="619" 
d="M309 -17q-130 1 -200.5 77t-70.5 186q0 118 73 193.5t198 75.5q131 0 201.5 -76.5t70.5 -186.5q0 -117 -73.5 -193t-198.5 -76zM309 401q-67 0 -98 -43.5t-31 -103.5q0 -67 32 -112t97 -45q68 0 99.5 43.5t31.5 104.5q0 66 -33 111t-98 45z" />
    <glyph glyph-name="uni043F" unicode="&#x43f;" horiz-adv-x="590" 
d="M523 498v-498h-138v390h-180v-390h-138v498h456z" />
    <glyph glyph-name="uni0440" unicode="&#x440;" horiz-adv-x="628" 
d="M205 45v-235h-138v688h119l6 -78q54 95 171 95q114 0 173.5 -71.5t59.5 -184.5q0 -115 -66.5 -195.5t-180.5 -80.5q-89 0 -144 62zM331 100q62 1 93 44.5t31 111.5q0 65 -31 104.5t-93 39.5q-77 0 -127 -46v-212q50 -42 127 -42z" />
    <glyph glyph-name="uni0441" unicode="&#x441;" horiz-adv-x="497" 
d="M456 488v-120q-50 31 -133 31q-70 0 -107 -38t-37 -111q0 -70 36 -110t93 -40q95 0 154 35v-120q-64 -32 -155 -32q-117 0 -193 71t-76 192t74.5 195t199.5 74q87 0 144 -27z" />
    <glyph glyph-name="uni0442" unicode="&#x442;" horiz-adv-x="492" 
d="M467 498v-112h-152v-386h-138v386h-152v112h442z" />
    <glyph glyph-name="uni0443" unicode="&#x443;" horiz-adv-x="530" 
d="M227 -190h-140l130 241l-208 447h152l117 -303l112 303h145z" />
    <glyph glyph-name="uni0444" unicode="&#x444;" horiz-adv-x="750" 
d="M310 515v162h131v-162q126 -6 200 -81t74 -184q0 -111 -72.5 -184t-201.5 -83v-173h-131v173q-127 4 -201 80.5t-74 186.5t73 182.5t202 82.5zM310 94v309q-63 -4 -101 -47t-38 -106q0 -64 38.5 -108.5t100.5 -47.5zM441 403v-309q62 3 100.5 47.5t38.5 108.5
q0 63 -38 106t-101 47z" />
    <glyph glyph-name="uni0445" unicode="&#x445;" horiz-adv-x="524" 
d="M336 252l178 -252h-149l-100 154l-96 -154h-155l177 249l-181 249h154l100 -157l99 157h150z" />
    <glyph glyph-name="uni0446" unicode="&#x446;" horiz-adv-x="637" 
d="M67 0v498h138v-390h180v390h138v-390h72v-226h-121v118h-407z" />
    <glyph glyph-name="uni0447" unicode="&#x447;" horiz-adv-x="561" 
d="M178 498v-155q0 -48 22.5 -68t64.5 -20q52 0 91 17v226h138v-498h-138v171q-61 -27 -136 -27t-127.5 40.5t-52.5 117.5v196h138z" />
    <glyph glyph-name="uni0448" unicode="&#x448;" horiz-adv-x="858" 
d="M67 0v498h138v-390h155v390h138v-390h155v390h138v-498h-724z" />
    <glyph glyph-name="uni0449" unicode="&#x449;" horiz-adv-x="920" 
d="M67 0v498h138v-390h155v390h138v-390h155v390h138v-390h72v-226h-121v118h-675z" />
    <glyph glyph-name="uni044A" unicode="&#x44a;" horiz-adv-x="621" 
d="M148 0v383h-141v115h279v-174q47 13 99 13q97 0 152.5 -46t55.5 -119q0 -79 -51.5 -125.5t-145.5 -46.5h-248zM286 227v-124h87q44 0 65 19.5t21 49.5q0 65 -93 65q-44 0 -80 -10z" />
    <glyph glyph-name="uni044B" unicode="&#x44b;" horiz-adv-x="754" 
d="M549 0v498h138v-498h-138zM67 0v498h138v-174q47 13 92 13q97 0 152.5 -46t55.5 -119q0 -79 -51.5 -125.5t-145.5 -46.5h-241zM205 227v-124h80q44 0 65 19.5t21 49.5q0 65 -93 65q-37 0 -73 -10z" />
    <glyph glyph-name="uni044C" unicode="&#x44c;" horiz-adv-x="534" 
d="M67 0v498h138v-174q47 13 99 13q97 0 152.5 -46t55.5 -119q0 -79 -51.5 -125.5t-145.5 -46.5h-248zM205 227v-124h87q44 0 65 19.5t21 49.5q0 65 -93 65q-44 0 -80 -10z" />
    <glyph glyph-name="uni044D" unicode="&#x44d;" horiz-adv-x="514" 
d="M199 -17q-94 0 -159 37v116q65 -34 137 -34q64 0 110 23.5t52 75.5h-217v100h216q-7 50 -48 73t-101 23q-76 0 -139 -28v115q65 31 149 31q118 0 197.5 -68t79.5 -196q0 -130 -79 -199t-198 -69z" />
    <glyph glyph-name="uni044E" unicode="&#x44e;" horiz-adv-x="829" 
d="M527 -17q-109 1 -176.5 60.5t-83.5 151.5h-62v-195h-138v498h138v-195h63q17 95 86 153.5t173 58.5q125 0 194.5 -76.5t69.5 -186.5q0 -116 -72.5 -192.5t-191.5 -76.5zM527 401q-64 0 -93.5 -43.5t-29.5 -103.5q0 -67 30.5 -112t92.5 -45q65 0 94.5 43.5t29.5 104.5
q0 66 -31 111t-93 45z" />
    <glyph glyph-name="uni044F" unicode="&#x44f;" horiz-adv-x="563" 
d="M496 498v-498h-137v145q-29 -5 -62 -5q-17 0 -25 1l-78 -141h-153l98 163q-96 43 -99 155q0 83 52 131.5t149 48.5h255zM359 239v157h-94q-41 0 -65 -21t-24 -59q0 -83 118 -83q32 0 65 6z" />
    <glyph glyph-name="uni0451" unicode="&#x451;" horiz-adv-x="588" 
d="M255 619q0 -33 -20.5 -51t-50.5 -18q-31 0 -52 17.5t-21 51.5q0 35 21 53t52 18q30 0 50.5 -18t20.5 -53zM484 619q0 -34 -20.5 -51.5t-50.5 -17.5q-31 0 -51.5 18t-20.5 51q0 35 20.5 53t51.5 18t51 -18t20 -53zM499 18v108q-98 -31 -160 -31q-149 0 -164 97h360
q6 40 6 73q0 51 -13 94t-40.5 78.5t-75 56t-110.5 20.5q-110 0 -187 -68t-77 -195q0 -119 71 -193.5t213 -74.5q115 0 177 35zM410 283h-240q4 55 39.5 86.5t92.5 31.5q50 0 79 -30t29 -88z" />
    <glyph glyph-name="uni0E3F" unicode="&#xe3f;" horiz-adv-x="0" 
 />
    <glyph glyph-name="endash" unicode="&#x2013;" horiz-adv-x="771" 
d="M675 184h-579v127h579v-127z" />
    <glyph glyph-name="emdash" unicode="&#x2014;" horiz-adv-x="917" 
d="M821 184h-725v127h725v-127z" />
    <glyph glyph-name="bullet" unicode="&#x2022;" horiz-adv-x="414" 
d="M60 388q0 61 43 104t104 43q60 0 103 -43.5t43 -103.5q0 -59 -43 -102.5t-103 -43.5q-61 0 -104 43t-43 103z" />
    <glyph glyph-name="ellipsis" unicode="&#x2026;" horiz-adv-x="793" 
d="M208 67q0 -41 -25 -63t-62 -22q-38 0 -63.5 22t-25.5 63q0 42 25.5 64t63.5 22q37 0 62 -22t25 -64zM488 67q0 -41 -25 -63t-62 -22q-38 0 -63.5 22t-25.5 63q0 42 25.5 64t63.5 22q37 0 62 -22t25 -64zM768 67q0 -41 -25 -63t-62 -22q-38 0 -63.5 22t-25.5 63
q0 42 25.5 64t63.5 22q37 0 62 -22t25 -64z" />
    <glyph glyph-name="zerosuperior" unicode="&#x2070;" horiz-adv-x="500" 
d="M250 335q41 0 62 31t21 76q0 46 -21 77t-62 31t-62 -31t-21 -76q0 -46 21 -77t62 -31zM250 242q-100 0 -155 57.5t-55 143.5t54.5 143t155.5 57q100 0 155 -57.5t55 -143.5t-54.5 -143t-155.5 -57z" />
    <glyph glyph-name="foursuperior" unicode="&#x2074;" horiz-adv-x="485" 
d="M391 632v-232h79l-34 -79h-45v-72h-117v72h-215l-22 57l256 254h98zM274 506l-110 -106h110v106z" />
    <glyph glyph-name="fivesuperior" unicode="&#x2075;" horiz-adv-x="433" 
d="M160 497q38 11 77 11q66 0 111 -30t45 -95t-48.5 -105t-137.5 -40q-101 0 -164 32v94q75 -33 141 -33q82 0 82 52q0 48 -67 48q-49 0 -95 -18l-46 28l27 191h290l-27 -85h-177z" />
    <glyph glyph-name="sixsuperior" unicode="&#x2076;" horiz-adv-x="485" 
d="M261 242q-98 0 -149.5 48t-51.5 134q0 93 57.5 156t171.5 63q72 0 125 -26v-88q-56 26 -118 26q-46 0 -78.5 -18.5t-37.5 -59.5q37 32 105 32q74 0 117 -35t43 -93q0 -61 -52 -100t-132 -39zM254 324q31 1 48 16t17 39q0 25 -18.5 40t-46.5 15q-27 0 -45.5 -15t-18.5 -40
t16.5 -39.5t47.5 -15.5z" />
    <glyph glyph-name="sevensuperior" unicode="&#x2077;" horiz-adv-x="343" 
d="M169 233l-116 36l134 274h-199l26 89h345z" />
    <glyph glyph-name="eightsuperior" unicode="&#x2078;" horiz-adv-x="465" 
d="M397 540q0 -47 -54 -79q83 -32 83 -100q0 -58 -57.5 -88.5t-137.5 -30.5q-85 0 -138.5 32t-53.5 85q0 27 17.5 52t53.5 39q-44 30 -44 81t45 81.5t124 30.5q71 0 116.5 -30.5t45.5 -72.5zM300 359q0 9 -6.5 15.5t-20 12.5t-26 10t-34.5 10.5t-35 10.5q-21 -19 -21 -41
q0 -26 21.5 -40t58.5 -14q26 0 44.5 9t18.5 27zM182 530q0 -29 81 -47q19 19 19 40q0 20 -15.5 30.5t-37.5 10.5q-47 0 -47 -34z" />
    <glyph glyph-name="ninesuperior" unicode="&#x2079;" horiz-adv-x="484" 
d="M223 643q98 0 149.5 -48t51.5 -134q0 -100 -56 -159.5t-161 -59.5q-78 0 -134 26v86q59 -25 121 -25q105 0 110 79q-40 -36 -109 -36q-64 0 -110 34.5t-46 95.5t52.5 101t131.5 40zM230 561q-31 -1 -48 -16.5t-17 -40.5q0 -26 18.5 -41t46.5 -15q27 0 45.5 15.5
t18.5 40.5t-16.5 40.5t-47.5 16.5z" />
    <glyph glyph-name="zeroinferior" unicode="&#x2080;" horiz-adv-x="500" 
d="M250 82q41 0 62 31t21 76q0 46 -21 77t-62 31t-62 -31t-21 -76q0 -46 21 -77t62 -31zM250 -11q-100 0 -155 57.5t-55 143.5t54.5 143t155.5 57q100 0 155 -57.5t55 -143.5t-54.5 -143t-155.5 -57z" />
    <glyph glyph-name="oneinferior" unicode="&#x2081;" horiz-adv-x="376" 
d="M16 511l30 121h236v-632h-135v511h-131z" />
    <glyph glyph-name="twoinferior" unicode="&#x2082;" horiz-adv-x="323" 
d="M240 383v-296h82v-87h-288v87h84v207h-97l26 89h193z" />
    <glyph glyph-name="threeinferior" unicode="&#x2083;" horiz-adv-x="395" 
d="M354 0h-343v40l139 129q21 20 33 31.5t21.5 27.5t9.5 29q0 36 -49 36q-74 0 -146 -43v102q67 38 155 38q73 0 119 -29.5t46 -86.5q0 -38 -21.5 -68.5t-78.5 -80.5l-42 -37h157v-88z" />
    <glyph glyph-name="fourinferior" unicode="&#x2084;" horiz-adv-x="417" 
d="M29 21v94q85 -32 134 -32q79 0 79 47q0 19 -14.5 31t-42.5 12q-39 0 -83 -11l-18 47l114 89h-177l26 85h308v-60l-128 -94q8 1 23 1q56 0 88 -32.5t32 -76.5q0 -59 -50.5 -95.5t-135.5 -36.5q-86 0 -155 32z" />
    <glyph glyph-name="fiveinferior" unicode="&#x2085;" horiz-adv-x="485" 
d="M391 383v-232h79l-34 -79h-45v-72h-117v72h-215l-22 57l256 254h98zM274 257l-110 -106h110v106z" />
    <glyph glyph-name="sixinferior" unicode="&#x2086;" horiz-adv-x="433" 
d="M160 248q38 11 77 11q66 0 111 -30t45 -95t-48.5 -105t-137.5 -40q-101 0 -164 32v94q75 -33 141 -33q82 0 82 52q0 48 -67 48q-49 0 -95 -18l-46 28l27 191h290l-27 -85h-177z" />
    <glyph glyph-name="seveninferior" unicode="&#x2087;" horiz-adv-x="485" 
d="M261 -11q-98 0 -149.5 48t-51.5 134q0 93 57.5 156t171.5 63q72 0 125 -26v-88q-56 26 -118 26q-46 0 -78.5 -18.5t-37.5 -59.5q37 32 105 32q74 0 117 -35t43 -93q0 -61 -52 -100t-132 -39zM254 71q31 1 48 16t17 39q0 25 -18.5 40t-46.5 15q-27 0 -45.5 -15t-18.5 -40
t16.5 -39.5t47.5 -15.5z" />
    <glyph glyph-name="eightinferior" unicode="&#x2088;" horiz-adv-x="343" 
d="M169 -16l-116 36l134 274h-199l26 89h345z" />
    <glyph glyph-name="nineinferior" unicode="&#x2089;" horiz-adv-x="465" 
d="M397 287q0 -47 -54 -79q83 -32 83 -100q0 -58 -57.5 -88.5t-137.5 -30.5q-85 0 -138.5 32t-53.5 85q0 27 17.5 52t53.5 39q-44 30 -44 81t45 81.5t124 30.5q71 0 116.5 -30.5t45.5 -72.5zM300 106q0 9 -6.5 15.5t-20 12.5t-26 10t-34.5 10.5t-35 10.5q-21 -19 -21 -41
q0 -26 21.5 -40t58.5 -14q26 0 44.5 9t18.5 27zM182 277q0 -29 81 -47q19 19 19 40q0 20 -15.5 30.5t-37.5 10.5q-47 0 -47 -34z" />
    <glyph glyph-name="parenleftinferior" unicode="&#x208d;" horiz-adv-x="484" 
d="M223 390q98 0 149.5 -48t51.5 -134q0 -100 -56 -159.5t-161 -59.5q-78 0 -134 26v86q59 -25 121 -25q105 0 110 79q-40 -36 -109 -36q-64 0 -110 34.5t-46 95.5t52.5 101t131.5 40zM230 308q-31 -1 -48 -16.5t-17 -40.5q0 -26 18.5 -41t46.5 -15q27 0 45.5 15.5
t18.5 40.5t-16.5 40.5t-47.5 16.5z" />
    <glyph glyph-name="uni20B4" unicode="&#x20b4;" horiz-adv-x="711" 
d="M388 288h235v-74h-335q-24 -11 -38 -28t-14 -34q0 -29 32.5 -44t79.5 -15q100 0 244 36v-113q-113 -33 -278 -33q-98 0 -158.5 43t-60.5 109q0 42 32 82l-62 1v70h144q11 8 90 55h-235v74h335q24 11 38 28t14 34q0 54 -112 54q-70 0 -214 -36v113q113 33 248 33
q98 0 158.5 -41t60.5 -106q0 -42 -32 -82l62 -1v-70h-144q-17 -11 -47.5 -29.5t-42.5 -25.5z" />
    <glyph glyph-name="uni20BD" unicode="&#x20bd;" horiz-adv-x="795" 
d="M110 231v106h98v295h249q132 0 193.5 -55t61.5 -150q0 -196 -255 -196h-114v-53h237v-97h-237v-81h-135v81h-98v97h98v53h-98zM343 337h97q75 0 103 23t28 67t-28 65.5t-103 21.5h-97v-177z" />
    <glyph glyph-name="uni2116" unicode="&#x2116;" horiz-adv-x="1163" 
d="M898 268q-81 0 -137 52t-56 133q0 82 56.5 135.5t136.5 53.5q81 0 137 -52t56 -133q0 -82 -56.5 -135.5t-136.5 -53.5zM76 0v632h38l382 -384v384h119v-632h-40l-380 385v-385h-119zM898 372q36 0 60.5 23.5t24.5 62.5q0 38 -24 59.5t-61 21.5q-36 0 -60.5 -23.5
t-24.5 -62.5q0 -38 24 -59.5t61 -21.5zM1052 96h-308v105h308v-105z" />
    <glyph glyph-name="trademark" unicode="&#x2122;" horiz-adv-x="729" 
d="M532 413l-85 74v-146h-79v291h21l143 -126l143 126h21v-291h-79v146zM50 555v77h276v-77h-95v-214h-85v214h-96z" />
    <glyph glyph-name="arrowleft" unicode="&#x2190;" horiz-adv-x="743" 
d="M431 556l-198 -179h503v-120h-504l199 -182l-79 -84l-325 324l325 324z" />
    <glyph glyph-name="arrowup" unicode="&#x2191;" horiz-adv-x="686" 
d="M403 0h-120v501l-182 -196l-84 79l326 328l326 -328l-84 -79l-182 196v-501z" />
    <glyph glyph-name="arrowright" unicode="&#x2192;" horiz-adv-x="743" 
d="M510 377l-198 179l79 83l325 -324l-325 -324l-79 84l199 182h-504v120h503z" />
    <glyph glyph-name="arrowdown" unicode="&#x2193;" horiz-adv-x="686" 
d="M283 712h120v-501l182 196l84 -79l-326 -328l-326 328l84 79l182 -196v501z" />
    <glyph glyph-name="infinity" unicode="&#x221e;" horiz-adv-x="781" 
d="M621 310q0 39 -20.5 58.5t-53.5 19.5q-32 0 -56.5 -21t-51.5 -60q56 -71 113 -71q30 0 49.5 18.5t19.5 55.5zM229 230q50 0 105 65q-50 90 -109 90q-31 0 -51.5 -20.5t-20.5 -56.5q0 -40 21.5 -59t54.5 -19zM735 317q0 -92 -49.5 -143t-125.5 -51q-94 0 -171 80
q-88 -81 -170 -81q-76 0 -127.5 49.5t-51.5 135.5q0 78 48.5 133.5t132.5 55.5q54 0 91.5 -22t74.5 -67q81 90 171 90q79 0 128 -53.5t49 -126.5z" />
    <glyph glyph-name="approxequal" unicode="&#x2248;" horiz-adv-x="635" 
d="M70 294l-72 75q38 41 89.5 70.5t102.5 29.5q43 0 81 -19.5t71.5 -39t64.5 -19.5q66 0 123 62l59 -78q-89 -92 -182 -92q-52 0 -116.5 34.5t-102.5 34.5q-59 0 -118 -58zM70 100l-72 75q38 41 89.5 70.5t102.5 29.5q43 0 81 -19.5t71.5 -39t64.5 -19.5q66 0 123 62l59 -78
q-89 -92 -182 -92q-52 0 -116.5 34.5t-102.5 34.5q-59 0 -118 -58z" />
    <glyph glyph-name="zero.alt" 
d="M300 -18q-135 0 -213 94.5t-78 236.5t78 236t213 94t213 -94.5t78 -236.5t-78 -236t-213 -94zM300 107q75 0 111.5 56.5t36.5 148.5t-36.5 149t-111.5 57t-111.5 -56.5t-36.5 -148.5t36.5 -149t111.5 -57z" />
    <glyph glyph-name="one.alt" 
d="M373 632v-520h119v-112h-373v112h119v399h-131l30 121h236z" />
    <glyph glyph-name="two.alt" 
d="M525 0h-451v50l193 217q57 63 78 96.5t21 70.5q0 41 -29 61.5t-76 20.5q-86 0 -167 -60v130q83 57 194 57q89 0 152 -52t63 -141q0 -61 -27.5 -109.5t-99.5 -126.5l-85 -93h234v-121z" />
    <glyph glyph-name="three.alt" 
d="M86 33v130q88 -59 180 -59q55 0 86.5 28t31.5 73q0 51 -33 73t-84 22q-37 0 -77 -10l-17 55l158 169h-257l29 118h404v-83l-154 -164q82 -3 127.5 -56t45.5 -129q0 -97 -69.5 -157.5t-171.5 -60.5q-135 0 -199 51z" />
    <glyph glyph-name="four.alt" 
d="M172 261h176v202zM348 150h-305l-27 80l349 402h112v-371h107l-40 -111h-67v-150h-129v150z" />
    <glyph glyph-name="five.alt" 
d="M530 203q0 -99 -78.5 -160t-196.5 -61q-107 0 -185 46v126q83 -50 175 -50q63 0 103 24.5t40 74.5q0 107 -131 107q-66 0 -137 -23l-28 27l35 318h373l-29 -118h-241l-12 -107q47 11 89 11q97 0 160 -54.5t63 -160.5z" />
    <glyph glyph-name="six.alt" 
d="M312 -18q-131 0 -203.5 79.5t-72.5 218.5q0 72 20 136.5t57.5 116t99.5 82t140 30.5q94 0 157 -38v-121q-67 41 -140 41q-84 0 -133 -46.5t-57 -127.5q57 59 162 59q95 0 158.5 -57.5t63.5 -148.5q0 -98 -72 -161t-180 -63zM304 94q52 1 85.5 31.5t33.5 77.5
q0 50 -35.5 79.5t-83.5 29.5t-84 -29.5t-36 -79.5q0 -47 33.5 -77.5t86.5 -31.5z" />
    <glyph glyph-name="seven.alt" 
d="M281 -20l-126 48l191 483h-284l30 121h446z" />
    <glyph glyph-name="eight.alt" 
d="M81 463q0 82 59.5 132.5t163.5 50.5q95 0 153.5 -53t58.5 -138q0 -32 -22 -67t-54 -55q117 -52 117 -163q0 -93 -75.5 -141.5t-183.5 -48.5q-114 2 -184.5 55t-70.5 144q0 47 26 87t72 63l-3 3q-57 47 -57 131zM173 196q0 -46 33.5 -75t97.5 -28q59 0 86 21.5t27 52.5
q0 19 -8.5 33t-28.5 25.5t-36.5 18t-50.5 17.5q-33 8 -66 23q-23 -12 -38.5 -37t-15.5 -51zM389 448q0 44 -26.5 65t-62.5 21q-39 0 -66 -16.5t-27 -54.5q0 -14 4.5 -25t17 -20.5t21.5 -15.5t31 -14t32 -11.5t38 -11.5q38 35 38 83z" />
    <glyph glyph-name="nine.alt" 
d="M287 643q127 0 197.5 -78.5t70.5 -218.5q0 -97 -32.5 -178t-104 -133.5t-170.5 -52.5q-87 0 -151 41v118q62 -41 135 -41q79 0 128.5 48.5t54.5 124.5q-52 -62 -151 -62q-90 0 -154.5 56.5t-64.5 152.5q0 98 69.5 160.5t172.5 62.5zM297 316q50 0 83.5 30t33.5 76
q0 51 -32.5 80.5t-84.5 29.5t-84 -29t-32 -81q0 -46 33 -76t83 -30z" />
    </font>
</defs>
</svg>
