<svg width="44" height="44" viewBox="0 0 44 44" fill="none" xmlns="http://www.w3.org/2000/svg">
<path d="M17.8966 40.1704C14.8385 39.5286 12.2083 38.182 10.1066 36.2187C8.03007 34.2807 6.50729 31.7637 5.68927 28.7433C4.95935 26.0376 4.84609 23.1304 5.11037 20.2359C5.37465 17.3666 6.01648 14.5224 6.80933 11.9173C6.88484 11.6782 6.94776 11.6153 6.93518 11.5901C6.92259 11.5397 6.88484 11.6404 6.69607 11.5775C6.07941 11.3636 5.70186 10.9608 5.47533 10.4826C5.2488 9.97922 5.23622 9.38773 5.37465 8.82141L6.12975 5.71294V5.67518L6.14233 5.63743C6.3311 5.08369 6.69607 4.65581 7.17429 4.39152C7.62735 4.15241 8.19367 4.06432 8.78516 4.20275L14.0834 5.32281L14.8007 5.47382L14.7252 6.20375L14.6875 6.73231L14.612 7.75169L14.1715 7.65101L14.2093 10.8853H30.0033L29.9907 7.65101L29.4496 7.78945L29.4118 6.7449L29.3992 6.21633L29.3866 5.51158L30.0662 5.37315L35.4651 4.21533C36.0566 4.0769 36.5978 4.16499 37.076 4.40411C37.5417 4.66839 37.9192 5.08369 38.108 5.65001L38.1206 5.68777V5.72552L38.8757 8.83399C39.0141 9.38773 39.0015 9.9918 38.775 10.4952C38.5485 10.9986 38.1583 11.3887 37.5542 11.5901C37.3655 11.6656 37.3403 11.5397 37.3151 11.6027C37.3025 11.6404 37.3655 11.6908 37.441 11.9299C38.2212 14.535 38.8505 17.3791 39.1399 20.2485C39.4168 23.143 39.291 26.0627 38.561 28.7559C37.743 31.7637 36.2202 34.2932 34.1437 36.2313C32.0421 38.1946 29.3866 39.5537 26.3537 40.183C25.5357 40.3592 24.7932 40.485 24.1136 40.5731C23.434 40.6612 22.767 40.699 22.0874 40.699H22.0748C21.3952 40.699 20.7408 40.6612 20.0486 40.5731C19.4572 40.485 18.7398 40.3466 17.8966 40.1704Z" fill="#231F20"/>
<path fill-rule="evenodd" clip-rule="evenodd" d="M34.2198 24.2001C34.4967 24.2001 34.7232 24.4267 34.7232 24.7035C34.7232 24.9804 34.4967 25.2069 34.2198 25.2069C33.9429 25.2069 33.7164 24.9804 33.7164 24.7035C33.7038 24.4267 33.9303 24.2001 34.2198 24.2001ZM18.0734 39.3524C19.6591 39.6796 20.905 39.8432 22.1635 39.8432H22.176C23.4345 39.8432 24.6804 39.6922 26.2661 39.3524C32.03 38.1442 36.2585 34.2806 37.8317 28.5168C39.2412 23.3066 38.2721 17.2659 36.7116 12.1438C36.4473 11.3006 36.4977 11.0615 37.3534 10.7595C38.1211 10.4952 38.2973 9.74009 38.1211 8.99758L37.366 5.88911C37.1269 5.18435 36.4977 4.81939 35.7174 5.02075L30.8722 6.05271V6.55611C32.4957 6.16598 34.1443 5.83877 35.7803 5.53673C36.397 5.38571 36.7116 5.62483 36.8626 6.0653C37.1269 7.1476 37.366 8.10405 37.6303 9.19894C37.7687 9.63941 37.6429 10.0925 37.1898 10.2687C36.0194 10.6588 35.8558 11.1622 36.1704 12.2571C37.6681 17.3288 38.6748 23.2689 37.2905 28.3909C35.7929 33.9534 31.6776 37.666 26.1277 38.8364C24.6049 39.151 23.3842 39.302 22.1383 39.302H22.1257C20.905 39.302 19.6591 39.151 18.1363 38.8364C12.5612 37.666 8.47108 33.9409 6.97348 28.3909C5.58914 23.2689 6.58335 17.3288 8.09354 12.2571C8.42074 11.1622 8.24456 10.6462 7.07416 10.2687C6.6211 10.0925 6.49525 9.63941 6.63369 9.19894C6.89797 8.11664 7.13708 7.16018 7.40137 6.0653C7.5398 5.62483 7.86701 5.38571 8.48367 5.53673C10.1071 5.83877 11.7306 6.15339 13.3414 6.53094L13.3289 6.02754L8.55918 5.00817C7.7915 4.83198 7.16225 5.19694 6.91056 5.87652L6.15546 8.98499C5.97927 9.71492 6.15546 10.4826 6.92314 10.7469C7.7915 11.0489 7.82925 11.288 7.56497 12.1312C6.02961 17.2659 5.03541 23.294 6.44491 28.5042C8.08095 34.2681 12.3095 38.1442 18.0734 39.3524ZM22.5662 38.9622C24.6301 38.8741 27.2352 38.4085 28.9971 37.6156C39.3041 33.0096 38.7 21.1923 35.8684 12.3452C35.516 10.9608 35.516 10.4952 37.0891 9.87852C37.3157 9.79043 37.3912 9.57648 37.2779 9.32479L36.548 6.26666C36.4473 5.95203 36.2208 5.86394 35.9188 5.95203C34.2198 6.2289 32.546 6.56869 30.8848 6.99658L30.8974 10.8727V26.3396C30.8974 33.0096 23.8498 30.6939 22.2767 34.1296C22.2264 34.2051 22.1886 34.3184 22.1383 34.3687C22.1005 34.2932 22.0502 34.18 22.0124 34.1296C20.4393 30.7065 13.3918 33.0347 13.3918 26.3396V10.8601L13.354 6.95882C11.7054 6.54352 10.0568 6.20373 8.3704 5.92686C8.06837 5.83877 7.84184 5.92686 7.74116 6.24149L7.01124 9.29962C6.92314 9.5639 6.99865 9.76526 7.20001 9.85335C8.77312 10.4826 8.77312 10.9357 8.42074 12.32C5.58914 21.1672 4.97248 32.9592 15.2921 37.5905C17.054 38.3707 19.6591 38.849 21.723 38.9371C21.8992 38.9622 22.3522 38.9622 22.5662 38.9622ZM34.2198 23.6338C33.6283 23.6338 33.1501 24.0995 33.1501 24.7035C33.1501 25.295 33.6157 25.7733 34.2198 25.7733C34.8113 25.7733 35.2895 25.3076 35.2895 24.7035C35.2895 24.112 34.7987 23.6338 34.2198 23.6338ZM10.3336 7.65099C10.9251 7.65099 11.4034 8.11664 11.4034 8.72071C11.4034 9.32479 10.9377 9.79043 10.3336 9.79043C9.72957 9.79043 9.26393 9.32479 9.26393 8.72071C9.26393 8.11664 9.74216 7.65099 10.3336 7.65099ZM33.8171 7.68875C34.4086 7.68875 34.8868 8.15439 34.8868 8.75847C34.8868 9.36254 34.4211 9.82818 33.8171 9.82818C33.2256 9.82818 32.7474 9.36254 32.7474 8.75847C32.7474 8.15439 33.2382 7.68875 33.8171 7.68875ZM10.0694 23.6338C10.6609 23.6338 11.1391 24.0995 11.1391 24.7035C11.1391 25.295 10.6734 25.7733 10.0694 25.7733C9.46529 25.7733 8.99965 25.3076 8.99965 24.7035C9.01223 24.112 9.47788 23.6338 10.0694 23.6338ZM13.0646 31.449C13.6561 31.449 14.1343 31.9147 14.1343 32.5188C14.1343 33.1102 13.6686 33.5885 13.0646 33.5885C12.4731 33.5885 11.9949 33.1228 11.9949 32.5188C11.9949 31.9273 12.4605 31.449 13.0646 31.449ZM31.1994 31.449C31.7909 31.449 32.2691 31.9147 32.2691 32.5188C32.2691 33.1102 31.8035 33.5885 31.1994 33.5885C30.6079 33.5885 30.1297 33.1228 30.1297 32.5188C30.1297 31.9273 30.6205 31.449 31.1994 31.449ZM10.3336 8.19215C10.6105 8.19215 10.837 8.41867 10.837 8.69554C10.837 8.97241 10.6105 9.19894 10.3336 9.19894C10.0568 9.19894 9.83025 8.97241 9.83025 8.69554C9.80508 8.41867 10.0568 8.19215 10.3336 8.19215ZM33.8171 8.2299C34.0939 8.2299 34.3205 8.45643 34.3205 8.7333C34.3205 9.01016 34.0939 9.26186 33.8171 9.26186C33.5402 9.26186 33.3137 9.03533 33.3137 8.7333C33.3137 8.45643 33.5402 8.2299 33.8171 8.2299ZM10.0694 24.2001C10.3462 24.2001 10.5728 24.4267 10.5728 24.7035C10.5728 24.9804 10.3462 25.2069 10.0694 25.2069C9.7925 25.2069 9.56597 24.9804 9.56597 24.7035C9.56597 24.4267 9.7925 24.2001 10.0694 24.2001ZM13.0646 31.9902C13.3414 31.9902 13.568 32.2167 13.568 32.4936C13.568 32.7705 13.3414 32.997 13.0646 32.997C12.7877 32.997 12.5612 32.7705 12.5612 32.4936C12.536 32.2419 12.7625 31.9902 13.0646 31.9902ZM31.1994 31.9902C31.4763 31.9902 31.7028 32.2167 31.7028 32.4936C31.7028 32.7705 31.4763 32.997 31.1994 32.997C30.9225 32.997 30.696 32.7705 30.696 32.4936C30.696 32.2419 30.9225 31.9902 31.1994 31.9902Z" fill="#FFCA05"/>
<path d="M7.01111 17.7315L11.3151 10.8601H13.8195V5.3731H13.744H13.0896V4.7061V3.82516V3.39727H13.7314C14.9144 3.39727 15.3171 3.67414 16.1729 4.69351C17.0287 3.67414 17.3936 3.39727 18.6144 3.39727H19.0045V3.81257V4.7061V5.29759H18.7906C18.7402 5.29759 18.7151 5.29759 18.6899 5.29759V7.94042H19.6212V5.29759H19.5457H19.3317V4.7061V3.82516V3.39727H19.7219C20.9929 3.43502 21.3076 3.67414 22.1633 4.69351C23.0191 3.67414 23.3841 3.35951 24.6048 3.39727H24.9949V3.81257V4.7061V5.29759H24.781C24.7306 5.29759 24.7055 5.29759 24.6803 5.29759V7.94042H25.5487V5.29759H25.4732H25.297V4.7061V3.82516V3.39727H25.6242C26.8449 3.35951 27.2099 3.67414 28.0656 4.69351C28.9214 3.67414 29.3367 3.35951 30.5071 3.39727H31.1489V3.81257V4.7061V5.3731H30.4819C30.4316 5.3731 30.4064 5.3731 30.3813 5.3731L30.3939 10.8601H32.8605L37.2149 17.656L38.4734 17.1903C38.5489 16.8631 38.7376 16.5737 39.0145 16.4352C39.5934 16.1584 40.3233 16.5233 40.6757 17.2407C41.0281 17.958 40.8519 18.776 40.273 19.0403C39.971 19.1787 39.6312 19.1661 39.3165 18.99L36.3969 20.7141L36.9002 22.4634L36.7115 22.8661H35.8557L34.6475 21.6202L30.4064 23.2059L30.419 26.2137V26.2263C36.1703 28.7558 38.5615 32.0405 30.1925 29.4606L29.6639 29.2718C28.0027 32.0783 23.9126 30.7191 22.1256 33.6136C20.7664 30.9582 16.2862 31.965 14.5369 29.2089L13.807 29.4858C5.31214 32.1034 7.90463 28.7055 13.8195 26.1508V23.3192L9.3519 21.6454L8.14375 22.8913H7.28797L7.0992 22.4886L7.6026 20.7393L4.6829 19.0151C4.36828 19.1913 4.0159 19.2039 3.72645 19.0655C3.14754 18.7886 2.97135 17.9832 3.32373 17.2658C3.67611 16.5485 4.41862 16.1835 4.98494 16.4604C5.28697 16.5988 5.45058 16.8757 5.52609 17.2155L7.01111 17.7315Z" fill="#231F20"/>
<path fill-rule="evenodd" clip-rule="evenodd" d="M14.2467 10.86V5.04578C14.2341 4.85701 14.1208 4.71858 13.7559 4.71858V4.15225C14.9766 4.13967 15.7317 4.55497 16.1847 5.4485C16.6378 4.55497 17.4055 4.13967 18.6136 4.15225V4.70599C18.2487 4.70599 18.1102 4.84442 18.0851 5.0332V8.58214H20.2119V5.04578C20.1993 4.85701 20.0861 4.71858 19.7211 4.71858V4.15225C20.9418 4.13967 21.6969 4.55497 22.15 5.4485C22.603 4.55497 23.3707 4.13967 24.5789 4.15225V4.70599C24.2139 4.70599 24.0755 4.84442 24.0503 5.0332V8.58214H26.1142V5.04578C26.1016 4.85701 25.9884 4.71858 25.6234 4.71858V4.15225C26.8442 4.13967 27.5992 4.55497 28.0523 5.4485C28.5054 4.55497 29.273 4.13967 30.4812 4.15225V4.70599C30.0911 4.70599 29.9778 4.84442 29.9526 5.0332V10.8474H18.2487C17.783 10.8474 17.3803 10.9733 17.1286 11.3005C16.8643 10.9984 16.5749 10.8852 16.2603 10.8474H14.2467V10.86ZM14.3473 18.5745C15.5052 18.4487 16.6504 18.348 17.8082 18.2725C16.6881 19.3674 16.0086 20.9153 16.0086 22.6017C16.0086 25.9871 18.7521 28.7306 22.1374 28.7306C25.5227 28.7306 28.2662 25.9871 28.2662 22.6017C28.2662 20.9028 27.5867 19.3926 26.4666 18.2725C27.6244 18.348 28.7696 18.4235 29.9149 18.5494V26.1003C29.9904 28.5166 29.0088 30.0897 26.7686 30.6057C22.5779 31.6251 23.0058 31.9145 22.1374 32.8081C21.269 31.9145 21.6969 31.6251 17.5062 30.6057C15.266 30.0771 14.297 28.504 14.3599 26.1003V18.5745H14.3473Z" fill="#EF4E23"/>
<path fill-rule="evenodd" clip-rule="evenodd" d="M39.1904 16.6994C39.0394 16.7749 38.9136 16.9133 38.8381 17.0895C38.8381 17.0895 38.8507 17.0769 38.8758 17.0769C39.266 16.8882 39.7694 17.1273 39.9959 17.6181C40.1469 17.9453 40.1469 18.3229 40.0085 18.5746C40.021 18.5746 40.0588 18.562 40.084 18.5368C40.4867 18.348 40.6125 17.7691 40.3608 17.2657C40.1091 16.7749 39.5806 16.5106 39.1904 16.6994ZM4.85884 16.6994C5.00986 16.7749 5.13571 16.9133 5.21122 17.0895C5.21122 17.0895 5.19863 17.0769 5.17346 17.0769C4.78333 16.8882 4.27994 17.1273 4.05341 17.6181C3.90239 17.9453 3.90239 18.3229 4.04082 18.5746C4.02824 18.5746 3.99048 18.562 3.96531 18.5368C3.5626 18.348 3.43675 17.7691 3.68844 17.2657C3.94014 16.7749 4.46871 16.5106 4.85884 16.6994ZM11.6421 20.9657L13.8067 21.7837V20.2861L10.4843 19.0276C10.4088 19.833 10.8744 20.7014 11.6421 20.9657ZM30.1671 27.9503L35.1004 29.8003C34.2949 28.6173 32.5456 27.5853 30.4188 26.5911C30.3936 27.0694 30.3433 27.4595 30.1671 27.9503ZM10.5976 17.3286L10.2829 18.5871L10.0061 18.499L8.6469 21.3306L9.09995 21.4817L8.00506 22.5766L7.58976 22.564L8.04282 21.3055L10.1697 17.4042L10.5976 17.3286ZM7.69044 18.6249C7.32548 18.864 7.18705 19.2919 7.33807 19.6065C7.37582 19.3674 7.55201 19.1157 7.86663 18.9647C8.18125 18.8137 8.53363 18.7507 8.82308 18.8263C8.8105 18.7885 8.78533 18.7759 8.77274 18.7382C8.62173 18.5116 8.31969 18.4235 8.01765 18.4739C8.01765 18.4613 8.00506 18.4613 8.00506 18.4361C7.86663 18.2222 7.56459 18.1341 7.28773 18.2096C7.28773 18.197 7.27514 18.1718 7.27514 18.1593C7.13671 17.9453 6.85984 17.8824 6.59556 17.9453C6.59556 17.9327 6.58297 17.9076 6.58297 17.9076C6.44454 17.7188 6.19284 17.6433 5.94114 17.7188C5.94114 17.7062 5.92856 17.681 5.92856 17.681C5.75237 17.4167 5.37482 17.379 5.0602 17.5929C4.78333 17.7817 4.65748 18.1215 4.78333 18.3732C4.79592 18.1844 4.95952 17.9831 5.19863 17.8446C5.42516 17.7188 5.66427 17.6936 5.90339 17.7188C5.82788 17.7314 5.77754 17.7691 5.7272 17.8069C5.45033 17.9956 5.32448 18.3354 5.45033 18.5871C5.46292 18.3984 5.62652 18.197 5.86563 18.0586C6.09216 17.9327 6.35644 17.9076 6.58297 17.9327C6.50746 17.9453 6.44454 17.9831 6.36903 18.0334C6.05441 18.2473 5.92856 18.6123 6.05441 18.8892C6.06699 18.6752 6.24318 18.4739 6.50746 18.3354C6.74658 18.2096 7.03603 18.1593 7.27514 18.197C7.19963 18.2096 7.13671 18.2473 7.0612 18.2977C6.73399 18.5242 6.60814 18.9143 6.74658 19.1912C6.75916 18.9773 6.93535 18.7507 7.23739 18.5997C7.4765 18.4739 7.76595 18.4235 8.01765 18.4613C7.86663 18.5242 7.77854 18.5494 7.69044 18.6249ZM32.4072 20.9657L30.4439 21.6956V20.198L33.5524 19.0276C33.6405 19.833 33.1749 20.7014 32.4072 20.9657ZM14.0962 27.8874L8.96152 29.8255C9.77954 28.5795 11.6547 27.535 13.8948 26.503C13.8445 26.9058 13.92 27.4469 14.0962 27.8874ZM33.4517 17.3286L33.7664 18.5871L34.0432 18.499L35.4024 21.3181L34.9493 21.4691L36.0442 22.564L36.4595 22.5514L36.0065 21.2929L33.8796 17.3916L33.4517 17.3286ZM36.3588 18.6249C36.7112 18.864 36.8622 19.2919 36.7112 19.6065C36.6735 19.3674 36.4973 19.1157 36.1827 18.9647C35.868 18.8137 35.5157 18.7507 35.2262 18.8263C35.2388 18.7885 35.264 18.7759 35.2765 18.7382C35.4276 18.5116 35.7296 18.4235 36.0316 18.4739C36.0316 18.4613 36.0442 18.4613 36.0442 18.4361C36.1827 18.2222 36.4847 18.1341 36.7616 18.2096C36.7616 18.197 36.7741 18.1718 36.7741 18.1593C36.9126 17.9453 37.1894 17.8824 37.4537 17.9453C37.4537 17.9327 37.4663 17.9076 37.4663 17.9076C37.5922 17.7188 37.8564 17.6433 38.1081 17.7188C38.1081 17.7062 38.1207 17.681 38.1207 17.681C38.2969 17.4167 38.6745 17.379 38.9891 17.5929C39.266 17.7817 39.3918 18.1215 39.266 18.3732C39.2534 18.1844 39.0898 17.9831 38.8507 17.8446C38.6241 17.7188 38.3598 17.6936 38.1459 17.7188C38.2214 17.7314 38.2718 17.7691 38.3221 17.8069C38.599 17.9956 38.7248 18.3354 38.599 18.5871C38.5864 18.3984 38.4228 18.197 38.1837 18.0586C37.9571 17.9327 37.6928 17.9076 37.4663 17.9327C37.5418 17.9453 37.6047 17.9831 37.6803 18.0334C37.9949 18.2473 38.1207 18.6123 37.9949 18.8892C37.9823 18.6752 37.8061 18.4739 37.5418 18.3354C37.3027 18.2096 37.0133 18.1593 36.7741 18.197C36.8497 18.2096 36.9126 18.2473 36.9881 18.2977C37.3153 18.5242 37.4411 18.9143 37.3027 19.1912C37.2901 18.9773 37.1139 18.7507 36.8119 18.5997C36.5728 18.4739 36.2833 18.4235 36.0316 18.4613C36.1827 18.5242 36.2707 18.5494 36.3588 18.6249Z" fill="#A6A8AB"/>
<path fill-rule="evenodd" clip-rule="evenodd" d="M13.7939 20.4875L10.9245 19.4052C11.0126 19.6821 11.2391 20.0471 11.7048 20.2107L13.8065 20.9909V20.4875H13.7939ZM9.7793 29.2592C10.3708 28.5041 11.7929 27.6106 13.8694 26.6667C13.8694 26.8555 13.882 27.0568 13.9197 27.2204C12.2208 27.9504 11.4531 28.3405 9.7793 29.2592ZM34.4709 29.3473C33.8794 28.5922 32.4573 27.6987 30.3934 26.7548C30.3808 26.9436 30.3556 27.1449 30.3179 27.3085C32.0168 28.0259 32.8097 28.4286 34.4709 29.3473ZM30.4689 20.412L33.3508 19.3297C33.2627 19.6066 33.0362 19.9715 32.5706 20.1351L30.4689 20.9154V20.412Z" fill="white"/>
<path d="M18.2112 11.2H19.9354V13.3268H18.8908V12.6472H18.4755L18.2616 15.0258C18.4504 15.0258 18.7146 15.0132 18.8908 15.0132V14.1448L19.9605 14.1322C19.9605 14.9125 19.9605 15.7054 19.9605 16.4856L18.0351 16.5611C17.9595 16.5611 17.8966 16.5611 17.8211 16.5611C17.1038 16.4856 16.7892 15.8941 16.8647 15.2145L17.1919 12.018C17.2548 11.4265 17.6701 11.2 18.2112 11.2ZM8.81032 18.4111L9.6661 17.0016L9.67868 16.9638H9.71644L11.1259 16.8632L11.2518 16.8506L11.214 16.9764L10.8491 18.3356L12.4348 18.1468V18.1342H12.4851C14.4609 17.9455 16.4368 17.8196 18.3874 17.7441C18.3119 17.7945 18.2364 17.87 18.1609 17.9203C16.2858 17.9958 14.4232 18.1091 12.548 18.2853V18.2978H12.4977L10.7106 18.5244L10.5848 18.537L10.6226 18.4111L10.9875 17.0519L9.72902 17.14L8.93617 18.4992L8.81032 18.4111ZM25.8377 17.7315C28.3043 17.8196 30.771 18.0084 33.1999 18.3482L31.8029 12.8108H32.3063L35.3519 18.3482L35.1254 18.4363L32.1931 12.9493H32.0421L33.439 18.5244C30.9975 18.1972 28.5434 17.9958 26.0768 17.8951C25.9887 17.8574 25.9258 17.807 25.8377 17.7315ZM36.6859 17.87L36.9124 17.7819L32.7342 11.2H30.1669L31.438 17.2281C29.0468 17.0394 26.6305 16.9135 24.2017 16.8632C24.3527 16.9135 24.5037 16.989 24.6547 17.0394C26.9955 17.0897 29.3237 17.2155 31.6645 17.4043L31.6519 17.2785L30.3934 11.351H32.6335L36.6859 17.87ZM19.5956 17.0394C19.734 16.9638 19.8976 16.9135 20.0486 16.8632C17.582 16.9135 15.1154 17.0394 12.6235 17.2659L13.9198 11.2H11.4657L7.4134 17.7567L7.33789 17.8825L7.51408 17.9581L11.579 11.3762H13.7059L12.4348 17.3162L12.4222 17.4169L12.548 17.4043C14.8888 17.203 17.2548 17.0897 19.5956 17.0394ZM11.8685 12.7982L12.2334 12.8108L11.5161 15.5418L10.3457 15.6424L11.8685 12.7982ZM12.0446 12.9996L11.4028 15.3907L10.6729 15.4662L11.9565 12.9744L12.0446 12.9996ZM14.0708 12.6346L13.5171 15.2901L13.2402 15.3278L12.9256 16.9513C13.7059 16.8758 14.5113 16.8002 15.3167 16.7373L15.5307 15.1642C15.3167 15.1768 15.1279 15.1768 14.914 15.202L14.9518 15.0132L15.7698 14.9251C16.2606 14.8873 16.6381 14.837 16.7262 14.2078L16.9528 12.4207C17.0031 11.9802 16.9653 11.6908 16.8143 11.4894C16.6633 11.2755 16.3738 11.1874 15.9963 11.1874H14.1589L13.8443 12.6346H14.0708ZM15.5181 13.7673L15.1657 13.805L15.3545 12.6472H15.6691L15.5181 13.7673ZM20.4514 12.6346H20.1871V11.2H23.4214V13.0122H22.4398V12.6221H21.735V13.2261C22.0496 13.2261 22.2762 13.2261 22.5908 13.2261V14.3462H21.735V14.9628C21.9238 14.9628 22.2384 14.9628 22.4398 14.9628V14.5727H23.4717V14.7489V16.473C22.4398 16.4353 21.1939 16.4353 20.1745 16.4856C20.1745 15.9822 20.1745 15.4662 20.1745 14.9628H20.4514V12.6346ZM23.7486 11.2V16.473C24.2017 16.473 24.6547 16.5108 25.1078 16.5234V14.5098H25.5608C25.5608 15.1894 25.5608 15.869 25.5608 16.536C26.0139 16.5485 26.4544 16.5863 26.9074 16.6115L26.8948 11.2H25.5608V13.1255H25.1078V11.2H23.7486ZM27.1465 15.0761V16.6115C27.6373 16.6241 28.1785 16.687 28.6693 16.7121L28.77 15.504L29.2608 15.5418L29.3992 16.7877L29.5377 16.8002C30.0662 16.838 30.6074 16.9009 31.1234 16.9387L30.8087 15.3152L30.5696 15.3026L29.7516 11.2H27.5367L27.3227 12.6346H27.7128C27.6373 13.4527 27.5744 14.2833 27.4737 15.1013L27.1465 15.0761ZM28.8203 14.17H29.0972L28.9713 13.0122H28.8707L28.8203 14.17Z" fill="#EC1C24"/>
<path d="M18.2112 11.376C17.7581 11.376 17.4309 11.5522 17.368 12.043L17.0408 15.2396C16.9527 16.0198 17.4057 16.4226 18.035 16.3974L19.7843 16.3219C19.7843 15.6549 19.7843 14.9753 19.7843 14.3083C19.4822 14.3083 19.369 14.3083 19.0669 14.3209C19.0669 14.6481 19.0669 14.862 19.0669 15.1767C18.7901 15.1767 18.3496 15.1892 18.0727 15.2144L18.3118 12.4835C18.551 12.4835 18.8152 12.4835 19.0669 12.4835C19.0669 12.7226 19.0669 12.924 19.0669 13.1631C19.3438 13.1631 19.4822 13.1631 19.7843 13.1631C19.7843 12.5716 19.7843 11.9801 19.7843 11.376C19.2305 11.376 18.7775 11.376 18.2112 11.376ZM11.8684 12.7981L12.2333 12.8107L11.516 15.5416L10.3456 15.6423L11.8684 12.7981ZM18.4377 17.7188C16.4619 17.7943 14.5112 17.9076 12.5354 18.1089H12.485V18.1215L10.8993 18.3103L11.2643 16.9511L11.3021 16.8253L11.1762 16.8379L9.7667 16.9385H9.72895L9.71636 16.9763L8.86059 18.3858L7.55176 17.895L11.5915 11.3383H13.7184L12.4221 17.3161L12.4095 17.4168L12.5354 17.4042C14.9139 17.1902 17.2673 17.077 19.6081 17.0015C19.1928 17.2028 18.8152 17.4545 18.4377 17.7188ZM36.6858 17.8698L32.6083 11.3634H30.3682L31.6267 17.2909L31.6393 17.4168C29.311 17.228 26.9703 17.1021 24.6295 17.0518C25.0448 17.2406 25.4475 17.4923 25.8124 17.7566C28.2791 17.8446 30.7457 18.0334 33.1746 18.3732L31.7777 12.8359H32.2811L35.3266 18.3732L36.6858 17.8698ZM14.0582 12.4583H14.2847L13.6554 15.4409L13.3786 15.4787L13.1395 16.7372C14.0078 16.6617 14.3979 16.6113 15.1656 16.561L15.3166 15.3403C15.1279 15.3528 14.8132 15.378 14.7 15.378L14.8007 14.8494L15.5809 14.7613C16.0717 14.711 16.4745 14.7488 16.5374 14.1699L16.7513 12.408C16.8394 11.6403 16.6255 11.376 15.9459 11.376C15.367 11.376 14.851 11.376 14.2469 11.376L14.0582 12.4583ZM15.8704 12.4583L15.2034 12.4709L14.9517 13.9811L15.6564 13.9056L15.8704 12.4583ZM20.3506 12.4583C20.4261 12.4583 20.5394 12.4583 20.6149 12.4583C20.6149 13.3896 20.6149 14.1824 20.6149 15.1263H20.338V16.2967C21.2441 16.2841 22.3768 16.2464 23.2955 16.2841C23.2955 15.743 23.2955 15.2647 23.2955 14.7236C22.9934 14.7236 22.9053 14.7236 22.6159 14.7236C22.6159 14.8998 22.6159 14.9501 22.6159 15.1137C22.339 15.1137 21.8482 15.1137 21.5713 15.1137C21.5713 14.8117 21.5713 14.4719 21.5713 14.1573C21.8104 14.1573 22.1628 14.1573 22.4271 14.1573C22.4271 13.8552 22.4271 13.6916 22.4271 13.3896C22.188 13.3896 21.8104 13.3896 21.5713 13.3896C21.5713 13.075 21.5713 12.7604 21.5713 12.4457C21.7601 12.4457 22.4145 12.4457 22.6159 12.4457C22.6159 12.6345 22.6159 12.6219 22.6159 12.8359C22.8927 12.8359 22.9683 12.8359 23.2451 12.8359C23.2451 12.3073 23.2451 11.892 23.2451 11.3634C22.3516 11.3634 21.2315 11.3634 20.3506 11.3634C20.3506 11.7032 20.3506 12.1185 20.3506 12.4583ZM23.9247 16.2967V11.376C24.2519 11.376 24.5917 11.376 24.9441 11.376C24.9441 12.0178 24.9441 12.6471 24.9441 13.3015C25.1329 13.3015 25.5356 13.3015 25.7244 13.3015C25.7244 12.6597 25.7244 12.0053 25.7244 11.376H26.7186V15.2396V16.4226C26.3914 16.41 26.0767 16.3722 25.7244 16.3722C25.7244 15.7052 25.7244 15.013 25.7244 14.346C25.5356 14.346 25.1329 14.346 24.9441 14.346C24.9441 15.013 24.9441 15.6926 24.9441 16.3596C24.5917 16.3219 24.2771 16.2967 23.9247 16.2967ZM27.3226 15.2522H27.6373C27.7379 14.346 27.8134 13.377 27.9141 12.4583H27.5617L27.7128 11.376H29.6131L30.4311 15.4535L30.6702 15.4661L30.9093 16.7246C30.4689 16.6868 29.978 16.6365 29.5502 16.5987L29.4117 15.3528L28.6063 15.3025L28.5056 16.5107C28.1155 16.4981 27.6876 16.4351 27.3226 16.4226C27.2975 16.0953 27.3226 15.6045 27.3226 15.2522ZM29.2985 14.346L28.6566 14.3335L28.7447 12.8484H29.16L29.2985 14.346Z" fill="white"/>
<path fill-rule="evenodd" clip-rule="evenodd" d="M22.1249 28.7434C25.4977 28.7434 28.2538 25.9873 28.2538 22.6146C28.2538 19.2418 25.4977 16.4857 22.1249 16.4857C18.7522 16.4857 15.9961 19.2418 15.9961 22.6146C15.9961 25.9999 18.7522 28.7434 22.1249 28.7434Z" fill="#231F20"/>
<path fill-rule="evenodd" clip-rule="evenodd" d="M22.1253 28.3783C25.2841 28.3783 27.8766 25.7858 27.8766 22.627C27.8766 19.4682 25.2967 16.8757 22.1253 16.8757C18.9539 16.8757 16.374 19.4682 16.374 22.627C16.3866 25.7858 18.9665 28.3783 22.1253 28.3783Z" fill="white" stroke="#231F20" stroke-width="0.1172" stroke-miterlimit="22.9256"/>
<path fill-rule="evenodd" clip-rule="evenodd" d="M17.9349 19.9842C17.3434 19.9842 16.6386 20.475 16.4121 21.5951C16.6261 20.0975 17.6832 18.3985 19.2815 17.5427C19.143 17.7693 19.143 17.958 19.2437 18.172C18.6145 18.6376 18.1614 19.2165 17.9349 19.9842Z" fill="#E6E7E8"/>
<path fill-rule="evenodd" clip-rule="evenodd" d="M22.1133 22.5893C21.5847 22.0104 21.0939 21.4064 20.666 20.7519C20.8925 20.1101 21.3456 19.569 22 19.1033C22.8558 19.0656 23.5857 19.3173 24.2024 19.8207C24.5296 20.5506 24.517 21.2302 24.3408 21.8972C23.6109 22.1866 22.881 22.4131 22.1133 22.5893Z" fill="#231F20"/>
<path fill-rule="evenodd" clip-rule="evenodd" d="M20.6401 20.7518C19.9731 20.8273 19.3061 20.9406 18.6643 21.2804C18.3371 20.8903 18.0728 20.475 17.9092 19.9842C18.4881 18.1971 20.0612 17.4168 21.2316 17.9077C21.5462 18.26 21.7602 18.6879 21.9489 19.1158C21.3826 19.5437 20.9044 20.0723 20.6401 20.7518Z" fill="#F1F1F2"/>
<path fill-rule="evenodd" clip-rule="evenodd" d="M17.9466 23.4449C17.5564 23.3568 17.2166 23.3945 16.902 23.4323C16.6377 23.1176 16.3609 22.7275 16.3735 22.0983C16.3735 21.9598 16.3735 21.7962 16.4112 21.6578C16.449 21.469 16.4993 21.2928 16.5496 21.1166C16.8517 20.3616 17.3928 19.9966 17.9466 19.984C18.085 20.4497 18.3367 20.8775 18.7017 21.2803C18.1983 21.9473 17.934 22.6394 17.9466 23.4449Z" fill="#231F20"/>
<path fill-rule="evenodd" clip-rule="evenodd" d="M18.6892 21.2679C19.2681 20.9659 19.9477 20.8149 20.6651 20.7394C21.1055 21.3812 21.5963 21.9979 22.1123 22.5768C21.8103 23.2815 21.6089 23.9863 21.4453 24.691C20.6399 25.0057 19.9225 25.0812 19.1926 25.1063C18.4375 24.5778 18.0726 24.024 17.9467 23.4326C17.9341 22.6775 18.1984 21.9601 18.6892 21.2679Z" fill="#F1F1F2"/>
<path fill-rule="evenodd" clip-rule="evenodd" d="M16.902 23.4071C16.4616 22.9038 16.2602 22.3248 16.3986 21.6453C16.3483 21.9725 16.3105 22.3123 16.3105 22.6395C16.3105 23.684 16.6126 24.6782 17.2041 25.6221C16.9398 24.9551 16.8014 24.2126 16.902 23.4071Z" fill="#D0D2D3"/>
<path fill-rule="evenodd" clip-rule="evenodd" d="M16.9023 23.4072C17.2169 23.3694 17.5693 23.3694 17.9468 23.4197C18.1356 24.1497 18.5635 24.716 19.1927 25.0935C19.0921 25.8612 19.1927 26.4024 19.4948 26.7925C18.6264 27.0945 17.8713 26.6667 17.2043 25.6221C16.9275 24.9299 16.7764 24.2 16.9023 23.4072Z" fill="#E6E7E8"/>
<path fill-rule="evenodd" clip-rule="evenodd" d="M19.1932 25.1061C20.0616 25.0683 20.8041 24.9551 21.4459 24.6908C21.8109 25.3075 22.3143 25.8486 22.9309 26.3142C22.4653 27.0945 22.0752 27.535 21.7731 27.5602C20.7034 27.6482 20.0742 27.2581 19.4827 26.8051C19.1932 26.4149 19.0925 25.836 19.1932 25.1061Z" fill="#231F20"/>
<path fill-rule="evenodd" clip-rule="evenodd" d="M18.5635 26.8302C18.7019 27.4217 19.4696 27.7867 20.4135 28.1013C21.3951 28.4159 22.4396 28.4033 22.5655 28.1013C22.2005 28.0132 21.9866 27.7993 21.7978 27.5601C21.0679 27.5979 20.3254 27.4595 19.5073 26.8051C19.1801 26.9057 18.8655 26.9183 18.5635 26.8302Z" fill="#BBBDBF"/>
<path fill-rule="evenodd" clip-rule="evenodd" d="M18.5644 26.8304C18.2875 26.7423 17.8471 26.478 17.4443 25.9746C17.759 26.4654 18.5392 27.1576 19.0049 27.447C18.7783 27.2709 18.6147 27.0821 18.5644 26.8304Z" fill="#231F20"/>
<path fill-rule="evenodd" clip-rule="evenodd" d="M22.1008 22.5767C22.8811 22.4257 23.6236 22.1865 24.3409 21.8971C24.8947 22.3124 25.3603 22.8284 25.7001 23.4199C25.7127 24.2001 25.5491 24.9552 25.0205 25.6222C24.3787 25.9746 23.7243 26.2641 22.944 26.327C22.3903 25.8865 21.8743 25.3454 21.459 24.7035C21.5722 24.0239 21.7862 23.3066 22.1008 22.5767Z" fill="#D0D2D3"/>
<path fill-rule="evenodd" clip-rule="evenodd" d="M21.7852 27.5476C22.2005 27.4721 22.5654 26.9058 22.943 26.3017C23.7106 26.2513 24.3902 25.9745 25.0195 25.5969C25.2838 25.9493 25.5984 26.1507 25.9256 26.3268C25.8375 26.8806 25.5984 27.3462 24.4028 27.8622C23.3331 28.3782 22.2886 28.3404 21.7852 27.5476Z" fill="#929497"/>
<path fill-rule="evenodd" clip-rule="evenodd" d="M21.4453 28.3278C21.9361 28.3404 22.4269 28.3404 22.5276 28.1391C23.031 28.2649 23.4715 28.2272 23.8616 28.1013C23.2827 28.2775 22.7038 28.3782 22.1375 28.3782C21.8984 28.3782 21.6718 28.353 21.4453 28.3278Z" fill="#231F20"/>
<path fill-rule="evenodd" clip-rule="evenodd" d="M25.6747 23.4071C26.2159 23.3568 26.6689 23.1428 27.059 22.8534C28.242 23.986 26.6563 26.4401 25.9012 26.3646C25.5363 26.1758 25.2342 25.9241 24.9951 25.6347C25.4985 24.9802 25.725 24.2503 25.6747 23.4071Z" fill="#231F20"/>
<path fill-rule="evenodd" clip-rule="evenodd" d="M25.0947 27.5351C25.5478 27.233 25.7743 26.9436 25.9127 26.3647C26.3784 26.3772 27.1712 25.4963 27.4103 24.4769C27.4607 24.4769 27.5362 24.4769 27.5865 24.4895C27.1964 25.6599 26.391 26.6793 25.0947 27.5351Z" fill="#6D6E70"/>
<path fill-rule="evenodd" clip-rule="evenodd" d="M24.3279 21.9097C24.5041 21.2427 24.4663 20.5506 24.1895 19.8332C24.5418 19.4808 24.9949 19.2921 25.4983 19.2166C26.4925 19.6193 26.9078 20.1478 27.0588 20.7142C27.2979 21.809 27.2476 22.4131 27.0714 22.841C26.6687 23.1682 26.2156 23.3696 25.6871 23.3947C25.3598 22.8158 24.8942 22.325 24.3279 21.9097Z" fill="#BBBDBF"/>
<path fill-rule="evenodd" clip-rule="evenodd" d="M27.4109 24.4771C27.5115 23.8856 27.5115 23.3193 27.0585 22.8536C27.2473 22.4509 27.2347 21.721 27.0459 20.7268C27.2221 20.6513 27.3605 20.538 27.4864 20.3744C28.0779 21.8972 28.0275 23.2437 27.587 24.4771C27.5241 24.4897 27.4738 24.4771 27.4109 24.4771Z" fill="#808184"/>
<path fill-rule="evenodd" clip-rule="evenodd" d="M21.9742 19.1157C21.7854 18.6752 21.5715 18.2599 21.2568 17.9075C21.5715 17.1902 22.4398 17.0517 23.6731 17.4041C25.0197 17.7942 25.6112 18.4235 25.5105 19.2163C25.0071 19.3044 24.5541 19.4806 24.2017 19.833C23.5599 19.317 22.8425 19.0402 21.9742 19.1157Z" fill="#DBDCDD"/>
<path fill-rule="evenodd" clip-rule="evenodd" d="M25.4975 19.2166C25.5479 18.7761 25.3968 18.3608 24.8809 17.9581C25.057 17.87 25.271 17.8574 25.5479 17.9077C26.391 18.6125 27.0832 19.3928 27.4733 20.387C27.3349 20.5632 27.1965 20.6638 27.0329 20.7393C26.8944 20.0723 26.3785 19.5689 25.4975 19.2166Z" fill="#231F20"/>
<path fill-rule="evenodd" clip-rule="evenodd" d="M24.8936 17.9454C24.1385 17.4923 23.3583 17.2155 22.5025 17.2155C22.3641 17.0015 22.0998 16.8883 21.7852 16.775C23.1317 16.6995 24.3902 17.0393 25.548 17.895C25.2963 17.8321 25.0824 17.8699 24.8936 17.9454Z" fill="#A6A8AB"/>
<path fill-rule="evenodd" clip-rule="evenodd" d="M19.2434 18.1719C19.1427 17.958 19.1175 17.7566 19.2811 17.5427C20.011 17.0896 20.8542 16.8379 21.8107 16.7876C22.1127 16.8883 22.3644 17.0141 22.5154 17.2281C21.8862 17.2281 21.4709 17.4546 21.2695 17.9077C20.6403 17.6811 19.9985 17.6811 19.2434 18.1719Z" fill="#231F20"/>
<path fill-rule="evenodd" clip-rule="evenodd" d="M22.1008 22.5767C22.8811 22.4257 23.6236 22.1865 24.3409 21.8971H24.3535C23.5481 22.4382 22.1889 22.5389 22.2267 22.9416C22.2644 23.3318 22.0127 23.9862 21.6981 24.5022C21.4716 24.8671 22.7426 25.9872 22.944 26.3018C22.3903 25.8613 21.8743 25.3202 21.459 24.6784C21.5722 24.0239 21.7862 23.3066 22.1008 22.5767Z" fill="white"/>
<path fill-rule="evenodd" clip-rule="evenodd" d="M24.315 21.9095C24.8939 22.3248 25.3344 22.8408 25.6742 23.4323C25.7623 24.1119 25.5232 24.9677 24.9946 25.6347C24.3653 25.9871 23.6983 26.2765 22.9307 26.3394C25.5483 25.899 26.2405 23.533 24.315 21.9095Z" fill="#808184"/>
<path fill-rule="evenodd" clip-rule="evenodd" d="M25.75 19.3171C26.568 19.7073 26.933 20.1729 27.0588 20.7141C27.2979 21.809 27.2476 22.413 27.0714 22.8409C26.7065 23.1555 26.266 23.3443 25.8003 23.3946C27.4238 22.8913 27.1847 22.0858 26.8952 20.8399C26.7945 20.3869 26.3415 19.7073 25.75 19.3171Z" fill="#808184"/>
<path fill-rule="evenodd" clip-rule="evenodd" d="M24.3279 21.9098C24.5041 21.2428 24.4663 20.5506 24.1895 19.8333C24.4286 19.5941 24.7432 19.4305 25.0956 19.3047C24.8313 19.4054 24.416 19.7703 24.416 19.9213C24.416 20.0598 24.6299 20.4247 24.6048 20.6764C24.5922 21.0288 24.567 21.3434 24.7054 21.7462C24.9194 22.4132 25.8003 22.904 25.6871 23.4451C25.3221 22.841 24.8942 22.3251 24.3279 21.9098Z" fill="white"/>
<path fill-rule="evenodd" clip-rule="evenodd" d="M27.4109 24.477C27.5115 23.8855 27.5115 23.3192 27.0585 22.8535C27.2347 22.4382 27.2347 21.7209 27.0459 20.7267C27.5996 21.7712 27.1717 22.476 27.2347 22.8032C27.2473 22.9039 27.9017 23.8352 27.4109 24.477Z" fill="#BBBDBF"/>
<path fill-rule="evenodd" clip-rule="evenodd" d="M21.7979 27.5476C22.2006 27.4595 22.5529 26.8806 22.9305 26.3017C23.6982 26.2513 24.3652 25.9745 25.007 25.5969C25.2713 25.9493 25.5859 26.1507 25.9131 26.3268C25.5859 26.2765 25.2713 26.1381 25.0699 25.8738C24.4407 26.2388 23.7611 26.503 22.9934 26.5785C22.6914 27.0945 22.3264 27.4847 21.7979 27.5476Z" fill="#BBBDBF"/>
<path fill-rule="evenodd" clip-rule="evenodd" d="M25.8129 26.6919C25.6367 27.145 25.3599 27.4596 24.4034 27.9C23.5099 28.3028 22.6415 28.3405 22.0752 27.8875C22.6667 28.1517 23.5476 28.0259 24.4537 27.6106C25.1711 27.2582 25.5738 26.9813 25.8129 26.6919Z" fill="#6D6E70"/>
<path fill-rule="evenodd" clip-rule="evenodd" d="M25.6747 23.4072C26.1781 23.3569 26.6186 23.1681 26.9835 22.9038C26.7444 23.3191 25.9642 23.4953 25.9642 23.6337C26.0019 24.049 25.9516 24.2756 25.8635 24.6279C25.7628 24.9551 25.5992 25.2572 25.3601 25.5718C25.2342 25.7102 25.5363 26.0626 25.9012 26.3521C25.4985 26.1633 25.2216 25.899 24.9951 25.6221C25.4859 24.9677 25.7125 24.2378 25.6747 23.4072Z" fill="#58595B"/>
<path fill-rule="evenodd" clip-rule="evenodd" d="M22.1133 22.5892C21.5847 22.0103 21.0939 21.4062 20.666 20.7518C20.8925 20.1099 21.3456 19.5688 22 19.1031C22.0755 19.1031 22.151 19.1031 22.2265 19.1031C20.213 20.4497 20.9177 21.23 22.3272 22.5262C22.2391 22.5514 22.1762 22.5766 22.1133 22.5892Z" fill="#58595B"/>
<path fill-rule="evenodd" clip-rule="evenodd" d="M18.6897 21.2679C19.0924 21.0539 19.5454 20.9155 20.0362 20.8274C19.6839 20.9532 19.3567 21.0917 19.0546 21.2679C18.5638 21.5699 18.0352 22.6648 18.1108 23.4199C18.1989 24.2253 18.74 24.628 19.1805 25.1188C18.5386 24.7539 18.0604 24.0365 17.9346 23.4451C17.9346 22.6774 18.1989 21.96 18.6897 21.2679Z" fill="#D0D2D3"/>
<path fill-rule="evenodd" clip-rule="evenodd" d="M21.0431 21.3182C21.1186 21.3937 22.0373 22.5264 22.0877 22.5893C21.7856 23.2941 21.5843 23.9988 21.4207 24.7036C20.6152 25.0182 19.8979 25.0937 19.168 25.1189C20.439 24.8546 21.2319 24.7287 21.5969 23.6339C21.9744 22.5893 21.6598 22.3124 21.0431 21.3182Z" fill="#BBBDBF"/>
<path fill-rule="evenodd" clip-rule="evenodd" d="M19.1928 25.1061C20.0612 25.0683 20.8037 24.9551 21.4455 24.6908C21.7224 25.1564 22.0748 25.5843 22.5152 25.9619C21.886 25.4711 21.6217 25.2949 21.2693 25.1439C20.8163 24.9299 19.6962 25.2949 19.5452 25.534C19.369 25.7731 19.2306 26.1129 19.5578 26.8428C19.5452 26.8302 19.52 26.8051 19.5075 26.8051C19.1928 26.4149 19.0922 25.836 19.1928 25.1061Z" fill="#58595B"/>
<path fill-rule="evenodd" clip-rule="evenodd" d="M18.5512 21.1042C18.2744 20.777 18.0856 20.3869 17.9346 19.9716C18.4002 18.4111 19.6839 17.6308 20.7662 17.7692C19.042 17.807 17.5696 19.5815 18.5512 21.1042Z" fill="#E6E7E8"/>
<path fill-rule="evenodd" clip-rule="evenodd" d="M20.6404 20.7519C20.5901 20.7519 20.1119 20.8275 20.0615 20.8275C20.5146 20.7519 20.7285 20.2863 21.0431 19.8332C21.6598 18.9271 21.8612 19.1914 21.32 17.9958C21.5843 18.3231 21.7857 18.7006 21.9493 19.0907C21.3829 19.5438 20.9047 20.0724 20.6404 20.7519Z" fill="#D0D2D3"/>
<path fill-rule="evenodd" clip-rule="evenodd" d="M19.1928 25.144C19.0922 25.8991 19.2054 26.4403 19.4949 26.8052C18.6265 27.1073 17.8714 26.6794 17.2044 25.6349C17.1163 25.4209 16.7514 24.5022 16.9024 23.4325C16.9401 24.1624 17.0912 24.7413 17.2925 25.1818C17.7582 26.2767 18.5133 26.6165 18.765 26.4906C19.0041 26.3522 18.8153 25.8236 19.1928 25.144Z" fill="#BBBDBF"/>
<path fill-rule="evenodd" clip-rule="evenodd" d="M18.5635 26.8302C18.6138 27.0568 18.7522 27.2329 18.9536 27.4091C18.7271 26.9938 19.1424 26.9183 19.5325 27.0819C20.0359 27.2959 20.7784 27.6231 21.3825 27.5727C20.8413 27.4972 20.3128 27.4469 19.4948 26.8051C19.1801 26.9057 18.8655 26.9183 18.5635 26.8302Z" fill="#E6E7E8"/>
<path fill-rule="evenodd" clip-rule="evenodd" d="M19.5205 27.7617C19.7848 27.8875 20.0742 28.0008 20.414 28.1141C21.3957 28.4287 22.4402 28.4287 22.5409 28.1266C22.1508 28.0008 21.9871 27.7994 21.7732 27.5477C21.6851 27.5477 21.3831 27.5477 21.2824 27.5477C21.6977 27.7617 21.748 27.9379 21.6725 28.0385C21.4838 28.2273 20.7161 28.177 20.0113 27.9504C19.8351 27.8875 19.6841 27.8372 19.5205 27.7617Z" fill="#6D6E70"/>
<path fill-rule="evenodd" clip-rule="evenodd" d="M21.9746 19.1157C23.2709 18.9396 23.5351 19.6443 24.7936 19.2542C25.5613 19.0151 24.6174 17.7188 23.2709 17.3287C23.1702 17.2909 23.0821 17.2783 22.9688 17.2532C23.1953 17.2909 23.4219 17.3413 23.6736 17.4042C25.0202 17.7943 25.6116 18.4236 25.511 19.2164C25.0076 19.3045 24.5545 19.4807 24.2021 19.8331C23.5603 19.3171 22.843 19.0906 21.9746 19.1157Z" fill="#929497"/>
<path fill-rule="evenodd" clip-rule="evenodd" d="M17.9348 19.9841C17.6579 19.9841 17.3433 20.0848 17.0664 20.3365C17.2552 20.0974 17.5069 19.9841 17.746 19.8457C18.0984 19.6317 18.0984 19.1787 18.3249 18.8892C18.5388 18.6124 18.7905 18.4362 19.0297 18.1341C19.1052 18.0335 19.1052 17.7818 19.2184 17.6307C19.1177 17.8195 19.1303 17.9957 19.2184 18.1845C18.6143 18.6249 18.1613 19.2164 17.9348 19.9841Z" fill="white"/>
<path fill-rule="evenodd" clip-rule="evenodd" d="M16.9023 23.4072C17.217 23.3694 17.5693 23.3694 17.9469 23.4197C18.1357 24.1497 18.5636 24.716 19.1928 25.0935V25.1061C18.5761 24.8293 18.0602 24.3888 17.8085 23.7595C17.6952 23.4575 17.2547 23.5204 16.9023 23.4072Z" fill="white"/>
<path d="M15.2793 32.9465C15.2793 33.4751 15.2793 33.9785 15.2793 34.5071C15.5058 34.6077 15.7449 34.6958 15.9841 34.7839C15.9841 34.5196 15.9841 34.2554 15.9841 34.0037C16.1099 34.054 16.2232 34.0918 16.349 34.1421C16.349 34.8217 16.349 35.5264 16.349 36.206C16.198 36.1557 16.047 36.1053 15.9085 36.055C15.9085 36.2941 15.9085 36.5584 15.9085 36.8101C16.5378 37.024 17.167 37.2002 17.7837 37.3387C17.7837 37.0996 17.7837 36.8479 17.7837 36.6213C17.6453 36.5836 17.4817 36.5458 17.3432 36.5206C17.3432 35.8411 17.3432 35.1741 17.3432 34.4945C17.4691 34.5322 17.5823 34.57 17.7082 34.5952C17.7082 34.8594 17.7082 35.0986 17.7082 35.3628C17.9347 35.4132 18.1738 35.4635 18.4129 35.5139C18.4129 35.023 18.4129 34.5322 18.4129 34.0414C17.3558 33.7394 16.3238 33.387 15.2793 32.9465ZM20.3762 35.5013C20.2503 35.0986 20.1119 34.6833 19.986 34.2805C19.6211 34.2302 19.2561 34.1799 18.866 34.1295C18.866 34.3686 18.866 34.5952 18.866 34.8469C18.9918 34.8594 19.0925 34.8846 19.2184 34.8972C19.4449 35.4887 19.684 36.1053 19.9231 36.6968C19.8854 36.7849 19.8476 36.873 19.8224 36.9611C19.6463 36.9485 19.4952 36.9234 19.319 36.9108C19.319 37.1499 19.319 37.3764 19.319 37.6281C19.7344 37.6785 20.1371 37.7162 20.565 37.754C20.8796 36.8856 21.1942 36.0047 21.5214 35.1363C21.6221 35.1363 21.7479 35.1363 21.8486 35.1363C21.8486 34.9098 21.8486 34.6707 21.8486 34.4316C21.4837 34.4316 21.1313 34.419 20.7663 34.3938C20.6656 34.7336 20.5272 35.1237 20.3762 35.5013C20.4014 35.5013 20.3762 35.5013 20.3762 35.5013ZM22.4904 35.086C22.4904 34.8594 22.4904 34.6203 22.4904 34.3812C23.384 34.3435 24.1642 34.2554 25.0578 34.1421C25.0578 34.3812 25.0578 34.6077 25.0578 34.8594C24.9697 34.872 24.9067 34.8972 24.8187 34.8972C24.8187 35.5642 24.8187 36.2312 24.8187 36.8856C24.9067 36.873 24.9697 36.873 25.0578 36.8479C25.0578 37.087 25.0578 37.3135 25.0578 37.5652C24.655 37.6155 24.2397 37.6659 23.837 37.7036C23.837 36.8101 23.837 35.9166 23.837 35.0356C23.7867 35.0356 23.837 35.0482 23.7993 35.0482C23.5224 35.9417 23.2707 36.8479 22.9938 37.754C22.4527 37.7917 22.7673 37.7666 22.3268 37.7917C22.1003 37.7917 21.8864 37.7917 21.6598 37.7917C21.6598 37.5652 21.6598 37.3261 21.6598 37.087C21.8486 37.087 22.0248 37.087 22.2136 37.087C22.4275 36.42 22.6163 35.7781 22.8302 35.1111C22.7296 35.086 22.6163 35.086 22.4904 35.086ZM25.8884 36.6968C25.7625 36.7094 25.6493 36.7472 25.5234 36.7723C25.5234 37.0115 25.5234 37.238 25.5234 37.4897C25.9261 37.4142 26.3414 37.3387 26.7441 37.2506C26.7819 36.9485 26.8322 36.6591 26.87 36.3822C27.0839 36.3319 27.2727 36.2564 27.4866 36.206C27.5244 36.4829 27.5747 36.7472 27.6125 37.024C28.0152 36.8982 28.4305 36.7598 28.8332 36.6087C28.8332 36.3696 28.8332 36.1053 28.8332 35.8536C28.7074 35.904 28.5941 35.9417 28.4809 35.9921C28.355 35.3502 28.2417 34.6958 28.1159 34.054C28.204 34.0163 28.3047 33.9785 28.3928 33.9533C28.3928 33.7142 28.3928 33.4625 28.3928 33.1982C27.5873 33.5129 26.8071 33.7771 26.0016 34.0037C26.0016 34.2428 26.0016 34.4945 26.0016 34.721C26.0897 34.7084 26.1904 34.6707 26.2785 34.6455C26.1275 35.2999 26.0142 35.9921 25.8884 36.6968ZM27.4111 35.5894C27.2601 35.6397 27.0965 35.6775 26.9581 35.7278C27.0336 35.2244 27.1091 34.6958 27.1846 34.1924C27.2475 34.6455 27.323 35.1237 27.4111 35.5894Z" fill="#EC1C24"/>
<path d="M28.3679 6.85812L27.9274 7.85233H27.9149V6.85812H27.0968V7.31118H27.3234V8.60742H27.0968V9.07306H27.94V8.21729H28.2672V9.07306H29.1104V8.60742H28.8713V7.82716H28.5441L28.7706 7.32376H29.0475V6.87071L28.3679 6.85812ZM15.2041 7.34893H15.4306V8.64518H15.2041V9.09823H16.0473V7.34893H16.3619V9.09823H17.2051V8.63259H16.966V7.34893H17.1925V6.89588H15.2041V7.34893ZM23.2962 7.10982C23.2962 6.84554 23.0697 6.78261 22.8431 6.78261H22.4027V6.56867H22.7047V6.10303H21.4966V6.55608H21.8112V6.77003H21.3707C21.1316 6.77003 20.9176 6.84554 20.9176 7.09723L20.9051 8.22988C20.9051 8.5445 21.0812 8.64518 21.3959 8.64518H21.8112V8.87171H21.4966V9.33735H22.7047V8.87171H22.4027V8.64518H22.818C23.12 8.64518 23.3088 8.5445 23.3088 8.22988L23.2962 7.10982ZM22.7047 8.20471H22.4027V7.13499H22.7047V8.20471ZM21.8112 8.20471H21.4966V7.13499H21.7986V8.20471H21.8112Z" fill="#FFF100"/>
<path d="M11.8305 12.8234L12.208 12.8359L11.5033 15.5669L10.3203 15.6676L11.8305 12.8234Z" fill="#EC1C24"/>
<path d="M12.0065 12.9996L11.3647 15.4034L10.6348 15.4789L11.9184 12.9996H12.0065Z" fill="#231F20"/>
<path d="M15.871 12.4583L15.2291 12.4708L14.9648 13.981L15.6696 13.9181L15.871 12.4583Z" fill="#EC1C24"/>
<path d="M15.5185 13.7672L15.1787 13.7797L15.3675 12.6471L15.6821 12.6345L15.5185 13.7672Z" fill="#231F20"/>
<path d="M29.2989 14.3461L28.6445 14.321L28.7326 12.8359L29.1605 12.8611L29.2989 14.3461Z" fill="#EC1C24"/>
<path d="M28.8203 14.1699H29.0972L28.9965 13.0121H28.8958L28.8203 14.1699Z" fill="#231F20"/>
</svg>
