<svg width="44" height="44" viewBox="0 0 44 44" fill="none" xmlns="http://www.w3.org/2000/svg">
<path d="M23.8718 6.65567C23.78 6.65567 23.689 6.6275 23.6114 6.57161C23.4555 6.45896 23.39 6.25835 23.4494 6.0755L24.0638 4.17859L22.4581 3.00482C22.3034 2.8913 22.2388 2.69156 22.2986 2.50914C22.358 2.32673 22.5287 2.20325 22.7202 2.20325H24.7011L25.3121 0.308065C25.3714 0.124786 25.5417 0.000433283 25.7345 0.000433283C25.9273 0.000433283 26.0976 0.124786 26.1561 0.308065L26.7674 2.20325H28.7471C28.9395 2.20325 29.1097 2.32673 29.1691 2.50871C29.2289 2.69156 29.1643 2.8913 29.0097 3.00482L27.4052 4.17859L28.0205 6.07507C28.0803 6.25791 28.0149 6.45852 27.8589 6.57118C27.7813 6.6275 27.6903 6.65567 27.5985 6.65567C27.507 6.65567 27.4148 6.6275 27.3372 6.57031L25.7341 5.40131L24.1327 6.57031C24.0547 6.6275 23.9628 6.65567 23.871 6.65567H23.8718ZM16.5105 6.65567C16.4195 6.65567 16.3276 6.6275 16.2501 6.57118C16.0945 6.45852 16.0295 6.25791 16.0884 6.07507L16.7037 4.17815L15.0993 3.00439C14.9446 2.89087 14.88 2.69112 14.9398 2.50828C14.9992 2.32587 15.1695 2.20281 15.3614 2.20281H17.341L17.9533 0.307631C18.0118 0.124352 18.1825 0 18.3749 0C18.5677 0 18.7379 0.124352 18.7973 0.307631L19.4087 2.20281H21.3892C21.5811 2.20281 21.751 2.3263 21.8107 2.50871C21.8701 2.69156 21.806 2.8913 21.6504 3.00439L20.0447 4.17859L20.6591 6.07507C20.7185 6.25791 20.653 6.45809 20.497 6.57118C20.4195 6.6275 20.3281 6.65523 20.2366 6.65523C20.1448 6.65523 20.0534 6.62664 19.9749 6.56988L18.374 5.40131L16.7709 6.57031C16.6924 6.6275 16.601 6.65567 16.5092 6.65567H16.5105ZM21.5018 12.9192C22.0464 12.9448 22.5876 12.9985 23.1184 13.0804C23.2345 11.612 23.046 11.3143 22.9147 11.274C22.8922 11.2671 22.8692 11.2641 22.8458 11.2641C22.5517 11.2641 21.981 11.7823 21.5018 12.9192ZM20.858 15.6927C20.8476 15.8508 20.8415 16.0085 20.8402 16.1649C20.8389 16.2364 20.8376 16.3036 20.8389 16.3707C20.8424 16.5913 20.8541 16.8088 20.8736 17.0211C20.9269 16.9773 20.9789 16.9336 21.0295 16.8898C21.4325 16.5384 21.7743 16.1723 22.0616 15.7815C21.9498 15.765 21.8389 15.7507 21.7284 15.7382C21.4693 15.7078 21.205 15.6922 20.9412 15.6922C20.9139 15.6922 20.8857 15.6922 20.858 15.6931V15.6927ZM21.1617 33.8914C21.5512 33.959 21.9134 33.992 22.2579 33.992C22.7159 33.992 23.1457 33.9309 23.5361 33.8104C27.9958 32.4118 29.0235 28.4888 29.0998 25.4441C29.2142 20.9757 27.5322 17.7867 24.3554 16.4184C23.8471 17.178 23.2297 17.9479 22.517 18.7118C22.2388 19.006 21.9507 19.2954 21.6578 19.5744C22.4217 20.8271 23.7089 21.6182 25.4901 21.9298C25.6132 21.951 25.7219 22.0238 25.7887 22.1295C25.8554 22.2352 25.8749 22.3644 25.8411 22.4852C24.345 27.8922 22.8861 31.4577 21.1613 33.8919L21.1617 33.8914ZM14.4498 34.6679C14.4974 35.109 14.7119 35.1648 15.1023 35.2285C15.1591 35.2376 15.2132 35.2472 15.2604 35.2567C15.4 35.2541 15.5399 35.2398 15.6781 35.2134C16.0243 35.1506 16.3497 35.0141 16.6539 34.8057C16.1634 34.5531 15.6248 34.3048 15.3592 34.3048V33.8607L15.3475 34.3048C14.6686 34.3338 14.5026 34.5383 14.4494 34.6679H14.4498ZM14.9922 37.7139C13.6747 37.7139 12.4597 37.2173 11.7422 36.3858C11.192 35.7481 10.968 34.9538 11.0958 34.089C11.325 32.5292 12.8107 31.8182 14.0941 31.8182C14.1521 31.8182 14.2097 31.8199 14.2656 31.8229C15.2258 31.8411 16.4056 32.2991 17.6547 32.784C17.793 32.8377 17.9329 32.8918 18.0742 32.946C18.325 32.3732 18.5053 31.7332 18.5911 31.1063C19.0486 27.6851 19.1244 25.2461 18.8614 22.4086C18.8454 22.2244 18.8289 22.0424 18.812 21.86C18.075 22.3475 17.361 22.7417 16.7193 23.0147C16.6634 23.039 16.6045 23.0502 16.5456 23.0502C16.4606 23.0502 16.3757 23.026 16.302 22.9783C16.1786 22.8969 16.1027 22.7595 16.1019 22.6109L16.078 20.0472C16.0763 19.8786 16.1699 19.7239 16.3202 19.6477C16.585 19.5125 16.8493 19.3803 17.1101 19.2495C17.5872 19.0103 18.0425 18.7824 18.484 18.5484C18.4281 18.0077 18.371 17.4496 18.3086 16.8669C18.2995 16.7655 18.2891 16.6732 18.2787 16.5796L18.2665 16.4652C18.2605 16.4032 18.2548 16.3404 18.2501 16.2754C16.2722 17.1871 15.0616 19.0159 15.0512 21.1737C15.0481 21.7287 15.1361 22.4822 15.5733 22.922C15.8467 23.1967 16.2293 23.3301 16.7436 23.3301C16.8731 23.3301 17.0126 23.321 17.1569 23.3033C17.1751 23.3011 17.1929 23.3003 17.2111 23.3003C17.3242 23.3003 17.4342 23.3436 17.5174 23.4233C17.6131 23.5147 17.6634 23.6451 17.653 23.7777C17.5014 25.7661 15.848 27.2093 13.721 27.2093C12.9528 27.2093 12.1512 27.03 11.3376 26.6773C11.2986 26.6604 11.2617 26.637 11.2288 26.6097C9.58278 25.2236 9.02211 22.9155 9.72749 20.4358C10.5421 17.5757 13.3172 13.9773 18.4749 13.0969C19.1535 9.61889 20.9459 7.54996 23.306 7.54346C25.1279 7.64875 26.0729 9.67695 26.0785 11.6263C26.0824 12.2875 25.9602 12.9916 25.7159 13.7243C30.9672 15.5419 34.4651 20.0246 34.673 25.2626C34.884 32.0768 30.3329 37.3755 24.0859 37.5912C24.0239 37.5938 23.9611 37.5951 23.8983 37.5951C22.2614 37.5951 20.5174 36.8391 19.1275 36.1298C18.2691 36.8308 17.3471 37.304 16.3835 37.5397C16.052 37.6198 15.7145 37.6736 15.3796 37.6996C15.2513 37.71 15.1222 37.7143 14.9927 37.7143L14.9922 37.7139Z" fill="white"/>
<path d="M18.3752 0.443726L19.0862 2.64611H21.3895L19.5247 4.00965L20.2374 6.21159L18.3752 4.85152L16.5104 6.21159L17.2244 4.00965L15.3613 2.64611H17.6646L18.3752 0.443726Z" fill="#AF9C68"/>
<path d="M25.735 0.443726L26.4456 2.64611H28.748L26.8854 4.00965L27.5994 6.21159L25.735 4.85152L23.8719 6.21159L24.5851 4.00965L22.7207 2.64611H25.0244L25.735 0.443726Z" fill="#AF9C68"/>
<path fill-rule="evenodd" clip-rule="evenodd" d="M29.5445 25.4545C29.4383 29.679 27.6389 32.9884 23.6679 34.2337C22.6306 34.5535 21.5115 34.4594 20.3932 34.1808C22.5929 31.3745 24.1389 26.9771 25.4145 22.3661C23.1436 21.9696 21.8169 20.8691 21.1012 19.4882C21.4742 19.1437 21.8403 18.7819 22.193 18.4085C22.9396 17.6086 23.6267 16.7499 24.1839 15.8694C27.9314 17.291 29.6601 20.9085 29.5449 25.4545H29.5445ZM20.3967 16.1606C20.3993 15.8595 20.4183 15.5583 20.4517 15.2641C20.8832 15.2355 21.3304 15.2438 21.7784 15.2966C22.1306 15.336 22.4712 15.3941 22.8001 15.4639C22.4014 16.1498 21.8971 16.7226 21.32 17.2252C21.0734 17.4383 20.813 17.6389 20.5409 17.83C20.4491 17.353 20.404 16.8668 20.3954 16.3777C20.3941 16.3057 20.3954 16.2329 20.3967 16.1606ZM23.0453 10.8498C23.5917 11.0175 23.703 11.8178 23.5158 13.5981C22.6618 13.4378 21.7758 13.352 20.8676 13.3464C21.4058 11.7316 22.3009 10.6215 23.0453 10.8503V10.8498ZM15.7602 35.6492C15.5847 35.6826 15.4027 35.7008 15.2129 35.7008C14.8728 35.6124 14.0634 35.6661 14.0006 34.6159C14.1553 34.0491 14.7246 33.8871 15.3316 33.8611C15.768 33.8446 16.5136 34.2194 17.4391 34.7198C16.9811 35.1869 16.4231 35.5284 15.7602 35.6492ZM34.2295 25.2799C34.0211 20.0333 30.3209 15.6177 25.1428 14.0024C25.4578 13.2017 25.6389 12.4001 25.635 11.6271C25.6294 9.77702 24.7632 8.07118 23.3066 7.98669C20.6137 7.99406 19.3026 10.8767 18.8546 13.4855C10.8286 14.6606 7.64443 23.0099 11.514 26.27C14.6358 27.6248 17.0375 26.0078 17.2103 23.7435C15.2515 23.9839 14.5977 22.7504 14.6072 21.1715C14.6193 18.5081 16.329 16.4444 18.6683 15.6294C18.6709 15.9158 18.6835 16.1801 18.7077 16.4184C18.7216 16.5531 18.7376 16.6853 18.7493 16.8192C18.8234 17.5098 18.8906 18.1658 18.9556 18.7984C18.1826 19.2187 17.3594 19.616 16.5214 20.0428L16.5461 22.607C17.3468 22.266 18.255 21.7339 19.1826 21.0654C19.2233 21.5012 19.2671 21.9332 19.3035 22.3678C19.5535 25.0637 19.5223 27.4957 19.0314 31.1661C18.93 31.9139 18.6891 32.754 18.2996 33.5071C16.7628 32.9291 15.3325 32.2874 14.2432 32.2662C13.2151 32.2129 11.7471 32.7159 11.5353 34.1544C11.2229 36.2706 13.3875 37.4105 15.3455 37.2572C15.6648 37.2325 15.9764 37.1818 16.2784 37.1085C17.3031 36.8585 18.2268 36.336 19.0678 35.5994C20.6371 36.4187 22.4409 37.2069 24.0709 37.1484C30.174 36.9374 34.4292 31.7324 34.2299 25.2808L34.2295 25.2799Z" fill="#1D4E9B"/>
</svg>
