<svg width="44" height="44" viewBox="0 0 44 44" fill="none" xmlns="http://www.w3.org/2000/svg">
<path fill-rule="evenodd" clip-rule="evenodd" d="M40.8569 34.0323C39.3719 32.6834 37.9614 31.6253 35.8701 31.0542C35.9082 30.9712 35.9443 30.8877 35.9782 30.8038C36.5445 29.5243 37.2326 27.9899 36.1818 27.218C35.9859 27.0745 35.0169 26.6798 34.8125 26.6068C35.0316 25.6491 35.1837 24.6958 35.2699 23.7147C35.3567 22.7261 35.3661 21.742 35.3303 20.7504C35.2747 19.2085 35.1558 17.8312 35.0857 16.2886C34.888 11.9327 35.7122 7.9941 35.8543 7.22427C33.4176 6.24236 28.7734 3.52916 21.9998 3.52014H21.9996C15.226 3.52916 10.5819 6.24236 8.14512 7.22307C8.28721 7.99305 9.11146 11.9315 8.91374 16.287C8.84368 17.8301 8.72482 19.2075 8.66911 20.7493C8.6334 21.7409 8.6428 22.725 8.72956 23.714C8.81571 24.6958 8.96787 25.6483 9.18694 26.6068C8.98246 26.6798 8.01356 27.0752 7.81764 27.2188C6.76687 27.9909 7.4549 29.5253 8.02122 30.8048C8.05505 30.889 8.09129 30.9725 8.12933 31.0552C6.03801 31.6258 4.62751 32.6835 3.14258 34.033C4.40663 34.018 5.58964 34.0503 6.85024 34.1315C6.14356 35.2885 5.84766 36.998 5.73985 38.1377C9.18228 35.1479 13.0899 35.0141 13.0899 35.0141C16.1068 39.1361 21.5272 40.342 21.9996 40.4405H21.9998C22.4723 40.342 27.8925 39.1361 30.9095 35.0148C30.9095 35.0148 34.8172 35.1486 38.2597 38.1392C38.1518 36.9995 37.8558 35.29 37.1492 34.133C38.4097 34.0525 39.5928 34.0195 40.8569 34.0352" fill="#FFFFFE"/>
<path fill-rule="evenodd" clip-rule="evenodd" d="M33.1024 33.5508L33.1963 33.5178C33.3751 33.5178 33.3407 33.5191 33.4519 33.4944C33.6061 33.4602 33.9609 33.3691 34.0327 32.8882C34.0675 32.6559 34.071 32.5045 34.07 32.4954L34.0685 32.4817L33.9753 32.0043C34.4158 31.9149 34.724 31.712 34.724 31.712C35.6788 31.7684 37.1846 32.3601 38.3454 33.1726C37.2034 33.2031 36.3569 33.1677 35.5924 33.4748C36.2554 34.0856 36.2216 34.7686 36.7358 35.9533C35.233 35.0131 33.7873 34.4873 32.2003 34.3057C31.5823 34.235 30.7321 34.1234 30.4336 33.9924C30.5381 33.8391 30.9832 33.3333 31.0854 33.1726C31.4936 33.2433 32.5258 33.5508 33.1047 33.5508" fill="#005534"/>
<path fill-rule="evenodd" clip-rule="evenodd" d="M31.7328 32.5614C31.7719 32.4936 31.811 32.425 31.85 32.3562C31.9684 32.1469 32.0862 31.9323 32.2039 31.712L33.4461 32.0446C33.4358 32.0483 33.4258 32.0527 33.4155 32.0564L33.4592 32.0482L33.5803 32.0812L33.6663 32.5225C33.6698 32.5556 33.6847 32.7225 33.6583 32.8917C33.6282 33.0819 33.6034 33.2833 33.5057 33.3051C33.42 33.3239 33.2441 33.33 33.0884 33.33C32.5847 33.33 31.8593 33.1758 31.4082 33.1014C31.5074 32.9383 31.6322 32.7338 31.7307 32.5639" fill="#005534"/>
<path fill-rule="evenodd" clip-rule="evenodd" d="M30.2038 33.8581C30.5364 33.9055 31.3641 34.0128 32.0152 34.1116C33.6248 34.356 35.0975 34.7502 36.6011 35.6904C36.25 34.8007 35.9049 34.0471 35.3351 33.3223C36.0726 33.1796 36.8048 33.0709 37.9476 33.0403C36.7921 32.2619 35.5539 31.9439 34.6637 31.8488C34.6637 31.8488 34.3999 31.9089 33.9601 31.9981L34.0533 32.4755L34.0555 32.4893C34.0563 32.4983 34.0826 32.7148 34.048 32.9471C33.9759 33.428 33.7067 33.5571 33.5519 33.5912C33.4406 33.6161 33.2993 33.6281 33.1203 33.6281C32.5415 33.6281 31.6761 33.479 31.2679 33.4083C31.307 33.3471 31.313 33.2852 31.3521 33.2228C31.3905 33.1612 31.4739 33.1139 31.5115 33.0512C31.9378 33.1212 32.6354 33.2423 33.1121 33.2423C33.2587 33.2423 33.3744 33.2333 33.4549 33.2153C33.5473 33.1948 33.5955 33.104 33.5511 33.0251C33.4707 32.8843 33.6541 32.5763 33.6511 32.545L33.5691 32.1277L33.4541 32.0969L33.4413 32.0932L32.2655 31.7782C32.2979 31.7173 32.3302 31.6564 32.3625 31.594C32.3941 31.5331 32.4264 31.4714 32.458 31.4098L33.9165 31.8L33.9308 31.8714V31.8706C34.0676 31.7962 34.2615 31.6789 34.3743 31.5677L34.4999 31.4384L34.6818 31.4489C37.2273 31.703 39.182 33.3765 39.182 33.3765C39.182 33.3765 37.407 33.3998 36.1064 33.6185C37.1875 35.4228 37.3739 36.7114 37.3739 36.7114L36.3365 36.0679C34.8976 35.2116 33.7383 34.7951 32.1287 34.5417C31.5506 34.45 30.5748 34.2974 30.0508 34.2155C30.1282 34.1072 30.1214 33.9674 30.1981 33.8554" fill="#1A1919"/>
<path fill-rule="evenodd" clip-rule="evenodd" d="M10.9405 33.5508L10.8465 33.5178C10.6677 33.5178 10.7021 33.5191 10.5909 33.4944C10.4368 33.4602 10.0819 33.3691 10.0101 32.8882C9.97531 32.6559 9.97177 32.5045 9.97275 32.4954L9.97501 32.4817L10.0681 32.0043C9.62768 31.9149 9.3193 31.712 9.3193 31.712C8.36453 31.7684 6.8587 32.3601 5.69824 33.1726C6.84081 33.2031 7.68694 33.1677 8.45189 33.4748C7.78904 34.0856 7.82317 34.7686 7.30842 35.9533C8.81154 35.0131 10.2573 34.4873 11.8441 34.3057C12.4624 34.235 13.3129 34.1234 13.6108 33.9924C13.5067 33.8391 13.0618 33.3333 12.9593 33.1726C12.5511 33.2433 11.519 33.5508 10.9405 33.5508Z" fill="#005534"/>
<path fill-rule="evenodd" clip-rule="evenodd" d="M12.3006 32.5614C12.2615 32.4936 12.2224 32.425 12.1834 32.3562C12.065 32.1469 11.9472 31.9323 11.8295 31.712L10.5873 32.0446C10.5975 32.0483 10.6076 32.0527 10.6178 32.0564L10.5742 32.0482L10.4531 32.0812L10.3673 32.5225C10.3643 32.5556 10.3493 32.7225 10.3756 32.8917C10.4057 33.0819 10.4305 33.2833 10.5275 33.3051C10.6132 33.3239 10.7891 33.33 10.944 33.33C11.4477 33.33 12.1731 33.1758 12.6242 33.1014C12.525 32.9383 12.3994 32.7338 12.3017 32.5639" fill="#005534"/>
<path fill-rule="evenodd" clip-rule="evenodd" d="M13.8567 33.8581C13.5241 33.9055 12.6964 34.0128 12.0452 34.1116C10.4352 34.356 8.96262 34.7502 7.45934 35.6904C7.8102 34.8007 8.15475 34.0471 8.7249 33.3223C7.98665 33.1796 7.25441 33.0709 6.11244 33.0403C7.26719 32.2619 8.50538 31.9439 9.39625 31.8488C9.39625 31.8488 9.65937 31.9089 10.0999 31.9981L10.0067 32.4755L10.0044 32.4893C10.0029 32.4983 9.97663 32.7148 10.012 32.9471C10.0834 33.428 10.3533 33.5571 10.5074 33.5912C10.6187 33.6161 10.7592 33.6281 10.9382 33.6281C11.5163 33.6281 12.3816 33.479 12.7898 33.4083C12.7507 33.3471 12.744 33.2852 12.7049 33.2228C12.6665 33.1612 12.5831 33.1139 12.5447 33.0512C12.1185 33.1212 11.4201 33.2423 10.9442 33.2423C10.7968 33.2423 10.6818 33.2333 10.6006 33.2153C10.5081 33.1948 10.4593 33.104 10.5044 33.0251C10.5841 32.8843 10.4006 32.5763 10.4044 32.545L10.4856 32.1277L10.5999 32.0969L10.6119 32.0932L11.7877 31.7782C11.7546 31.7173 11.7223 31.6564 11.6899 31.594C11.6576 31.5331 11.626 31.4714 11.5937 31.4098L10.1353 31.8L10.121 31.8714C10.1202 31.8714 10.1202 31.8706 10.1202 31.8706C9.98339 31.7962 9.78943 31.6789 9.67666 31.5677L9.55112 31.4384L9.36843 31.4489C6.82672 31.7053 4.87207 33.3788 4.87207 33.3788C4.87207 33.3788 6.64726 33.4021 7.94793 33.6215C6.86649 35.4258 6.68019 36.7147 6.68019 36.7147L7.71916 36.0703C9.15808 35.2147 10.3173 34.7982 11.9269 34.5441C12.505 34.4532 13.4809 34.2998 14.0041 34.2186C13.9267 34.1104 13.9334 33.9713 13.8575 33.8585" fill="#1A1919"/>
<path fill-rule="evenodd" clip-rule="evenodd" d="M34.8534 8.01304C34.8256 8.1858 34.7991 8.35661 34.7735 8.52501C34.7482 8.69341 34.7239 8.8597 34.7006 9.02374C34.6776 9.18778 34.6555 9.34957 34.6346 9.50939C34.6135 9.66937 34.5938 9.8271 34.5751 9.98257C33.5213 18.7018 35.7275 21.0571 33.5857 28.2247C33.5474 28.3532 33.5077 28.4825 33.4667 28.6141C33.4253 28.7457 33.3825 28.878 33.3389 29.0126C33.2945 29.1471 33.2494 29.2832 33.2021 29.4215C33.1577 29.5178 33.1141 29.6132 33.0697 29.7072C33.0254 29.8019 32.9818 29.8951 32.9382 29.9876L32.8074 30.2628C32.7638 30.3537 32.7202 30.4432 32.6766 30.5327C32.633 30.6221 32.5894 30.7101 32.5465 30.7973C32.5029 30.8853 32.4593 30.9717 32.4164 31.0567C30.7279 34.3968 29.0657 36.462 26.4382 37.9693C26.3706 38.0077 26.3029 38.046 26.2338 38.0844C26.1653 38.1227 26.0954 38.1603 26.0255 38.1971C25.9556 38.2347 25.8849 38.2716 25.8135 38.3084C25.7421 38.3452 25.6699 38.3813 25.5977 38.4174C25.5248 38.4535 25.4511 38.4888 25.3775 38.5242C25.303 38.5595 25.2286 38.5948 25.1527 38.6294C25.0768 38.664 25.0008 38.6986 24.9234 38.7332C24.846 38.7677 24.7685 38.8016 24.6896 38.8346C24.6106 38.8685 24.5317 38.9016 24.4513 38.9346C24.3716 38.9677 24.2904 39.0008 24.2084 39.0331C24.1265 39.0654 24.0438 39.0978 23.9604 39.1301C23.2935 39.3865 22.7868 39.6285 22.0072 39.8616C21.1291 39.6 20.542 39.3263 19.8067 39.0339C19.7248 39.0015 19.6436 38.9685 19.5639 38.9354C19.4835 38.9023 19.4045 38.8692 19.3256 38.8354C19.2466 38.8023 19.1692 38.7685 19.0918 38.7339C19.0151 38.7001 18.9384 38.6655 18.8625 38.6309C18.7873 38.5963 18.7121 38.561 18.6377 38.5257C18.564 38.4903 18.4903 38.455 18.4174 38.4189C18.3445 38.3828 18.2731 38.3467 18.2017 38.3106C18.1302 38.2738 18.0603 38.237 17.9897 38.2001C17.9197 38.1625 17.8498 38.125 17.7814 38.0874C17.7122 38.049 17.6446 38.0107 17.5769 37.9723C17.5093 37.934 17.4431 37.8949 17.377 37.8551C17.3108 37.8152 17.2454 37.7754 17.1807 37.7355C17.1153 37.6957 17.0514 37.6551 16.9875 37.6137C16.9236 37.5724 16.8605 37.5318 16.7981 37.4897C16.7357 37.4484 16.6733 37.4062 16.6116 37.3634C16.55 37.3205 16.4891 37.2777 16.4289 37.2341C16.3681 37.1905 16.3087 37.1469 16.2493 37.1025C16.1899 37.0582 16.1312 37.0138 16.0726 36.968C16.0147 36.9229 15.9568 36.877 15.8997 36.8304C14.2954 35.5366 13.07 33.8691 11.8581 31.5641C11.8145 31.4822 11.7716 31.3987 11.728 31.3145C11.6844 31.2311 11.6408 31.1461 11.598 31.0604C11.5544 30.9755 11.5115 30.889 11.4679 30.8011C11.4243 30.7138 11.3807 30.6259 11.3378 30.5372C11.2942 30.4477 11.2506 30.3575 11.207 30.2673C11.1634 30.1763 11.1198 30.0846 11.0762 29.9921C11.0326 29.8997 10.989 29.8064 10.9447 29.7117C10.9003 29.6177 10.8567 29.5223 10.8124 29.4268C10.765 29.2892 10.7199 29.1531 10.6755 29.0186C10.6312 28.884 10.5891 28.7517 10.5477 28.6209C10.5066 28.4893 10.4673 28.36 10.4289 28.2322C8.2871 21.0647 10.4932 18.7093 9.43959 9.99009C9.42079 9.83507 9.40087 9.67734 9.3802 9.51721C9.35915 9.35768 9.33734 9.19545 9.31404 9.03156C9.29073 8.86767 9.26668 8.70153 9.24112 8.53312C9.21555 8.36472 9.18924 8.19407 9.16143 8.02116C9.13361 7.8481 9.10474 7.67308 9.07422 7.49536C9.62302 7.31869 10.8316 6.65185 11.2634 6.4624C14.872 4.82652 18.4385 4.03939 22.0057 4.05368C25.5725 4.03864 29.1394 4.82576 32.7385 6.45639C33.1783 6.64907 34.3872 7.31643 34.8901 7.47882C34.9053 7.67052 34.8766 7.84569 34.8488 8.0186L34.8534 8.01304Z" fill="#005534"/>
<path fill-rule="evenodd" clip-rule="evenodd" d="M32.4712 27.4753C32.4774 27.3916 32.4829 27.3084 32.4874 27.2257C29.381 26.3481 25.8164 25.8483 22.0248 25.8483C18.2336 25.8483 14.669 26.348 11.5625 27.2255C11.567 27.3082 11.5727 27.3915 11.5789 27.4751L11.5625 27.4796C11.6239 28.5982 11.8331 29.8121 12.3444 31.3207C12.3759 31.4134 12.4083 31.5071 12.4421 31.6023C12.4758 31.6972 12.5107 31.7932 12.5469 31.8905C12.583 31.9878 12.6202 32.0865 12.6589 32.1862C12.695 32.2557 12.7311 32.3247 12.7672 32.3929C12.8032 32.4614 12.8393 32.529 12.875 32.5959C12.9104 32.6631 12.9465 32.7294 12.9818 32.7949C13.0171 32.8607 13.0532 32.9257 13.0886 32.9904C13.1239 33.055 13.16 33.1187 13.1953 33.1819L13.3021 33.3691C13.3374 33.4307 13.3727 33.4924 13.4088 33.5533L13.5148 33.7337C14.5102 35.4027 15.5161 36.61 16.834 37.5475C16.8806 37.5806 16.9279 37.6137 16.976 37.6467C17.0234 37.6791 17.0715 37.7114 17.1204 37.7437C17.1685 37.776 17.2181 37.8076 17.2677 37.8392C17.3166 37.8708 17.367 37.9016 17.4173 37.9324C17.4677 37.9632 17.5188 37.9933 17.57 38.0234C17.6218 38.0535 17.6737 38.0835 17.7256 38.1128C17.7782 38.1422 17.8308 38.1715 17.8842 38.2008C17.9376 38.2301 17.991 38.2587 18.0451 38.2873C18.0992 38.3158 18.1541 38.3436 18.2097 38.3722C18.2646 38.4 18.321 38.4278 18.3774 38.4549C18.4338 38.482 18.4901 38.509 18.548 38.5361C18.6052 38.5632 18.6638 38.5895 18.7217 38.6165C18.7803 38.6429 18.839 38.6692 18.8991 38.6947C18.9585 38.721 19.0194 38.7466 19.0795 38.7722C19.1404 38.7977 19.2021 38.8225 19.2645 38.8481C19.3269 38.8737 19.3893 38.8985 19.4524 38.9233C19.5156 38.9473 19.5795 38.9721 19.6441 38.9962C19.7088 39.0202 19.7734 39.0443 19.8396 39.0684L20.0388 39.139C20.6433 39.351 21.3003 39.5488 22.0213 39.7382C22.6618 39.5691 23.2527 39.3946 23.8 39.2082C23.8684 39.1849 23.9361 39.1616 24.0037 39.1383C24.0707 39.1142 24.1368 39.0909 24.203 39.0669C24.2684 39.0428 24.3338 39.0187 24.3984 38.9947C24.4631 38.9699 24.527 38.9458 24.5901 38.921C24.6533 38.8962 24.7157 38.8706 24.7781 38.8458C24.8397 38.8203 24.9014 38.7955 24.9623 38.7692C25.0232 38.7443 25.0833 38.718 25.1427 38.6925C25.2021 38.6662 25.2615 38.6398 25.3201 38.6135C25.3788 38.5865 25.4366 38.5602 25.4938 38.5331C25.5509 38.506 25.6081 38.479 25.6644 38.4519C25.7208 38.4241 25.7765 38.3963 25.8321 38.3684C27.9897 37.2769 29.355 35.7816 30.7413 33.3631L30.848 33.1751C30.8833 33.112 30.9187 33.0481 30.9548 32.9834C30.9901 32.9187 31.0262 32.8533 31.0615 32.7879L31.169 32.5887C31.2051 32.5218 31.2404 32.4541 31.2765 32.3857C31.3126 32.3173 31.3487 32.2482 31.3848 32.179C31.4231 32.079 31.4607 31.9805 31.4968 31.8828C31.5329 31.7851 31.5675 31.6896 31.6013 31.5948C31.6351 31.4994 31.6675 31.4054 31.699 31.3129C32.2102 29.8041 32.42 28.59 32.4809 27.4721L32.4628 27.4668H32.4651" fill="#FFFFFE"/>
<path fill-rule="evenodd" clip-rule="evenodd" d="M8.85547 7.52756C10.7945 18.8923 7.58818 20.6425 10.5933 29.4598C13.4158 35.6124 15.7573 38.0332 21.9984 39.8969C16.8857 37.4957 13.3702 33.945 11.7655 29.1012C9.70258 22.8727 12.9653 12.9919 11.3673 6.45288C10.8929 6.64383 9.31113 7.39487 8.85554 7.52794L8.85547 7.52756ZM35.1553 7.52794C33.2164 18.8927 36.4228 20.6429 33.4179 29.4606C30.595 35.6124 28.2531 38.0332 22.0126 39.8969C27.1255 37.4957 30.6408 33.945 32.2459 29.1012C34.3088 22.8727 31.046 12.9919 32.6443 6.45288C33.1195 6.64459 34.7012 7.39562 35.1568 7.52869" fill="#1A1919"/>
<path fill-rule="evenodd" clip-rule="evenodd" d="M20.6455 39.2164C21.0763 39.4452 21.4501 39.672 21.9987 39.8974C22.0025 39.8989 22.0089 39.8959 22.0126 39.8974C22.6692 39.5815 23.1408 39.3442 23.4276 39.1856L22.0637 37.8269L20.6455 39.2164Z" fill="#005534"/>
<path fill-rule="evenodd" clip-rule="evenodd" d="M11.3766 27.5574C11.3723 27.5337 10.9453 25.1548 10.8897 22.4576C10.853 20.6804 11.0773 18.2932 11.294 15.9846C11.4218 14.6308 11.5534 13.2309 11.6241 12.0166C11.815 8.7602 11.3993 6.2021 11.3955 6.17661L12.0014 6.07617C12.019 6.18293 12.4322 8.7281 12.2374 12.0526C12.1658 13.2776 12.0339 14.6831 11.9062 16.0421C11.691 18.3334 11.4685 20.7028 11.5044 22.4451C11.5585 25.0912 11.9772 27.4243 11.981 27.4474L11.3758 27.5574H11.3766ZM32.6972 27.5574C32.7017 27.5337 33.1288 25.1548 33.1844 22.4576C33.2205 20.6804 32.9965 18.2932 32.7799 15.9846C32.6529 14.6308 32.5213 13.2309 32.4499 12.0166C32.2589 8.7602 32.6747 6.2021 32.6784 6.17661L32.0733 6.07617C32.0557 6.18293 31.6426 8.7281 31.8373 12.0526C31.9089 13.2776 32.0409 14.6831 32.1685 16.0421C32.3835 18.3334 32.606 20.7028 32.5701 22.4451C32.516 25.0912 32.0972 27.4243 32.0935 27.4474L32.6984 27.5574" fill="#FFFFFE"/>
<path fill-rule="evenodd" clip-rule="evenodd" d="M32.3725 27.5021L30.1318 29.698L31.1785 30.7242C31.636 29.7331 32.0348 28.6621 32.3725 27.5021Z" fill="#24784C"/>
<path fill-rule="evenodd" clip-rule="evenodd" d="M31.1795 30.7248L30.1318 29.6986L32.3737 27.5021C32.0361 28.6621 31.6365 29.7337 31.1794 30.7248H31.1795Z" fill="#24784C"/>
<path fill-rule="evenodd" clip-rule="evenodd" d="M11.4873 27.0007L11.7213 26.8256V27.7093L11.4873 27.8845V27.0007Z" fill="#1A1919"/>
<path fill-rule="evenodd" clip-rule="evenodd" d="M24.747 35.147L22.064 37.8301L19.3809 35.147L22.0641 32.464L24.747 35.147ZM24.747 29.7341L22.064 32.4173L19.3809 29.7341L22.0641 27.0511L24.747 29.7341Z" fill="#005534"/>
<path fill-rule="evenodd" clip-rule="evenodd" d="M17.6453 36.8436L19.3439 35.147L16.6608 32.464L15.0205 34.1021C15.7815 35.0989 16.5583 35.8882 17.6453 36.8436ZM26.4171 36.8436L24.7186 35.147L27.4017 32.464L29.0421 34.1021C28.281 35.0989 27.5042 35.8882 26.4172 36.8436H26.4171ZM19.3322 29.7302L16.6491 32.4133L13.8176 29.9956L16.4562 26.976L19.3322 29.7303V29.7302ZM30.0846 29.734L27.4016 32.4172L24.7185 29.734L27.4017 27.0511L30.0846 29.7341V29.734ZM10.5975 32.0881L10.585 32.0915L10.6263 32.0993C10.6165 32.0955 10.6071 32.091 10.5974 32.088" fill="#005534"/>
<path fill-rule="evenodd" clip-rule="evenodd" d="M22.7568 35.8858C22.5854 36.0661 22.3023 36.1737 21.9993 36.1737C21.6884 36.1737 21.4119 36.0704 21.2408 35.8901C21.0919 35.7338 21.0233 35.5199 21.0368 35.2544C21.0496 35.0108 21.1488 34.6913 21.2902 34.438C21.2217 34.6425 21.1496 34.8898 21.1353 35.0695C21.1225 35.2311 21.1263 35.3582 21.1857 35.5311C21.3879 36.0581 21.8517 36.0784 22.0104 36.0844C22.4051 36.0656 22.6757 35.8777 22.817 35.5228C22.8764 35.3514 22.8734 35.2123 22.8651 35.0725C22.8554 34.8943 22.7855 34.6507 22.717 34.4478C22.8546 34.6996 22.9516 35.0131 22.9636 35.2522C22.9772 35.5138 22.908 35.7258 22.7591 35.8829L22.7568 35.8858ZM22.7378 34.3375L22.6509 34.1945L22.7832 34.1325L22.7727 34.1178L22.5592 34.2361C22.6389 34.4423 22.7757 34.83 22.79 35.0789C22.7982 35.2104 22.8005 35.3417 22.7456 35.4999C22.6171 35.8228 22.369 35.9934 22.0074 36.0106C21.8623 36.0043 21.4405 35.9853 21.2563 35.5048C21.2022 35.3464 21.1984 35.2279 21.2105 35.0757C21.2308 34.8284 21.3653 34.4422 21.442 34.2367L21.2262 34.1178L21.2157 34.1325L21.3478 34.1945L21.2609 34.3375C21.0957 34.6094 20.9756 34.9763 20.9617 35.2507C20.9473 35.5371 21.0228 35.7702 21.1862 35.9416C21.3716 36.1363 21.6681 36.2483 21.9993 36.2483C22.3226 36.2483 22.6261 36.1318 22.8114 35.937C22.9753 35.7641 23.0512 35.5333 23.0369 35.2499C23.0231 34.9755 22.9029 34.6086 22.7377 34.3365L22.7378 34.3375Z" fill="#1A1919"/>
<path fill-rule="evenodd" clip-rule="evenodd" d="M22.8114 35.8855C22.626 36.0805 22.3225 36.1969 21.9993 36.1969C21.668 36.1969 21.3715 36.085 21.1861 35.89C21.0223 35.7182 20.9471 35.4855 20.9614 35.1987C20.9749 34.9243 21.0952 34.5574 21.2606 34.2855L21.347 34.1425L21.2147 34.0805L21.2252 34.0658L21.4403 34.1847C21.3628 34.39 21.2282 34.7764 21.2087 35.0237C21.1959 35.1756 21.1997 35.2944 21.2546 35.4522C21.4387 35.9326 21.8597 35.9514 22.0056 35.9574C22.368 35.9402 22.616 35.7695 22.7438 35.4462C22.798 35.2876 22.7957 35.1568 22.7882 35.0252C22.7732 34.7764 22.6363 34.3885 22.5574 34.1825L22.7709 34.0637L22.7814 34.078L22.6491 34.1396L22.7356 34.2825C22.9002 34.5546 23.0205 34.9215 23.0348 35.1951C23.0491 35.4778 22.9731 35.7094 22.8093 35.8815L22.8114 35.8855ZM22.802 34.2464L22.7584 34.175L22.8969 34.1096L22.7944 33.9667L22.4649 34.1486L22.4883 34.2095C22.5667 34.4133 22.7003 34.7914 22.7143 35.0297C22.7215 35.153 22.7239 35.2763 22.6752 35.4184C22.5575 35.7139 22.3375 35.8657 22.0096 35.8815C21.8682 35.8755 21.4925 35.859 21.3264 35.4259C21.276 35.2793 21.2728 35.1726 21.2843 35.0275C21.3035 34.7899 21.4348 34.4125 21.5114 34.2088L21.5343 34.1479L21.2039 33.9652L21.1019 34.108L21.24 34.1727L21.1966 34.2441C21.0256 34.5253 20.901 34.9064 20.8866 35.1921C20.871 35.5004 20.9535 35.7515 21.1317 35.9387C21.3311 36.1484 21.6474 36.2687 21.9993 36.2687C22.3426 36.2687 22.6666 36.1431 22.8658 35.9341C23.0447 35.7462 23.1274 35.4966 23.1124 35.1921C23.0981 34.9064 22.9733 34.5253 22.8026 34.2434L22.802 34.2464Z" fill="#1A1919"/>
<path fill-rule="evenodd" clip-rule="evenodd" d="M23.1872 35.2139C23.1709 34.8922 23.0315 34.5024 22.8664 34.2302L23.0107 34.1626L22.8169 33.8922L22.37 34.1394C22.37 34.1394 22.6206 34.7411 22.6393 35.0585C22.6471 35.1905 22.6474 35.2926 22.603 35.4217C22.4564 35.7899 22.1498 35.8239 21.9993 35.8311C21.849 35.8239 21.5394 35.7959 21.3956 35.4217C21.3513 35.2926 21.3487 35.1936 21.3594 35.0585C21.3848 34.7416 21.6288 34.1394 21.6288 34.1394L21.1819 33.8922L20.9882 34.1626L21.1325 34.2302C20.9671 34.5024 20.8279 34.8922 20.8115 35.2139C20.7694 36.0476 21.4223 36.37 21.9993 36.37C22.5594 36.37 23.2293 36.0476 23.1872 35.2139Z" fill="#FFFFFE"/>
<path d="M14.4345 20.3334C14.1109 20.0593 14.1651 19.6811 14.3904 19.2594C15.3625 16.6936 16.6347 15.5223 18.0341 15.2484C19.3746 14.3125 20.1188 15.0698 20.9729 15.4189C22.5877 15.7629 24.2875 15.2865 25.8429 15.5608C26.3444 15.6078 26.8082 15.8584 27.6352 16.0064C28.1893 16.0906 28.7381 16.0359 29.0433 15.7183C29.2154 15.5373 29.3861 15.2319 29.2876 14.9085C28.9674 14.0191 27.4179 14.324 26.6985 14.4281C25.2723 15.123 24.4063 14.3454 24.7589 13.0679C24.9686 14.1647 26.173 13.4029 26.7203 14.2244C27.9712 13.9586 29.4117 13.8975 29.7079 14.7807C29.9251 15.5473 29.3387 16.2825 27.9419 16.5414C28.4163 17.0812 28.5569 17.7326 28.2126 18.5472C28.0013 19.1133 28.5674 19.9475 29.2523 19.9315C29.4868 19.9105 29.5635 20.0807 29.5883 20.3349C29.9717 22.3132 30.6942 22.5559 30.4303 23.1696L30.2206 23.1222C30.1168 23.1192 30.0868 23.3049 30.1574 23.5635L29.9304 23.9657L28.8719 23.8101C28.9531 23.5259 29.0463 23.2004 29.332 22.935C29.332 22.935 29.3057 22.8237 29.3012 22.6764C29.335 22.4275 29.1711 21.5013 28.8132 20.9443C28.6178 20.6654 28.1066 20.951 27.1338 20.4774C26.8736 20.3218 26.8097 20.182 26.7218 19.97C26.621 20.0451 26.6135 20.415 26.9383 20.8247C27.048 20.9826 27.0533 21.1427 26.9563 21.3089C26.5053 21.9381 25.6054 21.8524 25.2821 23.0418L25.1009 22.8696L24.9175 23.4966L23.7883 23.4379C23.8913 23.0448 24.3597 22.8967 24.4085 22.5471L25.4377 21.6216C25.6046 21.463 25.6069 21.2886 25.4084 21.0841C25.0295 20.7398 24.8724 20.4105 24.9393 20.097C24.283 19.9527 23.8793 20.0677 23.1921 20.4015C22.7035 20.7037 22.7907 20.3308 22.4727 20.2857C21.778 20.2316 19.7572 20.4496 19.2347 20.5556C18.7934 20.6443 18.4724 20.8939 18.4235 21.1097C18.5002 21.16 18.6461 21.2307 18.7972 21.3968C19.0438 21.6863 19.2483 21.9035 19.5309 22.0396C19.8204 22.2088 19.8083 22.3388 19.6294 22.4403C19.7978 22.5666 19.9001 22.5711 20.0497 22.4854L20.2248 22.3757L20.803 23.3793C20.3203 23.4394 19.9414 23.356 19.5805 23.0861C18.6709 22.9771 18.7137 22.2817 18.2371 21.8419C18.095 21.7164 17.9319 21.8411 17.6906 21.6186C17.4605 21.9381 17.3162 22.19 17.1493 22.5726C17.1034 22.6809 17.0463 22.8297 16.8892 22.7433C16.8606 23.0605 16.8102 23.568 16.6869 23.6507L15.6374 23.762C15.6788 23.5282 15.8246 23.0869 16.1133 22.7982C16.8072 21.9231 17.1628 20.9811 17.7056 20.0045C17.7484 19.9 17.6191 19.6873 17.4665 19.6294C17.3335 19.5602 16.9982 19.582 16.9207 19.6948C17.0267 20.0038 16.9876 20.312 16.8004 20.6187C16.7756 20.8345 16.808 21.0292 16.8997 21.1878L16.7478 21.4164C16.5486 21.3525 16.6283 21.0548 16.5208 20.8744C16.287 21.0262 16.6208 21.4284 16.4742 21.6908C16.4193 21.7923 15.8607 22.1967 15.7389 22.0464C15.4435 21.76 15.1713 21.0179 14.8075 20.7165C14.3759 21.0194 13.8978 21.1893 13.373 21.2187C13.7835 20.9375 14.1669 20.6496 14.4413 20.3278L14.4345 20.3334Z" fill="#1A1919"/>
<path fill-rule="evenodd" clip-rule="evenodd" d="M14.6526 20.1683C14.3658 19.7307 15.1635 19.5433 15.0848 20.1202C14.9632 20.5272 14.6287 20.7949 13.8926 21.0313C14.486 20.6231 14.8707 20.2723 14.801 20.037C14.7749 19.9043 14.5903 20.003 14.6526 20.1683ZM16.9433 19.6586C16.7512 18.8686 16.5276 18.8393 15.9976 18.5559C16.3678 18.5934 16.5682 18.6122 16.7417 18.8041C16.8454 18.9394 17.0398 19.183 16.9433 19.6587V19.6586ZM17.667 16.9582C17.6871 16.5357 17.7125 15.9275 17.9823 15.5479C16.7336 15.8764 16.0878 16.6259 15.5465 17.483C16.2106 16.6688 16.9972 16.1087 17.5805 15.9719C17.4021 16.332 17.6181 16.6312 17.6602 16.9575H17.6669L17.667 16.9582ZM16.2669 9.36752L16.8724 9.9912L16.5617 10.8193C16.8745 10.8178 17.2726 10.7734 17.6578 10.6975C17.7285 10.684 17.798 10.6689 17.8656 10.6531C18.0017 10.6216 18.1272 10.587 18.239 10.5502L18.262 10.5449L18.5778 10.505L18.9597 10.1961L19.3499 10.3081C19.598 10.0089 19.7634 9.87655 20.1423 9.73747C20.5257 9.59689 20.9384 9.55554 21.3429 9.61794L21.2579 9.38639L21.4489 9.39917C21.5113 9.40368 21.5714 9.40969 21.63 9.41796L21.191 8.22262C21.1181 8.21134 21.0241 8.20533 20.9166 8.20533C20.6121 8.20533 20.1295 8.2557 19.6867 8.39553C19.3311 8.5083 18.9635 8.76842 18.68 9.10823L18.5951 9.20972L18.4996 9.11875C18.4004 9.02478 18.2861 8.96012 18.1793 8.93682C18.1538 8.93306 18.12 8.9308 18.0876 8.93231L18.0568 8.93381L17.9944 8.90374L17.6726 9.0759C17.5351 9.12552 17.393 9.16837 17.2509 9.20521C17.1855 9.2225 17.1208 9.23753 17.0569 9.25107C16.7419 9.32023 16.463 9.35331 16.2698 9.36985L16.2669 9.36752ZM16.5427 11.0675C16.4848 11.0675 16.4292 11.066 16.3773 11.0629L16.2089 11.0535L16.5856 10.0513L15.6969 9.13634L15.9871 9.13409C15.9916 9.13409 16.4431 9.12913 17.0016 9.00681C17.0621 8.99365 17.1239 8.97899 17.1865 8.96291C17.3183 8.92907 17.4498 8.88885 17.5775 8.84352L17.984 8.624L18.1057 8.68144H18.1064C18.1463 8.68144 18.1861 8.68482 18.2252 8.69159C18.3462 8.71715 18.4628 8.77203 18.571 8.85322C18.8725 8.52319 19.2461 8.27284 19.6115 8.15631C20.0814 8.00746 20.5933 7.95483 20.9166 7.95483C21.0564 7.95483 21.1745 7.96386 21.2677 7.98115L21.3767 8.00144L22.0142 9.73958L21.6767 9.67492L21.6278 9.6659L21.7285 9.93955L21.382 9.87339C20.997 9.79972 20.5986 9.8328 20.231 9.96737C19.8761 10.0982 19.7483 10.2094 19.4942 10.5244L19.4423 10.5883L19.0183 10.4666L18.6823 10.7387L18.3086 10.7853C18.1929 10.8229 18.0643 10.8575 17.926 10.8898C17.8553 10.9063 17.7831 10.9214 17.7095 10.9364C17.3013 11.0169 16.8772 11.0627 16.5465 11.0627L16.5427 11.0675ZM19.7159 10.8876C19.6763 10.9054 19.6395 10.9218 19.6062 10.9365C19.6395 10.9218 19.6763 10.9054 19.7159 10.8876Z" fill="#FFFFFE"/>
<path fill-rule="evenodd" clip-rule="evenodd" d="M18.1025 10.5937L18.1097 10.5884C18.1082 10.588 18.1067 10.5875 18.1052 10.5869L18.1025 10.5937ZM18.106 10.5126L18.1036 10.5117L18.1025 10.5143L18.106 10.5126ZM18.6288 9.38403C18.6472 9.41087 18.6655 9.43861 18.6833 9.46944C18.6655 9.43861 18.6472 9.4108 18.6288 9.38403Z" fill="#1A1919"/>
<path fill-rule="evenodd" clip-rule="evenodd" d="M19.586 8.43426L19.5834 8.43313C19.466 8.48531 19.3562 8.53869 19.26 8.59116C19.1577 8.64694 19.0709 8.70145 19.0049 8.75219L19.356 8.9121L19.586 8.43426ZM20.0158 9.74162L19.608 9.59803L19.3945 10.0395C19.4283 10.047 19.4616 10.0523 19.4933 10.0515C19.4969 10.0515 19.501 10.0523 19.5046 10.053C19.555 10.0538 19.598 10.044 19.6294 10.0237C19.6319 10.0214 19.6351 10.0192 19.6377 10.0177C19.6399 10.0162 19.6422 10.0162 19.6444 10.0147C19.677 9.99738 19.691 10.0034 19.7158 9.98009L19.7249 9.97407C19.7121 9.88611 19.8809 9.87559 19.9707 9.82447C19.9902 9.81319 20.0238 9.79064 20.0713 9.75681L20.0158 9.74027V9.74162ZM19.586 8.43426L20.0713 8.64476L20.3049 8.16332C20.1514 8.21053 19.9945 8.26481 19.8429 8.3242C19.7818 8.34826 19.7219 8.37292 19.6632 8.39803C19.6375 8.409 19.6125 8.4202 19.5874 8.43133L19.5859 8.43434L19.586 8.43426ZM20.4047 8.78911L20.0713 8.64476L19.8397 9.1214L20.3231 9.33084L20.4664 9.03637L20.3469 8.96811L20.4055 8.78918L20.4047 8.78911ZM20.1531 9.74162C20.2016 9.71726 20.7329 9.60833 20.7889 9.5866L20.3236 9.33084C20.1943 9.61276 20.1371 9.74981 20.1537 9.7417L20.1531 9.74162ZM19.8396 9.1214L19.356 8.9121L19.1244 9.38858L19.608 9.59833L19.8397 9.1217L19.8396 9.1214ZM19.1444 8.91826L19.1198 8.77377C19.3619 8.47681 19.7243 8.36593 20.0754 8.23474C20.4279 8.10257 20.8023 8.0716 21.1624 8.1443L21.197 8.15144L21.6263 9.52495L21.5165 9.50278C22.157 9.63284 19.8709 9.81086 19.5972 9.99843L19.5333 9.99054L19.1424 8.91826H19.1444Z" fill="#FFFFFE"/>
<path fill-rule="evenodd" clip-rule="evenodd" d="M18.7792 9.60952L18.7819 9.61681L18.7792 9.60952ZM18.7041 9.53434L18.7108 9.54825L18.7041 9.53434ZM18.7244 9.1392L19.1777 10.3736C19.4393 10.083 19.7684 9.85979 20.1362 9.72454C20.5064 9.58832 20.8985 9.54509 21.2904 9.59802L20.8372 8.36358C20.4467 8.29705 20.0489 8.33396 19.6764 8.47109C19.3056 8.60739 18.9773 8.83796 18.7244 9.1392H18.7244ZM19.1266 10.6708L18.5537 9.11056L18.5805 9.07748C18.854 8.73895 19.2148 8.48056 19.6243 8.32998C20.036 8.17857 20.4778 8.14203 20.907 8.22337L20.9488 8.23134L21.5216 9.79153L21.3912 9.76672C20.9878 9.69004 20.5736 9.72387 20.1883 9.86595C19.8049 10.0073 19.4666 10.2501 19.2099 10.5681L19.1266 10.6719V10.6708Z" fill="#1A1919"/>
<path fill-rule="evenodd" clip-rule="evenodd" d="M18.019 9.84596C17.8126 9.48848 17.8148 9.2137 18.025 9.09244C18.186 8.99952 18.4584 9.07116 18.676 9.44804C18.8918 9.82152 18.8166 10.0917 18.6557 10.1846C18.4361 10.3114 18.222 10.1974 18.019 9.84596ZM20.7724 11.2366C20.7972 11.1435 20.7739 11.0745 20.7498 11.033C20.698 10.943 20.5957 10.8957 20.4611 10.8994L20.4183 10.9007L19.641 9.66139L19.6379 9.64748C19.5673 9.27294 19.2929 8.71549 19.0921 8.3084L18.9673 8.05693C18.732 7.58428 18.5103 7.13847 18.3516 6.6559C18.3404 6.61831 18.3479 6.5702 18.3697 6.4757C18.3945 6.36781 18.4223 6.24565 18.3622 6.13138L18.3539 6.11709C18.202 5.85397 17.7675 5.86269 17.248 6.14062C16.8165 6.37112 16.3797 6.77363 16.5654 7.14982L16.5707 7.16057C16.6586 7.31281 16.8075 7.35814 16.9157 7.39137C16.9465 7.40062 16.9834 7.41205 17.0082 7.42347L17.0225 7.42994L17.1465 7.56925C17.3863 7.83763 17.5758 8.04964 17.7637 8.27367L17.8216 8.34359L17.7277 8.39696C17.1804 8.71271 17.0909 9.40511 17.5044 10.1208C17.9171 10.8358 18.5614 11.1041 19.1079 10.7884C19.1876 10.7425 19.2605 10.6907 19.3244 10.6358L19.3944 10.5756L19.4387 10.6561C19.5733 10.8974 19.6793 11.0891 19.7522 11.2259L19.7733 11.265L19.7492 11.3026C19.6733 11.4199 19.6612 11.5357 19.7154 11.6289C19.8176 11.8071 20.101 11.8093 20.404 11.6349C20.5912 11.5274 20.7303 11.3755 20.7671 11.2395L20.7724 11.2366Z" fill="#FFFFFE"/>
<path fill-rule="evenodd" clip-rule="evenodd" d="M18.0014 8.78271L18.891 9.20334L19.1143 10.233L18.6342 10.6224L18.1748 10.6803L17.3516 9.33829L17.5723 9.01449L18.0014 8.78271Z" fill="#1A1919"/>
<path fill-rule="evenodd" clip-rule="evenodd" d="M20.3026 11.2967C20.233 11.3465 20.1878 11.3585 20.1878 11.3585C20.1701 11.291 20.178 11.238 20.182 11.2089C20.1136 11.0919 19.6505 10.2406 19.6505 10.2406C19.6505 10.2406 19.6368 10.219 19.6498 10.2115C19.6608 10.2052 19.6682 10.216 19.6682 10.216L20.2615 11.1598C20.2916 11.1635 20.3615 11.1763 20.3991 11.2056C20.3991 11.2056 20.3713 11.2455 20.3021 11.2958L20.3026 11.2967ZM19.3857 9.88001C19.3857 9.88001 19.3536 9.62703 19.1662 9.27166C19.1662 9.27166 17.91 7.00818 17.7843 6.78077C17.6584 6.55373 17.8587 6.43795 17.5099 6.38157C17.6811 6.29211 17.942 6.21618 18.0471 6.2485C18.1146 6.26955 18.0376 6.38608 18.0088 6.45149C17.9582 6.56576 17.9665 6.65672 18.0407 6.82287L18.0593 6.86497C18.4521 7.73479 18.9467 8.59558 19.2341 9.21505C19.3822 9.53456 19.4213 9.74732 19.3857 9.88189L19.3857 9.88001ZM18.729 10.315C18.4829 10.4571 18.1717 10.4144 17.887 9.92136C17.6024 9.42819 17.702 9.10439 17.948 8.96238C18.1942 8.82029 18.5542 8.93982 18.8045 9.37315C19.0548 9.80656 18.9751 10.1731 18.729 10.3151V10.315ZM20.6184 11.1087C20.5823 11.0455 20.4752 11.0335 20.345 11.0681L19.4965 9.71484C19.4452 9.36376 19.1562 8.77812 18.9569 8.37365C18.6834 7.81733 18.4004 7.28356 18.2074 6.69642C18.1581 6.53253 18.2961 6.32729 18.2292 6.19949C17.998 5.75894 16.4563 6.58591 16.701 7.08133C16.7965 7.24748 17.0055 7.22643 17.125 7.31514C17.5265 7.76546 18.452 8.88036 18.452 8.88036L17.9415 8.4541C17.8889 8.4759 17.8603 8.49093 17.8039 8.52326C17.322 8.80142 17.2709 9.41037 17.6355 10.0419C18.0001 10.6734 18.5467 10.9275 19.0338 10.6538C19.3804 10.4591 19.4811 10.1652 19.4811 10.1652C19.527 10.2652 19.4796 10.414 19.4796 10.414C19.6247 10.6734 19.854 11.0861 19.9563 11.2838C19.8555 11.3808 19.8082 11.483 19.8458 11.5477C19.8999 11.6432 20.1172 11.6214 20.3299 11.4988C20.5419 11.377 20.6705 11.2004 20.6156 11.1056L20.6184 11.1087Z" fill="#1A1919"/>
<path fill-rule="evenodd" clip-rule="evenodd" d="M18.6658 10.3365C18.6691 10.3332 18.6723 10.3293 18.6756 10.3256C18.8271 10.2136 18.9062 9.95796 18.7652 9.57515C18.6336 9.21805 18.4236 9.0498 18.2374 9.01838C18.2337 9.01763 18.2296 9.01575 18.2259 9.015C18.1741 9.00425 18.1282 9.00597 18.0931 9.02026L18.0835 9.02447C18.0811 9.02522 18.0786 9.02537 18.0763 9.02612C18.0402 9.03665 18.008 9.05131 17.9793 9.0692L17.969 9.07349C17.8691 9.11521 17.7688 9.15092 17.669 9.18415C17.5352 9.22865 17.4032 9.26609 17.2751 9.29744C17.2142 9.31173 17.1548 9.32526 17.0961 9.33804C16.8826 9.38239 16.6857 9.41171 16.5244 9.42901L16.8956 10.0936L16.7554 10.7845C17.0201 10.7747 17.3233 10.7386 17.6104 10.686C17.6769 10.674 17.7422 10.6604 17.8062 10.6469C17.9678 10.6123 18.1191 10.5732 18.2499 10.5319C18.4499 10.4687 18.6021 10.4003 18.6658 10.3349" fill="#FFFFFE"/>
<path fill-rule="evenodd" clip-rule="evenodd" d="M17.8025 9.80722L18.3703 10.1033L18.6847 9.60484L18.1171 9.30879L17.8025 9.80722ZM17.576 9.08325H17.5759C17.5525 9.09167 17.5261 9.1013 17.4979 9.11107C17.4673 9.12212 17.437 9.13249 17.4066 9.14287C17.3463 9.16354 17.2862 9.18347 17.2403 9.1976C17.1716 9.2194 17.1043 9.23895 17.0381 9.25699C16.9652 9.27729 16.8945 9.29458 16.8252 9.31112L17.25 9.5329L17.576 9.08408V9.08325ZM17.8045 9.81106L17.2496 9.53432L16.9004 10.0846L17.4621 10.3485" fill="#005534"/>
<path fill-rule="evenodd" clip-rule="evenodd" d="M17.4617 10.3479L17.2012 10.8453C17.3897 10.8132 17.5828 10.7736 17.77 10.7275C17.8455 10.7091 17.9194 10.6896 17.9919 10.6694C18.0239 10.6606 18.0548 10.6515 18.0859 10.6424L17.9919 10.6694L17.4617 10.3478V10.3479ZM17.5789 9.08698V9.08713L18.1348 9.33349L18.4009 8.94534C18.3604 8.93211 18.3641 8.92279 18.3258 8.91926C18.3213 8.9185 18.1995 9.00195 18.231 8.92181C18.2536 8.86543 18.2025 8.87746 18.1393 8.85791C18.1356 8.86017 18.1318 8.86167 18.1288 8.86392L18.1205 8.86618C18.0799 8.88122 18.0634 8.87295 18.0318 8.89475L18.0205 8.90076C17.9093 8.95489 17.7973 9.00225 17.6852 9.04661C17.6484 9.06164 17.6123 9.07367 17.5755 9.08796L17.577 9.08871" fill="#005534"/>
<path fill-rule="evenodd" clip-rule="evenodd" d="M18.0303 10.6374C18.1757 10.5948 18.312 10.5502 18.432 10.5045C18.5594 10.4561 18.6853 10.3652 18.7686 10.3176L18.3732 10.1018L18.0273 10.6356L18.0304 10.6371L18.0303 10.6374ZM18.7901 9.39258L18.6864 9.60887L18.8926 9.66044C18.8919 9.62909 18.8009 9.41047 18.7904 9.39258H18.7901Z" fill="#005534"/>
<path fill-rule="evenodd" clip-rule="evenodd" d="M18.6738 10.2648C18.6705 10.2685 18.6673 10.2723 18.664 10.2757C18.6364 10.3041 18.5915 10.333 18.5342 10.3618C18.4589 10.3994 18.3616 10.437 18.2481 10.4728C18.1413 10.5066 18.0204 10.5389 17.8919 10.5683L17.8874 10.5698C17.8599 10.5765 17.8325 10.5825 17.8044 10.5886C17.7403 10.6021 17.6751 10.6156 17.6086 10.6276C17.4437 10.6577 17.2742 10.6818 17.1091 10.6991C16.9865 10.7126 16.8662 10.7224 16.7535 10.7261L17.0286 9.97208L16.5219 9.37141C16.6347 9.35938 16.7647 9.34058 16.9061 9.31578C16.967 9.30525 17.0294 9.29322 17.0933 9.27969C17.1519 9.26766 17.2113 9.25413 17.2722 9.23909C17.3203 9.22706 17.3699 9.21353 17.4195 9.2C17.4466 9.19248 17.4744 9.18496 17.5007 9.17745C17.5233 9.17143 17.5458 9.16391 17.5684 9.1564C17.6007 9.14662 17.633 9.1376 17.6654 9.12632C17.7654 9.09325 17.8654 9.05791 17.9653 9.01581L17.9751 9.01205C18.0608 8.96619 18.1698 8.9474 18.2217 8.95792C18.2255 8.95868 18.2292 8.96093 18.233 8.96168C18.2661 8.9677 18.2991 8.97897 18.333 8.99326C18.4698 9.0519 18.6096 9.18421 18.7156 9.412C18.7307 9.44583 18.7464 9.48117 18.7607 9.51951C18.7735 9.5556 18.784 9.59018 18.7938 9.62326L18.7983 9.64055C18.8066 9.67363 18.8141 9.70595 18.8194 9.73678C18.8194 9.73978 18.8201 9.74204 18.8209 9.74505C18.8314 9.8112 18.8352 9.87135 18.8321 9.92698C18.8231 10.0894 18.7592 10.2051 18.6705 10.2705L18.6738 10.2648ZM18.9388 9.47748C18.9372 9.47282 18.936 9.46846 18.9343 9.4638L18.9339 9.46305C18.7894 9.07159 18.5077 8.84373 18.2624 8.7911C18.1782 8.77659 18.0948 8.78088 18.0151 8.80418C17.9738 8.82335 17.9317 8.84072 17.8896 8.85831C17.6888 8.94206 17.4843 9.00687 17.2889 9.05716C17.2257 9.0737 17.1633 9.08874 17.1017 9.10227C16.5288 9.22782 16.0732 9.23082 16.0732 9.23082L16.8055 10.0112L16.4657 10.8923C16.8062 10.9118 17.2987 10.8622 17.7482 10.7742C17.8196 10.7607 17.8896 10.7457 17.958 10.7299C18.3489 10.6389 18.6789 10.5194 18.8015 10.3931C18.9548 10.2352 19.0917 9.90593 18.9406 9.47966L18.9388 9.47748Z" fill="#1A1919"/>
<path fill-rule="evenodd" clip-rule="evenodd" d="M25.5217 10.5051L25.8604 10.5499C25.9721 10.586 26.0978 10.6205 26.2337 10.6521C26.3014 10.6679 26.3713 10.6822 26.4419 10.6965C26.8276 10.7724 27.2253 10.8168 27.538 10.8183L27.2276 9.9898L27.8335 9.36581C27.6403 9.34927 27.3606 9.31619 27.0456 9.24778C26.9825 9.2335 26.9178 9.21846 26.8524 9.20117C26.7103 9.16433 26.569 9.12073 26.4314 9.07186L26.4141 9.06359L26.1096 8.89895L26.0472 8.92902L26.0164 8.92752C25.9841 8.92602 25.9518 8.92827 25.9194 8.93354C25.818 8.95534 25.7037 9.01999 25.6044 9.11472L25.509 9.20568L25.424 9.10419C25.1406 8.76363 24.773 8.50427 24.4174 8.3915C23.9753 8.25091 23.4927 8.20129 23.1882 8.20129C23.0807 8.20129 22.9867 8.20731 22.9138 8.21859L22.4748 9.41468C22.5334 9.40641 22.5943 9.40039 22.6559 9.39588L22.8469 9.3831L22.7619 9.61465C23.1664 9.5515 23.5791 9.59285 23.9625 9.73419C24.3407 9.87327 24.5061 10.0048 24.7549 10.3048L25.1459 10.1928L25.527 10.5018L25.5217 10.5051ZM27.5566 11.0672C27.2256 11.0672 26.8017 11.021 26.3936 10.9405C26.3201 10.9262 26.2478 10.9108 26.1775 10.8943C26.0391 10.8628 25.9103 10.8274 25.7946 10.7898L25.421 10.7432L25.085 10.4711L24.661 10.5929L24.6098 10.529C24.3557 10.214 24.2279 10.102 23.8731 9.9719C23.5055 9.83658 23.107 9.80425 22.7221 9.87718L22.3755 9.94334L22.4763 9.66969C22.4597 9.67194 22.4432 9.67495 22.4274 9.67795L22.0898 9.74261L22.7281 8.00523L22.8364 7.98493C22.9296 7.96764 23.0476 7.95862 23.1875 7.95862C23.5107 7.95862 24.0227 8.012 24.4918 8.1601C24.8579 8.27587 25.2316 8.52697 25.5323 8.857C25.6405 8.77581 25.7563 8.72093 25.8728 8.69612C25.9172 8.6886 25.957 8.6856 25.9961 8.6856L26.1179 8.62771L26.5246 8.84723C26.6524 8.89309 26.784 8.93293 26.9156 8.96676C26.9787 8.9833 27.0404 8.99759 27.1005 9.01112C27.6591 9.13366 28.1109 9.13817 28.1154 9.13817L28.4056 9.14043L27.5177 10.0554L27.8936 11.0582L27.7252 11.0673C27.6734 11.0703 27.6185 11.0718 27.5598 11.0718L27.5566 11.0672ZM24.3429 10.8875C24.3824 10.9053 24.4193 10.9217 24.4526 10.9364C24.4193 10.9217 24.3824 10.9053 24.3429 10.8875Z" fill="#FFFFFE"/>
<path fill-rule="evenodd" clip-rule="evenodd" d="M26.0042 10.5937L25.9969 10.5884C25.9984 10.588 25.9999 10.5875 26.0014 10.5869L26.0042 10.5937ZM25.9218 10.5125L25.924 10.5116L25.9251 10.5142L25.9218 10.5125ZM25.45 9.38403C25.4316 9.41087 25.4133 9.43861 25.3955 9.46944C25.4133 9.43861 25.4316 9.4108 25.45 9.38403Z" fill="#1A1919"/>
<path fill-rule="evenodd" clip-rule="evenodd" d="M24.6912 8.9121L25.0422 8.7522C24.9761 8.70145 24.8894 8.64695 24.7871 8.59116C24.6909 8.53869 24.5811 8.48531 24.4637 8.43314L24.461 8.43427L24.6911 8.9121H24.6912ZM23.9833 9.75711L24.0029 9.75636C24.0322 9.77215 24.0436 9.75636 24.0731 9.7729C24.1627 9.82372 24.3349 9.88702 24.3222 9.97513L24.3313 9.98114C24.3561 10.004 24.3704 9.99828 24.4027 10.0153C24.4049 10.0164 24.4072 10.0171 24.4095 10.0181C24.4125 10.0201 24.4155 10.0222 24.4177 10.0241C24.4493 10.0444 24.4922 10.0545 24.5425 10.0535C24.5463 10.0533 24.5508 10.0523 24.5538 10.052C24.5861 10.0526 24.6192 10.0474 24.653 10.0395L24.4395 9.59743L24.0321 9.74102L23.9847 9.75606L23.9833 9.75711ZM24.4596 8.43133C24.4346 8.42021 24.4095 8.40901 24.3837 8.39803C24.325 8.37292 24.2653 8.34826 24.2041 8.32435C24.0525 8.26481 23.8957 8.21053 23.7422 8.16332L23.9758 8.64484L24.461 8.43434L24.4595 8.43133H24.4596ZM23.7005 8.96811L23.581 9.03637L23.7246 9.33085L24.2087 9.1214L23.9772 8.64477L23.6441 8.78911L23.7028 8.96803L23.7005 8.96811ZM23.7238 9.33085L23.2585 9.5866C23.3149 9.60841 23.4359 9.61164 23.4945 9.6366C23.5479 9.65915 23.6283 9.64148 23.684 9.66712C23.7216 9.68419 23.784 9.6699 23.8328 9.69434C23.8576 9.70651 23.8817 9.71877 23.9065 9.73155L23.9697 9.7641H23.9704L23.7268 9.33085H23.7238ZM24.4395 9.59803L24.9237 9.38858L24.6921 8.9127L24.2087 9.12245L24.4403 9.59908L24.4395 9.59803ZM24.4486 9.99843C24.1757 9.81086 23.2261 9.52233 23.5547 9.64532C23.6389 9.67689 21.8895 9.63284 22.53 9.50278L22.421 9.52496L22.8503 8.15144L22.8856 8.1443C23.2457 8.0716 23.6201 8.10258 23.9727 8.23467C24.3238 8.36593 24.6861 8.47689 24.9289 8.7737L24.9041 8.91827L24.514 9.99054L24.4501 9.99843H24.4486Z" fill="#FFFFFE"/>
<path fill-rule="evenodd" clip-rule="evenodd" d="M25.3229 9.6096L25.3203 9.61689C25.3211 9.61441 25.322 9.61201 25.3229 9.6096ZM25.4022 9.53442C25.3999 9.53908 25.3969 9.54375 25.3954 9.54833C25.3969 9.54382 25.3999 9.53908 25.4022 9.53442Z" fill="#1A1919"/>
<path fill-rule="evenodd" clip-rule="evenodd" d="M24.3833 8.47121C24.0108 8.33408 23.613 8.29717 23.2226 8.3637L22.7693 9.59814C23.1613 9.54521 23.5534 9.58836 23.9234 9.72466C24.2914 9.85999 24.6203 10.0831 24.8821 10.3738L25.3347 9.13932C25.0813 8.83808 24.7535 8.60751 24.3829 8.47121H24.3833ZM24.8498 10.5676C24.5932 10.2493 24.2549 10.0067 23.8714 9.8657C23.4861 9.72391 23.0719 9.69001 22.6685 9.76684L22.5381 9.79165L23.1109 8.23169L23.1527 8.22417C23.582 8.14298 24.0237 8.17982 24.4354 8.33093C24.8449 8.48204 25.2057 8.7399 25.4792 9.07895L25.5062 9.11203L24.9334 10.6727L24.8499 10.5697L24.8498 10.5676Z" fill="#1A1919"/>
<path fill-rule="evenodd" clip-rule="evenodd" d="M25.4183 10.1847C25.2574 10.0917 25.1822 9.82155 25.398 9.44814C25.6156 9.07119 25.8879 8.99955 26.049 9.09254C26.2592 9.21381 26.2613 9.48851 26.0551 9.84598C25.8521 10.1974 25.6378 10.3113 25.4183 10.1847ZM23.6651 11.6325C23.9681 11.8066 24.2515 11.8042 24.354 11.6267C24.4077 11.5342 24.3956 11.4184 24.3197 11.3011L24.2955 11.2643L24.3165 11.2252C24.3902 11.0884 24.4958 10.8967 24.63 10.6554L24.6751 10.5749L24.7449 10.6358C24.8091 10.6914 24.882 10.7426 24.9617 10.7884C25.5082 11.1042 26.1527 10.8358 26.5654 10.1208C26.9782 9.40589 26.8887 8.71274 26.3422 8.39699L26.2474 8.34436L26.3053 8.2752C26.4933 8.05117 26.6827 7.83916 26.9225 7.57153L27.0466 7.43245L27.0609 7.42643C27.0857 7.41516 27.1225 7.40388 27.1533 7.39411C27.2616 7.36103 27.4104 7.31592 27.4984 7.16331L27.5037 7.15278C27.6894 6.77689 27.2518 6.37393 26.8211 6.14389C26.3016 5.86572 25.867 5.85745 25.7152 6.12058L25.7069 6.13486C25.6468 6.24913 25.6746 6.37168 25.6994 6.47918C25.7204 6.57391 25.7287 6.62202 25.7174 6.65961C25.558 7.14226 25.3363 7.58807 25.1017 8.06094C25.0604 8.14439 25.0183 8.22784 24.9769 8.31279C24.7762 8.71951 24.5018 9.27733 24.4311 9.65172L24.4281 9.66601L23.653 10.9034L23.6102 10.9019C23.4763 10.8982 23.3741 10.9455 23.3222 11.0358C23.2982 11.0771 23.2749 11.1463 23.2997 11.2395C23.3358 11.3756 23.4756 11.5274 23.6628 11.6349L23.6651 11.6325Z" fill="#FFFFFE"/>
<path fill-rule="evenodd" clip-rule="evenodd" d="M26.0571 8.78271L25.1675 9.20334L24.9443 10.2329L25.4244 10.6218L25.8841 10.6797L26.7074 9.33829L26.4871 9.01449L26.0577 8.78271" fill="#1A1919"/>
<path fill-rule="evenodd" clip-rule="evenodd" d="M23.672 11.2062C23.7096 11.1763 23.7794 11.1635 23.8096 11.1597L24.403 10.2155C24.403 10.2155 24.4105 10.2042 24.4213 10.211C24.4349 10.2185 24.4213 10.2403 24.4213 10.2403C24.4213 10.2403 23.9582 11.0913 23.8898 11.2086C23.8943 11.2371 23.9018 11.2905 23.8845 11.3582C23.8845 11.3582 23.8394 11.3462 23.7703 11.2958C23.7011 11.2454 23.674 11.2048 23.674 11.2048L23.672 11.2062ZM24.8371 9.21318C25.125 8.59371 25.6197 7.73261 26.0121 6.8631C26.0189 6.84911 26.0249 6.83528 26.0309 6.82152C26.1053 6.65583 26.1136 6.56501 26.0632 6.45052C26.0347 6.38511 25.958 6.26858 26.0249 6.24753C26.1301 6.21446 26.391 6.29114 26.5624 6.3806C26.2136 6.43699 26.4143 6.55276 26.288 6.7798C26.1625 7.00684 24.9062 9.27047 24.9062 9.27047C24.719 9.62531 24.6867 9.87867 24.6867 9.87867C24.6514 9.74334 24.6905 9.53134 24.8386 9.21183L24.8371 9.21318ZM25.2671 9.37309C25.5174 8.93968 25.8775 8.8203 26.1234 8.96239C26.3692 9.10448 26.4692 9.4285 26.1843 9.92167C25.9001 10.4148 25.5888 10.4577 25.3423 10.3156C25.0964 10.1735 25.0167 9.8074 25.2671 9.37361V9.37309ZM23.7395 11.5021C23.9522 11.6244 24.1695 11.6465 24.2236 11.5512C24.2612 11.4867 24.2138 11.3844 24.1131 11.2873C24.2153 11.0898 24.4446 10.6773 24.5905 10.4175C24.5905 10.4175 24.5439 10.2684 24.5897 10.1686C24.5897 10.1686 24.6912 10.4622 25.0378 10.6568C25.5249 10.9303 26.0715 10.6759 26.4361 10.0444C26.8007 9.41308 26.7496 8.80436 26.2685 8.52613C26.2121 8.4935 26.1835 8.47861 26.1316 8.45696L25.6204 8.88292C25.6204 8.88292 26.5459 7.76757 26.9481 7.3174C27.0676 7.22914 27.2759 7.24974 27.3721 7.08345C27.6172 6.58802 26.0753 5.7606 25.8445 6.20115C25.7775 6.3285 25.9159 6.53389 25.8663 6.69763C25.673 7.28462 25.3904 7.81817 25.1167 8.37441C24.9175 8.77873 24.6281 9.36437 24.5769 9.7156L23.7289 11.0687C23.5989 11.0339 23.4914 11.0457 23.456 11.1087C23.4011 11.2034 23.5297 11.3801 23.7425 11.5022L23.7395 11.5021Z" fill="#1A1919"/>
<path fill-rule="evenodd" clip-rule="evenodd" d="M25.418 10.3365C25.4148 10.3332 25.4116 10.3293 25.4083 10.3256C25.2568 10.2136 25.1777 9.95796 25.3188 9.57515C25.4504 9.21805 25.6604 9.0498 25.8465 9.01838C25.8503 9.01763 25.8544 9.01575 25.858 9.015C25.9098 9.00425 25.9557 9.00597 25.9909 9.02026C25.9937 9.02161 25.9974 9.02312 26.0004 9.02447C26.0028 9.02522 26.0053 9.02537 26.0077 9.02612C26.0437 9.03665 26.0759 9.05131 26.1046 9.0692L26.1149 9.07349C26.2149 9.11521 26.3151 9.15092 26.4149 9.18415C26.5487 9.22865 26.6807 9.26609 26.8088 9.29744C26.8697 9.31173 26.9293 9.32526 26.9878 9.33804C27.2013 9.38239 27.3982 9.41171 27.5596 9.42901L27.1883 10.0936L27.3285 10.7845C27.0638 10.7747 26.7606 10.7386 26.4735 10.686C26.4066 10.674 26.3411 10.6604 26.2772 10.6469C26.1156 10.6123 25.9645 10.5732 25.8337 10.5319C25.6337 10.4687 25.4811 10.4003 25.418 10.3349" fill="#FFFFFE"/>
<path fill-rule="evenodd" clip-rule="evenodd" d="M26.2777 9.80722L25.7099 10.1033L25.3955 9.60484L25.9631 9.30879L26.2777 9.80722ZM26.5232 9.08325H26.5233C26.5466 9.09167 26.5731 9.1013 26.6013 9.11107C26.6314 9.12212 26.6622 9.13249 26.6923 9.14287C26.7524 9.16354 26.8126 9.18347 26.8584 9.1976C26.9268 9.2194 26.9945 9.23895 27.0606 9.25699C27.1336 9.27729 27.2042 9.29458 27.2734 9.31112L26.8486 9.5329L26.5232 9.08325ZM26.6525 10.3485L26.2977 9.83053L26.8651 9.53432L27.2143 10.0846L26.6526 10.3485" fill="#005534"/>
<path fill-rule="evenodd" clip-rule="evenodd" d="M26.09 10.6695L26.6041 10.3614L26.8807 10.8454C26.6922 10.8133 26.4991 10.7737 26.3119 10.7276C26.2364 10.7096 26.1625 10.6901 26.09 10.6698C26.058 10.6615 26.0271 10.6517 25.996 10.6427L26.09 10.6698V10.6695ZM26.5179 9.08724V9.08799L25.962 9.33458L25.6953 8.94583C25.7355 8.9326 25.732 8.92328 25.7703 8.91974C25.7746 8.91899 25.8963 9.00244 25.8645 8.9223C25.8419 8.86577 25.8927 8.87757 25.9562 8.8584C25.9594 8.86035 25.9635 8.86216 25.9669 8.86404L25.975 8.86629C26.0156 8.88095 26.0321 8.87276 26.0637 8.89486L26.075 8.90042C26.1862 8.95455 26.2984 9.00191 26.4103 9.04627C26.4469 9.06093 26.4832 9.07333 26.5197 9.08732L26.5182 9.08807H26.5179" fill="#005534"/>
<path fill-rule="evenodd" clip-rule="evenodd" d="M26.0444 10.6359L26.0414 10.6374C25.896 10.5949 25.7598 10.5502 25.6398 10.5046C25.5124 10.4562 25.4037 10.4071 25.3204 10.3595L25.7318 10.1358L26.0445 10.6359H26.0444ZM25.1701 9.73399C25.1716 9.67257 25.1644 9.68031 25.183 9.60829C25.1838 9.60513 25.2067 9.61145 25.2075 9.60829C25.2165 9.57461 25.2032 9.55995 25.2164 9.52409C25.2186 9.51808 25.2397 9.47553 25.2421 9.46944C25.2561 9.4329 25.2376 9.47169 25.2561 9.4329C25.2759 9.3917 25.2845 9.42042 25.3058 9.38403L25.3931 9.61769L25.1701 9.73399Z" fill="#005534"/>
<path fill-rule="evenodd" clip-rule="evenodd" d="M25.2639 9.92101C25.2609 9.86583 25.2643 9.80524 25.2752 9.73945C25.2757 9.73645 25.2761 9.73374 25.2767 9.73081C25.2819 9.69999 25.289 9.66811 25.2979 9.63511L25.3026 9.61819C25.3121 9.58451 25.3227 9.55008 25.336 9.51422C25.3495 9.4761 25.3653 9.4413 25.3811 9.40731C25.4863 9.17975 25.6262 9.04698 25.763 8.98872C25.7968 8.97444 25.8299 8.96301 25.863 8.95745C25.8667 8.95669 25.8705 8.95481 25.8743 8.95406C25.9261 8.94354 26.0351 8.96233 26.1208 9.00894L26.1306 9.01345C26.2306 9.05555 26.3306 9.09089 26.4306 9.12397C26.4629 9.13524 26.4952 9.14426 26.5276 9.15479C26.5501 9.16231 26.5727 9.16907 26.5952 9.17584C26.6208 9.18336 26.6486 9.19163 26.6757 9.19915C26.7253 9.21343 26.7749 9.22696 26.823 9.23824C26.8839 9.25327 26.9433 9.26681 27.0019 9.27883C27.0658 9.29237 27.1282 9.3044 27.1891 9.31492C27.3297 9.33973 27.4605 9.35852 27.5733 9.37055L27.0666 9.97198L27.3417 10.7268C27.229 10.723 27.1087 10.7132 26.9862 10.6997C26.8208 10.6824 26.6516 10.6584 26.4862 10.6283C26.4201 10.6163 26.3546 10.6035 26.2907 10.59C26.2622 10.5839 26.2351 10.5779 26.2081 10.5712C26.2065 10.5704 26.205 10.5704 26.2035 10.5704C26.075 10.5411 25.9539 10.5095 25.8472 10.4757C25.7337 10.4396 25.6359 10.402 25.5608 10.3644C25.5036 10.3358 25.4585 10.3065 25.4307 10.278C25.4269 10.275 25.4239 10.2712 25.4209 10.2674C25.3315 10.2013 25.2683 10.0855 25.2593 9.92387L25.2639 9.92101ZM25.2994 10.3909C25.4219 10.5174 25.7519 10.6369 26.1427 10.728C26.2109 10.7438 26.281 10.7588 26.3522 10.7727C26.8015 10.8613 27.294 10.9106 27.6346 10.8915L27.2943 10.0102L28.0262 9.23012C28.0262 9.23012 27.5706 9.22689 26.9981 9.10156C26.937 9.08818 26.8744 9.07337 26.8111 9.05706C26.6156 9.00744 26.4113 8.94203 26.2104 8.85859C26.1683 8.84129 26.126 8.824 26.0842 8.80446C26.005 8.78115 25.9211 8.77664 25.8369 8.79168C25.5917 8.8443 25.3099 9.07209 25.1654 9.46377L25.165 9.46453L25.1605 9.47881C25.009 9.90507 25.1462 10.2344 25.2994 10.3922V10.3909Z" fill="#1A1919"/>
<path fill-rule="evenodd" clip-rule="evenodd" d="M23.66 7.89585C23.3778 7.02731 22.4451 6.5521 21.5764 6.83433C20.7081 7.11647 20.2326 8.04921 20.5149 8.91775C20.7971 9.78622 21.73 10.2616 22.5983 9.97943C23.467 9.69721 23.9422 8.76431 23.66 7.89585ZM22.0467 23.4426C19.5661 23.4436 14.5228 23.7834 11.1865 24.5603L11.4642 24.6299C11.5106 24.6173 11.5537 24.6103 11.5958 24.6056L13.769 26.7574L12.0256 28.9333C12.1962 28.9745 12.3692 29.0343 12.5391 29.1216C13.4029 28.8833 14.2907 28.6765 15.1951 28.4988L14.0659 27.2083L14.0753 26.6529L16.4875 23.9403H16.4877L19.26 26.4784L22.0429 23.6238H22.0467V23.4426Z" fill="#FFFFFE"/>
<path fill-rule="evenodd" clip-rule="evenodd" d="M22.0127 23.4424C24.4934 23.4434 29.5366 23.7832 32.873 24.5601L32.5952 24.6297C32.5488 24.6171 32.5058 24.6101 32.4637 24.6054L30.2905 26.7572L32.0339 28.9331C31.8633 28.9743 31.6904 29.0341 31.5205 29.1214C30.6567 28.8831 29.7688 28.6763 28.8652 28.4986L29.9928 27.208L29.7703 26.6524L27.5706 23.94H27.5698L24.7972 26.478L22.0141 23.6227H22.0127V23.4424Z" fill="#FFFFFE"/>
<path fill-rule="evenodd" clip-rule="evenodd" d="M35.9171 27.961C35.7531 27.6554 34.5429 27.1101 31.8833 26.4484C27.8404 25.4422 24.53 25.3219 22.0575 25.3219C19.5808 25.3219 16.2584 25.4422 12.2155 26.4483C9.55565 27.1101 8.34527 27.6554 8.18138 27.9609C7.88293 28.5163 8.51668 29.9229 8.83093 30.6857C9.29779 31.8186 10.2774 33.1555 10.2774 33.1555C10.2774 33.1555 10.0909 32.6524 11.5133 32.2158C16.8856 30.5665 22.0263 30.6973 22.0556 30.6973C22.094 30.6973 27.2106 30.5665 32.5829 32.2158C34.0053 32.6524 33.8188 33.1555 33.8188 33.1555C33.8188 33.1555 34.7984 31.8185 35.2653 30.6857C35.5795 29.9229 36.2125 28.5163 35.9148 27.961" fill="#005534"/>
<path fill-rule="evenodd" clip-rule="evenodd" d="M22.0329 25.5017C20.9342 25.5017 19.4509 25.5227 17.7193 25.6868C15.8519 25.8636 14.0602 26.1694 12.2421 26.622C11.0084 26.9289 10.0233 27.2257 9.31462 27.5038C8.44766 27.8441 8.34203 28.0263 8.33805 28.0338C8.27385 28.1534 8.2346 28.4255 8.41225 29.0426C8.54381 29.5013 8.74905 29.9936 8.91444 30.3889C8.94301 30.458 8.97083 30.524 8.99639 30.5856C9.31214 31.3524 9.87598 32.226 10.191 32.6876C10.397 32.4202 10.8135 32.1892 11.4322 31.9991C16.0557 30.579 20.4965 30.4692 21.7474 30.4692C21.8211 30.4692 21.9301 30.4692 22.0316 30.4715H22.0384C22.1218 30.47 22.2173 30.4692 22.3226 30.4692C23.569 30.4692 27.9963 30.579 32.6205 31.9984C33.2393 32.1878 33.6557 32.4194 33.8617 32.6863C34.176 32.2247 34.7406 31.3503 35.0563 30.5843C35.0811 30.5226 35.1089 30.4565 35.1375 30.3873C35.3022 29.9919 35.5081 29.4994 35.6397 29.0409C35.8171 28.4236 35.778 28.1515 35.7134 28.032C35.7089 28.0244 35.6036 27.8418 34.7368 27.5019C34.0279 27.2238 33.043 26.9268 31.8094 26.6201C29.9908 26.1675 28.2008 25.8615 26.3371 25.6841C24.6095 25.5202 23.1292 25.4992 22.0324 25.4992H22.0301L22.0329 25.5017ZM33.9621 33.2523L33.6088 33.0621C33.6046 33.0732 33.6039 33.0784 33.6039 33.0784C33.6039 33.0749 33.6242 32.7307 32.5025 32.3865C27.9324 30.9836 23.5555 30.8746 22.3233 30.8746C22.2203 30.8746 22.1271 30.8754 22.0459 30.8769L22.0339 30.8776H22.0233C21.9249 30.8761 21.8189 30.8754 21.7467 30.8754C20.51 30.8754 16.1203 30.9844 11.5502 32.3872C10.4285 32.7315 10.4488 33.0758 10.4488 33.0796C10.4488 33.0796 10.4797 33.2224 10.4759 33.2112L10.1391 33.336C10.0985 33.2811 9.09036 31.8843 8.61974 30.7415L8.53855 30.5468C8.0747 29.4364 7.68302 28.3945 7.97847 27.8442C8.05139 27.7081 8.25362 27.4856 9.16404 27.1285C9.88876 26.8443 10.8909 26.5421 12.1419 26.2308C13.9792 25.7737 15.7903 25.4648 17.6788 25.2858C19.4267 25.1204 20.9227 25.0986 22.0301 25.0986H22.0324C23.1382 25.0994 24.6313 25.1204 26.3754 25.2858C28.2594 25.4648 30.069 25.7737 31.9071 26.2316C33.1581 26.5428 34.1594 26.845 34.8849 27.13C35.7953 27.4871 35.9976 27.7096 36.0705 27.8457C36.3659 28.396 35.9743 29.4379 35.5104 30.5483C35.4818 30.6167 35.454 30.6822 35.4292 30.743C34.9578 31.8858 33.9993 33.2006 33.9587 33.2555L33.9621 33.2523Z" fill="#1A1919"/>
<path fill-rule="evenodd" clip-rule="evenodd" d="M14.4979 25.8958C14.4838 25.9562 14.4676 26.0113 14.4526 26.0591C14.392 26.253 14.3072 26.447 14.1945 26.6485C14.2697 26.5485 14.339 26.4417 14.402 26.329C14.4798 26.1899 14.5499 26.037 14.6107 25.8749C14.5927 25.8782 14.5747 25.8815 14.5574 25.885C14.5371 25.8887 14.5175 25.8923 14.4972 25.8958H14.4979ZM11.1995 26.9645C11.2105 27.0047 11.2203 27.0441 11.229 27.0827C11.2301 27.0478 11.2297 27.0111 11.228 26.9719L11.1994 26.9644L11.1995 26.9645ZM18.8977 27.3231C18.889 27.393 18.8757 27.4626 18.8569 27.5356C18.848 27.5702 18.8384 27.6044 18.8281 27.6384L18.8304 27.6338C18.923 27.4279 19.012 27.2354 19.0995 27.052L19.0809 27.0535C19.0688 27.0738 19.0561 27.0956 19.041 27.1174L18.8974 27.3241L18.8977 27.3231ZM10.4814 26.8281C10.4604 26.8724 10.4412 26.9198 10.4235 26.9712C10.3792 27.1 10.3631 27.2347 10.3747 27.383C10.3842 27.5057 10.3977 27.5908 10.4569 27.6844C10.4777 27.7175 10.5026 27.7547 10.5343 27.7686C10.5742 27.7757 10.59 27.7344 10.6067 27.6978C10.6232 27.6613 10.6332 27.6181 10.6371 27.5663C10.6472 27.4289 10.6275 27.2803 10.5749 27.0982C10.5485 27.0072 10.5173 26.9169 10.4814 26.8281ZM26.0077 27.5797C25.9357 27.7992 25.8323 28.003 25.6985 28.1879C25.8304 28.0496 25.9205 27.8932 25.9739 27.7113C25.9795 27.6925 25.9866 27.6729 25.9938 27.6541L26.0077 27.6166V27.5805V27.5797ZM24.2892 28.1466C24.2998 28.1631 24.3088 28.1811 24.3156 28.1992C24.3163 28.1924 24.3178 28.1857 24.3186 28.1789C24.3344 28.0894 24.3614 27.9992 24.4005 27.9022C24.4441 27.794 24.4937 27.6895 24.5494 27.591C24.4411 27.7286 24.3697 27.8729 24.3328 28.03C24.3223 28.0729 24.3073 28.112 24.2877 28.1488L24.2892 28.1466ZM16.4218 28.0173C16.3812 28.133 16.3346 28.2443 16.2805 28.3503C16.291 28.3375 16.3023 28.3247 16.3158 28.3112C16.3526 28.2744 16.3902 28.2375 16.4271 28.2007C16.4143 28.1601 16.409 28.1187 16.4128 28.0759C16.4135 28.0676 16.415 28.0458 16.421 28.0188L16.4218 28.0173ZM21.8196 27.7872L21.5016 28.4586C21.4926 28.4773 21.4858 28.4916 21.4783 28.5059L21.4723 28.5164H21.552L21.5798 28.4608C21.679 28.2608 21.7783 28.0601 21.8783 27.8601C21.8903 27.8308 21.9249 27.7519 22.0121 27.691L22.07 27.5496C22.0782 27.5278 22.0865 27.5083 22.0963 27.4895L22.1286 27.4264C22.1624 27.3594 22.197 27.2933 22.2331 27.2279C22.2827 27.1369 22.3338 27.0467 22.3842 26.9557H22.2978L22.291 26.967C22.1038 27.2752 21.9549 27.5339 21.8204 27.7819L21.8159 27.7902L21.8196 27.7872ZM22.9105 28.5337C22.9202 28.5397 22.9285 28.542 22.939 28.5435C23.0232 28.5555 23.1037 28.545 23.1864 28.5112L23.1977 28.5067C23.1856 28.4841 23.1751 28.4593 23.1668 28.433C23.145 28.3653 23.1398 28.2954 23.1495 28.2247C23.1601 28.1488 23.1849 28.0744 23.2247 27.9985L23.2826 27.8879C23.333 27.791 23.3841 27.694 23.4337 27.597C23.5495 27.3715 23.654 27.1753 23.7547 26.9933H23.7525L23.7104 26.9911L23.6562 27.0798C23.545 27.2625 23.4345 27.4451 23.3255 27.6278C23.2834 27.6985 23.2315 27.7571 23.1706 27.8053L23.2104 27.8774L23.0308 28.2127C22.9999 28.2691 22.9691 28.3255 22.9405 28.3834C22.9022 28.4593 22.903 28.5074 22.9075 28.5367V28.5382L22.9105 28.5337ZM19.671 28.2496L19.6883 28.2909C19.6966 28.3097 19.7056 28.33 19.7139 28.351C19.7289 28.3871 19.7432 28.4202 19.7575 28.4473C19.7718 28.4736 19.7988 28.5082 19.88 28.5352C19.9048 28.5443 19.9289 28.5503 19.9537 28.5555C19.9116 28.5037 19.8785 28.442 19.8545 28.3706C19.8349 28.3135 19.8229 28.2601 19.8184 28.2082C19.8018 28.0255 19.8176 27.8661 19.8657 27.7211L19.8785 27.6812C19.7943 27.8481 19.7372 28.0022 19.7056 28.1511C19.6981 28.1864 19.6861 28.2202 19.6695 28.2518L19.671 28.2496ZM26.8416 28.0052L26.828 28.0345C26.8047 28.0842 26.7829 28.1315 26.7679 28.1744C26.7145 28.3262 26.6957 28.4495 26.7092 28.5623L26.7138 28.5954L26.7092 28.557L26.7235 28.4758C26.7295 28.4368 26.7371 28.3947 26.7476 28.3526C26.7807 28.218 26.8363 28.0812 26.9175 27.9353C26.9889 27.8068 27.0656 27.691 27.149 27.585L27.1092 27.6128L26.8769 27.9503C26.8716 27.9586 26.8664 27.9654 26.8611 27.9729L26.8461 27.9947L26.8378 28.0067L26.8416 28.0052ZM18.4223 28.427L18.4441 28.6255L18.4471 28.6563C18.4576 28.6555 18.4712 28.6518 18.4862 28.6465C18.5291 28.6307 18.5749 28.6014 18.6321 28.5631L18.6997 28.5157C18.6486 28.4488 18.6185 28.3638 18.6148 28.2684C18.6125 28.2142 18.6178 28.1608 18.629 28.1097C18.5681 28.2202 18.499 28.327 18.4208 28.4277L18.4223 28.427ZM17.1164 28.1759V28.3563C17.1157 28.439 17.121 28.5037 17.133 28.5608C17.1458 28.6224 17.1631 28.6706 17.1856 28.7089C17.2044 28.7397 17.2209 28.7495 17.2458 28.7555C17.2623 28.76 17.2788 28.763 17.2961 28.7653C17.263 28.7179 17.239 28.663 17.2262 28.6021C17.2104 28.5292 17.2059 28.4563 17.2142 28.3864C17.2315 28.2293 17.2668 28.0804 17.3194 27.9436C17.3683 27.818 17.4202 27.7015 17.4781 27.5917C17.351 27.7331 17.2608 27.8714 17.2029 28.0165C17.1788 28.0759 17.1503 28.1293 17.1157 28.1774L17.1164 28.1759ZM26.086 28.7036L26.068 28.7224C25.9823 28.8111 25.8875 28.8893 25.7838 28.9555C25.8597 28.9389 25.9402 28.9277 26.0266 28.9224C26.0672 28.9202 26.1071 28.9186 26.1477 28.9179C26.1191 28.851 26.098 28.7796 26.0853 28.7044L26.086 28.7036ZM13.0981 29.5005C13.1109 29.5058 13.1222 29.508 13.1335 29.5088C13.1914 29.5141 13.2478 29.5065 13.3056 29.4855C13.3756 29.4607 13.4447 29.4201 13.5056 29.3802C13.4485 29.3231 13.4101 29.2547 13.3921 29.1773C13.3756 29.1081 13.3718 29.0382 13.3793 28.9675C13.3891 28.8765 13.4079 28.7871 13.4365 28.7006C13.4778 28.5728 13.5207 28.4443 13.5635 28.3165L13.5778 28.2729C13.5868 28.2458 13.5966 28.2187 13.6056 28.1917C13.6184 28.1556 13.6312 28.1195 13.6424 28.0834C13.6492 28.0616 13.653 28.0345 13.6327 27.9879C13.6161 27.9496 13.5861 27.9143 13.5387 27.8782C13.5282 27.8699 13.5184 27.8631 13.5071 27.8549L13.3365 27.7301C13.2846 27.7752 13.232 27.818 13.1778 27.8586C13.2523 27.912 13.3305 27.997 13.3771 28.1315C13.4199 28.2578 13.4184 28.3954 13.3726 28.53C13.3357 28.6375 13.3004 28.7367 13.2635 28.8322C13.1793 29.0547 13.1267 29.2269 13.0921 29.39C13.0839 29.4291 13.0824 29.4592 13.0876 29.4817C13.0899 29.493 13.0921 29.4998 13.0936 29.5043L13.0981 29.5005ZM12.0667 26.0581C12.1411 26.1618 12.199 26.2799 12.2441 26.4182C12.3614 26.7851 12.3486 27.1482 12.2058 27.4978C12.1547 27.6233 12.1058 27.7361 12.0577 27.8428C11.9419 28.0969 11.8246 28.351 11.7066 28.6036C11.5247 28.9938 11.351 29.3855 11.2051 29.7163L11.1337 29.8787C11.2179 29.8576 11.3021 29.8366 11.3863 29.8163C11.4149 29.7471 11.4442 29.6787 11.4735 29.6095L11.6194 29.2667C11.7419 28.9788 11.8637 28.6909 11.9855 28.4029C12.0299 28.2977 12.1043 28.2187 12.2073 28.1661C12.2667 28.136 12.3253 28.1052 12.3832 28.0729C12.3734 28.0639 12.3637 28.0548 12.3554 28.0443L12.2614 27.9368L12.2772 27.806C12.2787 27.7842 12.2832 27.7451 12.3028 27.7C12.3682 27.5504 12.4118 27.391 12.4516 27.2407C12.4937 27.079 12.5118 26.9482 12.5087 26.8287C12.5065 26.7264 12.499 26.6505 12.4847 26.5828C12.4659 26.4934 12.4245 26.4054 12.3554 26.3069C12.2734 26.1919 12.178 26.11 12.0644 26.0588L12.0667 26.0581ZM27.2896 29.7622L27.2821 29.7742C27.2295 29.8546 27.1723 29.9411 27.1092 30.029C27.1272 30.011 27.1445 29.9914 27.1618 29.9719C27.2295 29.8945 27.2881 29.8073 27.3325 29.7396C27.3423 29.7246 27.3528 29.7095 27.3641 29.693L27.5422 29.4261L28.088 28.5608C28.1271 28.4984 28.167 28.4368 28.2068 28.3751C28.2459 28.315 28.2842 28.2548 28.3233 28.1947C28.3632 28.133 28.4038 28.0714 28.4436 28.0105L28.4564 27.9909C28.4925 27.9361 28.5293 27.8804 28.5662 27.8255C28.594 27.7842 28.6225 27.7429 28.6511 27.7008L28.7804 27.5106C28.7616 27.5075 28.7428 27.5045 28.724 27.5008C28.697 27.5339 28.6699 27.5549 28.6571 27.5647L28.491 27.7045C28.4767 27.7684 28.4572 27.8323 28.4331 27.8955C28.3015 28.2368 28.1016 28.5285 27.8377 28.7645L27.2986 29.7652L27.2859 29.7629L27.2896 29.7622ZM14.4288 29.1224L14.4393 29.2494C14.4454 29.3171 14.4341 29.384 14.4063 29.4479L14.3544 29.5682C14.2672 29.7704 14.18 29.9719 14.092 30.1734L13.9995 30.3846C14.0236 30.3809 14.0469 30.3764 14.0702 30.3726L14.4408 29.4757C14.4844 29.3712 14.5273 29.2667 14.5709 29.1622C14.6198 29.0134 14.7273 28.9547 14.7882 28.9322L14.8664 28.9036C14.8506 28.8329 14.8483 28.7578 14.8581 28.6743C14.8731 28.5473 14.9032 28.4165 14.9475 28.2856C15.043 28.0007 15.1761 27.7398 15.343 27.5113L15.3437 27.5106L15.264 27.5241L15.2625 27.5271C15.2159 27.6278 15.1693 27.7286 15.1235 27.8293C15.0866 27.9105 15.0505 27.9924 15.0137 28.0736C14.9611 28.1909 14.9092 28.3082 14.8558 28.4247C14.7468 28.6623 14.6258 28.8683 14.4867 29.054C14.4679 29.078 14.4491 29.1021 14.4288 29.1261V29.1224ZM12.95 31.2206L13.4222 30.1155C13.3086 30.1441 13.1936 30.1538 13.0771 30.1441C13.0087 30.138 12.941 30.123 12.8771 30.0997C12.6629 30.0215 12.517 29.8479 12.4666 29.6118C12.4433 29.5005 12.4448 29.3848 12.4712 29.2577C12.5095 29.0743 12.5659 28.8863 12.6516 28.654C12.6178 28.6728 12.5839 28.6909 12.5493 28.7081C12.4358 28.978 11.8434 30.3666 11.8434 30.3666C11.8434 30.3666 11.1909 30.5222 10.9601 30.5801L10.0309 30.8019L10.6218 29.4614C10.7541 29.1607 10.9097 28.8111 11.0736 28.4563C10.8879 28.5608 10.6849 28.6307 10.4684 28.6653C10.2767 28.6961 10.0918 28.6841 9.9211 28.63C9.62489 28.536 9.39861 28.3292 9.26554 28.0345C9.20239 27.8947 9.16706 27.7429 9.15803 27.5699C9.13774 27.2091 9.22945 26.861 9.43093 26.5355C9.57452 26.3039 9.75796 26.1025 9.97673 25.9363C10.3271 25.6709 10.7233 25.4905 11.1555 25.401C11.3269 25.3657 11.4856 25.3477 11.6397 25.3454H11.663C11.878 25.3454 12.0817 25.383 12.2682 25.4559C12.511 25.5514 12.7155 25.7153 12.8764 25.9423C12.9967 26.113 13.0733 26.2806 13.1102 26.4565C13.1387 26.5956 13.1448 26.7287 13.147 26.8174C13.1485 26.8888 13.1455 26.9617 13.138 27.0369C13.1703 27.0008 13.2026 26.964 13.2342 26.9249C13.3598 26.7723 13.4733 26.6122 13.5718 26.4498C13.6951 26.2468 13.7838 26.0589 13.8402 25.8739C13.9259 25.5935 13.9131 25.368 13.9131 25.368L15.4738 25.1011C15.4738 25.1011 15.3979 25.4131 15.3573 25.586C15.3242 25.7454 15.2746 25.913 15.2054 26.0979C15.1325 26.2919 15.0483 26.4753 14.9543 26.6437C14.7852 26.9475 14.5769 27.2159 14.3356 27.4429C14.2717 27.503 14.21 27.5587 14.1491 27.612C14.1762 27.6534 14.1988 27.6962 14.2183 27.7413C14.2754 27.8752 14.295 28.0142 14.2769 28.1503C14.3281 28.0391 14.3777 27.927 14.4281 27.815C14.4649 27.7331 14.5017 27.6504 14.5393 27.5684C14.5859 27.4662 14.6333 27.364 14.6799 27.2617L14.725 27.1632C14.7318 27.1482 14.7393 27.1339 14.7476 27.1174L14.8258 26.9595L14.9799 26.9294C15.0753 26.9106 15.1726 26.8948 15.2701 26.879C15.2701 26.879 15.4242 26.8535 15.4552 26.8475C15.55 26.8309 16.0777 26.7437 16.1428 26.7332C16.3849 26.6941 16.5939 26.7407 16.7675 26.8678C16.8735 26.946 16.9562 27.0414 17.0141 27.1535C17.1803 26.9715 17.3479 26.8294 17.5253 26.7197C17.711 26.6046 17.8892 26.5377 18.0659 26.4941C18.3538 26.4227 20.0784 26.3641 20.0784 26.3641L19.9792 26.6159C20.1363 26.5107 20.3055 26.4332 20.4866 26.3844C20.6813 26.331 20.8783 26.3099 21.0745 26.322C21.1723 26.3272 21.2692 26.349 21.3625 26.3851C21.5203 26.4468 21.6421 26.5453 21.7233 26.6746L21.7444 26.6385L21.7752 26.5874C21.7875 26.5663 21.8 26.5453 21.8128 26.5242C21.8218 26.5092 21.8323 26.4941 21.8436 26.4776L21.9474 26.3227L22.1165 26.3212C22.1714 26.3212 22.2263 26.3205 22.2819 26.3205C22.5157 26.3205 22.727 26.325 22.9269 26.3348C22.9269 26.3348 23.8704 26.3648 23.9133 26.3656C23.9787 26.3671 24.0441 26.3708 24.1102 26.3746C24.1681 26.3776 24.2275 26.3806 24.2882 26.3821L24.7754 26.3941L24.64 26.6843C24.7966 26.6009 24.9671 26.5392 25.149 26.5009C25.3042 26.4686 25.4474 26.455 25.5925 26.4603C25.7847 26.4671 25.9632 26.5084 26.1226 26.5813C26.2098 26.6219 26.2902 26.6746 26.3601 26.737C26.4924 26.855 26.5789 27.0046 26.6172 27.182C26.6428 27.1647 26.6676 27.1467 26.6932 27.1286C26.73 27.1023 26.7676 27.076 26.8044 27.0505C27.0067 26.9106 27.2299 26.8136 27.4698 26.761C27.6315 26.7257 27.7968 26.7144 27.9599 26.7283C28.1298 26.7426 28.7418 26.8629 28.7989 26.8734L29.0808 26.9215C29.1184 26.9275 29.1553 26.9336 29.1929 26.9403C29.235 26.9476 29.2771 26.9554 29.3207 26.9636L29.8304 27.0568L29.5984 27.4496C29.5653 27.5052 29.5315 27.5526 29.5014 27.5939C29.4879 27.6127 29.4743 27.6308 29.4615 27.6496C29.4358 27.6882 29.4089 27.727 29.3818 27.7653L29.1766 28.066C29.1493 28.106 29.1217 28.1465 29.0947 28.1866C29.059 28.2399 29.0237 28.2937 28.9884 28.3472L28.9757 28.3668C28.9358 28.4277 28.896 28.4881 28.8569 28.5489C28.8185 28.6083 28.7794 28.6677 28.7411 28.7271C28.702 28.788 28.6625 28.8489 28.6238 28.9098L28.7061 29.1872C28.7227 29.1909 28.7543 29.1992 28.7903 29.2173L29.5008 29.5759L29.5985 29.6255L29.6421 29.7164L30.0263 29.7022C30.0263 29.7022 29.8549 29.9638 29.4707 30.1826C29.3561 30.2472 29.2226 30.2998 29.0678 30.3434C28.8618 30.4006 28.6475 30.4201 28.4347 30.4021C28.1919 30.381 27.9634 30.3314 27.7559 30.254L27.7544 30.2537C27.719 30.3011 27.6807 30.35 27.6386 30.3981C27.3696 30.7041 27.0364 30.8958 26.6479 30.9672C26.4489 31.004 26.2525 31.0131 26.0615 30.9958C25.963 30.9867 25.8322 30.9717 25.6991 30.9349C25.5565 30.8958 25.4353 30.8414 25.327 30.7687C25.0872 30.6071 24.9436 30.368 24.9105 30.0771C24.8962 29.9493 24.912 29.82 24.9616 29.6704C25.0301 29.4636 25.1506 29.2945 25.3175 29.1688C25.2964 29.1748 25.2746 29.18 25.2533 29.1861C25.1149 29.2206 24.9683 29.2387 24.8172 29.2387H24.8075C24.6458 29.2379 24.5007 29.2139 24.3639 29.1665C24.1647 29.0966 24.0053 28.9823 23.891 28.8282C23.8422 28.865 23.794 28.8989 23.7459 28.9304C23.6279 29.0086 23.5254 29.0643 23.424 29.1056C23.2391 29.1815 23.0429 29.2071 22.8466 29.18C22.7504 29.1673 22.661 29.1357 22.5805 29.0883C22.4106 28.9868 22.3016 28.8235 22.2745 28.6281C22.2693 28.5887 22.2663 28.5491 22.2663 28.5101C22.2264 28.5897 22.1869 28.6694 22.1473 28.7491L22.1105 28.8235C22.0902 28.8649 22.0691 28.907 22.0488 28.9491C21.988 29.0777 21.8624 29.1573 21.7226 29.1573L21.5376 29.1588L21.2166 29.1611L21.0918 29.1634L20.9941 29.1656C20.9813 29.1656 20.9693 29.1656 20.9565 29.1649L20.7347 29.1588L20.6941 29.0543C20.5889 29.1032 20.4829 29.1408 20.3761 29.1679C20.1386 29.2295 19.898 29.2205 19.6709 29.1431C19.5078 29.0874 19.377 29.0002 19.28 28.8829C19.1823 28.9581 19.0861 29.028 18.9906 29.0934C18.9079 29.1506 18.8154 29.2092 18.7041 29.2498C18.6124 29.2836 18.5252 29.3002 18.4365 29.3002L18.426 29.2994C18.338 29.2979 18.2523 29.2791 18.1696 29.243C18.1193 29.2212 18.0734 29.1942 18.0336 29.1626C17.9005 29.2656 17.7652 29.3348 17.6186 29.3731C17.4434 29.419 17.2637 29.4212 17.0886 29.3769C16.8961 29.3287 16.7397 29.2122 16.6367 29.0401C16.6247 29.0198 16.6134 28.9995 16.6029 28.9784C16.5007 29.1017 16.3999 29.2032 16.2939 29.2919C16.0879 29.4633 15.8601 29.5806 15.6173 29.64C15.4782 29.6738 15.3316 29.6858 15.1835 29.6768C15.1402 29.6738 15.0972 29.6678 15.055 29.6595L15.0294 29.7212L14.5205 30.9428L12.9485 31.2248L12.95 31.2206Z" fill="#1A1919"/>
<path fill-rule="evenodd" clip-rule="evenodd" d="M30.9381 28.237C30.9188 28.2954 30.8952 28.3544 30.8674 28.4144C30.8488 28.4542 30.8293 28.4933 30.8089 28.5317L30.8193 28.5174C30.9211 28.3781 31.023 28.2388 31.126 28.1004C31.1534 28.0636 31.1811 28.0268 31.2089 27.9901L31.1909 27.9862C31.1758 27.9832 31.1608 27.9795 31.1458 27.9765L30.9439 28.2441L30.9381 28.2381V28.237ZM29.6803 27.9144C29.5676 27.9798 29.4779 28.0469 29.4061 28.1191C29.3165 28.2093 29.2429 28.324 29.1811 28.4702C29.1303 28.5907 29.1091 28.7118 29.1163 28.8402C29.12 28.9078 29.1343 28.9701 29.1591 29.0308L29.1614 29.036L29.1591 29.0137C29.1576 28.996 29.1576 28.9778 29.1576 28.9596C29.1553 28.854 29.1809 28.7624 29.2057 28.6869C29.2516 28.5486 29.3177 28.4132 29.4132 28.2614C29.4944 28.1328 29.5824 28.0178 29.6778 27.9148L29.6803 27.9144ZM30.3801 29.2135C30.3826 29.2312 30.3862 29.2678 30.3792 29.3122C30.3766 29.328 30.375 29.3378 30.4085 29.3679C30.4224 29.3799 30.432 29.3837 30.4513 29.3837C30.4629 29.3837 30.4766 29.3814 30.4918 29.3784C30.5334 29.3694 30.5803 29.3491 30.6322 29.325C30.5556 29.216 30.5295 29.0754 30.5622 28.9476C30.5696 28.9191 30.5788 28.8905 30.5897 28.8642C30.5325 28.9348 30.4715 29.001 30.4062 29.0626C30.394 29.0739 30.3817 29.0859 30.3694 29.0965L30.3801 29.2122V29.2135ZM33.5695 28.9298C33.5214 29.0451 33.4566 29.1603 33.3701 29.2849C33.3026 29.3822 33.2257 29.4733 33.1402 29.5581C33.211 29.5017 33.2757 29.4385 33.3349 29.3686C33.4304 29.2551 33.4975 29.1431 33.54 29.0266C33.5528 28.9912 33.5625 28.9596 33.5695 28.9296V28.9298ZM30.7368 30.5249C30.7636 30.5294 30.7906 30.5346 30.8174 30.5392L30.8441 30.5023C30.9541 30.352 31.0641 30.2016 31.1737 30.0512C31.2353 29.9663 31.2962 29.8813 31.3571 29.7964L31.4663 29.6438C31.5581 29.4964 31.6986 29.4799 31.7558 29.4799H31.7821C31.7866 29.422 31.7979 29.3649 31.8152 29.31C31.8467 29.2092 31.8911 29.1115 31.9512 29.0093C32.1189 28.7243 32.3181 28.4996 32.5602 28.3221L32.5707 28.3139C32.5121 28.2988 32.4542 28.283 32.3955 28.268C32.3474 28.3266 32.3001 28.3853 32.2535 28.4454C32.1339 28.5973 31.9941 28.7792 31.8663 28.9694C31.7949 29.0747 31.7197 29.1626 31.6355 29.2378C31.5889 29.2799 31.5415 29.3167 31.4934 29.3491L31.5393 29.3972L30.8762 30.3234C30.8581 30.3489 30.8393 30.3753 30.8213 30.4001C30.804 30.4234 30.7867 30.4474 30.7687 30.4707L30.7326 30.5196L30.7368 30.5249ZM29.6485 30.9609L30.2597 30.0971L30.3078 30.0317L30.3236 30.0084C30.1981 29.9858 30.0831 29.9302 29.9846 29.843C29.9462 29.8092 29.9124 29.7731 29.8831 29.7355C29.8177 29.7633 29.7515 29.7859 29.6831 29.8016C29.3508 29.8798 29.0351 29.7979 28.7719 29.5648C28.6862 29.4889 28.6201 29.3942 28.5705 29.2746C28.5163 29.1476 28.4855 29.0123 28.478 28.8724C28.4652 28.6484 28.5035 28.4289 28.5915 28.2199C28.6855 27.9966 28.8035 27.8162 28.9516 27.6673C29.0666 27.5508 29.205 27.4478 29.3741 27.3508C29.5147 27.2704 29.6508 27.2117 29.7906 27.1734C30.0207 27.1087 30.2635 27.1057 30.5086 27.1636L31.5776 27.4177C31.6009 27.423 31.625 27.4283 31.6483 27.4328C31.7099 27.4463 32.3587 27.6027 32.3587 27.6027C32.379 27.6064 32.8023 27.7154 32.994 27.7651C33.0263 27.7733 33.0579 27.7816 33.0909 27.7906L33.3451 27.859C33.8984 27.9966 34.1254 28.2041 34.2028 28.6462C34.2352 28.8318 34.2134 29.0258 34.1359 29.2386C34.0675 29.4273 33.9638 29.6017 33.8187 29.7738C33.5969 30.037 33.3142 30.2347 32.9789 30.364C32.8406 30.4174 32.6902 30.4482 32.5316 30.4565C32.397 30.4625 32.2662 30.4429 32.1745 30.4249C32.1001 30.4106 32.0354 30.3941 31.9768 30.3738C31.9031 30.3489 31.8392 30.3189 31.7836 30.285C31.7505 30.3302 31.7182 30.376 31.6851 30.4211C31.5753 30.5722 31.4648 30.7226 31.3543 30.8737L31.1032 31.2195L29.644 30.9549L29.6485 30.9609Z" fill="#1A1919"/>
<path fill-rule="evenodd" clip-rule="evenodd" d="M27.0068 29.5741C26.9976 29.5696 26.9897 29.5641 26.9809 29.5615C26.7935 29.5059 26.6036 29.473 26.407 29.4976C26.291 29.5119 26.1822 29.5463 26.0807 29.6038C26.0096 29.6441 25.9481 29.6956 25.8993 29.7614C25.8042 29.89 25.7719 30.0346 25.7906 30.1914C25.7966 30.245 25.8161 30.2953 25.847 30.3409C25.8785 30.3889 25.9221 30.4228 25.9763 30.4413C26.0199 30.4564 26.0665 30.4606 26.1131 30.4543C26.2176 30.4408 26.3138 30.4062 26.3965 30.3378C26.4522 30.2912 26.5063 30.2423 26.5551 30.1875C26.7205 30.0048 26.8619 29.804 26.9957 29.5973C26.9995 29.5913 27.0017 29.5838 27.0055 29.5747L27.0068 29.5741ZM16.1924 27.4561C16.1899 27.4367 16.1879 27.402 16.1808 27.3686C16.1676 27.3069 16.1322 27.2819 16.0688 27.2862C16.0575 27.287 16.0455 27.2883 16.0352 27.2928C16.0001 27.308 15.9642 27.3221 15.9313 27.3413C15.8662 27.3793 15.808 27.4272 15.7578 27.4831C15.7014 27.5455 15.6445 27.6087 15.5945 27.6763C15.4358 27.8906 15.3175 28.1267 15.2323 28.38C15.1966 28.4853 15.1707 28.5935 15.1575 28.7048C15.152 28.7506 15.1515 28.7965 15.1636 28.8416C15.1805 28.9055 15.2323 28.9401 15.298 28.9318C15.3055 28.9303 15.313 28.9281 15.3205 28.9266C15.3782 28.9138 15.4271 28.8837 15.4736 28.8491C15.5527 28.7897 15.6209 28.7198 15.6845 28.6446C15.9011 28.3905 16.0489 28.1003 16.1431 27.7816C16.1732 27.6801 16.1875 27.5756 16.1923 27.4538L16.1924 27.4561ZM18.5715 27.176C18.5685 27.1565 18.5662 27.1217 18.5576 27.0887C18.5426 27.0323 18.4967 27.0035 18.4389 27.0137C18.4103 27.0187 18.3825 27.0275 18.3562 27.0385C18.3058 27.0591 18.2614 27.0889 18.2186 27.1227C18.0938 27.2217 17.99 27.3395 17.9006 27.4698C17.7758 27.651 17.6788 27.8465 17.5991 28.0512C17.5533 28.1681 17.5262 28.2895 17.5127 28.414C17.5081 28.4531 17.5112 28.4914 17.5194 28.529C17.5277 28.5689 17.548 28.6004 17.5871 28.6162C17.6029 28.6222 17.6202 28.6252 17.6375 28.6267C17.6931 28.6305 17.7427 28.6087 17.7893 28.5816C17.8495 28.5478 17.9036 28.5042 17.9532 28.4561C18.0246 28.3869 18.0878 28.3095 18.1487 28.2298C18.3276 27.9967 18.4539 27.7381 18.5268 27.454C18.5486 27.3683 18.5644 27.2818 18.5682 27.1781L18.5715 27.176ZM25.7434 27.195C25.7449 27.163 25.7434 27.1288 25.7306 27.0957C25.7201 27.0672 25.7005 27.046 25.672 27.0354C25.6456 27.0251 25.6163 27.0178 25.5878 27.0253C25.5547 27.0336 25.5208 27.0411 25.4885 27.0531C25.4284 27.0749 25.375 27.1087 25.3231 27.1456C25.2126 27.2238 25.1164 27.3177 25.0299 27.4215C24.8818 27.6004 24.7676 27.7996 24.6811 28.0146C24.6533 28.0838 24.6307 28.1552 24.6172 28.2289C24.6082 28.2778 24.6037 28.3274 24.6104 28.3778C24.621 28.4574 24.6736 28.5041 24.754 28.5071C24.8014 28.5086 24.8457 28.4965 24.8886 28.4785C24.9713 28.4439 25.0442 28.3943 25.1111 28.3357C25.4073 28.077 25.6118 27.7605 25.7171 27.3816C25.7344 27.32 25.7471 27.2583 25.7464 27.1914L25.7434 27.195ZM27.0154 28.5604C27.0192 28.5904 27.0207 28.6115 27.0252 28.6322C27.0349 28.681 27.065 28.7156 27.1109 28.7336C27.1447 28.7472 27.1808 28.7521 27.2184 28.7457C27.2778 28.7354 27.3334 28.7149 27.386 28.686C27.4589 28.6461 27.5259 28.5973 27.5883 28.5431C27.8318 28.3326 28.0078 28.0748 28.1228 27.7748C28.1566 27.6884 28.1784 27.5989 28.1874 27.5064C28.1904 27.4711 28.1882 27.4373 28.1807 27.4034C28.1709 27.3598 28.1431 27.3328 28.1017 27.3192C28.0739 27.3102 28.0461 27.3072 28.0168 27.3117C27.9634 27.32 27.913 27.3373 27.8642 27.3613C27.7777 27.4042 27.6988 27.4591 27.6258 27.5222C27.4439 27.6801 27.3011 27.8703 27.1845 28.08C27.1252 28.1876 27.0748 28.2996 27.0447 28.4199C27.0327 28.468 27.0267 28.5176 27.0184 28.5582L27.0154 28.5604ZM27.1184 29.3988L27.2808 29.1001C27.2657 29.1016 27.2575 29.1016 27.2492 29.1036C27.1462 29.1294 27.0425 29.1466 26.9357 29.1416C26.8665 29.1384 26.7989 29.1251 26.7335 29.1001C26.6117 29.0532 26.523 28.9684 26.4598 28.8558C26.4147 28.7744 26.3884 28.6867 26.3779 28.5938C26.3561 28.41 26.3922 28.2342 26.4523 28.0625C26.4771 27.9939 26.5087 27.928 26.5395 27.8617C26.5508 27.8374 26.5673 27.8156 26.5816 27.793C26.5921 27.7772 26.6034 27.7622 26.6154 27.7441C26.426 27.7908 26.3816 27.7712 26.2817 27.7502C26.2764 27.7659 26.2696 27.781 26.2651 27.7975C26.1959 28.0343 26.0742 28.2411 25.902 28.4177L25.8261 28.4967C25.6434 28.6861 25.4201 28.8034 25.1668 28.8673C25.0472 28.8981 24.9247 28.9109 24.8014 28.9102C24.6856 28.9102 24.5713 28.8944 24.4616 28.856C24.2338 28.7763 24.0879 28.6215 24.0263 28.3877L24.0082 28.3155C24.0075 28.3125 24.0037 28.3102 23.9985 28.305C23.9842 28.3178 23.9699 28.3298 23.9564 28.3433C23.8331 28.4568 23.7045 28.5636 23.5647 28.6561C23.4797 28.7124 23.3918 28.7636 23.2971 28.8027C23.1647 28.8568 23.0272 28.8756 22.8851 28.856C22.8332 28.8493 22.7843 28.8327 22.7392 28.8057C22.6513 28.753 22.5994 28.6756 22.5851 28.5741C22.5678 28.4538 22.5949 28.3411 22.649 28.2343C22.6934 28.1471 22.7407 28.0614 22.7873 27.9749L22.8407 27.8757C22.8325 27.8607 22.8227 27.8667 22.8144 27.8697C22.7558 27.893 22.6971 27.9178 22.637 27.9381C22.5535 27.9667 22.4671 27.984 22.3769 27.9817C22.313 27.9802 22.2513 27.9667 22.1904 27.9471C22.1701 27.9592 22.1649 27.981 22.1558 27.999L21.8356 28.644C21.8093 28.6974 21.7822 28.7508 21.7566 28.8042C21.7484 28.8222 21.7363 28.8312 21.7168 28.8312C21.7033 28.8312 21.6897 28.832 21.6762 28.832C21.5206 28.8335 21.3642 28.8342 21.2086 28.8357C21.1372 28.8365 21.0665 28.8387 20.9951 28.8403C20.9801 28.8403 20.965 28.8395 20.9507 28.8387C20.9425 28.8162 20.9575 28.8034 20.965 28.7891C21.0387 28.6455 21.1131 28.5027 21.1868 28.3591C21.1951 28.3426 21.2026 28.326 21.2146 28.2997C21.186 28.314 21.1733 28.3305 21.1582 28.3441C21.062 28.4328 20.9613 28.5162 20.853 28.5899C20.6801 28.7072 20.4951 28.8012 20.2922 28.853C20.1162 28.8981 19.9411 28.8944 19.7689 28.835C19.6411 28.7914 19.5344 28.7185 19.469 28.5974C19.4381 28.5403 19.4148 28.4786 19.3885 28.4193C19.3848 28.411 19.3818 28.4027 19.3757 28.3899C19.3592 28.4027 19.3457 28.4125 19.3329 28.423C19.163 28.5643 18.9871 28.6989 18.8051 28.8245C18.7367 28.8711 18.6676 28.9154 18.5894 28.9448C18.5364 28.9643 18.4826 28.9763 18.4259 28.9756C18.3792 28.9748 18.3349 28.9643 18.292 28.9463C18.2026 28.9072 18.1469 28.841 18.1304 28.744C18.1234 28.7027 18.1206 28.6606 18.1159 28.6185C18.0986 28.617 18.0956 28.6335 18.0881 28.6433C18.0204 28.7403 17.9377 28.823 17.846 28.8966C17.752 28.9726 17.6494 29.0312 17.5318 29.062C17.4085 29.0951 17.2849 29.0959 17.1611 29.065C17.049 29.0372 16.9642 28.9718 16.9048 28.8733C16.8589 28.7966 16.8311 28.7132 16.813 28.626C16.795 28.5373 16.7897 28.4471 16.7903 28.3569C16.7908 28.3381 16.7903 28.3185 16.7903 28.3005C16.7773 28.2945 16.7714 28.3035 16.7648 28.3095C16.6881 28.3854 16.6114 28.4606 16.5355 28.5373C16.5182 28.5553 16.5038 28.5756 16.4889 28.5959C16.3701 28.7598 16.2408 28.9147 16.0849 29.0447C15.9232 29.1793 15.7424 29.2785 15.5368 29.3289C15.4255 29.356 15.3128 29.3642 15.1985 29.3575C15.1489 29.3537 15.0997 29.3447 15.0519 29.3297C14.9903 29.3101 14.9358 29.2785 14.891 29.2327C14.8695 29.2402 14.8692 29.2605 14.8632 29.2755C14.793 29.4439 14.7241 29.6123 14.6545 29.7815C14.5433 30.0514 14.432 30.3205 14.3202 30.5904C14.3112 30.6115 14.3019 30.6325 14.2911 30.6573C14.1558 30.6806 14.0205 30.7062 13.8839 30.7287C13.7478 30.7505 13.614 30.7829 13.4756 30.8024C13.4696 30.7776 13.4824 30.7618 13.4892 30.7453C13.5907 30.513 13.6929 30.2807 13.7936 30.0484C13.8989 29.807 14.0034 29.5657 14.1079 29.3244C14.1139 29.3109 14.1177 29.2966 14.1162 29.2788L14.0718 29.3216C13.9584 29.4314 13.841 29.5359 13.7094 29.6246C13.614 29.6892 13.5155 29.7486 13.4057 29.7877C13.3057 29.8231 13.2035 29.837 13.099 29.8283C13.0592 29.8249 13.0186 29.8163 12.981 29.8023C12.8622 29.7587 12.7983 29.6677 12.7727 29.5467C12.7569 29.4723 12.7618 29.3979 12.7772 29.324C12.8208 29.1173 12.8877 28.9166 12.9622 28.7188C12.999 28.6219 13.0339 28.5241 13.0674 28.4264C13.0892 28.3632 13.0937 28.2986 13.0715 28.2339C13.0518 28.176 13.018 28.1287 12.958 28.0994C12.9473 28.1054 12.9347 28.1099 12.9241 28.1174C12.7384 28.2415 12.5452 28.3527 12.346 28.4527C12.3114 28.47 12.2894 28.4926 12.2738 28.5286C12.1069 28.9248 11.9378 29.3203 11.7701 29.7165C11.7228 29.8277 11.6754 29.939 11.6303 30.051C11.619 30.0796 11.6025 30.0916 11.5732 30.0991C11.2694 30.1735 10.9657 30.2502 10.662 30.3262C10.6384 30.3322 10.6146 30.3374 10.5898 30.3434C10.5834 30.3232 10.5928 30.3104 10.5989 30.2976C10.7018 30.0615 10.8045 29.8255 10.9083 29.5902C11.0729 29.2158 11.2398 28.8429 11.412 28.4715C11.5293 28.2197 11.6465 27.9671 11.7616 27.7137C11.8119 27.6039 11.8593 27.4922 11.9052 27.3807C12.0209 27.0972 12.0285 26.8093 11.9352 26.5184C11.9037 26.4206 11.8619 26.3282 11.8014 26.2455C11.6909 26.0939 11.5413 26.0109 11.3556 25.9889C11.1952 25.9701 11.041 25.9919 10.8917 26.0498C10.6797 26.1325 10.4963 26.255 10.352 26.4324C10.2445 26.5638 10.1708 26.7121 10.1159 26.8715C10.0558 27.0472 10.0362 27.2278 10.0505 27.4113C10.064 27.5779 10.1106 27.7355 10.2009 27.8781C10.2392 27.939 10.2843 27.9937 10.3407 28.0382C10.3775 28.0671 10.4174 28.0886 10.4625 28.1021C10.5249 28.1205 10.585 28.1142 10.6422 28.0869C10.7564 28.0335 10.8391 27.9478 10.891 27.8335C10.9256 27.7569 10.9429 27.6772 10.9489 27.5937C10.9639 27.396 10.9301 27.2035 10.8752 27.0141C10.8301 26.8592 10.7737 26.7081 10.7053 26.5615C10.7008 26.5517 10.6963 26.5412 10.6895 26.5254C10.7038 26.5254 10.7151 26.5224 10.7241 26.5247C10.8827 26.5638 11.0414 26.6021 11.2 26.642C11.297 26.6663 11.3932 26.6926 11.4902 26.7182C11.4977 26.7197 11.5045 26.7227 11.5142 26.7257C11.5187 26.7422 11.524 26.7588 11.5263 26.7761C11.5417 26.9061 11.5496 27.0365 11.539 27.167C11.5225 27.3682 11.4691 27.5598 11.3718 27.7376C11.2868 27.8925 11.1658 28.015 11.0207 28.1135C10.8365 28.239 10.6335 28.3172 10.414 28.3523C10.279 28.3741 10.1448 28.3696 10.014 28.328C9.79527 28.2581 9.64566 28.112 9.55244 27.9052C9.50207 27.7932 9.47877 27.6744 9.472 27.5533C9.45471 27.2459 9.53665 26.9639 9.69791 26.7038C9.8212 26.5038 9.97758 26.3324 10.1648 26.1904C10.479 25.952 10.8294 25.7931 11.2158 25.713C11.3556 25.6836 11.4962 25.6656 11.639 25.6641C11.8134 25.6618 11.9833 25.6882 12.1472 25.7525C12.3412 25.8284 12.4931 25.957 12.6126 26.1262C12.6975 26.2464 12.7637 26.375 12.7938 26.5208C12.8148 26.6208 12.8216 26.7216 12.8246 26.8238C12.8284 26.9945 12.799 27.1606 12.7562 27.3245C12.7118 27.4952 12.6637 27.6653 12.593 27.8274C12.5915 27.8305 12.5923 27.835 12.5915 27.8387C12.6013 27.8492 12.6088 27.8395 12.6156 27.8357C12.9547 27.6605 13.2373 27.4177 13.4779 27.1253C13.611 26.9629 13.7328 26.7922 13.8418 26.6133C13.9658 26.4088 14.0711 26.1953 14.1425 25.9668C14.1741 25.8645 14.2011 25.76 14.2086 25.6525C14.2086 25.645 14.2116 25.6375 14.2146 25.6285C14.3064 25.6059 14.3988 25.5931 14.4913 25.5751C14.5815 25.5578 14.6725 25.542 14.7635 25.5247C14.8552 25.5074 14.9476 25.4909 15.0363 25.4796C15.0506 25.4946 15.0454 25.5059 15.0431 25.5165C15.01 25.6766 14.9612 25.8322 14.904 25.9856C14.8394 26.1585 14.7635 26.3261 14.6732 26.4878C14.5229 26.7561 14.3394 26.9982 14.1139 27.2095C13.9851 27.3305 13.8515 27.447 13.7117 27.5553C13.6997 27.5643 13.6884 27.5741 13.6749 27.5861C13.6937 27.6004 13.7109 27.6124 13.7275 27.6245C13.8117 27.6884 13.8801 27.765 13.9219 27.8628C13.9658 27.965 13.976 28.0703 13.9422 28.1778C13.9219 28.2432 13.8971 28.3081 13.8753 28.3735C13.8279 28.5156 13.7803 28.6577 13.734 28.7998C13.7122 28.866 13.6979 28.9336 13.6904 29.002C13.6866 29.0366 13.6885 29.0712 13.6964 29.105C13.7019 29.1283 13.7137 29.1464 13.7317 29.1629C13.7715 29.1993 13.8159 29.2035 13.8655 29.1862C13.9004 29.174 13.9312 29.1546 13.9595 29.1313C14.058 29.0505 14.1482 28.9622 14.2249 28.8599C14.3579 28.6825 14.4669 28.4904 14.5594 28.2893C14.6496 28.0924 14.7371 27.8939 14.8271 27.6962C14.8879 27.5616 14.9503 27.4278 15.0127 27.2932C15.0203 27.2759 15.0293 27.259 15.0398 27.2383C15.1623 27.2143 15.2871 27.1951 15.4119 27.1744C15.5345 27.1541 15.657 27.1293 15.7856 27.1154C15.7841 27.1282 15.7848 27.1372 15.7823 27.1455C15.7726 27.1726 15.7613 27.1989 15.7515 27.2259C15.7481 27.2342 15.7463 27.2425 15.741 27.262C15.7899 27.2297 15.8305 27.2049 15.8691 27.1771C15.9661 27.1064 16.0743 27.0628 16.1909 27.044C16.3277 27.0222 16.46 27.035 16.5765 27.1207C16.6698 27.1891 16.7329 27.2793 16.7652 27.3895C16.7998 27.5067 16.8096 27.6266 16.7965 27.7488C16.7837 27.8638 16.7642 27.977 16.7266 28.0864C16.7251 28.0916 16.7249 28.0976 16.7243 28.1029C16.7243 28.1052 16.7258 28.1067 16.7273 28.1112C16.7371 28.1044 16.7461 28.0984 16.7544 28.0909C16.7649 28.0826 16.774 28.0721 16.7845 28.0638C16.8386 28.0187 16.8747 27.9638 16.9018 27.8977C16.9807 27.7014 17.0995 27.5285 17.2408 27.3722C17.3739 27.2248 17.5205 27.0917 17.6904 26.987C17.8272 26.9028 17.9708 26.8352 18.129 26.8021C18.2214 26.7825 18.3154 26.7713 18.4101 26.7758C18.5411 26.7825 18.6585 26.8239 18.7522 26.9209C18.7575 26.9261 18.7635 26.9306 18.7718 26.9376C18.8123 26.8791 18.8364 26.8143 18.871 26.7571C18.9409 26.7406 19.5491 26.7007 19.61 26.709C19.6062 26.7198 19.604 26.7308 19.5995 26.7406C19.5732 26.7957 19.5461 26.8511 19.519 26.906C19.3784 27.1902 19.2439 27.4773 19.1146 27.766C19.0672 27.8713 19.0176 27.975 18.9702 28.0803C18.9559 28.1118 18.9439 28.1445 18.9356 28.178C18.9289 28.2036 18.9266 28.2314 18.9274 28.2577C18.9296 28.3299 18.9755 28.366 19.0462 28.3524C19.0649 28.3489 19.0837 28.3419 19.1003 28.3329C19.1326 28.3156 19.1657 28.299 19.1935 28.276C19.2499 28.2302 19.304 28.1806 19.3581 28.1321C19.3724 28.1194 19.3837 28.1036 19.3875 28.084C19.4318 27.8758 19.5115 27.6803 19.6107 27.4931C19.6731 27.3751 19.7453 27.2638 19.8325 27.1638C20.0317 26.9353 20.2716 26.7684 20.567 26.6887C20.7264 26.6451 20.888 26.6271 21.0527 26.6368C21.1181 26.6406 21.182 26.6549 21.2436 26.6789C21.412 26.7443 21.4992 26.8691 21.5135 27.0466C21.5165 27.0804 21.5154 27.1157 21.5135 27.1496C21.512 27.1781 21.506 27.2067 21.5022 27.2368C21.4917 27.2443 21.4812 27.2533 21.4699 27.2593C21.2714 27.3653 21.073 27.4706 20.8745 27.576C20.8595 27.5841 20.8437 27.5888 20.8294 27.5948C20.8174 27.5806 20.8256 27.5706 20.8301 27.5603C20.8572 27.4949 20.8858 27.4294 20.9121 27.3639C20.9489 27.2707 20.9782 27.1757 20.9918 27.076C20.997 27.0376 20.9993 26.9993 20.988 26.9617C20.9722 26.9083 20.9339 26.8827 20.879 26.8915C20.8324 26.8991 20.7903 26.9179 20.7512 26.9427C20.67 26.9923 20.5993 27.0539 20.5362 27.1246C20.4137 27.2622 20.3182 27.417 20.2483 27.5869C20.2167 27.6629 20.1896 27.7411 20.1633 27.8193C20.125 27.9365 20.1205 28.0568 20.1317 28.1786C20.1347 28.2087 20.143 28.2387 20.1528 28.2681C20.1859 28.3647 20.2407 28.4214 20.3716 28.4327C20.4452 28.4387 20.5169 28.4252 20.5873 28.4034C20.6858 28.3733 20.7775 28.3305 20.8647 28.2771C21.0662 28.1542 21.2496 28.0095 21.4023 27.8275C21.4544 27.7651 21.5004 27.6997 21.5391 27.6283C21.6906 27.3475 21.8518 27.0723 22.0168 26.7995C22.0398 26.7615 22.0619 26.7235 22.085 26.6856C22.0948 26.669 22.1061 26.654 22.1189 26.6352C22.382 26.6329 22.6451 26.6352 22.9127 26.648C22.909 26.6592 22.9073 26.6705 22.9022 26.6795C22.7722 26.9126 22.6406 27.1456 22.5113 27.3787C22.4647 27.4625 22.4218 27.5486 22.3778 27.6339C22.3711 27.6474 22.3666 27.6617 22.3591 27.6797C22.3846 27.685 22.4072 27.692 22.429 27.6933C22.6107 27.7045 22.7801 27.6654 22.9379 27.5752C22.986 27.5482 23.0214 27.5106 23.0499 27.4625C23.1941 27.2219 23.3401 26.9824 23.4852 26.7425C23.5003 26.7185 23.5161 26.6944 23.5333 26.6674C23.6581 26.6636 23.7822 26.6764 23.907 26.6786C24.0295 26.6816 24.1513 26.6922 24.2806 26.6952C24.2708 26.7177 24.2648 26.7313 24.2581 26.744C24.216 26.8194 24.1731 26.8946 24.1303 26.9696C23.9859 27.2229 23.8491 27.4808 23.7153 27.7402C23.6461 27.8755 23.5754 28.0093 23.5048 28.1439C23.4845 28.183 23.4687 28.2243 23.4624 28.2687C23.4591 28.292 23.4609 28.3145 23.468 28.3371C23.4838 28.3859 23.5161 28.4062 23.565 28.3935C23.5891 28.3867 23.6131 28.3784 23.6343 28.3656C23.6659 28.3476 23.6972 28.3278 23.7245 28.304C23.7651 28.2687 23.8042 28.2311 23.8403 28.1912C23.8919 28.1345 23.9395 28.0743 23.9899 28.0161C24.0057 27.998 24.0147 27.9777 24.02 27.9552C24.0756 27.7221 24.1869 27.5188 24.3417 27.3377C24.4395 27.2234 24.544 27.1166 24.6703 27.0324C24.8372 26.9212 25.0199 26.8482 25.2153 26.8076C25.3364 26.7823 25.4589 26.7693 25.5822 26.7738C25.7235 26.7791 25.8603 26.8061 25.9897 26.8657C26.0483 26.8927 26.1009 26.9273 26.1483 26.9694C26.2362 27.0484 26.2889 27.1461 26.3107 27.2611C26.3204 27.313 26.3242 27.3641 26.3227 27.416V27.4874C26.4249 27.5483 26.5302 27.5664 26.6437 27.5261C26.6956 27.5081 26.7414 27.4806 26.7858 27.4494C26.8538 27.4021 26.9208 27.3532 26.9888 27.3059C27.1568 27.1901 27.3406 27.1096 27.5404 27.066C27.6712 27.0375 27.8035 27.0284 27.9358 27.0397C28.0952 27.0525 28.2403 27.1051 28.3606 27.2141C28.3944 27.245 28.4237 27.2806 28.4583 27.3171C28.4643 27.3119 28.4736 27.3059 28.4801 27.2976C28.5162 27.2531 28.5515 27.2074 28.5886 27.1608C28.6502 27.162 28.7104 27.1748 28.7705 27.1856C28.8329 27.1968 28.8953 27.2071 28.9579 27.2176C29.0188 27.2274 29.0795 27.2371 29.1398 27.2477C29.1999 27.2574 29.2601 27.2695 29.3262 27.2815C29.2864 27.3484 29.2398 27.4048 29.1992 27.4649C29.1586 27.5258 29.1165 27.5852 29.0751 27.6454C29.0351 27.704 28.9947 27.7626 28.9549 27.822C28.9135 27.8822 28.8722 27.9423 28.8316 28.0032C28.791 28.0634 28.751 28.1243 28.7105 28.1854L28.591 28.3689C28.5519 28.4283 28.5136 28.4884 28.4745 28.5478C28.4354 28.6095 28.3955 28.6706 28.3564 28.7321L28.2392 28.9171C28.2001 28.9787 28.1602 29.0404 28.1211 29.102L28.0084 29.2825C27.9693 29.3441 27.9302 29.4057 27.8918 29.4681L27.7756 29.6546C27.7824 29.6606 27.7854 29.6651 27.7899 29.6666C27.9127 29.7087 28.038 29.7358 28.1688 29.7268C28.3402 29.7155 28.4823 29.6433 28.5988 29.5185C28.6078 29.5087 28.6164 29.499 28.6259 29.4884C28.6346 29.4907 28.6424 29.4914 28.6489 29.4952C28.8857 29.614 29.1225 29.7335 29.3593 29.8538C29.3623 29.8553 29.3631 29.8598 29.3661 29.8643C29.3571 29.8824 29.3383 29.8881 29.3217 29.8971C29.2157 29.9565 29.1022 29.9986 28.9857 30.0309C28.815 30.0786 28.6406 30.0945 28.4654 30.0794C28.2617 30.0618 28.0617 30.0215 27.87 29.9505C27.8106 29.9281 27.752 29.9039 27.6926 29.8806C27.6753 29.8733 27.6576 29.867 27.6377 29.8595C27.6242 29.8791 27.6122 29.8959 27.6009 29.9137C27.54 30.007 27.4761 30.0981 27.4024 30.1822C27.1859 30.4295 26.9183 30.5882 26.5942 30.6483C26.4289 30.6791 26.2627 30.6889 26.0951 30.6731C25.9913 30.6641 25.8883 30.6506 25.7883 30.6227C25.6892 30.5957 25.5953 30.5573 25.5102 30.5002C25.3448 30.3889 25.2538 30.233 25.232 30.0371C25.2215 29.9439 25.2395 29.8529 25.2688 29.765C25.3449 29.5326 25.5058 29.3838 25.7327 29.3018C25.8342 29.265 25.9402 29.247 26.0484 29.2402C26.1561 29.2334 26.2642 29.2349 26.3717 29.244C26.5657 29.259 26.7566 29.2928 26.9423 29.3507C26.9934 29.3665 27.0453 29.3823 27.0964 29.3973C27.1074 29.4003 27.1188 29.4018 27.1348 29.4056L27.1184 29.3988Z" fill="#FFFFFE"/>
<path fill-rule="evenodd" clip-rule="evenodd" d="M33.3206 28.6166C33.3206 28.607 33.3211 28.5974 33.3206 28.5878C33.3168 28.5196 33.2761 28.4736 33.2078 28.4628C33.1871 28.4595 33.1657 28.4591 33.1447 28.4597C33.0942 28.4612 33.0462 28.4753 32.9992 28.4926C32.903 28.5281 32.815 28.5793 32.7327 28.6396C32.5154 28.7988 32.3455 29.0001 32.2095 29.231C32.1656 29.3056 32.1286 29.3835 32.1023 29.4662C32.0877 29.5124 32.0808 29.5591 32.0816 29.6077C32.0823 29.6746 32.1342 29.7295 32.2004 29.7438C32.253 29.7543 32.3034 29.7483 32.3545 29.7363C32.453 29.713 32.5409 29.6656 32.6244 29.61C32.8071 29.4889 32.9642 29.3408 33.0897 29.1604C33.1724 29.0416 33.2431 28.9168 33.2882 28.7785C33.3055 28.7251 33.319 28.6717 33.3198 28.6154L33.3206 28.6166ZM29.4599 29.0129C29.4599 29.0244 29.4592 29.036 29.4599 29.0475C29.4664 29.1304 29.5211 29.1849 29.6043 29.1911C29.6449 29.1941 29.6847 29.1908 29.7241 29.179C29.7843 29.1618 29.8392 29.1354 29.8925 29.1042C29.9948 29.0447 30.085 28.97 30.1699 28.8895C30.3376 28.7319 30.4646 28.5457 30.5609 28.3381C30.6075 28.2389 30.6421 28.1351 30.6586 28.0261C30.6646 27.9885 30.6654 27.9502 30.6548 27.9126C30.6436 27.8697 30.6157 27.8427 30.5744 27.8299C30.5526 27.8231 30.5293 27.8186 30.5067 27.8201C30.4729 27.8224 30.4383 27.8291 30.4052 27.8382C30.294 27.8697 30.1985 27.9299 30.1083 27.999C29.9309 28.1351 29.7873 28.302 29.6685 28.49C29.5978 28.6027 29.5362 28.7193 29.4941 28.8456C29.476 28.9004 29.461 28.9561 29.4618 29.0147L29.4599 29.0129ZM30.9001 27.8063C30.934 27.7616 30.964 27.7219 30.9959 27.6795C31.0794 27.6931 31.1606 27.7156 31.2425 27.7337C31.3251 27.7525 31.4076 27.7705 31.4898 27.7893C31.5716 27.8088 31.6543 27.8231 31.7349 27.8479C31.7348 27.8705 31.72 27.8818 31.7101 27.8953C31.5948 28.0472 31.4778 28.1968 31.3642 28.3494C31.2103 28.5561 31.0592 28.7644 30.9068 28.9726C30.8814 29.0072 30.8641 29.0455 30.8534 29.0869C30.8351 29.159 30.8799 29.2583 30.9883 29.2613C31.0314 29.2628 31.072 29.2538 31.1128 29.241C31.2255 29.2064 31.3208 29.1433 31.4075 29.0651C31.4766 29.0034 31.535 28.932 31.5868 28.8553C31.7126 28.6689 31.8488 28.49 31.9875 28.3133C32.0599 28.2216 32.1341 28.1306 32.208 28.0396C32.2247 28.0193 32.2428 27.999 32.2622 27.9765C32.2836 27.981 32.3041 27.9848 32.3243 27.99C32.5158 28.0396 32.7072 28.09 32.8986 28.1396C32.941 28.1509 32.9832 28.1622 33.0277 28.1742C33.0204 28.2125 32.9874 28.2336 32.9781 28.2682C32.9995 28.2757 33.0179 28.2704 33.0364 28.2674C33.0838 28.2592 33.1307 28.2471 33.1784 28.2434C33.5439 28.2178 33.8168 28.4381 33.8745 28.7689C33.9004 28.9177 33.8724 29.0598 33.8219 29.1981C33.7629 29.3605 33.672 29.5056 33.561 29.6372C33.3686 29.8657 33.1291 30.0281 32.851 30.1356C32.7388 30.1785 32.622 30.201 32.5022 30.207C32.4075 30.2115 32.314 30.1988 32.2213 30.1815C32.1687 30.1717 32.1159 30.1589 32.0652 30.1424C31.9208 30.0935 31.8066 30.0093 31.7442 29.8657C31.7254 29.862 31.7209 29.8778 31.7141 29.8875C31.6141 30.0259 31.5149 30.1657 31.4141 30.304C31.2653 30.5085 31.1149 30.713 30.9653 30.9182C30.9578 30.9288 30.9488 30.9385 30.9405 30.9491C30.9322 30.9491 30.924 30.9498 30.9165 30.9483C30.6789 30.9047 30.4406 30.8603 30.203 30.816C30.194 30.8145 30.185 30.81 30.1722 30.8062C30.1985 30.7566 30.2346 30.7168 30.2654 30.6739C30.297 30.6303 30.3293 30.5874 30.3609 30.5438C30.3925 30.5002 30.4233 30.4559 30.4549 30.4123C30.4864 30.3687 30.5188 30.3258 30.5503 30.2822C30.5819 30.2386 30.6127 30.1943 30.6443 30.1507L30.739 30.0198C30.7706 29.9762 30.8022 29.9319 30.833 29.8883L30.927 29.7575L31.0217 29.6267C31.0533 29.5831 31.0841 29.5395 31.1149 29.4958C31.1006 29.4808 31.0916 29.4951 31.0841 29.4996C30.9856 29.5598 30.8849 29.6146 30.7804 29.6642C30.7045 29.7003 30.627 29.7357 30.5436 29.7537C30.4105 29.7823 30.2865 29.762 30.182 29.6695C30.0797 29.5785 30.0279 29.465 30.0497 29.3252C30.0504 29.3214 30.0489 29.3177 30.0489 29.3124C30.0331 29.3064 30.0263 29.3214 30.0181 29.3289C29.8963 29.4387 29.7572 29.5199 29.5971 29.5575C29.3595 29.6139 29.1513 29.5522 28.9708 29.3929C28.9167 29.3455 28.8799 29.2846 28.8521 29.2184C28.8122 29.1237 28.7897 29.0252 28.7844 28.9222C28.7746 28.7448 28.8047 28.5757 28.8739 28.411C28.9453 28.2426 29.037 28.0893 29.1663 27.9592C29.2716 27.8539 29.3926 27.769 29.5219 27.6953C29.6309 27.6329 29.7444 27.5818 29.8655 27.5487C30.0512 27.4968 30.2376 27.4983 30.4248 27.542C30.4511 27.548 30.4774 27.554 30.5037 27.5607C30.6541 27.5976 30.7819 27.6713 30.8826 27.7893C30.8886 27.7968 30.8954 27.8036 30.9059 27.8141L30.9001 27.8063ZM15.3634 20.3683C15.3536 20.3162 15.2276 20.5277 15.2484 20.5713C15.3156 20.6736 15.4544 20.921 15.5224 21.0307C15.5681 21.0052 15.4931 20.82 15.4862 20.7675C15.5523 20.6543 15.5531 20.5273 15.4099 20.4809L15.3635 20.3683" fill="#FFFFFE"/>
<path d="M23.1507 7.34372C22.8668 7.05969 22.4892 6.90332 22.0876 6.90332C21.686 6.90332 21.3083 7.05969 21.0244 7.34372C20.7404 7.62767 20.584 8.00529 20.584 8.40689C20.584 8.8085 20.7404 9.18612 21.0244 9.47007C21.3083 9.7541 21.686 9.91047 22.0876 9.91047C22.4892 9.91047 22.8668 9.7541 23.1507 9.47007C23.4348 9.18612 23.5911 8.8085 23.5911 8.40689C23.5911 8.00529 23.4348 7.62767 23.1507 7.34372ZM22.1247 7.41386L22.564 7.28605L23.0042 7.60707L23.018 8.0634L22.5831 8.25511L22.1247 7.92207V7.41454V7.41386ZM21.5577 8.32127L21.7305 8.85278L21.4454 9.155L21.0038 8.946L20.8853 8.48967L21.1284 8.13332L21.5577 8.32202V8.32127ZM21.1562 8.06866L21.1705 7.59729L21.6096 7.28605L22.0552 7.41611V7.91831L21.586 8.25887L21.1553 8.06942L21.1562 8.06866ZM21.7599 8.92345H22.4219L22.4261 8.91067L22.699 9.2001L22.4732 9.56021H21.7066L21.4882 9.21213L21.7599 8.92495V8.92345ZM22.747 9.14898L22.4507 8.83549L22.6198 8.31525L23.0423 8.12956L23.2934 8.49869L23.1673 8.95126L22.7463 9.15124L22.747 9.14898ZM23.2567 7.62737L23.0314 7.54166L22.5886 7.21915L22.4523 7.05075C22.7852 7.14021 23.0695 7.34921 23.2567 7.62887V7.62737ZM21.7228 7.04999L21.589 7.21539L21.1146 7.55219L20.9187 7.62737C21.1057 7.34845 21.39 7.13946 21.7228 7.04999ZM20.6841 8.32202L20.8268 8.54154L20.9436 8.99186L20.9333 9.21063C20.7747 8.98284 20.6815 8.70693 20.6815 8.40847C20.6815 8.3799 20.6824 8.35134 20.6841 8.32277V8.32202ZM21.4897 9.6805L21.7502 9.63013H22.4295L22.6867 9.6805C22.5047 9.76695 22.3017 9.81507 22.0875 9.81507C21.8732 9.81507 21.671 9.76695 21.4891 9.682L21.4897 9.6805ZM23.2461 9.20386L23.2356 8.96931L23.3597 8.52425L23.492 8.32202C23.4942 8.35058 23.495 8.3799 23.495 8.40847C23.495 8.70393 23.404 8.97833 23.2476 9.20461L23.2461 9.20386Z" fill="black"/>
</svg>
