<svg width="44" height="44" viewBox="0 0 44 44" fill="none" xmlns="http://www.w3.org/2000/svg">
<path d="M22.9657 18.4624C21.5582 18.6509 20.2135 18.8269 19.183 18.9651L21.5331 14.2147L22.9657 18.4624ZM36.1111 26.7694L33.4971 19.1033C33.3211 18.5629 32.8687 18.01 32.1775 17.6958L27.1883 3.14294L26.4594 3.35659C25.2655 3.68334 23.8706 3.97238 22.4379 4.18603C20.9298 4.39967 19.4595 4.51277 18.1776 4.51277H17.9891H17.411L16.6444 6.68691L16.3931 7.44094L17.1471 7.70485C17.5115 7.84309 18.0771 8.14471 18.2404 8.35835C18.3913 8.58456 18.341 9.04955 18.1399 9.5271L10.6498 25.1859C10.0969 26.3421 9.61932 26.7819 8.87785 26.8448C8.68935 26.8573 7.68397 26.9327 7.68397 26.9327L7.15614 26.983L6.30157 29.4085C6.30157 29.4085 6.2513 29.7352 6.32671 30.2379C6.49008 31.3187 7.19384 33.1535 10.0843 34.0207L10.2225 34.184C10.7252 34.8124 11.6175 35.5916 12.9622 35.8932L13.1004 36.0565C13.6031 36.6849 14.4954 37.4641 15.8401 37.7657L15.9783 37.9291C16.6695 38.7711 17.9263 39.7639 19.9245 39.7639H20.2638C20.6659 40.7064 21.332 40.8572 21.7216 40.8572H22.1991C22.5887 40.8572 23.2296 40.6939 23.6569 39.7639H24.0339C26.0573 39.7639 27.3014 38.7585 27.9801 37.9291L28.1183 37.7657C29.463 37.4515 30.3427 36.6723 30.858 36.0565L30.9962 35.8932C32.3409 35.579 33.2206 34.7998 33.7359 34.184L33.8741 34.0207C35.8472 33.5682 36.9405 32.0099 37.3175 31.2056C37.4683 30.8663 37.5689 30.5144 37.6317 30.2505C37.7322 29.7604 37.7322 29.4085 37.7322 29.4085L36.1111 26.7694Z" fill="#E6E7E8"/>
<path d="M17.9768 5.30462L17.4112 6.95093C17.4112 6.95093 18.492 7.35308 18.8942 7.90604C19.2838 8.47156 19.133 9.2633 18.8439 9.87909L11.3664 25.5253C10.8386 26.6187 10.1976 27.5486 8.94092 27.6492C8.75241 27.6617 7.74704 27.7371 7.74704 27.7371L7.16895 29.3834H16.4436C16.3053 28.8933 16.2299 28.3781 16.2299 27.8628C16.2299 27.8125 16.2299 27.7748 16.2299 27.7246C15.9283 27.6617 15.6016 27.5738 15.3628 27.4732C14.6465 27.1465 14.4831 26.6689 14.835 25.9275L21.6715 12.0784L23.7828 18.3494L31.2101 17.3943L26.6607 4.13586C25.4794 4.46262 24.0719 4.76423 22.5512 4.97787C20.8547 5.21665 19.2838 5.31719 17.9768 5.30462Z" fill="url(#paint0_linear)"/>
<path d="M27.2636 30.2253L27.1253 30.4767C26.6226 31.4821 25.8435 32.2989 24.8632 32.8519C24.0338 33.3295 23.129 33.5808 22.1864 33.6311C22.1864 33.6311 22.0984 33.6311 21.9979 33.6311C21.9225 33.6311 21.8974 33.6311 21.7717 33.6311C19.7986 33.5557 17.989 32.4623 16.9961 30.7406C16.9459 30.6526 16.8956 30.5647 16.8453 30.4767L16.7071 30.2253H7.13086C7.13086 30.2253 7.20626 30.7909 7.85976 31.6454C8.32475 32.2612 9.16675 33.053 10.5366 33.2792L10.8508 33.6688C11.3409 34.272 12.1578 34.9381 13.4145 35.1517L13.7287 35.5413C14.2188 36.1445 15.0357 36.8106 16.2924 37.0242L16.6066 37.4138C17.1847 38.1176 18.2403 38.9596 19.9494 38.9596H20.8669C21.0177 39.6005 21.2816 40.0529 21.734 40.0529H22.2115C22.664 40.0529 22.9153 39.6005 23.0787 38.9596H24.0338C25.7429 38.9596 26.786 38.1176 27.3767 37.4138L27.6909 37.0242C28.9476 36.8106 29.7519 36.1319 30.2546 35.5413L30.5688 35.1517C31.8255 34.9381 32.6298 34.2594 33.1325 33.6688L33.4467 33.2792C35.0678 33.0153 35.935 31.9596 36.3371 31.3438C36.7141 30.7657 36.8398 30.2379 36.8398 30.2379H27.2761V30.2253H27.2636Z" fill="#231F20"/>
<path d="M11.3039 32.8523H15.1746C15.3128 32.8523 15.4259 32.9528 15.4259 33.1036C15.4259 33.2418 15.3003 33.3549 15.1746 33.3549H11.2033C11.706 33.9707 12.636 34.7373 14.1692 34.7373H17.0722C17.2105 34.7373 17.3236 34.8379 17.3236 34.9887C17.3236 35.1269 17.1979 35.24 17.0722 35.24H14.0938C14.5965 35.8558 15.5265 36.6224 17.0597 36.6224H21.4708C21.609 36.6224 21.7221 36.723 21.7221 36.8738C21.7221 37.012 21.5965 37.1251 21.4708 37.1251H21.144C21.1671 38.4028 21.3695 39.4143 21.6448 39.5757H21.7983C22.0778 39.3961 22.3002 38.2455 22.3002 36.8612C22.3002 35.3908 22.0614 34.1969 21.7473 34.1341C19.6862 34.0461 17.7006 32.9402 16.5947 31.0049C16.5319 30.9169 16.4942 30.8164 16.4313 30.7158H7.84082C7.9146 30.8829 8.83678 32.8523 11.3039 32.8523Z" fill="url(#paint1_linear)"/>
<path d="M7.83496 30.703V30.7159H7.84058C7.83724 30.7083 7.83496 30.703 7.83496 30.703Z" fill="url(#paint2_linear)"/>
<path d="M20.767 38.4946C20.7041 38.0547 20.679 37.5772 20.6664 37.1122H16.9717C17.4744 37.728 18.4043 38.4946 19.9375 38.4946H20.767Z" fill="url(#paint3_linear)"/>
<path d="M26.9751 37.0997H24.9894C24.8512 37.0997 24.7381 36.9992 24.7381 36.8484C24.7381 36.7101 24.8638 36.597 24.9894 36.597H26.8871C28.4077 36.597 29.3377 35.8304 29.853 35.2146H26.8745C26.7363 35.2146 26.6232 35.1141 26.6232 34.9633C26.6232 34.8251 26.7489 34.7119 26.8745 34.7119H29.765C31.2856 34.7119 32.2156 33.9453 32.7309 33.3296H28.747C28.6088 33.3296 28.4957 33.229 28.4957 33.0782C28.4957 32.94 28.6214 32.8269 28.747 32.8269H32.6555C35.0593 32.8269 35.9967 30.9565 36.1114 30.7061V30.703H27.5783H27.5657C27.0379 31.7461 26.2085 32.6509 25.1277 33.2919C24.3988 33.7066 23.607 33.983 22.8027 34.0836C23.1421 34.6994 23.2426 35.8556 23.2426 36.8484C23.2426 37.3888 23.2175 37.9669 23.1421 38.4821H24.0092C25.5298 38.4821 26.4598 37.7155 26.9751 37.0997Z" fill="url(#paint4_linear)"/>
<path d="M32.693 19.3672C32.5538 18.9613 32.0714 18.3749 31.1884 18.2864H30.8558C30.794 18.2933 30.729 18.2989 30.6571 18.2989C29.4757 18.4372 21.9354 19.4551 18.7559 19.8698L15.5889 26.3043C15.5135 26.4551 15.501 26.543 15.501 26.5682C15.5261 26.5808 15.5889 26.6436 15.7146 26.7064C15.8529 26.7693 16.0791 26.8447 16.3304 26.8824C16.6195 25.2486 17.5871 23.7531 19.1329 22.8608C20.0252 22.333 21.0054 22.0942 21.9731 22.0817H22.0359C24.009 22.0942 25.9443 23.1248 27 24.9721C27.5278 25.8644 27.7666 26.8572 27.7792 27.8249V27.8877C27.7792 28.3904 27.7038 28.9057 27.5655 29.3958H36.7899L35.4075 27.2594L32.693 19.3672ZM20.6535 20.737L29.2998 19.719L29.4632 20.737H20.6535ZM31.0341 19.342C31.3734 19.2792 31.8384 19.6813 32.0772 20.272C32.3034 20.8501 32.2154 21.3779 31.8635 21.4408C31.8384 21.4408 31.8133 21.4408 31.7881 21.4408H31.763C31.4362 21.4282 31.0341 21.0386 30.8204 20.5108C30.5942 19.9327 30.6822 19.4049 31.0341 19.342ZM32.1274 26.9829C32.1023 26.9955 32.0646 26.9955 32.0395 26.9955C31.8133 27.008 31.5493 26.7693 31.3985 26.4048C31.2352 26.0027 31.3106 25.6005 31.5493 25.5251C31.7881 25.4371 32.1149 25.701 32.2782 26.1032C32.4416 26.5053 32.3662 26.9075 32.1274 26.9829ZM32.5547 24.6077L30.7576 22.9363L32.4542 23.7154L32.9066 22.798L33.0071 24.5951L32.5547 24.6077ZM34.2513 26.8447C34.2262 26.8572 34.1885 26.8572 34.1633 26.8572C33.9748 26.8824 33.736 26.6562 33.6104 26.342C33.4596 25.9775 33.5224 25.6256 33.7486 25.5502C33.9622 25.4748 34.2513 25.701 34.3895 26.0529C34.5403 26.4174 34.4775 26.7567 34.2513 26.8447Z" fill="url(#paint5_linear)"/>
<path d="M22.3236 22.8108H21.6668C19.0374 22.9874 16.9463 25.1806 16.9463 27.8628C16.9463 30.5391 19.0397 32.7398 21.6507 32.9149H22.3237C24.9569 32.7398 27.0503 30.5391 27.0503 27.8628C27.0503 25.1865 24.9568 22.9858 22.3236 22.8108Z" fill="url(#paint6_radial)"/>
<path d="M19.4342 23.9544L19.4216 23.9418C19.3713 23.9669 19.2582 24.0926 19.1074 24.1806C18.7179 24.5073 18.5796 24.6455 18.0895 25.299C18.0392 25.3744 17.7879 25.764 17.7502 25.9274C17.8884 25.9148 18.0895 25.852 18.1523 25.8269C18.9441 25.5127 19.4593 25.0603 19.4342 23.9544ZM25.2025 28.2272L25.2151 27.3726C25.7052 27.3726 26.1074 27.2218 26.5724 26.8448C26.5849 26.7191 26.4467 26.3421 26.3839 26.1536C26.0194 25.2362 25.3031 24.3565 24.3354 23.7784C23.9458 23.8789 23.4683 24.4947 23.3803 24.9346C23.3049 25.1985 23.3175 25.4247 23.3175 25.764L22.6137 25.8646C22.5509 25.7766 22.4503 25.6258 22.4001 25.6007C22.1487 25.2865 21.6963 25.0351 21.1685 24.9723L21.1559 24.5953C21.2816 24.6078 21.4701 24.6455 21.6334 24.6455C22.5006 24.5827 22.9656 24.1554 23.2923 23.5773C23.418 23.3511 23.2043 23.3134 22.8022 23.2506C22.6102 23.2199 22.4287 23.1997 22.2555 23.1877H21.7093C21.3113 23.2192 20.9155 23.3076 20.4396 23.4768C20.2636 23.5396 20.0374 23.6276 19.8992 23.7156C20.0751 24.1554 20.339 24.3188 20.7412 24.545L20.7663 25.0226C19.6855 25.1859 18.9441 26.0908 19.0697 27.3098L18.7053 27.3601C18.5293 27.0962 18.4665 26.9831 18.3031 26.8322C18.0644 26.6437 17.901 26.5181 17.5365 26.4552C17.2726 27.3349 17.2223 28.3529 17.5365 29.308C17.6119 29.5216 17.7753 29.9364 17.8507 30.0118C18.5545 29.6724 18.9441 29.0818 18.9315 28.2146C18.9189 28.0638 18.8812 27.8879 18.8435 27.6742L19.1577 27.624C19.3462 28.0261 19.497 28.2398 19.7609 28.4534C19.9243 28.5917 20.1002 28.6796 20.3013 28.755L20.2008 29.4085C19.8615 29.4085 19.4845 29.4714 19.208 29.597C18.6676 29.8861 18.1649 30.3888 18.1649 30.5145C18.2529 30.7281 18.6927 31.1554 18.8561 31.3062C19.3839 31.7837 19.9369 32.1482 20.6406 32.3367C21.0858 32.4613 21.3411 32.4976 21.4793 32.5126H21.607C21.84 32.2659 22.0103 31.6634 21.9979 31.2182L22.8273 31.0925C23.0033 31.3565 23.2421 31.545 23.3175 31.5827C23.5562 31.7586 24.1092 31.9722 24.3103 31.922C24.6245 31.746 25.1648 31.3187 25.3408 31.1302C25.6675 30.7909 26.1074 30.2505 26.3085 29.7227C26.3085 28.931 25.7052 28.4534 25.2025 28.2272ZM24.7376 28.1267C24.4736 28.0513 23.9458 28.1392 23.6945 28.2523C22.8022 28.6545 22.3498 29.4462 22.5509 30.5899L21.8597 30.7155C21.734 30.3511 21.4575 29.9992 21.2062 29.7856C21.0428 29.6599 20.9171 29.597 20.6029 29.4839L20.6783 28.8556C20.7663 28.8556 20.8543 28.8681 20.9423 28.8681C21.0931 28.8681 21.2439 28.843 21.4072 28.8053C21.9853 28.6796 22.8148 28.1895 22.9027 26.9831C22.9153 26.8323 22.8776 26.4301 22.8022 26.2793L23.4431 26.1788C23.7573 26.8825 24.0715 27.0962 24.7627 27.3601L24.7376 28.1267Z" fill="url(#paint7_radial)"/>
<defs>
<linearGradient id="paint0_linear" x1="7.16895" y1="16.7597" x2="31.2101" y2="16.7597" gradientUnits="userSpaceOnUse">
<stop stop-color="#C3161C"/>
<stop offset="1" stop-color="#EC1C24"/>
</linearGradient>
<linearGradient id="paint1_linear" x1="7.84082" y1="35.1458" x2="22.3002" y2="35.1458" gradientUnits="userSpaceOnUse">
<stop stop-color="white"/>
<stop offset="1" stop-color="#A6A8AB"/>
</linearGradient>
<linearGradient id="paint2_linear" x1="7.83496" y1="30.7094" x2="7.84058" y2="30.7094" gradientUnits="userSpaceOnUse">
<stop stop-color="white"/>
<stop offset="1" stop-color="#A6A8AB"/>
</linearGradient>
<linearGradient id="paint3_linear" x1="16.9717" y1="37.8034" x2="20.767" y2="37.8034" gradientUnits="userSpaceOnUse">
<stop stop-color="white"/>
<stop offset="1" stop-color="#A6A8AB"/>
</linearGradient>
<linearGradient id="paint4_linear" x1="22.8027" y1="34.5926" x2="36.1114" y2="34.5926" gradientUnits="userSpaceOnUse">
<stop stop-color="#A6A8AB"/>
<stop offset="1" stop-color="white"/>
</linearGradient>
<linearGradient id="paint5_linear" x1="15.501" y1="23.8411" x2="36.7899" y2="23.8411" gradientUnits="userSpaceOnUse">
<stop stop-color="#00813D"/>
<stop offset="1" stop-color="#00A84F"/>
</linearGradient>
<radialGradient id="paint6_radial" cx="0" cy="0" r="1" gradientUnits="userSpaceOnUse" gradientTransform="translate(21.9983 27.8628) scale(5.04576)">
<stop stop-color="#58595B"/>
<stop offset="1" stop-color="#231F20"/>
</radialGradient>
<radialGradient id="paint7_radial" cx="0" cy="0" r="1" gradientUnits="userSpaceOnUse" gradientTransform="translate(21.9844 27.8502) scale(4.66942)">
<stop stop-color="white"/>
<stop offset="1" stop-color="#D0D2D3"/>
</radialGradient>
</defs>
</svg>
