<svg width="44" height="44" viewBox="0 0 44 44" fill="none" xmlns="http://www.w3.org/2000/svg">
<path d="M21.9997 40.8572C32.4142 40.8572 40.8569 32.4146 40.8569 22.0001C40.8569 11.5856 32.4142 3.14294 21.9997 3.14294C11.5852 3.14294 3.14258 11.5856 3.14258 22.0001C3.14258 32.4146 11.5852 40.8572 21.9997 40.8572Z" fill="#0056A3"/>
<path d="M22 3.67114C11.88 3.67114 3.6709 11.8803 3.6709 22.0003H8.66176C8.66176 14.6334 14.6206 8.662 22 8.662C29.3543 8.662 35.3383 14.6334 35.3383 22.0003H40.3292C40.3292 11.8803 32.1326 3.67114 22 3.67114Z" fill="white"/>
<path d="M5.66878 18.4676C5.90763 17.6881 6.34764 17.3738 6.96363 17.487C7.60478 17.6001 7.86878 18.0778 7.80592 18.8824L8.06992 18.9327L7.93164 19.6618L7.66764 19.6116C7.45392 20.391 7.01392 20.7053 6.38535 20.5921C5.75678 20.479 5.48021 20.0013 5.55564 19.2093L5.35449 19.1716L5.49278 18.4424L5.66878 18.4676ZM7.25278 18.7818C7.24021 18.6436 7.20249 18.543 7.11449 18.4424C7.02649 18.3544 6.92592 18.2916 6.80021 18.279C6.68706 18.2664 6.54878 18.2664 6.44821 18.3167C6.33506 18.367 6.24706 18.455 6.18421 18.5681L7.25278 18.7818ZM7.11449 19.511L6.03335 19.3098C6.04592 19.423 6.09621 19.5487 6.18421 19.6241C6.27221 19.7247 6.38535 19.775 6.49849 19.7876C6.61164 19.8001 6.73735 19.7876 6.83792 19.7373C6.96364 19.7121 7.05164 19.6241 7.11449 19.511ZM5.93278 16.607L8.03221 16.5064C8.14535 16.5944 8.17049 16.7201 8.09506 16.9087C8.08249 16.959 8.03221 17.0596 7.95678 17.1727L8.45964 17.3738C8.57278 17.1727 8.64821 17.0218 8.67335 16.9338C8.73621 16.7704 8.77392 16.6321 8.76135 16.519C8.74878 16.4058 8.71106 16.3053 8.66078 16.2298C8.61049 16.1418 8.50992 16.0413 8.39678 15.9281L6.85049 14.3693L6.53621 15.1487L7.41621 15.8904L6.27221 15.8276L5.93278 16.607ZM7.17735 13.8161L8.52249 11.7293L9.07564 12.0813L8.62306 12.7853L10.2951 13.8664L9.85506 14.5578L8.18306 13.4767L7.73049 14.1807L7.17735 13.8161ZM10.3831 11.151L10.0311 10.8241L11.0116 9.81841L10.6219 9.45384L9.06306 11.0378L10.9613 12.8733L11.9419 11.8676C12.1808 11.6287 12.2939 11.3898 12.3316 11.1761C12.3694 10.9624 12.2813 10.7738 12.1179 10.5978C11.9042 10.3967 11.6779 10.3087 11.4391 10.3464C11.2002 10.3841 10.9488 10.5476 10.6596 10.8367L10.3831 11.151ZM11.1373 11.8927L10.7728 11.5281L11.0619 11.2264C11.2505 11.0378 11.3762 11.0127 11.5019 11.1258C11.6402 11.2641 11.6151 11.415 11.4391 11.6036L11.1373 11.8927ZM12.2185 9.75555C11.9796 9.39098 11.9168 9.05155 11.9796 8.71213C12.0676 8.3727 12.2813 8.1087 12.6333 7.86984C12.9979 7.63098 13.3625 7.55555 13.6768 7.63098C13.9911 7.69384 14.2802 7.92013 14.5065 8.2847C14.6699 8.5487 14.7579 8.78755 14.7705 9.01384C14.7831 9.22755 14.7328 9.45384 14.6322 9.64241C14.5316 9.84355 14.3431 10.007 14.0916 10.1704C13.8402 10.3213 13.6013 10.4218 13.3876 10.4344C13.1739 10.447 12.9476 10.4218 12.7465 10.2961C12.5705 10.2081 12.3819 10.0321 12.2185 9.75555ZM12.9225 9.3407C13.0608 9.55441 13.2116 9.70527 13.3625 9.74298C13.5133 9.79327 13.6516 9.75555 13.8025 9.68013C13.9533 9.57956 14.0413 9.46641 14.0539 9.32813C14.0665 9.17727 14.0036 8.97613 13.8528 8.7247C13.7145 8.51098 13.5888 8.38527 13.4379 8.33498C13.2871 8.2847 13.1488 8.32241 12.9979 8.39784C12.8596 8.48584 12.7842 8.59898 12.7591 8.74984C12.7213 8.91327 12.7716 9.10184 12.9225 9.3407ZM17.8882 8.30984L17.1339 8.59898L16.4299 6.72584L15.8391 6.9647L16.1282 7.71898C16.2414 8.03327 16.3168 8.27213 16.3419 8.42298C16.3545 8.57384 16.3294 8.7247 16.2414 8.82527C16.1408 8.93841 15.9522 9.03898 15.6882 9.1647C15.6002 9.20241 15.4996 9.22755 15.3865 9.2527L15.1979 8.74984L15.3111 8.69955C15.4116 8.66184 15.4745 8.61155 15.4996 8.5487C15.5248 8.48584 15.5122 8.39784 15.4619 8.2847L14.8333 6.65041L16.9579 5.84584L17.8882 8.30984ZM18.9191 6.41155L19.3591 6.32355C19.7488 6.2607 20.0631 6.27327 20.2642 6.37384C20.4779 6.47441 20.6162 6.67555 20.6665 6.97727C20.7168 7.21613 20.6539 7.41727 20.5031 7.5807C20.3522 7.73155 20.1133 7.8447 19.7739 7.89498L18.3911 8.13384L17.9385 5.53155L18.7431 5.39327L18.9191 6.41155ZM19.1076 7.45498L19.5099 7.39213C19.7613 7.34184 19.8745 7.24127 19.8493 7.0527C19.8116 6.88927 19.6859 6.83898 19.4345 6.88927L19.0322 6.95213L19.1076 7.45498ZM21.2448 5.1167H22.0493V6.03441H22.9419V5.10413H23.7716V7.79441H22.9419V6.68813H22.0493V7.78184H21.2448V5.1167ZM25.5065 6.54984L25.9214 6.66298C26.3111 6.76355 26.5751 6.91441 26.7259 7.10298C26.8768 7.29155 26.9145 7.51784 26.8265 7.80698C26.7636 8.04584 26.6253 8.1967 26.4242 8.2847C26.2231 8.3727 25.9465 8.3727 25.6322 8.27213L24.2871 7.90755L24.9659 5.33041L25.7705 5.49384L25.5065 6.54984ZM25.2299 7.55555L25.6322 7.65613C25.8836 7.71898 26.0219 7.6687 26.0722 7.4927C26.1099 7.34184 26.0093 7.2287 25.7705 7.15327L25.3682 7.0527L25.2299 7.55555ZM27.7191 6.07213L26.7888 8.56127L27.6185 8.9007L28.5488 6.38641L27.7191 6.07213ZM31.5785 8.00813L30.2962 10.3087L29.6173 9.94413L30.3214 8.68698L28.7625 9.47898L28.0836 9.11441L29.3659 6.81384L30.0448 7.17841L29.3408 8.4607L30.9248 7.6687L31.5785 8.00813ZM31.3648 7.15327L31.1008 7.00241C30.9876 7.10298 30.8493 7.11555 30.6985 7.04013C30.5476 6.9647 30.4973 6.83898 30.5099 6.68813L30.2459 6.53727C30.1956 6.68813 30.1956 6.82641 30.2585 6.95213C30.3213 7.09041 30.4219 7.20355 30.5602 7.29155C30.7111 7.37955 30.8493 7.4047 31.0002 7.37955C31.1385 7.35441 31.2768 7.26641 31.3648 7.15327ZM33.3259 13.2253L32.6848 12.5716L32.9488 11.8676C33.0116 11.7041 33.0494 11.5784 33.0494 11.5281C33.0494 11.4778 33.0116 11.415 32.9613 11.3647L32.2071 12.0938L31.6288 11.503L33.5271 9.66756L34.1054 10.2584L33.3762 10.9624C33.4265 11.0127 33.4768 11.0253 33.5396 11.0253C33.6025 11.0253 33.7408 10.975 33.9545 10.8744C34.1179 10.8116 34.2436 10.7738 34.3442 10.7613C34.4448 10.7613 34.5454 10.799 34.6585 10.8744C34.7716 10.9624 34.9476 11.1133 35.1488 11.3144L34.7465 11.7041L34.7088 11.6664C34.6082 11.5658 34.5202 11.5156 34.4448 11.503C34.3568 11.4904 34.2562 11.503 34.1431 11.5533C34.0299 11.6036 33.9294 11.6413 33.8539 11.6413C33.7659 11.6413 33.7031 11.6287 33.6151 11.591C33.6654 11.7041 33.7031 11.8298 33.6779 11.943C33.6779 12.0813 33.6276 12.2447 33.5648 12.4458L33.3259 13.2253ZM34.8345 15.6893L37.0722 14.2436L35.8653 12.3453L34.3945 13.3007C34.2939 13.3636 34.1933 13.4013 34.1305 13.3887C34.0676 13.3761 33.9922 13.3258 33.9419 13.2378L33.8791 13.1373L33.4265 13.4264C33.4768 13.527 33.5271 13.6276 33.5648 13.6904C33.7156 13.9293 33.8665 14.0927 34.0048 14.1681C34.1431 14.231 34.2688 14.2561 34.4196 14.1807C34.5705 14.1304 34.7842 14.0173 35.0608 13.8287L35.7522 13.3887L36.0665 13.9293L34.3945 15.023L34.8345 15.6893ZM37.3739 15.0104L37.7133 15.8401L36.8333 16.5818L37.9774 16.519L38.2791 17.2984L36.0539 17.2607C35.8653 17.2607 35.7396 17.2481 35.6516 17.223C35.5511 17.2104 35.4631 17.1601 35.3876 17.0721C35.2996 16.9841 35.2242 16.871 35.1488 16.7076C35.1111 16.6196 35.0608 16.4561 34.9979 16.2298L35.5008 16.0287C35.5385 16.167 35.5636 16.2676 35.6013 16.3178C35.6642 16.4813 35.7899 16.5693 35.9156 16.5567L37.3739 15.0104ZM37.5876 18.9076L37.6756 19.3224C37.7636 19.7121 37.7385 20.0138 37.6379 20.2276C37.5374 20.4413 37.3362 20.5796 37.0471 20.6298C36.8082 20.6801 36.6071 20.6298 36.4436 20.479C36.2802 20.3281 36.1796 20.0893 36.1042 19.775L35.8402 18.3921L38.4299 17.8893L38.8448 20.0767L38.3168 20.1773L38.0528 18.7944L37.5876 18.9076ZM36.5442 19.1087L36.6322 19.511C36.6825 19.7624 36.7956 19.863 36.9842 19.8253C37.1351 19.7876 37.1979 19.6618 37.1476 19.4104L37.0596 19.0081L36.5442 19.1087Z" fill="#0056A3"/>
<path d="M9.55314 25.9727C9.54057 25.9224 9.50286 25.8847 9.46514 25.8595C9.41486 25.8218 9.36457 25.7967 9.30172 25.759C9.23886 25.7212 9.16343 25.6961 9.088 25.6458C8.98743 25.583 8.88686 25.5327 8.77372 25.4572C8.66057 25.3944 8.53486 25.3441 8.40914 25.2938C8.27086 25.2435 8.14514 25.1932 7.99429 25.1807C7.84343 25.143 7.69257 25.143 7.54172 25.143C7.39086 25.143 7.22743 25.1807 7.064 25.231C6.91314 25.2812 6.8 25.3441 6.67429 25.4195C6.57372 25.4824 6.47314 25.5704 6.38515 25.6584C6.29715 25.7464 6.23429 25.847 6.17143 25.9601C6.10857 26.0732 6.05829 26.199 5.98286 26.3247C5.93257 26.463 5.86972 26.6138 5.79429 26.7647C5.744 26.8778 5.70629 26.9784 5.68115 27.0664C5.66857 27.1292 5.64343 27.2047 5.63086 27.2298C5.63086 27.2675 5.63086 27.2927 5.63086 27.3178C5.64343 27.3555 5.66857 27.3681 5.69372 27.4058C5.71886 27.4435 5.78172 27.4561 5.84457 27.4938C5.90743 27.5315 5.99543 27.5818 6.10857 27.6321C6.272 27.7201 6.42286 27.7955 6.56115 27.871C6.69943 27.9338 6.82515 27.9841 6.95086 28.0344C7.064 28.0847 7.20229 28.1224 7.31543 28.135C7.42857 28.1475 7.55429 28.1727 7.68 28.1475C7.79315 28.135 7.93143 28.1098 8.08229 28.0595C8.24572 27.9967 8.39657 27.9212 8.52229 27.8207C8.63543 27.7201 8.736 27.6195 8.824 27.5064C8.912 27.3932 8.97486 27.2675 9.02515 27.1544C9.07543 27.0412 9.13829 26.903 9.176 26.7898C9.22629 26.6767 9.27657 26.551 9.32686 26.4504C9.36457 26.3875 9.38972 26.3121 9.42743 26.2618C9.46515 26.2115 9.47772 26.1612 9.49029 26.1235C9.55314 26.0355 9.55314 26.0104 9.55314 25.9727ZM8.76115 25.8721C8.72343 25.9098 8.69829 25.935 8.66057 25.9727C8.62286 26.0104 8.59772 26.0607 8.56 26.111C8.52229 26.1612 8.49715 26.2241 8.44686 26.3121C8.39657 26.4001 8.34629 26.5132 8.25829 26.6515C8.17029 26.815 8.06972 26.9658 8.00686 27.1041C7.91886 27.2424 7.856 27.3555 7.768 27.4561C7.70514 27.5567 7.61714 27.6195 7.52914 27.6698C7.49143 27.6824 7.47886 27.7075 7.44114 27.7075C7.40343 27.7201 7.37829 27.7201 7.35314 27.7201C7.25257 27.7327 7.152 27.7327 7.03886 27.7075C6.92572 27.6698 6.82514 27.6195 6.69943 27.5692C6.59886 27.5064 6.49829 27.4184 6.43543 27.3304C6.48572 27.3178 6.536 27.2801 6.57372 27.2424C6.61143 27.2047 6.63657 27.1795 6.67429 27.1292C6.712 27.079 6.73714 27.0287 6.77486 26.9658C6.81257 26.903 6.83772 26.815 6.888 26.7144C6.93829 26.6138 6.98857 26.5007 7.07657 26.3624C7.13943 26.2241 7.21486 26.111 7.29029 25.9978C7.36572 25.8847 7.44114 25.7967 7.52914 25.7087C7.61714 25.6207 7.71772 25.5704 7.81829 25.5452C7.88114 25.5327 7.96914 25.5075 8.05714 25.5075C8.14514 25.5075 8.24572 25.5201 8.32114 25.5452C8.40914 25.583 8.50972 25.6081 8.57257 25.6835C8.648 25.6835 8.71086 25.7715 8.76115 25.8721ZM9.528 31.3155H10.1566C10.1691 31.3784 10.1691 31.4287 10.1943 31.479C10.1943 31.5292 10.2069 31.5795 10.232 31.6172C10.2446 31.6675 10.2697 31.7052 10.2823 31.7304C10.2949 31.7681 10.3326 31.8184 10.3703 31.8687C10.4583 31.9818 10.5714 32.0698 10.6846 32.1201C10.7977 32.1704 10.9234 32.2081 11.0491 32.2081C11.1874 32.2081 11.3006 32.1955 11.4137 32.1452C11.5269 32.095 11.6526 32.0447 11.7531 31.9567C11.8914 31.8561 11.992 31.743 12.0423 31.6047C12.1051 31.4664 12.1429 31.3155 12.1429 31.1647C12.1429 31.0138 12.1051 30.8504 12.0423 30.687C11.9794 30.5235 11.8914 30.3727 11.7531 30.1967C11.6149 30.0332 11.4891 29.9075 11.3131 29.807C11.1497 29.719 10.9737 29.6561 10.8103 29.6435C10.6469 29.631 10.4583 29.631 10.2823 29.6812C10.1817 29.7441 10.0811 29.8195 10.0183 29.8824C9.93029 29.9327 9.86743 29.9955 9.81714 30.0332C9.75429 30.0835 9.704 30.1338 9.62857 30.1715L8.05714 31.4035L7.79314 31.0515L7.60457 31.1898L8.68572 32.5727L8.87429 32.4344L8.61029 32.0824L9.528 31.3155ZM9.792 31.1144L10.3703 30.6618C10.4331 30.6115 10.5086 30.5612 10.584 30.4984C10.672 30.4355 10.7474 30.3852 10.8354 30.335C10.9234 30.2847 10.9989 30.2344 11.0869 30.2218C11.1749 30.1841 11.2503 30.1841 11.3257 30.2092C11.4137 30.2218 11.4766 30.2721 11.5269 30.3475C11.5897 30.4355 11.6149 30.511 11.6149 30.5864C11.6149 30.6744 11.5771 30.7372 11.552 30.8252C11.5017 30.9132 11.4514 30.9761 11.3634 31.039C11.3006 31.1018 11.2126 31.1772 11.1497 31.2275C11.0366 31.3155 10.9486 31.3784 10.848 31.4161C10.76 31.4538 10.6971 31.4664 10.6343 31.4664C10.5714 31.4664 10.5211 31.4664 10.4834 31.4287C10.4457 31.4161 10.4206 31.3784 10.3954 31.3658C10.3703 31.3532 10.3829 31.3281 10.3577 31.3155C10.3577 31.303 10.3451 31.2652 10.3451 31.2275C10.3451 31.1898 10.3451 31.1772 10.3451 31.1395L9.792 31.1144ZM14.1669 34.9864L14.0537 35.1875L15.2103 35.879L15.3234 35.6778L15.1349 35.5647C15.1474 35.4515 15.1474 35.3258 15.1349 35.2252C15.1223 35.1247 15.0846 35.0241 15.0217 34.9235C14.9714 34.8355 14.9086 34.7601 14.8331 34.6847C14.7703 34.6218 14.6823 34.5464 14.6194 34.5212C14.5189 34.4584 14.4057 34.4081 14.3051 34.3704C14.2046 34.3327 14.0914 34.3201 13.9909 34.3201C13.8903 34.3201 13.7897 34.3201 13.6891 34.3327C13.7017 34.3201 13.7017 34.295 13.7269 34.2698C13.7394 34.2572 13.7394 34.2321 13.7646 34.2195C13.8023 34.1567 13.8526 34.0813 13.9029 34.0184C13.9531 33.9304 14.016 33.8675 14.0914 33.7795C14.1543 33.6915 14.2297 33.6287 14.3051 33.5784C14.3931 33.5155 14.4686 33.4653 14.5566 33.4275C14.6446 33.3898 14.7451 33.3773 14.8206 33.3773C14.9211 33.3773 15.0217 33.415 15.1223 33.4778C15.2229 33.5407 15.3109 33.6161 15.3611 33.679C15.4114 33.767 15.4491 33.8298 15.4617 33.9178C15.4743 34.0058 15.4743 34.0813 15.4743 34.1567C15.4617 34.2447 15.4366 34.3075 15.424 34.3704L15.2731 34.2824L15.16 34.4835L16.3166 35.175L16.4297 34.9738L16.216 34.8355C16.2286 34.6847 16.2286 34.5464 16.216 34.4333C16.2034 34.295 16.1531 34.1818 16.1029 34.0813C16.0526 33.9681 15.9897 33.8675 15.9017 33.7795C15.8137 33.6915 15.7383 33.6161 15.6503 33.5281C15.5623 33.4653 15.4617 33.3898 15.3863 33.3395C15.2983 33.2893 15.1851 33.2264 15.072 33.1761C14.9589 33.1258 14.8206 33.0755 14.6697 33.063C14.5189 33.0253 14.3806 33.0127 14.2171 33.0253C14.0663 33.0253 13.9154 33.063 13.7394 33.1133C13.5886 33.1635 13.4377 33.2641 13.2869 33.3773C13.136 33.4904 12.9977 33.6664 12.8846 33.8801C12.8343 33.9681 12.784 34.0687 12.7463 34.1441C12.7086 34.2321 12.696 34.3327 12.6834 34.4333C12.6709 34.5338 12.6709 34.647 12.6834 34.7853C12.696 34.9235 12.7211 35.0744 12.7337 35.263C12.7463 35.3258 12.7463 35.4013 12.7463 35.4767C12.7463 35.5395 12.7463 35.6275 12.7463 35.7155C12.7463 35.8035 12.7086 35.8664 12.696 35.9544C12.6583 36.0424 12.6331 36.1053 12.5577 36.1681C12.5954 36.2184 12.6457 36.2561 12.696 36.3064C12.7463 36.3567 12.8091 36.407 12.8846 36.4573C12.9474 36.5075 13.0229 36.5578 13.0857 36.5955C13.1486 36.6458 13.224 36.6835 13.2743 36.7087C13.4126 36.7967 13.5383 36.847 13.6891 36.8721C13.84 36.9098 14.0034 36.9224 14.1794 36.9224C14.3554 36.9224 14.5189 36.8847 14.6823 36.8344C14.8457 36.7841 15.0217 36.7213 15.1726 36.6333L15.336 36.7338L15.4491 36.5452L14.2171 35.8035L14.104 35.9921L14.3429 36.1304C14.3051 36.1681 14.2549 36.2184 14.2046 36.2687C14.1543 36.319 14.0914 36.3567 14.0034 36.407C13.9154 36.4447 13.84 36.4698 13.7394 36.495C13.6389 36.5201 13.5383 36.5075 13.4251 36.4824C13.312 36.4698 13.1863 36.4195 13.0606 36.3315C13.0229 36.319 12.9977 36.2813 12.96 36.2687C12.9474 36.2561 12.9223 36.2184 12.9097 36.2058C12.9223 36.1933 12.9474 36.1681 12.9726 36.1555C12.9851 36.143 13.0103 36.1178 13.0354 36.0927C13.048 36.055 13.0857 36.0298 13.0983 35.9921C13.1486 35.9041 13.1863 35.8413 13.2114 35.7784C13.2491 35.7155 13.2617 35.6653 13.2743 35.5898C13.2869 35.5395 13.312 35.4767 13.3246 35.4264C13.3371 35.3635 13.3623 35.2881 13.3749 35.2253C13.3874 35.1373 13.4251 35.0618 13.4629 34.9613C13.5006 34.8607 13.5509 34.7224 13.6137 34.5715C13.7017 34.559 13.7646 34.5338 13.8526 34.5338C13.9406 34.5338 14.0034 34.5464 14.0663 34.5841C14.1291 34.5967 14.2046 34.6344 14.2549 34.6721C14.2926 34.6847 14.3051 34.7224 14.3429 34.7601C14.3806 34.7978 14.3931 34.8481 14.3931 34.911C14.4057 34.9738 14.3931 35.0492 14.3806 35.1247L14.1669 34.9864ZM19.12 36.671L20.2011 37.4504L19.9497 38.7327L19.5851 38.6698L19.5349 38.8835L21.1691 39.1978L21.2194 38.9841L20.7794 38.8961L21.4206 35.615L21.8606 35.703L21.9109 35.4892L20.2766 35.175L20.2263 35.3887L20.5909 35.4515L20.2766 37.1235L19.208 36.3315L19.4217 35.2252L19.7863 35.2881L19.8366 35.0744L18.2023 34.7601L18.152 34.9738L18.592 35.0618L17.9509 38.343L17.5109 38.255L17.4606 38.4687L19.0949 38.783L19.1451 38.5692L18.7806 38.5064L19.12 36.671ZM23.1931 35.3132L23.2434 35.527L23.6834 35.4264L24.4377 38.695L23.9977 38.7955L24.048 39.0092L26.6754 38.4058C26.7383 38.3932 26.7886 38.3681 26.8263 38.3555C26.864 38.343 26.8891 38.3178 26.9143 38.2927C26.9269 38.255 26.952 38.2298 26.952 38.1795C26.952 38.1292 26.9394 38.0664 26.9143 37.9784L26.6754 36.9475C26.6629 36.8595 26.6251 36.7967 26.6126 36.7464C26.5749 36.6961 26.5623 36.6835 26.512 36.6584C26.4743 36.6458 26.4491 36.6458 26.3989 36.6458C26.3486 36.6458 26.3109 36.6584 26.2606 36.6835C26.2229 36.6961 26.1977 36.6961 26.16 36.7212C26.1223 36.7338 26.0971 36.7338 26.0594 36.759C25.9714 36.7715 25.8709 36.7967 25.7703 36.7967C25.6571 36.7967 25.5566 36.7967 25.4309 36.7841C25.3177 36.7715 25.192 36.7464 25.0914 36.7212C24.9909 36.6961 24.8903 36.6584 24.8023 36.6081L24.5006 35.2755L24.7017 35.2252C24.7897 35.2127 24.8526 35.1875 24.9154 35.175C24.9783 35.1624 25.0663 35.1624 25.1291 35.175C25.192 35.1875 25.28 35.2252 25.3429 35.2755C25.4057 35.3258 25.4937 35.4138 25.5566 35.527C25.5943 35.5772 25.6194 35.6275 25.6446 35.6778C25.6571 35.7281 25.6949 35.7784 25.7074 35.8161C25.72 35.8538 25.7577 35.879 25.7954 35.9041C25.8331 35.9167 25.8583 35.9418 25.896 35.9167C25.9337 35.9041 25.9589 35.879 25.984 35.8161C25.9966 35.7658 26.0217 35.703 26.0343 35.6275C26.0469 35.5395 26.0469 35.4767 26.0469 35.3761C26.0469 35.2881 26.0469 35.2127 26.0469 35.1247C26.0469 35.0367 26.0343 34.9738 26.0343 34.9235C26.0343 34.8732 26.0217 34.823 26.0217 34.8104C26.0091 34.7727 26.0091 34.7475 25.9714 34.7098C25.9589 34.6721 25.9211 34.6595 25.9086 34.647C25.8709 34.6344 25.8457 34.6344 25.808 34.647C25.7703 34.6595 25.7451 34.6595 25.72 34.6847C25.7074 34.6972 25.6697 34.6972 25.6571 34.7224C25.6194 34.735 25.5943 34.7601 25.5566 34.7727C25.5063 34.7852 25.456 34.8104 25.368 34.8355C25.28 34.8481 25.1794 34.8858 25.0663 34.9235L23.1931 35.3132ZM25.2674 38.519L24.8651 36.7841C24.928 36.8344 25.0034 36.8721 25.0663 36.8972C25.1291 36.9224 25.2046 36.9601 25.2674 36.9852C25.3303 36.9978 25.4183 37.0355 25.5189 37.0732C25.6069 37.111 25.6823 37.1235 25.7326 37.1361C25.7829 37.1487 25.8206 37.1738 25.8457 37.1864C25.8583 37.199 25.8834 37.2241 25.896 37.2492C25.9086 37.2744 25.9086 37.2995 25.9337 37.3498L26.072 37.9532C26.0846 38.0412 26.1097 38.1041 26.1097 38.1544C26.1097 38.2047 26.1097 38.2424 26.0971 38.2675C26.0846 38.3052 26.0594 38.3178 26.0343 38.3304C25.9966 38.343 25.9714 38.343 25.9337 38.3681L25.2674 38.519ZM31.4149 35.8412L31.3017 35.6527L31.0629 35.8035C30.7989 35.0492 30.5726 34.5967 30.3589 33.8047C30.3211 33.7041 30.3086 33.6035 30.3086 33.5155C30.3086 33.4275 30.3086 33.3521 30.3463 33.2641C30.384 33.2012 30.4343 33.1258 30.4971 33.0755C30.5474 33.0378 30.5851 33.0252 30.648 33.0252C30.6983 33.0252 30.7611 33.0127 30.8366 33.0127L30.8994 32.9624C30.8366 32.8744 30.7863 32.799 30.7486 32.7487C30.7109 32.6984 30.6857 32.6481 30.6857 32.6104C30.6731 32.5727 30.6731 32.5475 30.648 32.5224C30.648 32.5098 30.648 32.4847 30.6354 32.4595C30.6354 32.447 30.6354 32.4218 30.6229 32.3967C30.6229 32.359 30.6103 32.3338 30.5726 32.2961C30.5349 32.2835 30.5097 32.2835 30.472 32.2835C30.4343 32.2835 30.384 32.2961 30.3337 32.3212C30.2834 32.3338 30.2457 32.359 30.1954 32.3715C30.1451 32.3841 30.1074 32.4092 30.0949 32.4218C30.0069 32.4847 29.944 32.5601 29.8937 32.623C29.856 32.711 29.8309 32.7738 29.8309 32.8744C29.8309 32.9624 29.8309 33.063 29.8434 33.1384C29.856 33.2264 29.8811 33.327 29.9063 33.4024C29.9189 33.4401 29.9189 33.4904 29.9566 33.5658C29.9691 33.6287 30.0069 33.7292 30.0446 33.8675C30.2457 34.5212 30.3966 34.8984 30.648 35.5395L28.5989 33.7544L28.9131 33.5532L28.8 33.3647L27.568 34.1567L27.6811 34.3452L27.8697 34.2321L30.4469 36.4698L30.8617 36.2058C31.0629 36.6207 31.2011 36.9098 31.4526 37.2995L31.8549 36.9978C31.8549 36.9601 31.8423 36.9475 31.8171 36.935C31.8046 36.9224 31.7794 36.8972 31.7669 36.8847C31.4651 36.6207 31.3269 36.3818 31.1383 36.0298L31.4149 35.8412ZM34.256 31.6172L34.1051 31.0264C34.168 30.9887 34.2183 30.9761 34.256 30.9635C34.3063 30.951 34.344 30.9258 34.3943 30.9007C34.432 30.8881 34.4823 30.8504 34.5074 30.8378C34.5451 30.8001 34.5703 30.775 34.608 30.7247C34.696 30.6115 34.7589 30.4858 34.7714 30.3601C34.784 30.247 34.784 30.1087 34.7589 29.9955C34.7211 29.8824 34.6709 29.7567 34.608 29.6435C34.5451 29.543 34.4446 29.4424 34.344 29.3544C34.2057 29.2538 34.08 29.191 33.9291 29.1532C33.7783 29.1155 33.64 29.1155 33.4891 29.1658C33.3383 29.2035 33.1874 29.2664 33.0491 29.367C32.8983 29.4675 32.76 29.6058 32.6469 29.7567C32.5086 29.9201 32.4331 30.0961 32.3829 30.2847C32.3326 30.4732 32.32 30.6367 32.3451 30.8252C32.3577 30.9887 32.408 31.1647 32.5086 31.3155C32.6091 31.4035 32.6971 31.4664 32.76 31.5292C32.8229 31.5921 32.8983 31.6424 32.9611 31.6927C33.024 31.743 33.0743 31.7932 33.1497 31.831L34.7211 33.063L34.432 33.415L34.6206 33.5532L35.7017 32.1704L35.5131 32.0321L35.224 32.3841L34.256 31.6172ZM34.0046 31.4161L33.4263 30.9635C33.3634 30.9132 33.288 30.863 33.2126 30.8001C33.1246 30.7372 33.0617 30.6618 32.9737 30.599C32.9109 30.5361 32.8354 30.4481 32.7851 30.3852C32.7349 30.3224 32.7223 30.2344 32.6971 30.1464C32.6971 30.0584 32.7097 29.9955 32.7851 29.9075C32.8606 29.8195 32.9234 29.7692 32.9989 29.7567C33.0869 29.7441 33.1497 29.7441 33.2377 29.7692C33.3257 29.807 33.4011 29.8321 33.4891 29.8824C33.5771 29.9327 33.6526 29.9955 33.728 30.0458C33.8411 30.1338 33.9291 30.2092 33.9794 30.2847C34.0297 30.3475 34.08 30.423 34.08 30.4858C34.0926 30.5361 34.0926 30.5864 34.08 30.6367C34.0674 30.687 34.0423 30.7247 34.0297 30.7372C34.0171 30.7498 33.992 30.775 33.9794 30.775C33.9669 30.7875 33.9291 30.8127 33.9166 30.8127C33.8789 30.8252 33.8663 30.8252 33.8537 30.8252L34.0046 31.4161ZM34.2057 27.255L34.4194 27.3178L34.5577 26.903L37.7383 27.9338L37.6 28.3487L37.8137 28.4115L38.3543 26.7395L38.1406 26.6767L38.0023 27.0915L34.8217 26.0607L34.9223 25.759C34.9349 25.6961 34.9726 25.6081 34.9851 25.5452C35.0229 25.4824 35.048 25.407 35.0983 25.3567C35.1486 25.3064 35.2114 25.2561 35.2994 25.2184C35.3874 25.1807 35.488 25.1681 35.6389 25.1555C35.6891 25.1555 35.752 25.1555 35.8023 25.1555C35.8526 25.1555 35.9029 25.1555 35.9531 25.1555C36.0034 25.1555 36.0411 25.1555 36.0663 25.143C36.0914 25.1304 36.1166 25.0927 36.1291 25.055C36.1417 25.0172 36.1291 24.967 36.0914 24.9418C36.0537 24.8915 36.0034 24.8412 35.9531 24.8035C35.8903 24.7532 35.8149 24.703 35.752 24.6652C35.6891 24.615 35.6011 24.5772 35.5383 24.5521C35.4754 24.5144 35.4 24.4892 35.3497 24.4515C35.2994 24.439 35.2617 24.4138 35.2491 24.4012C35.2114 24.3887 35.1863 24.3887 35.1486 24.3887C35.1109 24.3887 35.0857 24.4012 35.0606 24.4264C35.0229 24.439 35.0103 24.4767 34.9977 24.5144C34.9851 24.6024 34.9474 24.6527 34.9474 24.703C34.9349 24.7532 34.9349 24.791 34.9349 24.8035C34.9349 24.8161 34.9349 24.8538 34.9349 24.8538C34.9349 24.8664 34.9349 24.8915 34.9349 24.9041C34.9349 24.9167 34.9349 24.9418 34.9349 24.967C34.9349 24.9921 34.9223 25.0298 34.8971 25.0801C34.8846 25.1304 34.8594 25.1932 34.8343 25.2938L34.2057 27.255Z" fill="white"/>
<path d="M21.8124 30.504C17.1484 30.504 13.377 26.7326 13.377 22.0686C13.377 17.4046 17.1484 13.6332 21.8124 13.6332C26.4764 13.6332 30.2478 17.4046 30.2478 22.0686C30.2478 26.7326 26.4512 30.504 21.8124 30.504Z" fill="white"/>
<path d="M21.8358 32.252C16.2314 32.252 11.6719 27.6925 11.6719 22.0881C11.6719 16.4837 16.2314 11.9242 21.8358 11.9242C27.4402 11.9242 31.9997 16.4837 31.9997 22.0881C31.9997 27.6925 27.4402 32.252 21.8358 32.252ZM21.8358 12.188C16.3769 12.188 11.9357 16.6292 11.9357 22.0881C11.9357 27.547 16.3769 31.9883 21.8358 31.9883C27.2948 31.9883 31.7359 27.547 31.7359 22.0881C31.7359 16.6292 27.2948 12.188 21.8358 12.188Z" fill="white"/>
<path d="M21.812 28.7565C25.5057 28.7565 28.5 25.7622 28.5 22.0685C28.5 18.6357 25.9132 15.8085 22.5829 15.4261C22.4847 15.416 22.3866 15.4054 22.2875 15.3999C22.2873 15.3997 22.287 15.3993 22.2868 15.3991C22.1298 15.3881 21.9718 15.3805 21.812 15.3805C20.1751 15.3805 18.6763 15.9694 17.5139 16.9458C17.5125 16.9563 17.5113 16.9654 17.5104 16.9713C16.6807 17.6627 16.0395 18.5427 15.6246 19.5484C15.6222 19.5495 15.6179 19.5515 15.6151 19.5528C15.2994 20.3295 15.124 21.1783 15.124 22.0685C15.124 25.7622 18.1183 28.7565 21.812 28.7565Z" fill="black"/>
<path d="M22.3759 24.1622C21.9988 24.2753 21.4079 24.4387 21.1188 24.5267L20.1885 27.1919C20.3016 27.3176 20.7416 27.745 21.1313 27.9964C21.4833 28.2227 21.961 28.5119 22.1873 28.625C23.3439 28.5496 24.4376 28.1724 25.3679 27.569C25.4936 27.3176 25.7073 26.7896 25.8079 26.4376C25.9085 26.0353 26.0216 25.4319 26.0593 25.2307L23.8216 23.6342C23.5702 23.7473 22.8159 24.0239 22.3759 24.1622Z" fill="white"/>
<path d="M28.1334 20.3528C27.9323 20.1768 27.5049 19.7997 27.2031 19.5985C26.8637 19.3848 26.3609 19.0957 26.1597 18.9951L23.9723 20.6168C23.9723 20.8431 23.9849 21.4968 23.9849 22.0248C23.9849 22.5403 23.9471 23.2694 23.9346 23.5208L26.1849 25.1425C26.3986 25.0294 26.8763 24.7654 27.1906 24.5014C27.5426 24.1997 27.9951 23.7974 28.146 23.6591C28.2591 23.1563 28.322 22.6283 28.3723 22.0877C28.3723 21.4968 28.2843 20.906 28.1334 20.3528Z" fill="white"/>
<path d="M22.5264 20.0134C22.979 20.1517 23.5824 20.378 23.8212 20.466L26.0212 18.8443C25.9835 18.618 25.8955 18.0648 25.7321 17.6625C25.5812 17.298 25.3801 16.8077 25.2795 16.5688C24.3241 15.9654 23.2052 15.6008 21.9984 15.5631C21.747 15.6888 21.3321 15.9277 21.0555 16.1414C20.7538 16.3928 20.3138 16.7951 20.1504 16.946L21.043 19.5734C21.3321 19.6614 22.0738 19.8751 22.5264 20.0134Z" fill="white"/>
<path d="M16.3911 21.9749H19.1568C19.3328 21.7234 19.7728 21.0572 20.0368 20.6926C20.3134 20.2903 20.7534 19.7497 20.8917 19.5863L19.9991 16.9714C19.798 16.9337 19.2448 16.8332 18.8048 16.8709C18.4528 16.9086 18.0128 16.9463 17.7488 16.9589C16.8311 17.6754 16.0894 18.656 15.6494 19.8126C15.6997 20.0892 15.8003 20.5669 15.9134 20.8686C16.0517 21.2332 16.2906 21.7737 16.3911 21.9749Z" fill="white"/>
<path d="M20.0244 23.3953C19.7604 23.0182 19.2701 22.3142 19.1318 22.113H16.4038C16.2907 22.3016 16.0393 22.8045 15.9261 23.2445C15.8507 23.609 15.725 24.1245 15.6621 24.3885C16.0644 25.4948 16.7684 26.4502 17.661 27.1919C17.9501 27.217 18.4907 27.2673 18.8427 27.2548C19.2324 27.2296 19.7855 27.1793 20.0244 27.1668L20.917 24.5896C20.8541 24.489 20.2884 23.7473 20.0244 23.3953Z" fill="white"/>
</svg>
