<svg width="44" height="44" viewBox="0 0 44 44" fill="none" xmlns="http://www.w3.org/2000/svg">
<path d="M21.9522 40.8572L21.8938 40.8333C9.73535 35.8824 7.91992 29.3184 7.91992 25.8462V3.14294H35.9826V25.8462C35.9826 29.3183 34.1674 35.8821 22.0106 40.8333L21.9522 40.8572ZM8.22966 3.45269V25.8462C8.22966 29.2349 10.0149 35.6432 21.9522 40.5227C33.8879 35.6427 35.6728 29.2348 35.6728 25.8462V3.45269H8.22966Z" fill="#B2B3B3"/>
<path fill-rule="evenodd" clip-rule="evenodd" d="M21.9527 40.6899C8.93551 35.3893 8.0752 28.3019 8.0752 25.8461V3.29773H35.8281V25.8461C35.8281 28.3014 34.967 35.3893 21.9527 40.6899Z" fill="#FEFEFE"/>
<path fill-rule="evenodd" clip-rule="evenodd" d="M31.5519 6.86516H33.2747V9.10895H34.5003V4.75324H33.2747V6.10339H32.153C31.8187 6.10296 31.5519 6.36316 31.5519 6.72427V6.86516ZM31.3596 4.75324H30.1343V9.10895H31.3596C31.3596 7.75968 31.3596 6.10248 31.3596 4.75324ZM9.30762 4.75477H12.6302C13.2302 4.75477 13.6737 5.16599 13.6737 5.61302V6.91041C13.6737 7.35237 13.2202 7.75863 12.6571 7.75863H11.3323C11.0032 7.75863 10.7257 7.49075 10.7257 7.15196V6.99076H12.448V5.52293H10.5333V9.10895H9.30762V4.75477ZM23.0344 9.10997H19.7118L19.7117 4.75319L23.791 4.75293V4.92129C23.791 5.23215 23.5486 5.52171 23.214 5.52171H20.9372V8.34167H22.8522V6.87042H21.1295V6.71915C21.1295 6.31069 21.4501 6.10366 21.7307 6.10366H23.0612C23.6243 6.10366 24.0779 6.5103 24.0779 6.95207V8.25163C24.0779 8.698 23.6338 9.10997 23.0344 9.10997ZM29.2886 4.75324H28.8624C28.5851 4.75324 28.2786 4.86817 28.0841 5.08618L26.1486 7.42222V4.75324H24.9232V9.10895H25.5774C26.0015 9.10895 26.2652 8.87344 26.3655 8.7661L28.0629 6.62415V9.10895H29.2886V4.75324ZM15.726 6.99076V4.75327H14.4997V6.94032C14.4997 7.36515 14.9668 7.75863 15.5504 7.75863H17.6403V8.3446H15.2857C14.9126 8.3446 14.6854 8.67215 14.6854 8.92568V9.10895H17.8342C18.3667 9.10895 18.8662 8.74638 18.8662 8.22827V4.75327H17.6403V6.99076H15.726Z" fill="#7F1E34"/>
<path fill-rule="evenodd" clip-rule="evenodd" d="M21.904 39.4071C18.3177 37.8707 16.9289 37.0886 13.8787 34.6479C9.49771 31.1444 9.30762 26.5688 9.30762 24.4011V10.2789H14.5471V11.9774H11.006V24.3797C11.006 25.2992 10.6407 29.9476 14.9568 33.4125C17.6001 35.5672 18.8019 36.2579 21.904 37.6141C25.0061 36.2579 26.2082 35.5672 28.8487 33.4125C33.1697 29.9476 32.8042 25.2996 32.8042 24.3797V11.9774H29.2609V10.2789H34.5002L34.5004 24.4011C34.5004 26.5685 34.3085 31.1444 29.9292 34.6479C26.8783 37.0886 25.4886 37.8707 21.904 39.4071Z" fill="#7F1E34"/>
<path fill-rule="evenodd" clip-rule="evenodd" d="M26.9783 11.2012V11.6845H27.164C27.3705 11.6845 27.4738 11.6026 27.4738 11.4387C27.4738 11.2802 27.3732 11.2012 27.1713 11.2012H26.9783ZM26.5673 11.9769V10.2733H26.9783V10.9112H27.2465C27.6865 10.9112 27.9061 11.0783 27.9061 11.4124C27.9061 11.5909 27.847 11.7295 27.7281 11.8285C27.6096 11.9275 27.4422 11.9769 27.226 11.9769H26.5673ZM25.9107 11.9769H25.4987V11.283H24.7437V11.9769H24.3327V10.2733H24.7437V10.9529H25.4987V10.2733H25.9107V11.9769ZM20.2793 11.914V11.5779C20.4242 11.6687 20.5891 11.7146 20.7739 11.7146C21.0027 11.7146 21.1172 11.6371 21.1172 11.4826C21.1172 11.326 20.9914 11.2473 20.7392 11.2473H20.5054V10.9598H20.7293C20.9532 10.9598 21.0647 10.8865 21.0647 10.7389C21.0647 10.6041 20.9697 10.5369 20.7788 10.5369C20.6425 10.5369 20.4967 10.5775 20.3418 10.6581V10.3447C20.4976 10.2782 20.6698 10.2449 20.8591 10.2449C21.0582 10.2449 21.2128 10.2834 21.3225 10.3605C21.4323 10.4379 21.487 10.5426 21.487 10.6747C21.487 10.7785 21.4557 10.8666 21.3937 10.9391C21.3312 11.0118 21.2427 11.0605 21.1272 11.086V11.0917C21.257 11.1075 21.3585 11.1512 21.4318 11.2231C21.5052 11.2948 21.5416 11.3836 21.5416 11.4899C21.5416 11.6538 21.4783 11.781 21.3511 11.8711C21.224 11.9615 21.0409 12.0066 20.8018 12.0066C20.5748 12.0066 20.4004 11.9757 20.2793 11.914ZM19.0459 11.3034L18.813 10.6207L18.5794 11.3034H19.0459ZM19.7172 11.9769H19.2698L19.1401 11.5978H18.4917L18.3633 11.9769H17.9181L18.582 10.2733H19.0689L19.7172 11.9769ZM17.4181 11.9769H16.8991L16.3132 11.1604V11.9769H15.9023V10.2733H16.3132V11.0647L16.8739 10.2733H17.3635L16.7277 11.086L17.4181 11.9769ZM23.1062 11.3034L22.8734 10.6207L22.6398 11.3034H23.1062ZM23.7776 11.9769H23.3301L23.2005 11.5978H22.552L22.4236 11.9769H21.9784L22.6423 10.2733H23.1293L23.7776 11.9769Z" fill="#7F1E34"/>
<path fill-rule="evenodd" clip-rule="evenodd" d="M21.9053 36.7621C12.3209 32.8594 11.6875 27.2793 11.6875 25.4711V12.5654H32.1215V25.4711C32.1215 27.279 31.4875 32.8594 21.9053 36.7621Z" fill="#7F1E34"/>
<path fill-rule="evenodd" clip-rule="evenodd" d="M19.8636 34.9105V33.6636L19.5312 33.736V33.4566L20.2072 33.3204V34.9105H19.8636ZM20.606 34.8768V34.5931C20.6877 34.6468 20.7869 34.6737 20.9027 34.6737C21.0233 34.6737 21.1163 34.6327 21.182 34.5513C21.2482 34.4692 21.2812 34.3534 21.2819 34.2027L21.2758 34.2005C21.2064 34.3028 21.1014 34.3545 20.9605 34.3545C20.8323 34.3545 20.7262 34.3098 20.6423 34.2204C20.5584 34.1307 20.5166 34.0149 20.5166 33.8721C20.5166 33.7057 20.5675 33.5721 20.6703 33.4711C20.7727 33.3709 20.9053 33.3204 21.0683 33.3204C21.2354 33.3204 21.3688 33.3832 21.4682 33.51C21.567 33.6364 21.6172 33.8176 21.6172 34.053C21.6172 34.3323 21.5572 34.5499 21.4377 34.705C21.3179 34.8604 21.1508 34.9378 20.9361 34.9378C20.809 34.9378 20.6989 34.9174 20.606 34.8768ZM21.0585 33.5833C20.9986 33.5833 20.9499 33.6077 20.9111 33.6557C20.8729 33.704 20.8534 33.7665 20.8534 33.8427C20.8534 33.9223 20.8726 33.9844 20.9107 34.0298C20.9489 34.0752 21.0004 34.0977 21.0662 34.0977C21.1258 34.0977 21.1744 34.0763 21.2122 34.033C21.2499 33.9898 21.2688 33.9356 21.2688 33.87C21.2688 33.7879 21.2493 33.7195 21.2093 33.6647C21.1701 33.6106 21.1196 33.5833 21.0585 33.5833ZM21.9328 34.8702V34.576C22.0399 34.641 22.1536 34.6737 22.2742 34.6737C22.3654 34.6737 22.4365 34.6522 22.4874 34.6091C22.539 34.5658 22.5644 34.507 22.5644 34.4329C22.5644 34.2782 22.4551 34.2005 22.236 34.2005C22.1652 34.2005 22.0788 34.207 21.9778 34.2201V33.3465H22.8437V33.628H22.2724V33.9408C22.3181 33.9367 22.3614 33.9343 22.4017 33.9343C22.5626 33.9343 22.6886 33.9764 22.7794 34.061C22.8702 34.1453 22.9156 34.2586 22.9156 34.4013C22.9156 34.559 22.8615 34.6879 22.7533 34.7878C22.645 34.8876 22.498 34.9378 22.3124 34.9378C22.162 34.9378 22.0356 34.9153 21.9328 34.8702ZM23.4815 34.0977V34.0925C23.3024 34.0189 23.2131 33.9001 23.2131 33.736C23.2131 33.615 23.261 33.5155 23.3573 33.4373C23.4532 33.3592 23.5774 33.3204 23.7292 33.3204C23.8839 33.3204 24.0074 33.3571 24.1 33.4301C24.1923 33.5027 24.2384 33.5975 24.2384 33.713C24.2384 33.8838 24.1396 34.0098 23.9417 34.0904V34.0948C24.0477 34.126 24.1305 34.1775 24.189 34.2492C24.2475 34.3207 24.2769 34.4013 24.2769 34.4907C24.2769 34.6287 24.2254 34.7376 24.1233 34.8179C24.0212 34.8978 23.8785 34.9378 23.6954 34.9378C23.5367 34.9378 23.4088 34.8985 23.3119 34.8205C23.2149 34.7424 23.1663 34.6392 23.1663 34.5103C23.1663 34.3236 23.2712 34.1859 23.4815 34.0977ZM23.9144 33.7425C23.9144 33.6895 23.8977 33.647 23.864 33.6154C23.8302 33.5837 23.7851 33.5681 23.7292 33.5681C23.6744 33.5681 23.6293 33.5845 23.5934 33.6175C23.5574 33.6505 23.5392 33.6927 23.5392 33.7446C23.5392 33.8419 23.6017 33.9157 23.727 33.9662C23.852 33.9143 23.9144 33.8398 23.9144 33.7425ZM23.7118 34.2288C23.5658 34.2862 23.4924 34.3744 23.4924 34.4928C23.4924 34.5495 23.5146 34.5964 23.5592 34.6334C23.6042 34.6705 23.6587 34.689 23.7223 34.689C23.7917 34.689 23.8472 34.6708 23.8897 34.6345C23.9315 34.5982 23.953 34.5502 23.953 34.4907C23.953 34.3715 23.8723 34.284 23.7118 34.2288Z" fill="#FEFEFE"/>
<path fill-rule="evenodd" clip-rule="evenodd" d="M27.8908 25.0409L23.5294 29.3697C23.1311 29.7651 22.6359 29.1902 22.9799 28.8478L27.1762 24.6703C28.8211 23.0327 29.3992 21.007 29.3515 18.7864L21.0157 27.0265C20.2438 27.7896 19.6673 29.7322 21.117 31.1191C22.3809 32.3283 23.8387 32.0744 24.8709 31.454C27.2669 30.0136 28.2617 27.6016 27.8908 25.0409ZM21.4732 32.3071C18.9383 32.2399 17.5501 30.4224 17.3214 28.1511C17.1167 26.1179 17.9489 24.9966 19.5359 23.4217L29.3612 13.6719C29.5125 15.9254 28.8411 18.2159 27.1889 19.8547L20.6069 26.3826C18.9554 28.0206 19.0737 31.0144 21.4732 32.3071ZM17.0676 30.2702C15.7933 28.7806 15.4851 27.2728 15.446 26.3055C15.3672 24.3563 16.0734 22.7489 17.2713 21.5601L18.7976 20.0454C19.1565 19.6893 18.9292 18.9624 18.3123 18.887C18.0217 18.8514 17.7339 18.9753 17.313 19.3231H16.954L16.5899 18.2155L18.2105 18.2112C17.9824 17.3567 16.93 17.1455 16.2 17.3785L15.7979 16.2019H17.9309C18.0484 16.1153 18.1911 15.9422 18.383 15.9422H21.213L20.7645 16.4793C22.324 17.5624 22.2859 19.7514 21.1061 20.8397L18.553 23.3463C16.9409 24.9291 15.7913 26.9573 17.0676 30.2702ZM18.5064 16.6293L18.6638 17.0912L18.9012 16.8266L19.5744 16.6293H18.5064ZM18.7729 15.4999L20.2074 15.4999L20.2087 14.2457L19.4903 14.7899L18.7735 14.2437L18.7729 15.4999ZM16.7689 17.9459C15.706 17.3115 15.1712 18.0197 14.1299 17.4903C14.7209 19.0596 15.9825 17.7204 16.7689 17.9459Z" fill="#FEFEFE"/>
</svg>
