<svg width="44" height="44" viewBox="0 0 44 44" fill="none" xmlns="http://www.w3.org/2000/svg">
<path d="M21.4518 40.6059C17.4448 37.7392 14.2447 34.3801 11.9301 30.6141L9.78125 32.4261L9.07353 32.2825C7.72818 32.009 6.64608 31.4449 5.85631 30.6056C5.03064 29.7252 4.58618 28.6021 4.52805 27.2653C4.50056 26.2283 4.68617 25.1967 5.07337 24.2344C5.44714 23.2379 5.96553 22.3019 6.6119 21.4565C7.01776 20.9391 7.46421 20.455 7.94699 20.0086C7.81878 19.2444 7.73843 18.6017 7.6786 18.1281L7.61364 17.6153C7.4766 16.3517 7.4195 15.0808 7.4427 13.81C7.4427 12.2459 7.49569 10.7193 7.52817 9.94663L7.54526 9.54832L7.91964 9.40644C9.03314 8.99694 10.1761 8.67236 11.3386 8.43546C11.2672 8.11706 11.243 7.78991 11.2668 7.46448C11.3984 5.75501 12.7848 4.42505 14.6361 4.24897C14.7814 4.23529 14.9319 4.22846 15.084 4.22846C15.468 4.2304 15.8507 4.27222 16.2259 4.35325L16.6072 4.43359L16.9815 4.33957C19.8223 3.57872 22.7472 3.17671 25.6879 3.14294C29.5359 3.14294 31.5684 3.9481 31.6522 3.98229L32.2214 4.21136L31.8283 4.66095C32.3052 4.97854 32.6555 5.45346 32.818 6.00288L32.8334 6.05759V8.05937C32.8306 8.22434 32.8157 8.38889 32.789 8.5517C33.7757 8.77134 34.7466 9.05689 35.6951 9.40644L36.0677 9.54832L36.0848 9.94663C36.1242 10.8971 36.1703 12.3399 36.1703 13.8117C36.1703 14.6066 36.1566 15.3178 36.1293 15.9349L37.8182 15.4887L37.0866 17.9897L39.5722 15.8887L37.849 21.7009L34.5326 24.5113C34.1897 25.5355 33.7902 26.54 33.336 27.52C31.0009 32.5629 27.2383 36.9665 22.1544 40.6077L21.7937 40.8572L21.4518 40.6059Z" fill="white"/>
<path d="M38.7463 17.1606L36.259 19.2564L37.1787 16.1093L35.6573 16.511C35.7068 15.7793 35.7308 14.8785 35.7308 13.8135C35.7308 12.2493 35.6778 10.7364 35.6453 9.96715V9.85604L35.5393 9.81501C34.4743 9.42386 33.3818 9.11189 32.2708 8.88164C32.3507 8.61459 32.3944 8.33805 32.4007 8.05939V6.11572C32.306 5.813 32.143 5.53609 31.9242 5.30638C31.7055 5.07667 31.4369 4.9003 31.1391 4.79089L31.493 4.38574C31.493 4.38574 26.4535 2.34635 17.0942 4.75157L16.6138 4.88491L16.1266 4.78234C15.6486 4.67375 15.1568 4.63973 14.6684 4.68148C13.0325 4.83704 11.8085 5.99435 11.6939 7.49526C11.6593 7.92769 11.7224 8.36237 11.8786 8.76711C10.5804 9.01017 9.30435 9.35892 8.06304 9.80988L7.95705 9.85091V9.96203C7.92457 10.7279 7.87158 12.2459 7.87158 13.8066C7.84962 15.0586 7.90672 16.3107 8.04253 17.5555L8.10749 18.0683C8.17416 18.5983 8.26305 19.3128 8.41348 20.171C7.88678 20.6443 7.40283 21.1631 6.96727 21.7215C6.345 22.534 5.84562 23.4337 5.48516 24.3916C5.12052 25.2987 4.94597 26.2709 4.97232 27.2482C5.02019 28.4773 5.42704 29.5064 6.17921 30.3064C6.90402 31.0791 7.90748 31.6005 9.16394 31.8552L9.66481 31.956L12.0427 29.9508C14.3453 33.8433 17.5831 37.3016 21.7046 40.2504L21.8037 40.3222L21.9012 40.2504C26.9253 36.6605 30.6383 32.3082 32.9426 27.3354C33.4063 26.3336 33.8127 25.3062 34.1598 24.2583L37.4761 21.4599L38.7463 17.1606Z" fill="#00304F"/>
<path d="M34.2628 22.3215L35.6407 17.6085L33.6679 18.1214L32.7448 21.2839L30.2747 23.366L31.6422 18.653L29.6712 19.1658L28.8284 22.06L25.9497 24.5114L27.3275 19.7983L25.3548 20.3112L24.3189 23.937C24.0799 23.7961 23.8694 23.6117 23.6983 23.3934C23.5271 23.1746 23.3995 22.9251 23.3222 22.6583C23.2415 22.3755 23.2029 22.0823 23.2077 21.7882C23.2125 21.465 23.2667 21.1445 23.3684 20.8377L21.3666 21.3796C21.1843 22.2115 21.2276 22.868 21.4965 23.3489C21.5286 23.4082 21.5645 23.4654 21.6042 23.5199L19.8572 25.002C19.9696 24.658 20.0206 24.2969 20.0076 23.9353C20.0011 23.6294 19.9288 23.3286 19.7956 23.0532C19.6863 22.8039 19.5144 22.5872 19.2964 22.4241C19.0707 22.2703 18.8149 22.166 18.546 22.1181C18.2449 22.0874 17.9406 22.1123 17.6485 22.1916C16.9855 22.3773 16.3696 22.7019 15.8416 23.1438C15.2945 23.603 14.8407 24.163 14.5048 24.7934C14.2381 25.2951 14.0863 25.8498 14.0603 26.4174L11.2243 28.7953C10.5763 28.7051 9.9487 28.5032 9.36957 28.1987C8.88961 27.9379 8.49137 27.5491 8.21909 27.0756C7.93703 26.5567 7.7851 25.9771 7.77634 25.3866C7.75905 24.7971 7.83521 24.2086 8.00199 23.6429C8.18408 23.0591 8.45384 22.5063 8.80202 22.0036C9.1365 21.5069 9.54794 21.0666 10.0209 20.6992C10.456 20.3636 10.9525 20.1162 11.4825 19.971C11.8091 19.8764 12.1546 19.8669 12.4859 19.9437C12.7966 20.0163 13.0794 20.1778 13.2996 20.4086C13.5413 20.6575 13.7113 20.967 13.792 21.3044L12.3338 22.525L12.5526 22.8019L16.0382 19.8684L15.8485 19.5761L15.3493 19.9761C15.0105 19.5559 14.5328 19.2704 14.0022 19.171C13.3441 19.06 12.6694 19.101 12.0295 19.2906C11.2132 19.518 10.447 19.8973 9.77129 20.4086C9.03735 20.9714 8.37842 21.6257 7.81053 22.3557C7.24909 23.0886 6.79865 23.9002 6.47373 24.7644C6.15756 25.5385 6.00451 26.3695 6.02414 27.2055C6.06402 28.1799 6.37116 28.9725 6.94554 29.5833C7.51992 30.1942 8.3285 30.6062 9.37127 30.8193L14.0792 26.8482C14.1259 27.266 14.2699 27.6671 14.4997 28.0192C14.8076 28.4328 15.2208 28.7563 15.6963 28.956L21.8504 23.7763C22.1562 24.0354 22.5256 24.2083 22.9205 24.2772C23.1291 24.3113 23.3393 24.3387 23.5513 24.3558C23.7633 24.3729 23.9736 24.3917 24.1804 24.4054L23.5359 26.5627L24.3103 26.3576L28.6592 22.6805L27.8592 25.4157L28.6336 25.2105L32.5653 21.8942L31.8525 24.3609L32.6252 24.1558L36.5569 20.8411L36.7399 20.2257L34.2628 22.3215ZM18.1306 26.1507C17.9144 26.5273 17.6391 26.8667 17.3152 27.1559C16.8247 26.9868 16.3961 26.6748 16.0844 26.2601C15.7611 25.8425 15.5812 25.3317 15.5715 24.8037C15.5499 24.4359 15.6379 24.07 15.8245 23.7523C15.8974 23.6153 15.9969 23.4941 16.1173 23.3961C16.2376 23.298 16.3764 23.225 16.5254 23.1814C16.6647 23.148 16.8093 23.1425 16.9508 23.1654C17.0922 23.1883 17.2277 23.2391 17.3494 23.3147C17.6429 23.508 17.879 23.7767 18.0332 24.0925C18.2078 24.4181 18.3082 24.7783 18.3272 25.1473C18.3502 25.4932 18.2824 25.8391 18.1306 26.1507Z" fill="white"/>
<path d="M31.476 25.761C30.345 28.0374 28.9013 30.1445 27.1869 32.0211C26.9363 31.2734 26.5155 30.594 25.9578 30.0364C22.5389 26.7696 17.7148 29.327 17.496 33.1579C17.3147 32.9767 17.1358 32.7938 16.9592 32.6091C17.0802 31.7089 17.3989 30.8467 17.8925 30.0843C17.3377 30.7352 16.9255 31.4951 16.6822 32.3151C15.5883 31.143 14.5955 29.8803 13.7146 28.5406L13.6257 28.6124L12.8223 29.2962C14.9557 32.9562 17.9712 36.2247 21.7936 39.0299C26.4228 35.6383 29.8537 31.5749 31.9991 26.9457C32.2709 26.3593 32.5119 25.7867 32.7222 25.2362L31.5768 25.5388C31.5478 25.6106 31.5136 25.6841 31.476 25.761Z" fill="#C1C1C1"/>
<path d="M34.2626 22.3215L35.6301 17.629C34.9771 17.7795 34.2831 18.0735 33.6266 18.2479L32.7411 21.2924L30.2709 23.3746L31.6163 18.771C30.9564 18.9693 30.2863 19.1812 29.6111 19.4035L28.8333 22.0771L25.9494 24.5113L27.199 20.2377C26.5152 20.4873 25.8315 20.7505 25.1477 21.0155L24.31 23.9455C24.0711 23.8046 23.8606 23.6202 23.6895 23.4019C23.5183 23.1832 23.3906 22.9336 23.3134 22.6668C23.2347 22.3888 23.1961 22.101 23.1989 21.8121C22.5459 22.0925 21.9042 22.3774 21.274 22.6668C21.3038 22.9003 21.3763 23.1262 21.4877 23.3335C21.5197 23.3929 21.5557 23.45 21.5954 23.5045L19.8483 24.9866C19.9608 24.6426 20.0117 24.2815 19.9987 23.9199C19.9915 23.7216 19.9588 23.5251 19.9013 23.3352C19.2836 23.6429 18.687 23.9546 18.1115 24.2703C18.2344 24.5443 18.3051 24.8388 18.3201 25.1387C18.3425 25.4848 18.2742 25.8307 18.1218 26.1422C17.9056 26.5188 17.6303 26.8582 17.3063 27.1473C16.8159 26.9782 16.3872 26.6663 16.0755 26.2516C15.9397 26.0774 15.8287 25.8853 15.7456 25.6806C15.1404 26.0755 14.5763 26.4396 14.0703 26.8396C14.1187 27.2571 14.2626 27.6578 14.4908 28.0106C14.7988 28.4243 15.212 28.7478 15.6875 28.9474L21.8416 23.7677C22.1474 24.0268 22.5168 24.1997 22.9117 24.2686C23.1202 24.3028 23.3305 24.3301 23.5425 24.3472C23.7544 24.3643 23.9647 24.3831 24.1716 24.3968L23.5356 26.5627L24.31 26.3576L28.6572 22.6805L27.8589 25.4157L28.6333 25.2105L32.565 21.8942L31.8522 24.3609L32.6249 24.1558L36.5567 20.8411L36.7396 20.2257L34.2626 22.3215Z" fill="#C1C1C1"/>
<path d="M23.9268 27.2635C24.9737 27.604 25.956 28.1177 26.8329 28.7833C25.6858 27.467 23.9268 27.2635 23.9268 27.2635Z" fill="#C1C1C1"/>
<path d="M21.7938 36.7956C23.2522 35.7515 24.6284 34.5971 25.9102 33.3425C25.9256 33.1715 25.9324 33.0177 25.9393 32.9066C25.9393 32.8536 25.9564 32.8519 25.97 32.9066C25.9977 33.0112 26.0194 33.1174 26.035 33.2245L26.1769 33.0861C26.1136 31.845 25.5461 30.8005 25.7051 31.0347C26.0727 31.5977 26.2921 32.2446 26.3427 32.9151L26.3547 32.9014C26.3034 31.3475 25.4675 30.0261 23.8965 29.4415C23.8469 29.4244 23.811 29.4073 23.8178 29.4022C23.8247 29.397 23.787 29.3817 23.7358 29.3646C20.7168 28.3919 17.8996 30.8774 18.0945 33.7476C19.2574 34.846 20.4933 35.8643 21.7938 36.7956Z" fill="white"/>
<path d="M31.5832 25.537C31.5473 25.6122 31.5131 25.6858 31.4755 25.7627C30.5051 27.7212 29.2996 29.5542 27.8856 31.221C26.6719 28.6978 24.4872 28.1833 24.4872 28.1833C25.218 28.4817 25.8777 28.9308 26.4232 29.5014C26.9687 30.0719 27.3878 30.7511 27.6532 31.4945C27.6036 31.5509 27.5574 31.6091 27.5078 31.6655C27.2378 30.8569 26.4548 30.127 26.4548 30.127C26.4548 30.127 27.1249 31.0296 27.2737 31.9219C27.1574 32.0501 27.0377 32.1766 26.9198 32.3048C26.6994 31.5389 26.2876 30.8418 25.7232 30.2791C23.4838 28.1423 20.3896 28.638 18.8169 30.6381C18.1738 31.449 17.8286 32.4562 17.8391 33.4912C17.928 33.5784 18.01 33.6621 18.1075 33.751C18.0685 33.1859 18.1431 32.6187 18.3269 32.0828C18.5107 31.547 18.7999 31.0534 19.1776 30.6312C19.1613 30.6677 19.1554 30.7079 19.1605 30.7475C19.1866 30.9135 19.222 31.0778 19.2665 31.2398C19.2799 31.2623 19.2879 31.2876 19.29 31.3136C19.2921 31.3397 19.2881 31.3659 19.2785 31.3903L19.2255 31.4997C19.1847 31.5724 19.1476 31.6471 19.1144 31.7236L19.0562 31.8398L19.2084 31.6569C19.2648 31.5937 19.3366 31.5082 19.4152 31.4261C19.4939 31.3441 19.5554 31.3492 20.576 31.2005C20.6118 31.1967 20.6462 31.1841 20.676 31.1638C20.7058 31.1436 20.7302 31.1162 20.7469 31.0843C21.0358 30.5099 21.1572 30.2723 21.2085 30.1697C21.2384 30.1144 21.2835 30.0687 21.3384 30.0381L21.8512 29.8227L21.7179 29.8346H21.7025C21.6432 29.8346 21.58 29.8432 21.5127 29.8603C21.4505 29.869 21.3888 29.8815 21.3281 29.8979C21.3001 29.9005 21.2718 29.8973 21.245 29.8884C21.2182 29.8796 21.1936 29.8654 21.1726 29.8466C21.1179 29.8056 21.0016 29.7423 20.7178 29.5799C20.6791 29.5593 20.6346 29.5521 20.5913 29.5594C21.5774 29.0858 22.7087 29.0135 23.747 29.3577C23.7744 29.3654 23.8008 29.3763 23.8257 29.3902C23.7925 29.3937 23.7608 29.4055 23.7333 29.4244C23.5639 29.5344 23.4028 29.6566 23.2513 29.7902C23.2363 29.8125 23.2162 29.8309 23.1927 29.8439C23.1693 29.857 23.1431 29.8644 23.1162 29.8654C22.9993 29.8522 22.8817 29.8453 22.7641 29.8449H22.4871L23.1709 30.0449C23.2296 30.0678 23.2802 30.1077 23.3162 30.1594L23.8171 30.9253C23.8359 30.954 23.8612 30.9779 23.8909 30.9951C23.9205 31.0123 23.9538 31.0223 23.9881 31.0244L24.9266 31.0535C24.996 31.0575 25.0622 31.0846 25.1146 31.1304L25.1796 31.1851L25.5625 31.5441C25.5375 31.4881 25.5078 31.4343 25.4736 31.3834C25.4151 31.2866 25.3506 31.1935 25.2804 31.1048V31.0945L25.2633 31.074C25.2507 31.0497 25.2442 31.0227 25.2442 30.9954C25.2442 30.968 25.2507 30.941 25.2633 30.9167C25.2941 30.73 25.3135 30.5416 25.3214 30.3526C25.3214 30.3526 25.3214 30.3406 25.3214 30.3338C25.3864 30.397 25.4445 30.4569 25.4924 30.5047C26.0329 31.1843 26.3398 32.0199 26.3676 32.8877L26.3471 32.9117C26.2972 32.2439 26.0784 31.5998 25.7112 31.0398C25.7055 31.0304 25.6986 31.0218 25.6907 31.0142L25.6069 30.8774L25.7779 31.2689C26.0033 31.8478 26.1393 32.4577 26.1813 33.0775C26.1334 33.1271 26.0873 33.1766 26.0377 33.2245C26.0377 33.204 26.0377 33.1835 26.0257 33.1613L25.9471 32.7322L25.9283 33.1835C25.9283 33.2331 25.9283 33.2878 25.9163 33.3442C24.6322 34.5983 23.2537 35.7522 21.7931 36.7956V37.7837C26.4223 34.3938 29.8532 30.3304 31.9986 25.7011C32.0465 25.5952 32.0944 25.4909 32.1405 25.3866L31.5832 25.537Z" fill="#858486"/>
<path d="M22.3213 35.1202C22.3538 35.2689 22.364 35.3407 22.523 36.0911C22.535 36.1424 22.523 36.0535 22.523 36.0005C22.523 35.2381 22.523 35.2484 22.523 35.1065C22.5238 35.077 22.531 35.0479 22.5439 35.0214C22.5569 34.9949 22.5754 34.9714 22.5982 34.9526L23.7846 34.0552C23.8355 34.0234 23.8967 34.0124 23.9555 34.0244C24.2176 34.0792 24.4767 34.1476 24.7316 34.2295C24.7829 34.2449 24.8684 34.2774 24.8222 34.2517L24.0239 33.8312C23.9723 33.7989 23.9322 33.751 23.9094 33.6945C23.8632 33.556 23.7384 33.1902 23.3965 32.2021C23.4051 32.169 23.4171 32.1369 23.4324 32.1064L23.5077 31.9354C23.5504 31.8329 23.5931 31.7303 23.6342 31.6346L23.8684 31.0875L23.5265 31.6004L23.347 31.8568L23.2478 31.9987C23.2293 32.0216 23.2062 32.0405 23.18 32.054C23.1538 32.0676 23.1251 32.0755 23.0957 32.0773L21.5828 32.0893C21.5226 32.087 21.4654 32.0627 21.4221 32.0209L21.3315 31.9235L20.7674 31.2807L20.8187 31.3679V31.3833L21.1093 31.8363L21.2375 32.0465L21.2819 32.12C21.3091 32.1727 21.3164 32.2334 21.3024 32.291C21.2187 32.5748 20.9605 33.4346 20.8785 33.744C20.8688 33.7718 20.8533 33.7972 20.8329 33.8184C20.8126 33.8396 20.7879 33.8563 20.7605 33.8671C20.417 33.9621 20.08 34.0798 19.752 34.2193L20.8187 34.0842C20.8787 34.0803 20.9385 34.0953 20.9896 34.127L22.2187 34.9817C22.2672 35.0153 22.3032 35.064 22.3213 35.1202Z" fill="#858486"/>
<path d="M18.8864 33.2432C18.8864 33.2125 18.8864 33.1834 18.8864 33.1543C18.8864 32.7372 18.8864 32.5714 18.8864 32.5714C18.8864 32.5714 18.7941 32.9543 18.7582 33.1731C18.7543 33.2055 18.7422 33.2362 18.723 33.2625C18.7039 33.2889 18.6783 33.3099 18.6488 33.3236C18.5873 33.3629 18.4779 33.4518 18.2009 33.6655C18.1704 33.6921 18.1483 33.7272 18.1377 33.7663C18.5719 34.1766 19.0221 34.5795 19.4882 34.9749C19.5241 34.8262 19.5754 34.6211 19.6472 34.3339C19.6557 34.3 19.6559 34.2644 19.6475 34.2305C19.6392 34.1965 19.6226 34.1651 19.5993 34.139C18.9326 33.3885 18.8864 33.3629 18.8864 33.2432Z" fill="#858486"/>
<path d="M13.2899 28.8961L12.8232 29.2978C14.9567 32.9561 17.9722 36.2246 21.7945 39.0298V37.8213C18.1858 35.2229 15.3345 32.2296 13.2899 28.8961Z" fill="#858486"/>
<path d="M14.0183 12.6664C13.8866 12.5485 13.5824 12.6664 13.3345 12.9399C13.0866 13.2135 12.9926 13.5229 13.1294 13.6425C13.2661 13.7622 13.5636 13.6425 13.8131 13.3707C14.0627 13.0989 14.1482 12.7861 14.0183 12.6664Z" fill="#FCBC00"/>
<path d="M12.5478 9.79114C11.3453 10.0104 10.1604 10.3166 9.00232 10.7074C8.97155 11.5126 8.93395 12.7588 8.93395 14.0409C8.9158 15.2331 8.9729 16.4252 9.10489 17.6102L9.16814 18.1077C9.21259 18.4633 9.26729 18.906 9.33909 19.4206C9.48439 19.3197 9.63141 19.2223 9.77842 19.1317C9.828 19.1009 9.87928 19.0735 9.92886 19.0445C9.8109 18.3778 9.73569 17.8154 9.67927 17.3863L9.6109 16.8923C9.49524 15.9154 9.44157 14.9322 9.45021 13.9486C9.45021 12.9588 9.47414 11.5673 9.49294 10.9724C10.5644 10.6698 11.6523 10.4284 12.7512 10.2493C11.752 12.3605 11.1549 14.6393 10.9904 16.9692C11.3397 14.7273 12.0681 12.5612 13.1444 10.5638C13.1444 10.5638 13.2469 10.3826 13.2692 10.3433C13.0041 10.1938 12.7613 10.008 12.5478 9.79114ZM9.45021 14.1657C9.45104 14.1606 9.45104 14.1554 9.45021 14.1503C9.45104 14.1554 9.45104 14.1606 9.45021 14.1657Z" fill="#FCBC00"/>
<path d="M14.4442 13.7415C14.1929 13.6202 13.7878 13.9398 13.5365 14.4561C13.2852 14.9724 13.2869 15.4818 13.5365 15.61C13.786 15.7382 14.198 15.4168 14.4442 14.9006C14.6904 14.3843 14.6989 13.868 14.4442 13.7415Z" fill="#FCBC00"/>
<path d="M22.3073 9.44232L21.9466 9.2406C20.3703 10.0268 18.857 10.9332 17.4199 11.9518C18.96 10.9523 20.5975 10.1115 22.3073 9.44232Z" fill="#FCBC00"/>
<path d="M14.5507 9.66792C14.6807 9.71237 14.8157 9.75168 14.949 9.78416C14.1063 8.88327 13.9097 8.13966 13.8823 7.70716V7.63365L13.2567 7.52596C13.471 7.43373 13.6915 7.35661 13.9165 7.29518C14.2919 7.1892 14.6776 7.12442 15.067 7.10201H15.0875H15.2585H15.3832C15.6277 7.10532 15.8712 7.13397 16.1098 7.18748C16.2624 7.2186 16.4105 7.26856 16.5508 7.33621C17.3267 7.6635 17.9481 8.27508 18.2876 9.04567C18.0562 8.90363 17.7915 8.82465 17.5201 8.81661C17.6756 9.19098 17.9304 9.93802 17.8192 10.5979C19.3321 9.65083 21.2382 8.45249 24.4622 7.65075C23.223 7.87239 21.9727 8.02704 20.7168 8.11401L22.8006 7.34988C21.4331 7.21312 17.8996 7.8217 17.8996 7.8217C23.387 5.95325 27.1923 6.19257 27.1923 6.19257C26.2965 6.38916 24.2862 7.16013 24.2862 7.16013C28.076 6.81824 29.9804 5.65409 31.0129 6.15496C30.5992 5.4934 29.1923 5.32416 29.1923 5.32416L29.5342 4.92586C29.5342 4.92586 26.117 4.33951 21.2809 5.0233C21.2809 5.09509 21.1578 5.17031 21.0057 5.19424C20.8535 5.21817 20.7031 5.19424 20.686 5.1139C20.1891 5.19253 19.6797 5.28655 19.1578 5.39596C19.1407 5.56691 18.8774 5.77033 18.5167 5.86777C18.1218 5.97376 17.7611 5.91393 17.7013 5.73614C17.4124 5.81136 17.1184 5.89 16.8243 5.97547C17.0007 6.12272 17.154 6.29559 17.279 6.48831C17.3728 6.44428 17.4715 6.41157 17.5731 6.39087C17.944 6.29001 18.2808 6.34813 18.327 6.51908C18.3731 6.69003 18.1099 6.90371 17.7406 7.00115C17.6791 7.01654 17.6192 7.02679 17.5611 7.03534C17.5355 6.99431 17.5064 6.95328 17.4773 6.91397C17.4483 6.87465 17.4449 6.87294 17.4295 6.85243C17.3919 6.80456 17.3526 6.7567 17.3132 6.71225L17.2483 6.64558C17.2243 6.61994 17.2004 6.5943 17.1748 6.57036C16.8139 6.23427 16.3732 5.99596 15.8944 5.87803C15.624 5.8103 15.3456 5.78039 15.067 5.78914C12.3917 5.79085 11.9147 8.98926 14.5507 9.66792ZM19.7065 5.66776C19.9424 5.60451 20.1578 5.64041 20.1869 5.74982C20.2159 5.85923 20.0484 5.9994 19.8125 6.06094C19.5766 6.12248 19.3612 6.08829 19.3321 5.97889C19.3031 5.86948 19.4706 5.73102 19.7065 5.66776Z" fill="#FCBC00"/>
<path d="M15.4451 11.5739C15.3938 11.4628 15.1647 11.4577 14.9322 11.5739C14.6997 11.6902 14.563 11.8491 14.6143 11.9603C14.6655 12.0714 14.8946 12.0748 15.1271 11.9688C15.3596 11.8628 15.4963 11.6902 15.4451 11.5739Z" fill="#FCBC00"/>
<path d="M24.9872 14.8716C24.8195 14.9823 24.6844 15.1357 24.5957 15.316C24.5921 15.3225 24.5893 15.3294 24.5872 15.3365C24.5361 15.4436 24.5076 15.5599 24.5034 15.6784C23.9547 14.5194 24.4726 12.6766 24.8914 11.5535L25.3137 10.5911C24.6881 10.8386 24.0828 11.1347 23.5034 11.4766C23.4811 11.4954 23.4623 11.5176 23.4418 11.5364C24.1256 11.3022 24.5666 11.1945 24.5666 11.1945L22.7478 12.3262C22.6811 12.4168 22.6178 12.5074 22.5529 12.6014C23.1808 12.3468 23.825 12.1344 24.4812 11.9655L21.9905 13.5194C21.464 14.4835 21.1357 15.4237 21.1751 15.8477H21.199L21.2383 15.8357C21.4605 15.7759 22.2418 15.6084 22.8298 16.0067C22.8741 16.0393 22.9158 16.0753 22.9546 16.1144C23.2025 16.3674 24.2008 17.246 25.3256 16.3639C28.4488 14.2938 30.2301 14.5861 30.2301 14.5861C30.4081 14.2393 30.4478 13.8379 30.3412 13.463C29.8506 12.1398 26.0778 14.0254 24.9872 14.8716Z" fill="#FCBC00"/>
<path d="M15.0725 12.6544C14.9135 12.8253 14.852 13.0373 14.9391 13.1159C15.0263 13.1946 15.2246 13.1159 15.3853 12.9364C15.546 12.7569 15.6058 12.5535 15.5187 12.4749C15.4315 12.3962 15.2332 12.4766 15.0725 12.6544Z" fill="#FCBC00"/>
<path d="M34.6661 12.7962C34.6661 11.5278 34.6285 11.5158 34.5977 10.7073C33.6351 10.3793 32.6524 10.1138 31.6557 9.91235C31.6398 9.94796 31.6261 9.9845 31.6147 10.0218L31.5036 10.3483C31.3612 10.7661 31.1933 11.1749 31.001 11.5722C31.1738 11.921 31.2443 12.3116 31.2044 12.6988C31.4778 13.1207 31.6343 13.6075 31.658 14.1097C31.6817 14.6118 31.5718 15.1112 31.3395 15.557C31.3395 15.557 32.3395 14.1194 31.5207 12.6509C31.5696 12.3005 31.5534 11.9441 31.4728 11.5996C31.4728 11.5996 31.9292 10.7825 32.0284 10.5107L32.0472 10.4713C32.8694 10.6423 33.5549 10.8132 34.0985 10.9722C34.1225 11.7039 34.143 12.6065 34.143 13.5176C34.1632 14.6391 34.1095 15.7606 33.9823 16.875L33.972 16.9537L34.4336 16.8323L34.5772 16.7947C34.6319 16.0733 34.6592 15.1519 34.6592 14.0407C34.6592 13.8287 34.6592 13.6168 34.6592 13.4065C34.6592 13.1962 34.6661 13.0065 34.6661 12.7962Z" fill="#FCBC00"/>
<path d="M23.056 9.86462C21.4799 10.5946 19.4114 11.7861 16.7207 13.7075C16.7207 13.7075 20.049 11.3895 23.8406 10.2116C23.5673 10.1247 23.3042 10.0084 23.056 9.86462Z" fill="#FCBC00"/>
<path d="M16.3394 11.2766C16.1684 11.3536 16.071 11.4801 16.1086 11.5604C16.1462 11.6408 16.3103 11.6442 16.4744 11.5604C16.6386 11.4766 16.7428 11.357 16.7052 11.2766C16.6676 11.1963 16.5035 11.1997 16.3394 11.2766Z" fill="#FCBC00"/>
<path d="M17.3844 21.2635C17.3413 21.2685 17.2977 21.2685 17.2545 21.2635C17.2211 21.2614 17.1887 21.2508 17.1605 21.2328C17.1366 21.216 17.1187 21.192 17.1092 21.1644C17.1003 21.1296 17.1003 21.0932 17.1092 21.0584C17.1173 20.9987 17.1358 20.9408 17.1639 20.8875C17.1937 20.8349 17.2305 20.7865 17.2733 20.7439C17.3199 20.6992 17.3715 20.6602 17.4272 20.6276C17.4867 20.5921 17.5497 20.5629 17.6152 20.5404L17.634 20.4772L17.8272 20.4276L17.8067 20.4909C17.8504 20.4852 17.8946 20.4852 17.9383 20.4909C17.9709 20.4943 18.0025 20.5048 18.0306 20.5216C18.0555 20.5378 18.0742 20.5619 18.0836 20.59C18.0917 20.6255 18.0917 20.6623 18.0836 20.6977C18.0756 20.7577 18.0565 20.8157 18.0272 20.8687C17.9984 20.9219 17.9615 20.9704 17.9178 21.0123C17.8723 21.0574 17.8212 21.0964 17.7657 21.1285C17.706 21.1637 17.643 21.1929 17.5776 21.2157L17.5588 21.2806L17.3656 21.3319L17.3844 21.2635ZM17.3024 20.9866C17.2978 21.0051 17.2978 21.0245 17.3024 21.043C17.3075 21.0571 17.3171 21.0691 17.3297 21.0772C17.3435 21.0864 17.3594 21.0917 17.3759 21.0926C17.3957 21.0961 17.4159 21.0961 17.4357 21.0926L17.552 20.7182C17.5205 20.7303 17.4902 20.7451 17.4614 20.7627C17.4058 20.7931 17.3601 20.8388 17.3297 20.8943C17.3145 20.9247 17.3052 20.9578 17.3024 20.9917V20.9866ZM17.8819 20.7746C17.8874 20.7562 17.8874 20.7366 17.8819 20.7182C17.8778 20.7041 17.8687 20.6919 17.8563 20.684C17.843 20.6752 17.8277 20.6699 17.8118 20.6686C17.7914 20.6652 17.7706 20.6652 17.7503 20.6686L17.634 21.0413C17.6655 21.0298 17.6958 21.0155 17.7246 20.9986C17.7518 20.9821 17.777 20.9626 17.7998 20.9405C17.8219 20.9186 17.8409 20.8939 17.8563 20.8669C17.8698 20.8396 17.8784 20.8101 17.8819 20.7798V20.7746Z" fill="white"/>
<path d="M18.2818 20.9542H18.2989H18.3108C18.3233 20.9512 18.3354 20.9466 18.3467 20.9405C18.358 20.9326 18.3679 20.9228 18.3758 20.9115L18.4493 20.8072L18.3501 20.3063L18.5638 20.2499L18.6185 20.573L18.904 20.1593L19.1177 20.1029L18.545 20.9217C18.5279 20.9468 18.5078 20.9698 18.4852 20.9901C18.465 21.0107 18.4426 21.029 18.4185 21.0448C18.3957 21.0599 18.3717 21.073 18.3467 21.0841C18.3242 21.0949 18.3008 21.1035 18.2766 21.1098H18.2339H18.2031L18.2818 20.9542Z" fill="white"/>
<path d="M19.5352 20.1422L19.3027 20.2037L19.354 20.0328L20.0122 19.8618L19.9609 20.0328L19.7284 20.0943L19.5181 20.7678L19.325 20.8191L19.5352 20.1422Z" fill="white"/>
<path d="M20.5612 19.9968C20.5955 19.9865 20.6314 19.9825 20.6672 19.9848C20.6929 19.9857 20.7178 19.994 20.739 20.0088C20.7572 20.0234 20.7709 20.043 20.7783 20.0652C20.7835 20.0923 20.7835 20.1201 20.7783 20.1472C20.7737 20.1773 20.765 20.2066 20.7526 20.2344C20.7403 20.2634 20.7248 20.2909 20.7065 20.3165C20.6867 20.3426 20.665 20.3672 20.6415 20.39C20.6165 20.4125 20.5903 20.4336 20.5629 20.4532C20.5354 20.4708 20.5068 20.4868 20.4774 20.5011C20.4484 20.5155 20.4181 20.5269 20.3868 20.5353L20.0449 20.6242L20.3065 19.7797L20.874 19.631L20.821 19.8019L20.4586 19.8959L20.4159 20.0327L20.5612 19.9968ZM20.3646 20.2037L20.3013 20.4088L20.4381 20.3729C20.4552 20.3675 20.4718 20.3607 20.4877 20.3524C20.5029 20.3429 20.5172 20.3321 20.5304 20.3199C20.5432 20.3069 20.5547 20.2925 20.5646 20.2772C20.5728 20.2616 20.5786 20.2449 20.5817 20.2276C20.5853 20.2171 20.5853 20.2056 20.5817 20.1951C20.5786 20.187 20.5733 20.1798 20.5663 20.1746C20.5573 20.1724 20.5479 20.1724 20.539 20.1746H20.5048L20.3646 20.2037Z" fill="white"/>
<path d="M21.0326 20.0344C21.0396 19.9896 21.0522 19.946 21.0702 19.9044C21.0907 19.859 21.1153 19.8155 21.1437 19.7745C21.1745 19.7323 21.2082 19.6923 21.2446 19.6549C21.2824 19.6182 21.323 19.5845 21.366 19.554C21.4084 19.5234 21.4529 19.496 21.4993 19.4719C21.5436 19.4498 21.59 19.4321 21.6378 19.419C21.6872 19.4052 21.7389 19.4012 21.7899 19.407C21.8305 19.4107 21.8691 19.4262 21.901 19.4514C21.9314 19.4754 21.9536 19.5083 21.9643 19.5455C21.9757 19.5897 21.9757 19.6362 21.9643 19.6805C21.9581 19.7254 21.9454 19.7692 21.9267 19.8104C21.9062 19.8559 21.8816 19.8994 21.8532 19.9403C21.8224 19.9831 21.7887 20.0237 21.7523 20.0617C21.7139 20.0988 21.6734 20.1336 21.6309 20.166C21.5889 20.1972 21.5443 20.2246 21.4976 20.248C21.4536 20.2709 21.4071 20.2886 21.3591 20.301C21.3099 20.3161 21.2581 20.3208 21.207 20.3147C21.1668 20.3095 21.1286 20.2942 21.0959 20.2703C21.0662 20.2457 21.0442 20.213 21.0326 20.1763C21.0204 20.1297 21.0204 20.0809 21.0326 20.0344ZM21.2309 19.9677C21.2248 19.9947 21.2248 20.0227 21.2309 20.0498C21.2364 20.072 21.2483 20.0922 21.2651 20.1079C21.2833 20.1227 21.3051 20.1321 21.3284 20.1352C21.3566 20.1409 21.3856 20.1409 21.4138 20.1352C21.4425 20.1281 21.4701 20.1172 21.4959 20.1027C21.5238 20.0891 21.5502 20.0725 21.5745 20.0532C21.5999 20.0344 21.6233 20.0132 21.6446 19.9899C21.6669 19.9668 21.6869 19.9416 21.7044 19.9147C21.7222 19.8902 21.7371 19.8639 21.7489 19.8361C21.7603 19.8088 21.7677 19.78 21.7711 19.7506C21.7773 19.7236 21.7773 19.6955 21.7711 19.6685C21.765 19.6465 21.7532 19.6265 21.7369 19.6104C21.7188 19.5956 21.6969 19.5862 21.6737 19.5831C21.645 19.5765 21.6152 19.5765 21.5865 19.5831C21.5439 19.5948 21.5035 19.6133 21.4668 19.6378C21.4266 19.6631 21.3898 19.6936 21.3574 19.7284C21.3247 19.7621 21.2965 19.8001 21.2737 19.8412C21.2516 19.8803 21.2371 19.9232 21.2309 19.9677Z" fill="white"/>
<path d="M22.9417 19.2448L22.5998 19.3337L22.504 19.6465V19.6636L22.463 19.7953C22.4501 19.8356 22.4311 19.8736 22.4066 19.9081C22.3845 19.9406 22.358 19.9699 22.328 19.9953C22.2739 20.0413 22.2102 20.0746 22.1416 20.0927C22.1274 20.0942 22.1131 20.0942 22.0989 20.0927H22.0664L22.1502 19.9218H22.1878C22.2075 19.9166 22.2253 19.906 22.2391 19.891C22.2536 19.8733 22.2646 19.853 22.2715 19.8312L22.3143 19.691L22.4647 19.2106L23.1895 19.0192L22.928 19.8636L22.7348 19.9132L22.9417 19.2448Z" fill="white"/>
<path d="M23.8329 19.0908C23.8662 19.0809 23.901 19.0774 23.9355 19.0805C23.9614 19.0833 23.9861 19.0927 24.0073 19.1079C24.0262 19.1237 24.0403 19.1444 24.0483 19.1677C24.0545 19.1976 24.0545 19.2284 24.0483 19.2583C24.0407 19.3061 24.0251 19.3524 24.0022 19.395C23.9771 19.4401 23.9461 19.4815 23.9098 19.5181C23.8735 19.5561 23.8321 19.5889 23.7868 19.6156C23.743 19.6434 23.6951 19.6641 23.6449 19.6771L23.2842 19.7728L23.5474 18.9284L23.7423 18.8771L23.6739 19.1352L23.8329 19.0908ZM23.7697 19.2617L23.6124 19.3027L23.5355 19.554L23.6927 19.513C23.7118 19.5076 23.7297 19.4989 23.7457 19.4874C23.7637 19.4756 23.7804 19.4618 23.7953 19.4463C23.8099 19.4302 23.8225 19.4124 23.8329 19.3933C23.8412 19.3759 23.8475 19.3575 23.8517 19.3386C23.8544 19.3262 23.8544 19.3134 23.8517 19.301C23.8487 19.2914 23.8434 19.2826 23.8363 19.2754C23.8288 19.2681 23.8193 19.2634 23.809 19.2617C23.7959 19.2596 23.7825 19.2602 23.7697 19.2634V19.2617Z" fill="white"/>
<path d="M24.4537 18.6994L24.6469 18.6481L24.5392 18.99L24.9033 18.8943L25.011 18.5524L25.2059 18.5011L24.9426 19.3439L24.7477 19.3969L24.852 19.055L24.4879 19.1507L24.3853 19.484L24.1904 19.5353L24.4537 18.6994Z" fill="white"/>
<path d="M25.8551 18.561C25.8878 18.5513 25.922 18.5478 25.956 18.5508C25.9827 18.5524 26.0082 18.5619 26.0295 18.5781C26.0492 18.5929 26.0631 18.6141 26.0688 18.638C26.076 18.6672 26.076 18.6977 26.0688 18.7268C26.0617 18.7751 26.0454 18.8215 26.021 18.8636C25.9707 18.9549 25.8969 19.031 25.8073 19.0841C25.7637 19.1123 25.7158 19.1331 25.6654 19.1457L25.3047 19.2414L25.5679 18.3969L25.7611 18.3456L25.6808 18.6055L25.8551 18.561ZM25.7919 18.732L25.6346 18.773L25.5543 19.0209L25.7133 18.9799C25.732 18.9738 25.7498 18.9652 25.7662 18.9542C25.802 18.9304 25.8314 18.8981 25.8517 18.8602C25.862 18.8436 25.8684 18.8249 25.8705 18.8055C25.8731 18.7931 25.8731 18.7803 25.8705 18.7679C25.8675 18.7582 25.8622 18.7495 25.8551 18.7422C25.8474 18.7354 25.8379 18.7307 25.8278 18.7286C25.8157 18.7275 25.8035 18.7286 25.7919 18.732ZM26.0466 19.0414L26.2415 18.9901L26.503 18.1473L26.3081 18.1986L26.0466 19.0414Z" fill="white"/>
<path d="M26.887 18.0498L27.0802 18.0002L26.9229 18.5131L27.4785 17.9028L27.6495 17.8583L27.3845 18.6994L27.1913 18.7507L27.3486 18.2378L26.793 18.8481L26.6221 18.8926L26.887 18.0498ZM27.5708 17.6122C27.5602 17.6393 27.5464 17.6652 27.5298 17.6891C27.5128 17.7144 27.4934 17.7379 27.4717 17.7592C27.4488 17.7803 27.4236 17.7986 27.3965 17.8139C27.3672 17.8294 27.3362 17.8414 27.3041 17.8498C27.2771 17.8552 27.2492 17.8552 27.2221 17.8498C27.2031 17.8494 27.1849 17.8421 27.1708 17.8293C27.1577 17.8166 27.1498 17.7996 27.1486 17.7814C27.144 17.7589 27.144 17.7356 27.1486 17.713L27.2785 17.6703C27.2781 17.6777 27.2781 17.6851 27.2785 17.6925C27.2773 17.6976 27.2773 17.7029 27.2785 17.7079C27.2841 17.7092 27.29 17.7092 27.2956 17.7079H27.3264C27.3377 17.7055 27.3487 17.7015 27.3589 17.6959L27.3845 17.6789L27.405 17.6549L27.4255 17.6276L27.5708 17.6122Z" fill="white"/>
<path d="M28.5543 17.9985L29.0073 17.4856L29.2347 17.4258L28.8244 17.8788L28.9851 18.2651L28.7543 18.3267L28.6534 18.0566L28.4722 18.2566L28.4244 18.4139L28.2295 18.4651L28.491 17.6224L28.6859 17.5711L28.5543 17.9985Z" fill="white"/>
<path d="M30.053 17.3712L29.7111 17.46L29.6136 17.7712V17.79L29.5726 17.9199C29.5611 17.9609 29.5426 17.9997 29.5179 18.0344C29.4943 18.0663 29.4674 18.0955 29.4376 18.1216C29.409 18.1452 29.3781 18.1659 29.3453 18.1832C29.3155 18.1975 29.2846 18.2095 29.253 18.2191H29.2102H29.1777L29.2615 18.0481H29.2786H29.2906H29.2991C29.3179 18.0429 29.3349 18.0328 29.3487 18.019C29.3638 18.0017 29.3749 17.9813 29.3812 17.9592L29.4256 17.819L29.5743 17.3387L30.2991 17.1472L30.0376 17.99L29.8444 18.0413L30.053 17.3712Z" fill="white"/>
<path d="M30.5113 17.7302H30.5284H30.5403L30.5762 17.7148C30.5875 17.7076 30.5973 17.6983 30.6053 17.6875L30.6788 17.5832L30.5796 17.0806L30.7933 17.0259L30.848 17.3473L31.1335 16.9353L31.3472 16.8789L30.7625 17.7097C30.7445 17.7341 30.7244 17.7569 30.7027 17.7781C30.6805 17.7986 30.6583 17.8157 30.636 17.8328C30.6129 17.8472 30.5889 17.8603 30.5642 17.8721L30.4942 17.8977H30.4514H30.4189L30.5113 17.7302Z" fill="white"/>
<path d="M31.8795 17.0122C31.9141 17.0028 31.9498 16.9988 31.9855 17.0002C32.0113 17.0021 32.0361 17.011 32.0573 17.0259C32.0765 17.0396 32.0904 17.0595 32.0966 17.0823C32.103 17.1087 32.103 17.1362 32.0966 17.1626C32.0931 17.1929 32.0844 17.2224 32.071 17.2498C32.059 17.2789 32.0435 17.3065 32.0248 17.3319C32.0055 17.3583 31.9838 17.3829 31.9599 17.4054C31.9357 17.4288 31.9093 17.45 31.8812 17.4686C31.8544 17.4878 31.8257 17.5044 31.7958 17.5182C31.7665 17.5315 31.7362 17.5424 31.7052 17.5507L31.3633 17.6396L31.6265 16.7968L32.1924 16.6464L32.1411 16.8173L31.7684 16.9147L31.7257 17.0532L31.8795 17.0122ZM31.683 17.219L31.6214 17.419L31.7565 17.3831C31.7737 17.3781 31.7903 17.3712 31.806 17.3626C31.8223 17.3539 31.8373 17.343 31.8505 17.3301C31.8626 17.317 31.8735 17.3027 31.883 17.2874C31.8919 17.2722 31.8977 17.2553 31.9001 17.2378C31.9028 17.2272 31.9028 17.216 31.9001 17.2054C31.8967 17.1973 31.8907 17.1906 31.883 17.1866C31.8752 17.1817 31.8664 17.1787 31.8573 17.178C31.8454 17.1763 31.8333 17.1763 31.8214 17.178L31.683 17.219Z" fill="white"/>
<path d="M24.5286 9.35688L24.4568 9.31585C25.7657 8.86091 27.1431 8.6348 28.5288 8.64745C28.5288 8.64745 26.021 8.04742 23.7969 8.95515L23.3935 8.73121C24.2646 8.3296 25.1839 8.04231 26.1287 7.87648C26.8326 7.76315 27.5508 7.77182 28.2518 7.90212C27.9912 7.7318 27.718 7.58151 27.4347 7.45253C28.8262 7.19782 30.0365 7.28158 30.0194 8.32094C30.0194 8.32094 29.8775 9.25773 29.0365 9.43551C28.4621 9.55688 27.4979 9.46628 26.6278 9.59107C26.2176 9.6492 25.4551 9.9398 24.5286 9.35688ZM30.8793 7.5739C30.6639 7.87477 30.6143 8.4406 30.5066 8.81156C30.1869 9.92784 31.2742 9.21499 31.2793 8.01152C31.2878 7.75852 30.8861 7.5739 30.8861 7.5739H30.8793ZM30.0074 12.3006C30.0021 12.2534 29.9941 12.2066 29.9835 12.1604C29.9845 12.153 29.9845 12.1456 29.9835 12.1382C29.9755 12.096 29.9653 12.055 29.9527 12.0151C29.9101 12.1453 29.8447 12.2668 29.7596 12.3741L29.7305 12.4083H29.6878C29.3468 12.3556 28.999 12.3666 28.6621 12.4408C28.5454 12.4685 28.4351 12.5184 28.3373 12.5878L28.0313 12.9109L28.0706 12.6596C28.0706 12.6339 28.0809 12.6083 28.086 12.5826L28.0963 12.5126C28.1277 12.3187 28.113 12.1202 28.0535 11.933C28.0296 12.0099 28.0011 12.0853 27.968 12.1587C27.9569 12.1861 27.9444 12.2129 27.9304 12.239C27.9082 12.2869 27.8843 12.3331 27.8586 12.3792L27.8056 12.4698L27.7304 12.5844C27.7082 12.6151 27.6877 12.6476 27.6655 12.6767C27.6432 12.7057 27.6159 12.7382 27.592 12.769C27.4817 12.9046 27.3617 13.032 27.233 13.1502L27.2056 13.1758C27.1595 13.2169 27.1133 13.2579 27.0654 13.2972C26.9629 13.3827 26.8586 13.4681 26.7543 13.5382C27.4065 13.2077 28.0852 12.9327 28.7835 12.716C29.2501 12.6185 29.6604 12.6066 29.9408 12.7262H29.9527C29.9726 12.6872 29.9875 12.6459 29.9972 12.6032C30.0201 12.5057 30.0259 12.4051 30.0143 12.3057L30.0074 12.3006ZM30.0912 9.39448C29.9136 9.63631 29.6821 9.83342 29.415 9.97021C29.148 10.107 28.8527 10.1797 28.5527 10.1825C27.6432 10.1484 26.8295 10.0116 25.703 10.4458C28.2928 10.2441 27.5595 12.1296 27.5595 12.1296C27.7812 11.9152 27.9702 11.6692 28.1202 11.3997C28.3035 11.0651 28.4541 10.7136 28.5698 10.3501C28.5923 10.6484 28.5675 10.9484 28.4963 11.239L29.6091 11.0287C29.6091 11.0287 29.6861 11.0151 29.857 10.8373C29.763 11.0219 29.6741 11.1587 29.6741 11.1587L29.6296 11.6612C30.004 11.2578 30.4399 9.98083 30.4399 9.98083C29.7715 10.056 30.1698 9.30901 30.098 9.39961L30.0912 9.39448ZM23.6533 6.82686C23.3306 6.8233 23.0079 6.84101 22.6875 6.87986C22.6904 6.91738 22.6967 6.95457 22.7063 6.99097C22.7396 7.11076 22.8018 7.22054 22.8875 7.31064C23.1303 7.26791 23.3781 7.23372 23.6174 7.20637C23.6413 7.08287 23.6556 6.9577 23.6602 6.83199L23.6533 6.82686ZM24.2158 6.88328C24.1408 6.86708 24.0648 6.85566 23.9884 6.84909C23.945 6.96422 23.8924 7.07569 23.8311 7.18243L24.1286 7.15508C24.1764 7.07288 24.2083 6.98241 24.2226 6.8884L24.2158 6.88328Z" fill="white"/>
<path d="M27.1052 12.7946C27.1107 12.7891 27.1153 12.7828 27.1189 12.7758C24.6025 12.2476 24.5239 13.9383 24.7649 14.2836C24.7879 14.3258 24.8154 14.3653 24.847 14.4015C25.2291 14.1455 25.629 13.917 26.0436 13.7178C26.1342 13.6579 27.083 12.8254 27.1052 12.7946Z" fill="#E30613"/>
</svg>
