<svg width="44" height="44" viewBox="0 0 44 44" fill="none" xmlns="http://www.w3.org/2000/svg">
<path d="M9.24 17.2348C10.2227 17.2348 11.044 17.6158 11.044 18.7736C11.044 20.1659 9.84133 21.6021 8.052 22.6867C8.46267 23.1557 8.74133 23.6833 8.888 24.2695C9.31333 24.0497 9.768 23.8298 10.2373 23.5953C10.7507 21.0745 12.5547 19.14 14.1533 19.14C14.96 19.14 15.3267 19.6236 15.3267 20.2685C15.3267 21.778 13.9333 22.9505 11.9827 23.9764C11.924 24.3281 11.924 24.5186 11.924 24.7385C11.924 25.4273 12.0707 25.7497 12.3347 25.7497C12.5107 25.7497 12.716 25.5885 12.9507 25.3247L15.5907 22.203L16.456 19.2133H17.996L17.2187 21.866L18.4213 21.5582L19.1107 19.2133H20.548L19.3747 23.2143L21.296 20.6642L21.7213 19.2279H23.1L22.2787 22.0565C22.2493 22.1591 22.0733 22.7599 22.2053 22.7599C22.3667 22.7599 22.7187 22.1004 23.1293 21.3677C23.5693 20.5616 23.9653 19.6969 24.1413 19.2279H25.5493L24.86 21.6315L26.6493 19.2279H39.0133L9.22533 31.9344L9.812 29.9266L33.2347 20.3564H28.6733L28.2187 21.8513L26.752 22.3203L27.3387 20.3711H26.62L24.596 22.9944L23.32 23.4195C23.3933 22.7893 23.496 22.1444 23.6427 21.5289L23.056 22.628C22.5867 23.4927 22.1907 24.1669 21.4867 24.1669C20.9733 24.1669 20.7387 23.6833 20.7387 23.0531C20.7387 22.8332 20.768 22.5841 20.8267 22.3496L18.92 24.885L17.336 25.398L18.128 22.6427L16.9253 22.9505L16.104 25.8376L14.388 26.4092L15.1653 23.7565L13.4347 25.9695C12.7013 26.9075 11.9387 27.4205 11.3373 27.4205C10.164 27.4205 10.0173 25.5006 10.12 24.7238C9.48933 25.0169 9.26933 25.1195 9.04933 25.2368C9.328 29.355 5.13333 35.0268 2.47867 35.0268C1.65733 35.0268 1.012 34.3966 1.012 32.9457C1.012 30.8206 2.61067 27.7136 6.908 25.2807C6.79067 24.4454 6.49733 23.7419 5.984 23.2876V23.1996C7.436 22.0858 8.536 20.8254 8.536 19.6969C8.536 19.184 8.14 18.9788 7.71467 18.9788C6.908 18.9788 5.83733 19.9754 5.26533 20.8107H4.972L5.44133 19.1986C6.52667 17.7477 8.272 17.2348 9.24 17.2348ZM12.1733 22.8625C13.2587 22.1591 13.7133 21.2651 13.7133 20.5616C13.7133 20.3271 13.6253 20.1659 13.4787 20.1659C13.0827 20.1659 12.496 21.4116 12.1733 22.8625ZM6.93733 26.3359C4.34133 28.0946 3.02133 30.6594 3.02133 32.462C3.02133 32.7844 3.124 33.3267 3.50533 33.3267C4.98667 33.3267 6.84933 29.399 6.93733 26.3359ZM9.24 16.2235C8.184 16.2235 6.028 16.7218 4.62 18.5977L4.50267 18.7443L4.444 18.9202L3.97467 20.5323L3.59333 21.822H4.94267H5.236H5.764L6.072 21.3823C6.512 20.7375 7.06933 20.2831 7.42133 20.078C7.18667 20.7082 6.43867 21.5289 5.33867 22.3789L4.94267 22.6867V23.185V23.2729V23.7419L5.29467 24.0497C5.5 24.2255 5.64667 24.504 5.73467 24.7824C3.93067 25.8963 2.508 27.2006 1.496 28.6515C0.542667 30.0585 0 31.5827 0 32.9457C0 35.2319 1.33467 36.038 2.47867 36.038C3.32933 36.038 4.72267 35.6423 6.45333 33.7957C7.172 33.0189 7.84667 32.1103 8.404 31.143L8.25733 31.656L7.656 33.7078L9.62133 32.8724L39.4387 20.1366L44 18.1874H39.0427H26.928H25.5787H24.4787H23.1293H21.9267H20.5773H19.36H18.0107H16.4707H15.708L15.5907 18.5684C15.224 18.2753 14.74 18.1141 14.168 18.1141C13.4493 18.1141 12.716 18.3779 12.056 18.8322C12.056 18.8029 12.056 18.7883 12.056 18.7589C12.056 17.2054 10.9707 16.2235 9.24 16.2235Z" fill="white"/>
<path d="M36.5203 29.3257V28.6222V27.9334V26.9222H35.5083H33.6603H32.7509L32.7363 27.0394C32.4429 26.9222 32.1056 26.8489 31.7536 26.8489C31.2256 26.8489 30.7563 26.9954 30.3896 27.2592C30.0083 26.9954 29.5389 26.8489 28.9963 26.8489C28.7763 26.8489 28.5709 26.8782 28.3803 26.9222H27.3683H26.1949H25.5789L25.3003 27.4644L24.9043 28.2265L24.1416 29.7067H25.5203V31.2749V32.2861H26.3563H26.5323H27.3829H28.2189H28.2776H28.3949H29.2163H29.7589H30.3896H32.9856H33.6456C33.8656 32.3448 34.1003 32.3741 34.3349 32.3741C35.7283 32.3741 36.7256 31.4508 36.7256 30.1611C36.7109 29.8679 36.6376 29.5895 36.5203 29.3257Z" fill="white"/>
<path d="M16.4704 19.1987H18.0104L17.2331 21.8514L18.4357 21.5436L19.1251 19.1987H20.5624L19.3891 23.1997L21.3104 20.6496L21.7357 19.2134H23.1144L22.2931 22.0419C22.2637 22.1445 22.0877 22.7454 22.2197 22.7454C22.3811 22.7454 22.7331 22.0859 23.1437 21.3531C23.5837 20.5471 23.9797 19.6824 24.1557 19.2134H25.5637L24.8744 21.6169L26.6637 19.2134H39.0277L9.22505 31.9345L9.81172 29.9267L33.2344 20.3565H28.6731L28.2184 21.8514L26.7517 22.3204L27.3384 20.3712H26.6197L24.5957 22.9946L23.3197 23.4196C23.3931 22.7894 23.4957 22.1445 23.6424 21.529L23.0557 22.6282C22.5864 23.4929 22.1904 24.167 21.4864 24.167C20.9731 24.167 20.7384 23.6834 20.7384 23.0532C20.7384 22.8333 20.7677 22.5842 20.8264 22.3497L18.9197 24.8851L17.3357 25.3981L18.1277 22.6428L16.9251 22.9506L16.1037 25.8378L14.3877 26.4093L15.1651 23.7567L13.4344 25.9697C12.7011 26.9076 11.9384 27.4206 11.3371 27.4206C10.1637 27.4206 10.0171 25.5007 10.1197 24.7239C9.48905 25.017 9.26905 25.1196 9.04905 25.2369C9.32772 29.3551 5.13305 35.0269 2.47839 35.0269C1.65705 35.0269 1.01172 34.3967 1.01172 32.9458C1.01172 30.8207 2.61039 27.7137 6.90772 25.2808C6.79039 24.4455 6.49705 23.742 5.98372 23.2877V23.1997C7.43572 22.0859 8.53572 20.8255 8.53572 19.697C8.53572 19.1841 8.13972 18.9789 7.71439 18.9789C6.90772 18.9789 5.83705 19.9755 5.26505 20.8109H4.97172L5.44105 19.1987C6.54105 17.7478 8.28639 17.2202 9.25439 17.2202C10.2371 17.2202 11.0584 17.6013 11.0584 18.7591C11.0584 20.1514 9.85572 21.5876 8.06639 22.6721C8.47705 23.1411 8.75572 23.6687 8.90239 24.255C9.32772 24.0351 9.78239 23.8153 10.2517 23.5808C10.7651 21.06 12.5691 19.1255 14.1677 19.1255C14.9744 19.1255 15.3411 19.6091 15.3411 20.2539C15.3411 21.7635 13.9477 22.9359 11.9971 23.9618C11.9384 24.3136 11.9384 24.5041 11.9384 24.7239C11.9384 25.4127 12.0851 25.7352 12.3491 25.7352C12.5251 25.7352 12.7304 25.574 12.9651 25.3102L15.6051 22.1885L16.4704 19.1987ZM3.02105 32.4621C3.02105 32.7846 3.12372 33.3268 3.50505 33.3268C4.98639 33.3268 6.84905 29.3991 6.93705 26.3507C4.34105 28.1094 3.02105 30.6595 3.02105 32.4621ZM13.7131 20.5617C13.7131 20.3272 13.6251 20.166 13.4784 20.166C13.0824 20.166 12.4957 21.4117 12.1731 22.8627C13.2584 22.1592 13.7131 21.2652 13.7131 20.5617Z" fill="#00AFEF"/>
<path d="M34.217 29.1207L34.2756 28.6078H35.5076V27.9189H33.6596L33.4543 29.8095C33.6743 29.7216 33.9236 29.7069 34.0996 29.7069C34.569 29.7069 34.8476 29.9268 34.8476 30.2052C34.8476 30.4251 34.6423 30.6449 34.261 30.6449C33.9676 30.6449 33.6596 30.5277 33.3956 30.3225L33.293 31.0699C33.5423 31.2311 33.909 31.3777 34.305 31.3777C35.185 31.3777 35.6836 30.8501 35.6836 30.1759C35.6983 29.3845 34.9356 28.9742 34.217 29.1207Z" fill="#00AFEF"/>
<path d="M32.9994 28.9302C32.9994 28.3587 32.5447 27.8457 31.7527 27.8457C30.99 27.8457 30.4914 28.3147 30.4914 29.0914V29.1061H31.3127V29.0768C31.3127 28.725 31.4887 28.5345 31.7674 28.5345C32.0167 28.5345 32.1634 28.6957 32.1634 28.9449C32.1634 29.1061 32.0754 29.2673 31.8994 29.4871L30.374 31.2898H32.97V30.5717H31.9287L32.5447 29.8975C32.838 29.5604 32.9994 29.2966 32.9994 28.9302Z" fill="#00AFEF"/>
<path d="M25.7832 28.6956H26.5165V31.2896H27.3525V27.9335H26.1792L25.7832 28.6956Z" fill="#00AFEF"/>
<path d="M28.9811 27.8602C28.1744 27.8602 27.6758 28.4025 27.6758 29.106C27.6758 29.7362 28.1598 30.1758 28.7171 30.1758C28.8491 30.1758 28.9078 30.1758 29.0251 30.1465L28.2478 31.3043H29.1864L29.6558 30.5862C30.0224 30.0293 30.2571 29.5896 30.2571 29.0913C30.2718 28.3585 29.8024 27.8602 28.9811 27.8602ZM28.9811 29.5749C28.6878 29.5749 28.4678 29.3698 28.4678 29.0473C28.4678 28.7689 28.6731 28.5197 28.9811 28.5197C29.3038 28.5197 29.5091 28.7542 29.5091 29.0473C29.4944 29.3698 29.2891 29.5749 28.9811 29.5749Z" fill="#00AFEF"/>
<path d="M21.9998 8.04565L23.0852 11.3725H26.5905L23.7452 13.439L24.8305 16.7658L21.9998 14.714L19.1692 16.7658L20.2398 13.439L17.4092 11.3725H20.9145L21.9998 8.04565Z" fill="#D2A85A"/>
</svg>
