<svg width="44" height="44" viewBox="0 0 44 44" fill="none" xmlns="http://www.w3.org/2000/svg">
<path d="M31.921 6.11281L30.7628 4.76488C30.7628 4.76488 26.2172 3.18772 21.9625 3.14294C17.7079 3.18772 13.162 4.76488 13.162 4.76488L12.0039 6.11281L6.53711 8.85517C6.66629 22.384 8.9262 33.4494 21.2733 40.4793C21.345 40.5202 21.9365 40.8562 21.9602 40.8572C21.9937 40.8587 22.5886 40.5153 22.6676 40.4703C34.9873 33.4507 37.2573 22.4958 37.3877 8.85517L31.921 6.11281Z" fill="white"/>
<path d="M31.921 6.11281L30.7628 4.76488C30.7628 4.76488 26.2172 3.18772 21.9625 3.14294C17.7079 3.18772 13.162 4.76488 13.162 4.76488L12.0039 6.11281L6.53711 8.85517C6.66629 22.384 8.9262 33.4494 21.2733 40.4793C21.345 40.5202 21.9365 40.8562 21.9602 40.8572C21.9937 40.8587 22.5886 40.5153 22.6676 40.4703C34.9873 33.4507 37.2573 22.4958 37.3877 8.85517L31.921 6.11281V6.11281Z" stroke="#2B2B2A" stroke-width="0.0761046" stroke-miterlimit="22.9256"/>
<path d="M31.2585 7.31586L30.1862 6.06776C30.1862 6.06776 25.977 4.60736 22.0375 4.5658C18.0981 4.60736 13.8889 6.06776 13.8889 6.06776L12.8166 7.31586L7.75488 9.85513C7.75488 9.85513 7.8847 23.4476 11.1437 28.8676C12.4654 31.0658 14.1146 33.4 16.066 35.1942C18.8341 37.7395 21.8377 39.3826 22.0279 39.4857C22.0232 39.4814 22.0215 39.475 22.0375 39.4657C22.0536 39.4747 22.0518 39.4814 22.0471 39.4857C22.2372 39.3826 25.241 37.7395 28.0091 35.1942C29.9602 33.4 31.6095 31.0658 32.9314 28.8676C36.1904 23.4476 36.3202 9.85513 36.3202 9.85513L31.2585 7.31586Z" fill="#00755B"/>
<path d="M21.9626 11.2247C16.4038 11.2247 11.8975 15.746 11.8975 21.3235C11.8975 26.9008 16.4038 31.4221 21.9626 31.4221C27.5215 31.4221 32.028 26.9008 32.028 21.3235C32.028 15.746 27.5217 11.2247 21.9626 11.2247ZM21.9626 31.0183C16.6261 31.0183 12.2999 26.6778 12.2999 21.3235C12.2999 15.9691 16.6261 11.6288 21.9626 11.6288C27.2992 11.6288 31.6253 15.9691 31.6253 21.3235C31.6253 26.6778 27.2992 31.0183 21.9626 31.0183Z" fill="white"/>
<path fill-rule="evenodd" clip-rule="evenodd" d="M16.4238 28.2341C16.4238 28.2341 17.0761 28.765 18.3686 28.6285C19.661 28.4923 20.694 27.6745 21.6502 27.5668C22.6063 27.4592 23.1036 27.6313 23.8772 28.2125C24.6508 28.7935 24.8475 28.985 25.4929 28.937C26.3594 28.8725 27.502 28.2412 27.502 28.2412C27.502 28.2412 26.6711 29.1234 25.6287 29.3674C24.9115 29.5353 24.5048 29.2813 24.0702 28.9156C23.6357 28.5499 22.8243 27.9329 21.8825 28.1051C20.9407 28.2772 20.7581 28.3776 20.349 28.5642C19.9399 28.7506 18.9491 29.1379 18.2543 29.1452C17.5593 29.1525 17.2047 28.9516 17.0317 28.808C16.8588 28.6645 16.424 28.2343 16.424 28.2343L16.4238 28.2341Z" fill="white"/>
<path fill-rule="evenodd" clip-rule="evenodd" d="M18.4473 29.8697L19.1837 30.214C19.1837 30.214 19.8574 29.9916 20.1059 29.8627C20.3544 29.7335 21.2373 29.3247 21.8897 29.3104C22.542 29.296 22.9389 29.4109 23.3269 29.6403C23.7144 29.8699 24.3565 30.4079 24.3565 30.4079L24.9782 30.1926C24.9782 30.1926 24.276 29.7121 23.9059 29.4323C23.5359 29.1525 22.7388 28.6936 21.983 28.7652C21.2269 28.8369 20.9587 28.9231 20.5566 29.0807C20.1546 29.2386 19.6575 29.5111 19.3912 29.6187C19.1252 29.7262 18.4475 29.8697 18.4475 29.8697H18.4473Z" fill="white"/>
<path fill-rule="evenodd" clip-rule="evenodd" d="M20.0049 30.5296L20.8558 30.709C20.8558 30.709 21.601 30.3664 22.139 30.3718C22.8556 30.379 23.2974 30.7375 23.2974 30.7375L23.9121 30.5798C23.9121 30.5798 23.0593 29.8625 21.9674 29.9127C20.8754 29.9628 20.0049 30.5296 20.0049 30.5296Z" fill="white"/>
<path fill-rule="evenodd" clip-rule="evenodd" d="M27.1319 32.8321C27.1319 32.8321 26.8543 33.0258 26.6386 33.0545C26.423 33.0832 25.7164 33.0044 25.7164 33.0044C25.7164 33.0044 25.3176 32.7317 24.8944 32.7102C24.6129 32.6959 23.9594 32.5309 23.2784 33.0044C22.5977 33.4778 23.2714 34.317 23.2714 34.317L22.6851 34.2955C22.6851 34.2955 22.7367 34.0588 22.7066 33.7503C22.6763 33.4418 22.3349 33.399 22.3349 33.399C22.3349 33.399 22.3509 33.3489 22.3206 33.1121C22.2903 32.8754 21.9629 32.7822 21.9629 32.7822C21.9629 32.7822 21.6356 32.8754 21.6053 33.1121C21.575 33.3489 21.591 33.399 21.591 33.399C21.591 33.399 21.2496 33.442 21.2192 33.7503C21.1889 34.0588 21.2408 34.2955 21.2408 34.2955L20.6545 34.317C20.6545 34.317 21.3281 33.4778 20.6474 33.0044C19.9667 32.5309 19.3131 32.6959 19.0317 32.7102C18.6085 32.7317 18.2094 33.0044 18.2094 33.0044C18.2094 33.0044 17.5031 33.0832 17.2872 33.0545C17.0714 33.026 16.794 32.8321 16.794 32.8321C16.794 32.8321 16.781 33.3414 17.1442 33.6068C17.5074 33.8722 17.7017 33.8864 17.7017 33.8864C17.7017 33.8864 17.8605 34.2236 17.9519 34.3598C18.0435 34.4961 18.2737 34.6539 18.2737 34.6539C18.2737 34.6539 18.1251 33.5922 18.7742 33.3628C19.4233 33.1331 20.2996 33.4412 20.054 34.2379C19.9565 34.5541 19.4918 34.5989 19.3426 34.3705C19.1938 34.1428 19.3533 33.7358 19.3533 33.7358C19.3533 33.7358 18.3397 33.9508 18.724 34.9408C19.1086 35.9305 20.0483 35.4213 20.161 35.3354C20.274 35.2493 20.6989 35.0627 20.9404 34.9982C21.1819 34.9335 21.4622 34.9481 21.4622 34.9481L21.2692 35.1347C21.2692 35.1347 20.6395 35.1372 20.354 35.4862C19.7376 36.2395 20.2326 36.6482 20.2326 36.6482C20.2326 36.6482 20.3844 35.9667 21.0977 35.8806C21.8109 35.7945 21.75 36.1604 21.7554 36.3397C21.7607 36.519 21.7026 36.9329 21.0905 36.8346C20.8674 36.7986 20.6186 36.4616 20.6186 36.4616C20.6186 36.4616 20.47 37.1574 20.84 37.4586C21.2103 37.7598 21.4693 37.7168 21.4693 37.7168C21.4693 37.7168 21.5425 38.0109 21.648 38.1686C21.7535 38.3265 21.9627 38.5129 21.9627 38.5129C21.9627 38.5129 22.172 38.3263 22.2774 38.1686C22.3829 38.0107 22.4562 37.7168 22.4562 37.7168C22.4562 37.7168 22.7152 37.7598 23.0854 37.4586C23.4554 37.1574 23.3068 36.4616 23.3068 36.4616C23.3068 36.4616 23.0583 36.7988 22.8349 36.8346C22.2228 36.9329 22.1647 36.5188 22.1703 36.3397C22.1756 36.1604 22.1147 35.7945 22.8279 35.8806C23.5411 35.9667 23.6929 36.6482 23.6929 36.6482C23.6929 36.6482 24.1878 36.2392 23.5714 35.4862C23.2859 35.1375 22.6562 35.1347 22.6562 35.1347L22.4632 34.9481C22.4632 34.9481 22.7438 34.9337 22.9851 34.9982C23.2265 35.0627 23.6517 35.2493 23.7644 35.3354C23.8771 35.4215 24.8169 35.9308 25.2014 34.9408C25.586 33.9508 24.5722 33.7358 24.5722 33.7358C24.5722 33.7358 24.7317 34.1428 24.583 34.3705C24.4338 34.5989 23.9692 34.5541 23.8716 34.2379C23.626 33.4412 24.5023 33.1333 25.1514 33.3628C25.8005 33.5922 25.6519 34.6539 25.6519 34.6539C25.6519 34.6539 25.8821 34.4961 25.9737 34.3598C26.0653 34.2236 26.224 33.8864 26.224 33.8864C26.224 33.8864 26.4183 33.872 26.7817 33.6068C27.1449 33.3414 27.1319 32.8321 27.1319 32.8321Z" fill="white"/>
<path d="M21.9617 15.5201C19.5295 15.5201 17.5576 17.4983 17.5576 19.9386C17.5576 22.3791 19.5295 24.3573 21.9617 24.3573C24.3939 24.3573 26.3658 22.3791 26.3658 19.9386C26.3658 17.4983 24.3939 15.5201 21.9617 15.5201ZM24.3085 16.8077C24.5842 17.0232 24.9339 17.4066 24.9339 17.4066C24.9339 17.4066 25.0413 17.8227 25.0377 18.1599C25.0341 18.4971 24.9768 18.8484 24.9768 18.8484L23.5971 19.2932C23.5971 19.2932 23.1754 18.9273 22.8999 18.7229C22.6247 18.5185 22.0599 18.1847 22.0599 18.1847L22.0672 16.7213C22.0672 16.7213 22.4283 16.5493 22.7428 16.4415C23.0573 16.3338 23.4613 16.3124 23.4613 16.3124C23.4613 16.3124 23.969 16.5418 24.3085 16.8072V16.8077ZM23.349 19.9386C23.349 20.7062 22.7265 21.3307 21.9617 21.3307C21.1967 21.3307 20.5745 20.7062 20.5745 19.9386C20.5745 19.171 21.1969 18.5468 21.9617 18.5468C22.7265 18.5468 23.349 19.1713 23.349 19.9386ZM20.6588 15.9692C20.7216 15.8916 20.8194 15.8216 20.8194 15.8216C20.8194 15.8216 21.5266 15.611 22.1419 15.6607C22.7573 15.7104 23.0688 15.8044 23.0688 15.8044C23.0688 15.8044 23.1485 15.8719 23.2123 15.9417C23.2761 16.0116 23.3268 16.1337 23.3268 16.1337C23.3268 16.1337 22.869 16.1705 22.557 16.2939C22.2583 16.4118 21.9442 16.5731 21.9442 16.5731C21.9442 16.5731 21.4499 16.3351 21.284 16.2787C21.0098 16.1855 20.5685 16.1435 20.5685 16.1435C20.5685 16.1435 20.596 16.0469 20.6588 15.9694V15.9692ZM18.9897 17.3861C18.9897 17.3861 19.364 16.9726 19.7206 16.7305C20.0101 16.5339 20.4818 16.3186 20.4818 16.3186C20.4818 16.3186 20.9093 16.3449 21.2278 16.4525C21.5464 16.5602 21.8618 16.7233 21.8618 16.7233L21.8571 18.1774C21.8571 18.1774 21.3799 18.4669 21.101 18.6663C20.8221 18.8658 20.3315 19.3017 20.3315 19.3017L18.9466 18.8426C18.9466 18.8426 18.8949 18.445 18.8902 18.1115C18.8853 17.7781 18.9899 17.3861 18.9899 17.3861H18.9897ZM17.798 19.9543C17.744 19.8703 17.7077 19.7555 17.7077 19.7555C17.7077 19.7555 17.7265 19.0155 17.9639 18.4435C18.2012 17.872 18.3867 17.6035 18.3867 17.6035C18.3867 17.6035 18.4753 17.5485 18.5612 17.5091C18.647 17.4698 18.7785 17.4591 18.7785 17.4591C18.7785 17.4591 18.672 17.9071 18.6923 18.2432C18.7119 18.5648 18.7674 18.9142 18.7674 18.9142C18.7674 18.9142 18.3891 19.3122 18.2844 19.4532C18.1113 19.6858 17.9351 20.0939 17.9351 20.0939C17.9351 20.0939 17.8521 20.0378 17.7978 19.9541L17.798 19.9543ZM18.0748 20.2313C18.0748 20.2313 18.2317 19.8315 18.4322 19.5607C18.6325 19.2902 18.8847 19.0395 18.8847 19.0395L20.2614 19.4935C20.2614 19.4935 20.3883 20.0382 20.4912 20.3658C20.5941 20.6938 20.8557 21.2966 20.8557 21.2966L19.9926 22.4762C19.9926 22.4762 19.5997 22.4025 19.2822 22.3042C18.9647 22.2058 18.6252 21.985 18.6252 21.985C18.6252 21.985 18.3491 21.4999 18.2298 21.085C18.1328 20.7478 18.0746 20.2315 18.0746 20.2315L18.0748 20.2313ZM20.6915 23.9154C20.5952 23.9411 20.4752 23.94 20.4752 23.94C20.4752 23.94 19.7795 23.6934 19.3108 23.2903C18.8422 22.8871 18.6451 22.6272 18.6451 22.6272C18.6451 22.6272 18.6201 22.5257 18.6094 22.4316C18.5987 22.3376 18.6293 22.2088 18.6293 22.2088C18.6293 22.2088 19.0211 22.4488 19.3459 22.5332C19.6567 22.6137 20.0052 22.6688 20.0052 22.6688C20.0052 22.6688 20.2657 23.1527 20.3667 23.2963C20.5341 23.5334 20.8663 23.8278 20.8663 23.8278C20.8663 23.8278 20.7876 23.8897 20.6913 23.9154H20.6915ZM21.8966 23.8526C21.5473 23.8408 21.0395 23.7371 21.0395 23.7371C21.0395 23.7371 20.709 23.4638 20.5145 23.1889C20.3199 22.9141 20.1602 22.5959 20.1602 22.5959L21.016 21.4224C21.016 21.4224 21.5716 21.4697 21.9141 21.4727C22.2564 21.4759 22.9089 21.4127 22.9089 21.4127L23.7602 22.6006C23.7602 22.6006 23.5689 22.9528 23.3776 23.2256C23.1863 23.4981 22.872 23.7536 22.872 23.7536C22.872 23.7536 22.3268 23.8674 21.8966 23.8528V23.8526ZM25.3405 22.3785C25.3351 22.4783 25.2971 22.5925 25.2971 22.5925C25.2971 22.5925 24.8483 23.1799 24.3213 23.5026C23.7944 23.8252 23.4873 23.9327 23.4873 23.9327C23.4873 23.9327 23.3833 23.9252 23.2909 23.9064C23.1982 23.8875 23.0857 23.8188 23.0857 23.8188C23.0857 23.8188 23.4346 23.5188 23.6148 23.2352C23.7873 22.9636 23.947 22.6478 23.947 22.6478C23.947 22.6478 24.4862 22.549 24.6538 22.4967C24.9301 22.4104 25.3116 22.184 25.3116 22.184C25.3116 22.184 25.3462 22.2784 25.3407 22.3783L25.3405 22.3785ZM25.6535 21.2094C25.5343 21.5391 25.279 21.9914 25.279 21.9914C25.279 21.9914 24.9179 22.2221 24.597 22.323C24.2763 22.4235 23.9255 22.4779 23.9255 22.4779L23.0774 21.2986C23.0774 21.2986 23.2937 20.7831 23.4026 20.4573C23.5112 20.1314 23.653 19.4894 23.653 19.4894L25.0424 19.044C25.0424 19.044 25.317 19.3354 25.5164 19.6023C25.7156 19.8692 25.8608 20.248 25.8608 20.248C25.8608 20.248 25.8 20.8033 25.6535 21.2094ZM25.9889 20.0644C25.9889 20.0644 25.8126 19.6389 25.5993 19.3793C25.3951 19.1308 25.1453 18.8808 25.1453 18.8808C25.1453 18.8808 25.2183 18.3355 25.2205 18.1599C25.2239 17.8694 25.1276 17.4354 25.1276 17.4354C25.1276 17.4354 25.2277 17.4317 25.3206 17.4677C25.4135 17.5035 25.51 17.5752 25.51 17.5752C25.51 17.5752 25.9283 18.1849 26.0714 18.7876C26.2142 19.39 26.2215 19.7165 26.2215 19.7165C26.2215 19.7165 26.182 19.8135 26.1356 19.8958C26.0891 19.9783 25.9892 20.0644 25.9892 20.0644H25.9889Z" fill="white"/>
<path d="M20.7061 19.9387C20.7061 20.6334 21.2695 21.1988 21.962 21.1988C22.6544 21.1988 23.2179 20.6334 23.2179 19.9387C23.2179 19.2439 22.6547 18.6786 21.962 18.6786C21.2695 18.6786 20.7061 19.2439 20.7061 19.9387ZM21.8862 21.0107C21.767 21.1052 21.6086 21.0919 21.4929 20.9711C21.3808 20.8539 21.3391 20.4655 21.3033 20.3185C21.2676 20.1716 21.2187 20.0889 21.0959 20.0889C20.9732 20.0889 20.9838 20.175 20.9922 20.2144C21.0005 20.254 21.0851 20.2802 21.1243 20.2253C21.1636 20.1703 21.103 20.1463 21.103 20.1463C21.103 20.1463 21.2091 20.1319 21.2352 20.2217C21.2582 20.3007 21.2102 20.3616 21.2102 20.3616C21.2102 20.3616 21.2305 20.3903 21.246 20.4153C21.2614 20.4404 21.3116 20.5088 21.296 20.6234C21.2804 20.7382 21.2245 20.756 21.2245 20.756C21.2245 20.756 21.2198 20.6855 21.1888 20.609C21.1675 20.5561 21.1186 20.4991 21.0887 20.4691C21.0725 20.4531 20.9935 20.4164 20.9279 20.3545C20.8662 20.296 20.8374 20.2005 20.8457 20.1501C20.8735 19.9828 20.9903 19.944 21.0667 19.9372C20.9903 19.9301 20.8735 19.8916 20.8457 19.7242C20.8374 19.6739 20.8662 19.5784 20.9279 19.5199C20.9937 19.458 21.0725 19.4215 21.0887 19.4053C21.1184 19.3755 21.1673 19.3185 21.1888 19.2654C21.2198 19.1889 21.2245 19.1184 21.2245 19.1184C21.2245 19.1184 21.2804 19.1364 21.296 19.251C21.3114 19.3658 21.2614 19.434 21.246 19.459C21.2305 19.4841 21.2102 19.5128 21.2102 19.5128C21.2102 19.5128 21.2584 19.5736 21.2352 19.6525C21.2089 19.7422 21.103 19.7279 21.103 19.7279C21.103 19.7279 21.1636 19.7041 21.1243 19.649C21.0851 19.594 21.0005 19.6203 20.9922 19.6598C20.9838 19.6992 20.9732 19.7853 21.0959 19.7853C21.2187 19.7853 21.2676 19.7028 21.3033 19.5559C21.3391 19.4089 21.3806 19.0203 21.4929 18.9031C21.6084 18.7825 21.7668 18.7692 21.8862 18.8637C22.0141 18.965 21.9481 19.1435 21.9184 19.1829C21.8885 19.2223 21.7914 19.2945 21.7717 19.3048C21.7312 19.3264 21.6844 19.3493 21.6323 19.4517C21.5996 19.5162 21.5787 19.6203 21.5787 19.6203C21.5787 19.6203 21.4991 19.5745 21.5108 19.4087C21.5168 19.3251 21.5967 19.2294 21.5967 19.2294C21.5967 19.2294 21.5384 19.1422 21.593 19.0537C21.63 18.9939 21.7038 19.0143 21.7038 19.0143C21.7038 19.0143 21.6705 19.0203 21.6716 19.0573C21.6729 19.0944 21.7252 19.1385 21.7824 19.1148C21.8396 19.0908 21.8443 18.9749 21.7572 18.9605C21.6703 18.9462 21.6191 18.9605 21.5785 19.0145C21.5379 19.0683 21.5059 19.1735 21.489 19.2583C21.4724 19.3431 21.4438 19.5634 21.3998 19.685C21.3558 19.8069 21.3204 19.8374 21.2783 19.8753C21.2211 19.9265 21.1352 19.9361 21.1352 19.9361C21.1352 19.9361 21.1314 19.9368 21.1246 19.9374C21.1314 19.938 21.1352 19.9387 21.1352 19.9387C21.1352 19.9387 21.2211 19.9481 21.2783 19.9997C21.3204 20.0377 21.3558 20.0681 21.3998 20.19C21.444 20.3119 21.4724 20.5317 21.489 20.6165C21.5057 20.7013 21.5379 20.8067 21.5785 20.8605C21.6191 20.9143 21.6703 20.9286 21.7572 20.9143C21.8443 20.8999 21.8394 20.7838 21.7824 20.7603C21.7252 20.7363 21.6729 20.7806 21.6716 20.8177C21.6705 20.8547 21.7038 20.8607 21.7038 20.8607C21.7038 20.8607 21.63 20.8811 21.593 20.8211C21.5384 20.7328 21.5967 20.6454 21.5967 20.6454C21.5967 20.6454 21.5168 20.5499 21.5108 20.4663C21.4991 20.3003 21.5787 20.2547 21.5787 20.2547C21.5787 20.2547 21.5996 20.3588 21.6323 20.4233C21.6844 20.5257 21.7312 20.5488 21.7717 20.5702C21.7914 20.5807 21.8885 20.6527 21.9184 20.6921C21.9481 20.7318 22.0141 20.91 21.8862 21.0116V21.0107ZM21.4965 19.937C21.4965 19.679 21.7049 19.47 21.962 19.47C22.2191 19.47 22.4275 19.6793 22.4275 19.937C22.4275 20.1949 22.2191 20.404 21.962 20.404C21.7049 20.404 21.4965 20.1949 21.4965 19.937ZM22.0378 18.8633C22.1569 18.7688 22.3154 18.7821 22.4311 18.9027C22.5432 19.0199 22.5848 19.4085 22.6205 19.5554C22.6564 19.7024 22.705 19.7849 22.8278 19.7849C22.9506 19.7849 22.9399 19.6988 22.9316 19.6593C22.9233 19.6199 22.8385 19.5936 22.7992 19.6486C22.7599 19.7035 22.8208 19.7275 22.8208 19.7275C22.8208 19.7275 22.7146 19.7418 22.6886 19.652C22.6655 19.573 22.7136 19.5124 22.7136 19.5124C22.7136 19.5124 22.6933 19.4837 22.6777 19.4586C22.6621 19.4333 22.6122 19.3654 22.6277 19.2506C22.6431 19.136 22.6993 19.118 22.6993 19.118C22.6993 19.118 22.704 19.1885 22.7349 19.2649C22.7565 19.3178 22.8054 19.3748 22.8351 19.4048C22.8513 19.4211 22.9303 19.4575 22.9959 19.5194C23.0576 19.5779 23.0864 19.6737 23.0781 19.7238C23.0503 19.8911 22.9335 19.9299 22.8571 19.9368C22.9335 19.9436 23.0503 19.9824 23.0781 20.1497C23.0864 20.2003 23.0576 20.2956 22.9959 20.3541C22.9303 20.416 22.8511 20.4526 22.8351 20.4687C22.8054 20.4987 22.7565 20.5557 22.7349 20.6086C22.704 20.6851 22.6993 20.7555 22.6993 20.7555C22.6993 20.7555 22.6433 20.7376 22.6277 20.6229C22.6122 20.5083 22.6623 20.44 22.6777 20.4149C22.6933 20.3899 22.7136 20.3611 22.7136 20.3611C22.7136 20.3611 22.6653 20.3003 22.6886 20.2213C22.7149 20.1315 22.8208 20.1458 22.8208 20.1458C22.8208 20.1458 22.7599 20.1696 22.7992 20.2249C22.8385 20.2797 22.9233 20.2536 22.9316 20.214C22.9399 20.1746 22.9506 20.0884 22.8278 20.0884C22.705 20.0884 22.6564 20.1711 22.6205 20.3181C22.5846 20.4651 22.5432 20.8534 22.4311 20.9706C22.3156 21.0915 22.1569 21.1047 22.0378 21.0103C21.9099 20.9089 21.9759 20.7305 22.0058 20.6908C22.0354 20.6514 22.1326 20.5794 22.1522 20.569C22.1928 20.5475 22.2398 20.5244 22.2917 20.422C22.3243 20.3575 22.3453 20.2534 22.3453 20.2534C22.3453 20.2534 22.4249 20.299 22.4132 20.465C22.4072 20.5486 22.3273 20.6441 22.3273 20.6441C22.3273 20.6441 22.3856 20.7316 22.331 20.8198C22.294 20.8796 22.2201 20.8594 22.2201 20.8594C22.2201 20.8594 22.2534 20.8534 22.2524 20.8164C22.2513 20.7793 22.1988 20.7352 22.1416 20.759C22.0843 20.7828 22.0796 20.8987 22.1665 20.913C22.2534 20.9274 22.3047 20.913 22.3453 20.8592C22.3858 20.8055 22.4179 20.7003 22.4345 20.6152C22.4512 20.5304 22.4798 20.3104 22.524 20.1887C22.568 20.0668 22.6034 20.0364 22.6455 19.9985C22.7027 19.947 22.7885 19.9374 22.7885 19.9374C22.7885 19.9374 22.7924 19.9368 22.7992 19.9361C22.7924 19.9355 22.7885 19.9348 22.7885 19.9348C22.7885 19.9348 22.7027 19.9254 22.6455 19.874C22.6034 19.8361 22.568 19.8057 22.524 19.6838C22.4798 19.5619 22.4514 19.3418 22.4345 19.257C22.4179 19.1722 22.3856 19.067 22.3453 19.0132C22.3047 18.9592 22.2534 18.9449 22.1665 18.9592C22.0796 18.9736 22.0843 19.0897 22.1416 19.1135C22.1988 19.1373 22.2511 19.0931 22.2524 19.0561C22.2537 19.019 22.2201 19.013 22.2201 19.013C22.2201 19.013 22.294 18.9926 22.331 19.0524C22.3856 19.1409 22.3273 19.2281 22.3273 19.2281C22.3273 19.2281 22.4072 19.3238 22.4132 19.4074C22.4251 19.5732 22.3453 19.6191 22.3453 19.6191C22.3453 19.6191 22.3243 19.5149 22.2917 19.4505C22.2398 19.3478 22.1928 19.3251 22.1522 19.3035C22.1326 19.2932 22.0354 19.221 22.0058 19.1816C21.9759 19.1422 21.9099 18.9639 22.0378 18.8624V18.8633Z" fill="white"/>
<path d="M20.625 19.9387C20.625 20.6787 21.225 21.2809 21.9627 21.2809C22.7002 21.2809 23.3004 20.6787 23.3004 19.9387C23.3004 19.1988 22.7004 18.5966 21.9627 18.5966C21.2252 18.5966 20.625 19.1988 20.625 19.9387ZM23.2684 19.9387C23.2684 20.6611 22.6827 21.2487 21.9627 21.2487C21.2429 21.2487 20.657 20.6611 20.657 19.9387C20.657 19.2165 21.2427 18.6289 21.9627 18.6289C22.6825 18.6289 23.2684 19.2165 23.2684 19.9387Z" fill="white"/>
<path d="M22.7988 19.9372C22.8108 19.9382 22.8315 19.9395 22.8565 19.9372C22.8315 19.935 22.8106 19.9361 22.7988 19.9372Z" fill="white"/>
<path d="M21.125 19.9372C21.1133 19.9361 21.0924 19.935 21.0674 19.9372C21.0926 19.9395 21.1133 19.9382 21.125 19.9372Z" fill="white"/>
<path d="M22.3557 19.9856C22.3557 19.9856 22.3628 19.9605 22.3628 19.9389C22.3628 19.9172 22.3557 19.8922 22.3557 19.8922C22.3557 19.8922 22.3021 19.9031 22.252 19.9031C22.2374 19.9031 22.1296 19.8945 22.1055 19.8708C22.0782 19.844 22.047 19.7859 22.0696 19.7523C22.1303 19.6625 22.2413 19.7416 22.2413 19.7416C22.2413 19.7416 22.2582 19.6972 22.2163 19.6482C22.1484 19.5683 22.0376 19.6051 22.0376 19.6051L21.9626 19.5046L21.8841 19.6051C21.8841 19.6051 21.8435 19.5798 21.7626 19.6088C21.6605 19.645 21.6804 19.7414 21.6804 19.7414C21.6804 19.7414 21.8285 19.6507 21.8591 19.7735C21.8657 19.7996 21.8527 19.8341 21.8358 19.8551C21.8113 19.8855 21.7579 19.8928 21.7126 19.899C21.6351 19.9097 21.5695 19.8883 21.5695 19.8883C21.5695 19.8883 21.5625 19.9181 21.5625 19.9421C21.5625 19.9661 21.5661 19.9852 21.5661 19.9852C21.5661 19.9852 21.6673 19.9648 21.7771 19.9852C21.8332 19.9954 21.895 20.0856 21.8414 20.1428C21.7878 20.2005 21.6842 20.1358 21.6842 20.1358C21.6842 20.1358 21.6592 20.2099 21.7557 20.2647C21.8068 20.2939 21.8843 20.272 21.8843 20.272L21.9629 20.3688L22.0414 20.272C22.0414 20.272 22.1083 20.2911 22.1666 20.2684C22.2494 20.2358 22.2415 20.1358 22.2415 20.1358C22.2415 20.1358 22.17 20.1775 22.1164 20.1608C22.0628 20.1441 22.0438 20.0914 22.0948 20.0175C22.1461 19.9434 22.3559 19.9852 22.3559 19.9852L22.3557 19.9856ZM21.9624 20.0717L21.8587 19.9391L21.9624 19.8065L22.0662 19.9391L21.9624 20.0717Z" fill="white"/>
<path d="M21.8945 19.9388L21.9618 20.0249L22.029 19.9388L21.9618 19.8529L21.8945 19.9388Z" fill="white"/>
<path fill-rule="evenodd" clip-rule="evenodd" d="M18.7058 13.2802L18.6244 13.3216C18.6244 13.3216 18.554 13.319 18.5271 13.3199C18.5002 13.3205 18.4681 13.3203 18.4681 13.3203C18.4681 13.3203 18.4365 13.3666 18.4289 13.3897C18.4212 13.4128 18.4109 13.4471 18.4109 13.4471L18.3422 13.4666L18.292 13.4221C18.292 13.4221 18.3129 13.3113 18.3262 13.2781C18.3392 13.2447 18.3674 13.1973 18.3674 13.1973C18.3674 13.1973 18.4795 13.1796 18.5237 13.1843C18.5679 13.189 18.6426 13.201 18.6426 13.201L18.7058 13.2802Z" fill="white"/>
<path fill-rule="evenodd" clip-rule="evenodd" d="M21.9127 14.0079C17.9602 14.0079 14.7559 17.1987 14.7559 21.1345C14.7559 23.0853 15.5433 24.8529 16.8187 26.1398C16.8366 26.1578 17.1341 26.0494 17.1341 26.0494C15.8442 24.8058 15.042 23.0634 15.042 21.1343C15.042 18.2248 16.8661 15.7398 19.4373 14.7507C19.483 14.7661 19.6015 14.8162 19.6158 14.9171C19.6338 15.0427 19.5622 15.1611 19.4548 15.1755C19.3476 15.1898 19.3335 15.0754 19.3547 15.0285C19.3906 14.9497 19.4977 14.9709 19.4977 14.9709C19.4977 14.9709 19.4164 14.8057 19.2545 14.9745C19.1653 15.0679 19.2082 15.2183 19.2082 15.2183C19.2082 15.2183 19.0295 15.2723 18.9723 15.3833C18.915 15.4945 18.9044 15.6237 18.9044 15.6237C18.9044 15.6237 18.9902 15.4767 19.1367 15.4551C19.2832 15.4336 19.467 15.3889 19.5264 15.3692C19.6229 15.3366 19.6908 15.204 19.6908 15.204L19.8659 15.3582L19.9517 15.1179C19.9517 15.1179 20.023 15.1933 20.1624 15.1575C20.3019 15.1215 20.4468 15.0305 20.5165 15.0032C20.6809 14.9388 20.813 14.9998 20.813 14.9998C20.813 14.9998 20.7236 14.8813 20.6164 14.8312C20.5092 14.7809 20.3625 14.8419 20.3625 14.8419C20.3625 14.8419 20.3113 14.6945 20.2124 14.6733C19.9944 14.6268 19.998 14.8025 19.998 14.8025C19.998 14.8025 20.1293 14.7108 20.1733 14.7952C20.2162 14.8777 20.1447 14.9889 20.0482 14.9782C19.9517 14.9675 19.8552 14.8777 19.8659 14.7702C19.8748 14.6798 19.9493 14.5947 19.9728 14.5696C20.2555 14.487 20.5457 14.4218 20.8423 14.3753C21.1282 14.3432 21.5567 14.3036 21.5567 14.3036C21.5567 14.3036 21.7318 14.3646 21.7461 14.5009C21.7604 14.6371 21.646 14.7269 21.5888 14.7376C21.5315 14.7483 21.4162 14.7145 21.4493 14.5799C21.4683 14.5022 21.6137 14.5512 21.6137 14.5512C21.6137 14.5512 21.5994 14.4043 21.4278 14.4651C21.2561 14.5262 21.2883 14.7018 21.2883 14.7018C21.2883 14.7018 21.1167 14.7089 21.0381 14.7663C20.9595 14.8237 20.895 14.9923 20.895 14.9923C20.895 14.9923 20.9772 14.8955 21.1632 14.9135C21.349 14.9315 21.4805 14.9422 21.5493 14.9422C21.6458 14.9422 21.7423 14.8417 21.7423 14.8417L21.8851 15.039L22.0209 14.8346C22.0209 14.8346 22.0961 14.9531 22.2962 14.9458C22.4964 14.9388 22.5964 14.8813 22.7144 14.9171C22.8323 14.9531 22.8645 14.9925 22.8645 14.9925C22.8645 14.9925 22.8645 14.885 22.7431 14.7845C22.6216 14.684 22.4892 14.7128 22.4892 14.7128C22.4892 14.7128 22.4759 14.5673 22.4106 14.5154C22.2069 14.3541 22.1424 14.5478 22.1424 14.5478C22.1424 14.5478 22.3211 14.4797 22.3177 14.6339C22.3141 14.7882 22.139 14.7524 22.0745 14.6806C22.0102 14.6088 22.003 14.4726 22.0675 14.3938C22.1317 14.3147 22.1996 14.304 22.1996 14.304C22.1996 14.304 22.6978 14.3443 23.0219 14.3901C23.3759 14.4403 23.7727 14.5587 23.7727 14.5587C23.7727 14.5587 23.974 14.6858 23.8478 14.8886C23.7583 15.0322 23.6082 14.957 23.5833 14.9173C23.5581 14.8779 23.5638 14.7787 23.6225 14.7633C23.6904 14.7453 23.7547 14.8064 23.7547 14.8064C23.7547 14.8064 23.7759 14.672 23.6155 14.6628C23.4259 14.6521 23.3939 14.8565 23.3939 14.8565C23.3939 14.8565 23.2401 14.7918 23.1329 14.8351C23.0258 14.8781 22.9506 14.9927 22.9506 14.9927C22.9506 14.9927 23.0898 14.9497 23.1759 14.982C23.2617 15.0144 23.5226 15.147 23.6155 15.1613C23.7084 15.1757 23.8049 15.1181 23.8049 15.1181L23.8835 15.3477L24.0731 15.2008C24.0731 15.2008 24.0981 15.312 24.2554 15.3694C24.4128 15.4268 24.5766 15.4392 24.6485 15.4626C24.7807 15.5056 24.8524 15.6168 24.8524 15.6168C24.8524 15.6168 24.8392 15.457 24.7879 15.3799C24.7164 15.2723 24.5447 15.2222 24.5447 15.2222C24.5447 15.2222 24.5834 15.0937 24.527 15.0107C24.3707 14.7813 24.2516 14.964 24.2516 14.964C24.2516 14.964 24.4587 14.9523 24.4089 15.1074C24.3767 15.2078 24.2089 15.1935 24.1623 15.0643C24.1158 14.9353 24.1623 14.8205 24.2159 14.7952C24.2695 14.7702 24.3554 14.7451 24.3554 14.7451C24.3554 14.7451 24.8366 14.9319 25.3068 15.1903V15.1856C27.3824 16.3627 28.7821 18.5856 28.7821 21.1345C28.7821 23.0536 27.9882 24.7878 26.7099 26.0303L26.997 26.1483C28.2775 24.8606 29.0684 23.0898 29.0684 21.1345C29.0684 17.1987 25.8643 14.0079 21.9116 14.0079H21.9127Z" fill="white"/>
<path fill-rule="evenodd" clip-rule="evenodd" d="M28.1165 25.1604C28.1165 25.1604 27.8966 25.3414 28.0842 25.5297C28.2416 25.6874 28.3667 25.5728 28.3667 25.5728C28.3667 25.5728 28.3309 25.5494 28.3345 25.4867C28.3381 25.4239 28.3667 25.4185 28.3667 25.4185C28.3667 25.4185 28.3714 25.456 28.3847 25.4867C28.3941 25.5085 28.4133 25.5261 28.4133 25.5261C28.4133 25.5261 28.4596 25.483 28.4776 25.4363C28.4955 25.3896 28.4991 25.3431 28.4991 25.3431C28.4991 25.3431 28.3973 25.4239 28.3669 25.3324C28.3366 25.2409 28.4295 25.1675 28.4635 25.1675C28.4974 25.1675 28.5986 25.1747 28.592 25.3288C28.5867 25.4597 28.4778 25.5906 28.4778 25.5906L28.51 25.6229C28.51 25.6229 28.5815 25.5655 28.6031 25.5154C28.6245 25.4652 28.6371 25.4382 28.6567 25.4258C28.6763 25.4132 28.9106 25.3146 28.9106 25.3146C28.9106 25.3146 28.8087 25.5353 28.7961 25.555C28.7835 25.5747 28.7353 25.6034 28.7032 25.6161C28.671 25.6285 28.5852 25.7056 28.5852 25.7056L28.6174 25.738C28.6174 25.738 28.7658 25.6302 28.8568 25.6338C28.9479 25.6375 29.0464 25.6572 29.0391 25.7594C29.0321 25.8616 28.9048 25.8808 28.8711 25.8598C28.7906 25.8095 28.8638 25.7236 28.8638 25.7236C28.8638 25.7236 28.8209 25.72 28.7532 25.7523C28.6851 25.7847 28.6815 25.8024 28.6815 25.8024C28.6815 25.8024 28.7084 25.8294 28.7353 25.8419C28.762 25.8543 28.7852 25.8598 28.7852 25.8598C28.7852 25.8598 28.7389 25.8973 28.703 25.8886C28.6672 25.8796 28.6351 25.8491 28.6351 25.8491C28.6351 25.8491 28.4799 26.0047 28.7244 26.1827C28.8745 26.2922 29.0355 26.1182 29.0355 26.1182C29.0355 26.1182 29.0801 26.2849 28.9712 26.4481C28.8621 26.6114 28.6584 26.6345 28.5423 26.5413C28.4261 26.4481 28.3537 26.2988 28.3921 26.0929C28.4261 25.9119 28.5638 25.7808 28.5638 25.7808L28.5386 25.7521C28.5386 25.7521 28.4457 25.8185 28.3708 26.0175C28.2956 26.2165 28.2835 26.3303 28.1705 26.3798C28.0563 26.4299 27.6094 26.5734 27.6094 26.5734C27.6094 26.5734 27.7396 26.2221 27.7559 26.1647C27.7719 26.1073 27.822 25.98 27.906 25.9316C27.9899 25.8832 28.1803 25.8361 28.2561 25.8061C28.3473 25.7703 28.4635 25.6735 28.4635 25.6735L28.4348 25.6411C28.4348 25.6411 28.2777 25.8024 28.0808 25.8097C27.8844 25.817 27.6822 25.7345 27.6305 25.5409C27.5786 25.3472 27.7684 25.2139 27.8701 25.1713C27.9897 25.1212 28.1167 25.1606 28.1167 25.1606L28.1165 25.1604Z" fill="white"/>
<path fill-rule="evenodd" clip-rule="evenodd" d="M30.4648 21.8068C30.4648 21.8068 30.6673 21.7046 30.6649 21.362C30.6613 20.8239 30.2503 20.9209 30.2503 20.9209C30.2503 20.9209 30.4452 21.1039 30.4217 21.2545C30.3914 21.4501 30.1858 21.5199 30.032 21.5308C29.8783 21.5415 29.798 21.5325 29.7602 21.5343C29.7229 21.536 29.6816 21.599 29.6637 21.6204C29.6458 21.642 29.6208 21.6814 29.6101 21.6814C29.5992 21.6814 29.5706 21.5094 29.6494 21.2367C29.728 20.9642 29.9675 20.5749 30.082 20.3796C30.1964 20.184 30.4268 19.6908 30.4108 19.2534C30.3948 18.8157 30.0534 18.6687 30.0534 18.6687C30.0534 18.6687 30.0929 18.5899 30.1106 18.5325C30.1285 18.4751 30.1315 18.4039 30.1315 18.4039L29.9863 18.468C29.9863 18.468 29.9714 18.5181 29.9678 18.5395C29.9643 18.5612 29.9428 18.6184 29.9428 18.6184C29.9428 18.6184 29.7171 18.5648 29.4925 18.6614C29.2922 18.7476 29.0989 19.0179 29.128 19.35C29.1557 19.6696 29.2602 19.6585 29.2851 19.9346C29.3101 20.2107 29.2243 20.4978 29.2243 20.4978C29.2243 20.4978 29.4566 20.3793 29.4995 20.0781C29.5296 19.8673 29.5281 19.8217 29.5245 19.8131C29.5224 19.8127 29.5211 19.8127 29.5211 19.8127C29.5211 19.8127 29.523 19.8095 29.5245 19.8131C29.5525 19.8166 29.7551 19.8343 29.8749 19.6475C30.0034 19.4468 29.8749 19.2351 29.8749 19.2351C29.8749 19.2351 29.8296 19.5766 29.5495 19.4252C29.4073 19.3483 29.5315 19.088 29.5315 19.088C29.5315 19.088 29.6887 18.8262 29.9891 19.0306C30.2893 19.2349 29.9925 19.9631 29.7495 20.3181C29.5063 20.6733 29.2599 21.2155 29.292 21.4871C29.3313 21.8215 29.4073 21.9689 29.41 21.9535C29.41 21.9535 29.074 22.3695 29.235 22.9075C29.3957 23.4454 29.6746 24.0144 29.6746 24.3315C29.6746 24.6112 29.6387 24.8694 29.3244 24.891C28.9448 24.9169 28.9847 24.4677 29.1028 24.4139C29.2209 24.3602 29.3176 24.3662 29.3853 24.4677C29.4282 24.5324 29.4066 24.6219 29.4066 24.6219C29.4066 24.6219 29.5631 24.4585 29.4925 24.249C29.4066 23.9945 29.1636 24.0125 29.1636 24.0125C29.1636 24.0125 29.1948 23.8694 29.1779 23.6646C29.1564 23.4045 28.9886 23.3023 28.9886 23.3023C28.9886 23.3023 29.0086 23.6853 28.9527 23.8689C28.8867 24.0859 28.7007 24.2597 28.6881 24.4786C28.6757 24.6974 28.6435 25.0273 29.0206 25.1995C29.3979 25.3717 29.766 25.117 29.8858 24.8372C30.0056 24.5575 30.0002 24.1431 29.8821 23.7792C29.7641 23.4152 29.5337 22.913 29.5211 22.6495C29.5085 22.386 29.5567 22.2586 29.5567 22.2586C29.5567 22.2586 29.5926 22.2641 29.6103 22.3267C29.6283 22.3895 29.687 22.4291 29.7139 22.4272C29.7406 22.4252 30.0696 22.4449 30.1858 22.5634C30.3019 22.6819 30.3271 22.8004 30.2323 22.9293C30.1377 23.0583 30.0679 23.0833 30.0679 23.0833C30.0679 23.0833 30.3002 23.1568 30.4396 22.9794C30.5791 22.8016 30.5791 22.5006 30.5291 22.3912C30.4789 22.2819 30.429 22.2406 30.429 22.2406L30.6111 22.0323L30.4646 21.8065L30.4648 21.8068ZM30.0107 22.1544C29.8473 22.1534 29.6996 21.9751 29.6996 21.9751C29.6996 21.9751 29.873 21.8085 30.0643 21.8352C30.2556 21.862 30.3574 22.0146 30.3574 22.0146C30.3574 22.0146 30.2304 22.1559 30.0107 22.1542V22.1544Z" fill="white"/>
<path fill-rule="evenodd" clip-rule="evenodd" d="M30.0359 21.8748C29.9071 21.8604 29.7891 21.986 29.7891 21.986C29.7891 21.986 29.9018 22.106 30.0216 22.115C30.1414 22.1239 30.2753 22.0072 30.2753 22.0072C30.2753 22.0072 30.1644 21.8889 30.0359 21.8746V21.8748Z" fill="white"/>
<path fill-rule="evenodd" clip-rule="evenodd" d="M13.2651 22.0077L13.4474 22.2157C13.4474 22.2157 13.3975 22.257 13.3473 22.3663C13.2973 22.4757 13.2973 22.7769 13.4368 22.9545C13.5762 23.1321 13.8085 23.0587 13.8085 23.0587C13.8085 23.0587 13.7389 23.0336 13.6441 22.9044C13.5495 22.7752 13.5745 22.657 13.6906 22.5387C13.8068 22.4203 14.1356 22.4005 14.1625 22.4025C14.1894 22.4044 14.2484 22.3648 14.2663 22.302C14.2842 22.2392 14.3199 22.2339 14.3199 22.2339C14.3199 22.2339 14.3682 22.3613 14.3558 22.6246C14.3432 22.8884 14.1126 23.3905 13.9947 23.7545C13.8766 24.1187 13.8713 24.5328 13.9911 24.8126C14.1109 25.0923 14.479 25.3471 14.8563 25.1748C15.2333 25.0026 15.2013 24.6727 15.1887 24.4539C15.1763 24.235 14.9904 24.061 14.9244 23.8442C14.8684 23.6609 14.8885 23.2776 14.8885 23.2776C14.8885 23.2776 14.7205 23.3796 14.6991 23.6399C14.6822 23.8447 14.7134 23.9878 14.7134 23.9878C14.7134 23.9878 14.4704 23.9698 14.3846 24.2245C14.3139 24.4342 14.4704 24.5977 14.4704 24.5977C14.4704 24.5977 14.4489 24.5079 14.4918 24.4434C14.5593 24.3417 14.6562 24.3359 14.7743 24.3897C14.8923 24.4434 14.9325 24.8927 14.5526 24.8668C14.2381 24.8451 14.2022 24.587 14.2022 24.3072C14.2022 23.9901 14.4811 23.4214 14.6419 22.8832C14.8027 22.3453 14.4668 21.9292 14.4668 21.9292C14.4694 21.9449 14.5454 21.7973 14.5847 21.4629C14.6167 21.1912 14.3703 20.6488 14.1271 20.2938C13.8839 19.9386 13.5873 19.2107 13.8875 19.0061C14.1877 18.8017 14.3451 19.0635 14.3451 19.0635C14.3451 19.0635 14.4696 19.3236 14.3272 19.4007C14.0472 19.5522 14.002 19.2107 14.002 19.2107C14.002 19.2107 13.8732 19.4223 14.002 19.6231C14.1215 19.8099 14.3244 19.7919 14.3524 19.7884C14.3538 19.785 14.3558 19.788 14.3558 19.788C14.3558 19.788 14.3545 19.7882 14.3524 19.7884C14.3487 19.797 14.3472 19.8426 14.3773 20.0534C14.4203 20.3549 14.6526 20.4731 14.6526 20.4731C14.6526 20.4731 14.5667 20.1861 14.5917 19.9099C14.6167 19.6336 14.7213 19.6449 14.7491 19.3253C14.7779 18.9932 14.5847 18.7229 14.3844 18.6367C14.1595 18.5399 13.9341 18.5937 13.9341 18.5937C13.9341 18.5937 13.9125 18.5363 13.9091 18.5146C13.9055 18.4932 13.8905 18.4431 13.8905 18.4431L13.7451 18.379C13.7451 18.379 13.7481 18.4499 13.766 18.5074C13.784 18.5648 13.8232 18.6436 13.8232 18.6436C13.8232 18.6436 13.4818 18.7906 13.4658 19.2282C13.4498 19.6657 13.6802 20.1591 13.7946 20.3544C13.9091 20.5498 14.1487 20.9389 14.2272 21.2116C14.3058 21.4843 14.2772 21.6563 14.2665 21.6563C14.2558 21.6563 14.2306 21.6169 14.2129 21.5953C14.195 21.5738 14.1538 21.5111 14.1164 21.5091C14.0788 21.5072 13.9983 21.5164 13.8446 21.5057C13.6909 21.4948 13.4855 21.4249 13.4551 21.2294C13.4316 21.0788 13.6266 20.8958 13.6266 20.8958C13.6266 20.8958 13.2156 20.799 13.2119 21.3369C13.2096 21.6795 13.4122 21.7816 13.4122 21.7816L13.2655 22.0074L13.2651 22.0077ZM13.519 21.9899C13.519 21.9899 13.6208 21.8373 13.8119 21.8106C14.003 21.7836 14.1766 21.9502 14.1766 21.9502C14.1766 21.9502 14.0291 22.1285 13.8655 22.1295C13.6458 22.131 13.519 21.9897 13.519 21.9897V21.9899Z" fill="white"/>
<path fill-rule="evenodd" clip-rule="evenodd" d="M13.8392 21.8499C13.9679 21.8355 14.0858 21.9611 14.0858 21.9611C14.0858 21.9611 13.9733 22.0811 13.8535 22.09C13.7337 22.099 13.5996 21.9825 13.5996 21.9825C13.5996 21.9825 13.7104 21.864 13.839 21.8499H13.8392Z" fill="white"/>
<path fill-rule="evenodd" clip-rule="evenodd" d="M28.3315 15.3019L28.0602 15.2509C28.0602 15.2509 28.074 15.1875 28.0463 15.0703C28.0183 14.9533 27.8332 14.716 27.6143 14.6626C27.3955 14.6093 27.2577 14.8109 27.2577 14.8109C27.2577 14.8109 27.328 14.7875 27.4819 14.8306C27.6359 14.8736 27.6888 14.9823 27.6703 15.1472C27.6515 15.3122 27.4046 15.5313 27.3827 15.5465C27.3604 15.5617 27.3382 15.6292 27.3628 15.6899C27.3873 15.7503 27.3624 15.7766 27.3624 15.7766C27.3624 15.7766 27.2462 15.7064 27.094 15.4908C26.9417 15.2755 26.8147 14.7376 26.6838 14.3781C26.5529 14.0187 26.3027 13.6892 26.0362 13.5431C25.7699 13.397 25.3237 13.4244 25.1326 13.7933C24.9415 14.162 25.1697 14.4019 25.3141 14.5664C25.4584 14.7308 25.7114 14.7528 25.897 14.8826C26.0537 14.9925 26.2734 15.3064 26.2734 15.3064C26.2734 15.3064 26.3428 15.1221 26.1997 14.9041C26.0872 14.7325 25.9747 14.6391 25.9747 14.6391C25.9747 14.6391 26.1771 14.5028 26.0883 14.2492C26.015 14.0405 25.7913 14.0086 25.7913 14.0086C25.7913 14.0086 25.8632 14.0658 25.8692 14.1433C25.8786 14.2652 25.806 14.3297 25.68 14.3603C25.5541 14.391 25.2464 14.0624 25.5613 13.8477C25.822 13.6699 26.0091 13.8511 26.181 14.0714C26.3759 14.3207 26.5061 14.9413 26.7103 15.4641C26.9144 15.9872 27.4345 16.1065 27.4345 16.1065C27.423 16.0958 27.4538 16.2591 27.6284 16.5466C27.7702 16.7801 28.2976 17.0547 28.7071 17.1837C29.1167 17.3126 29.798 17.7025 29.6872 18.0492C29.5764 18.3958 29.2917 18.287 29.2917 18.287C29.2917 18.287 29.034 18.1593 29.0985 18.0106C29.226 17.718 29.4715 17.959 29.4715 17.959C29.4715 17.959 29.4427 17.7128 29.2181 17.6344C29.009 17.5614 28.8604 17.701 28.8406 17.721C28.8416 17.7248 28.838 17.7235 28.838 17.7235C28.838 17.7235 28.8391 17.7225 28.8406 17.721C28.8382 17.7122 28.8111 17.6751 28.658 17.5277C28.4392 17.3169 28.1834 17.3677 28.1834 17.3677C28.1834 17.3677 28.4274 17.5406 28.5773 17.7735C28.7274 18.0063 28.6384 18.0622 28.8128 18.3309C28.9941 18.6102 29.3127 18.7036 29.523 18.6473C29.7594 18.5843 29.9039 18.4024 29.9039 18.4024C29.9039 18.4024 29.9562 18.4344 29.972 18.4491C29.988 18.4637 30.0102 18.492 30.0102 18.492L30.1554 18.4279C30.1554 18.4279 30.1386 18.4003 30.089 18.366C30.0397 18.332 29.9603 18.2942 29.9603 18.2942C29.9603 18.2942 30.1388 17.9671 29.8823 17.613C29.6261 17.2587 29.1414 17.0132 28.9313 16.9298C28.7212 16.8467 28.2933 16.6888 28.0638 16.5228C27.8345 16.357 27.7512 16.2036 27.7595 16.1969C27.7678 16.1901 27.8118 16.2057 27.8392 16.2117C27.8665 16.2175 27.9374 16.2415 27.9681 16.2196C27.9987 16.1978 28.0565 16.141 28.1842 16.0545C28.3119 15.9677 28.5167 15.8955 28.6606 16.0307C28.7716 16.1348 28.7306 16.3994 28.7306 16.3994C28.7306 16.3994 29.1137 16.2211 28.7859 15.7955C28.5771 15.5243 28.355 15.5692 28.355 15.5692L28.3315 15.3006V15.3019ZM28.1428 15.4731C28.1428 15.4731 28.1562 15.6562 28.0221 15.7957C27.8883 15.9354 27.6491 15.9112 27.6491 15.9112C27.6491 15.9112 27.656 15.6796 27.7836 15.5774C27.9557 15.4403 28.1426 15.4728 28.1426 15.4728L28.1428 15.4731Z" fill="white"/>
<path fill-rule="evenodd" clip-rule="evenodd" d="M27.9755 15.7821C27.8831 15.8732 27.7129 15.8472 27.7129 15.8472C27.7129 15.8472 27.7276 15.6831 27.8164 15.6017C27.9053 15.5205 28.0823 15.5293 28.0823 15.5293C28.0823 15.5293 28.0678 15.6913 27.9755 15.7821Z" fill="white"/>
<path fill-rule="evenodd" clip-rule="evenodd" d="M21.91 12.4548L21.6868 12.6178C21.6868 12.6178 21.6505 12.5641 21.5465 12.5041C21.4426 12.4441 21.1434 12.4165 20.9544 12.5394C20.7655 12.6624 20.8172 12.9013 20.8172 12.9013C20.8172 12.9013 20.8485 12.834 20.9854 12.7513C21.1223 12.6684 21.2374 12.7044 21.3441 12.8312C21.4509 12.958 21.4402 13.2886 21.4361 13.3152C21.4319 13.3417 21.4656 13.4043 21.5263 13.4278C21.5869 13.4514 21.589 13.4876 21.589 13.4876C21.589 13.4876 21.4581 13.5243 21.1976 13.4874C20.9372 13.4508 20.4599 13.1742 20.1095 13.0232C19.7592 12.8719 19.3483 12.8284 19.0599 12.9225C18.7712 13.0165 18.4846 13.361 18.6209 13.7535C18.7571 14.1462 19.0876 14.144 19.3058 14.1519C19.5241 14.1594 19.7137 13.9898 19.9351 13.9435C20.1224 13.9045 20.5007 13.96 20.5007 13.96C20.5007 13.96 20.4147 13.7826 20.1587 13.7374C19.9569 13.7016 19.8121 13.7198 19.8121 13.7198C19.8121 13.7198 19.8522 13.4786 19.6073 13.3694C19.4058 13.2796 19.2292 13.421 19.2292 13.421C19.2292 13.421 19.3202 13.4077 19.3804 13.4566C19.475 13.5332 19.472 13.6307 19.4077 13.7434C19.3434 13.8563 18.894 13.8552 18.9546 13.4784C19.0048 13.1661 19.2644 13.1541 19.542 13.1796C19.8565 13.2087 20.3957 13.5397 20.9149 13.7496C21.434 13.9598 21.8777 13.662 21.8777 13.662C21.8619 13.6633 22.0013 13.7526 22.3297 13.8227C22.5964 13.8794 23.1573 13.6832 23.5323 13.4728C23.907 13.2625 24.6567 13.033 24.832 13.3516C25.0075 13.6704 24.7331 13.8036 24.7331 13.8036C24.7331 13.8036 24.4635 13.9041 24.4003 13.7548C24.2756 13.4611 24.6187 13.4471 24.6187 13.4471C24.6187 13.4471 24.4205 13.2991 24.2094 13.4092C24.0131 13.5118 24.0123 13.716 24.0129 13.7443C24.0163 13.746 24.0131 13.7479 24.0131 13.7479C24.0131 13.7479 24.0131 13.7464 24.0129 13.7443C24.0048 13.7398 23.9598 13.7342 23.7475 13.7449C23.4447 13.7601 23.306 13.9812 23.306 13.9812C23.306 13.9812 23.5985 13.9219 23.8703 13.9722C24.1423 14.0225 24.1216 14.1258 24.4361 14.183C24.763 14.2423 25.0494 14.074 25.1529 13.882C25.2695 13.6663 25.237 13.436 25.237 13.436C25.237 13.436 25.2921 13.4199 25.3131 13.4135C25.3378 13.4058 25.3748 13.4058 25.3748 13.4058C25.3748 13.4058 25.3857 13.4319 25.3844 13.4782C25.3833 13.5238 25.3765 13.5542 25.3765 13.5542L25.4958 13.4996C25.4958 13.4996 25.5027 13.4628 25.4911 13.3957C25.483 13.3494 25.4555 13.2781 25.4555 13.2781C25.4555 13.2781 25.3961 13.2635 25.3376 13.276C25.2789 13.2886 25.1971 13.3207 25.1971 13.3207C25.1971 13.3207 25.0825 12.9662 24.6496 12.9098C24.2168 12.8537 23.7063 13.0388 23.5018 13.135C23.2972 13.2314 22.8892 13.4349 22.6114 13.4885C22.3336 13.542 22.1653 13.4977 22.1664 13.4872C22.1675 13.4763 22.2089 13.4551 22.2317 13.439C22.2548 13.4231 22.3208 13.388 22.3261 13.3505C22.3312 13.313 22.3297 13.232 22.3545 13.0795C22.3793 12.9268 22.4677 12.728 22.6643 12.7155C22.8159 12.7059 22.9797 12.9176 22.9797 12.9176C22.9797 12.9176 23.1134 12.5157 22.58 12.4627C22.2401 12.4289 22.1201 12.6217 22.1201 12.6217L21.9093 12.4546L21.91 12.4548ZM21.9044 12.71C21.9044 12.71 22.0464 12.8259 22.0556 13.0193C22.0648 13.2128 21.8833 13.3709 21.8833 13.3709C21.8833 13.3709 21.7199 13.207 21.7338 13.0435C21.7524 12.8239 21.9044 12.71 21.9044 12.71Z" fill="white"/>
<path fill-rule="evenodd" clip-rule="evenodd" d="M22.0142 13.0444C22.0166 13.1742 21.8812 13.2807 21.8812 13.2807C21.8812 13.2807 21.7723 13.1573 21.7744 13.0367C21.7766 12.9163 21.9045 12.7931 21.9045 12.7931C21.9045 12.7931 22.0117 12.9146 22.0142 13.0444Z" fill="white"/>
<path fill-rule="evenodd" clip-rule="evenodd" d="M15.5155 15.5452C15.5155 15.5452 15.2932 15.5005 15.0846 15.7717C14.7566 16.1974 15.1399 16.3756 15.1399 16.3756C15.1399 16.3756 15.0989 16.1108 15.2099 16.0069C15.3538 15.8719 15.5588 15.9439 15.6863 16.0305C15.814 16.1172 15.8716 16.174 15.9022 16.1959C15.9329 16.2177 16.0038 16.1937 16.0311 16.1877C16.0585 16.1819 16.1024 16.1663 16.1108 16.1731C16.1193 16.1798 16.036 16.333 15.8065 16.499C15.577 16.6648 15.1493 16.8229 14.939 16.906C14.7289 16.9894 14.2442 17.2347 13.9879 17.5892C13.7317 17.9435 13.91 18.2705 13.91 18.2705C13.91 18.2705 13.8304 18.3082 13.7812 18.3422C13.7319 18.3763 13.7148 18.4039 13.7148 18.4039L13.86 18.468C13.86 18.468 13.8822 18.4397 13.8983 18.4249C13.9143 18.4103 13.9664 18.3784 13.9664 18.3784C13.9664 18.3784 14.1111 18.5603 14.3475 18.6233C14.558 18.6794 14.8764 18.5862 15.0579 18.3067C15.2326 18.038 15.1435 17.9821 15.2934 17.7492C15.4435 17.5166 15.6874 17.3435 15.6874 17.3435C15.6874 17.3435 15.4318 17.2929 15.2127 17.5035C15.0596 17.6509 15.0327 17.6878 15.0301 17.6967C15.0316 17.6982 15.0327 17.6991 15.0327 17.6991C15.0327 17.6991 15.0293 17.7004 15.0301 17.6967C15.0103 17.6766 14.8615 17.5371 14.6526 17.61C14.4278 17.6886 14.3992 17.9348 14.3992 17.9348C14.3992 17.9348 14.6447 17.6937 14.772 17.9864C14.8367 18.1348 14.5788 18.2627 14.5788 18.2627C14.5788 18.2627 14.2939 18.3716 14.1833 18.0249C14.0727 17.6783 14.7536 17.2886 15.1634 17.1595C15.5729 17.0303 16.1005 16.7559 16.2423 16.5223C16.417 16.2348 16.4477 16.0716 16.436 16.0823C16.436 16.0823 16.9563 15.9626 17.1602 15.4396C17.3644 14.9167 17.4946 14.2963 17.6895 14.0469C17.8616 13.8267 18.0483 13.6455 18.3092 13.8233C18.6241 14.0377 18.3164 14.3665 18.1905 14.3359C18.0645 14.3053 17.9919 14.2406 18.0013 14.1189C18.0073 14.0413 18.0792 13.9841 18.0792 13.9841C18.0792 13.9841 17.8557 14.0161 17.7824 14.2247C17.6934 14.4784 17.8958 14.6146 17.8958 14.6146C17.8958 14.6146 17.7833 14.708 17.6708 14.8796C17.5279 15.0975 17.5973 15.282 17.5973 15.282C17.5973 15.282 17.817 14.9679 17.974 14.858C18.1593 14.7282 18.4125 14.7063 18.5569 14.5418C18.7012 14.3773 18.9295 14.1373 18.7384 13.7684C18.5473 13.3997 18.101 13.3723 17.8347 13.5184C17.5685 13.6647 17.318 13.994 17.1871 14.3535C17.0562 14.713 16.929 15.2509 16.777 15.4662C16.6247 15.6815 16.5086 15.7518 16.5086 15.7518C16.5086 15.7518 16.4838 15.7254 16.5083 15.665C16.5329 15.6046 16.5107 15.5369 16.4885 15.5217C16.4663 15.5065 16.2197 15.2875 16.2009 15.1224C16.1823 14.9574 16.2353 14.8488 16.3892 14.8057C16.5431 14.7627 16.6134 14.786 16.6134 14.786C16.6134 14.786 16.4757 14.5844 16.2568 14.638C16.038 14.6913 15.8526 14.9287 15.8249 15.0457C15.7971 15.1628 15.8112 15.2263 15.8112 15.2263L15.5398 15.2772L15.5163 15.5459L15.5155 15.5452ZM16.0866 15.5523C16.2145 15.6543 16.2212 15.8859 16.2212 15.8859C16.2212 15.8859 15.9822 15.9096 15.8483 15.7704C15.7143 15.6309 15.7279 15.448 15.7279 15.448C15.7279 15.448 15.9148 15.4152 16.0869 15.5523H16.0866Z" fill="white"/>
<path fill-rule="evenodd" clip-rule="evenodd" d="M15.896 15.7572C15.9885 15.8483 16.1585 15.8223 16.1585 15.8223C16.1585 15.8223 16.1437 15.6582 16.0549 15.5768C15.9661 15.4956 15.7891 15.5044 15.7891 15.5044C15.7891 15.5044 15.8036 15.6662 15.896 15.7572Z" fill="white"/>
<path fill-rule="evenodd" clip-rule="evenodd" d="M28.1342 27.6804C28.1032 27.6367 28.0554 27.6168 28.0127 27.6123C27.9219 27.6024 27.834 27.6481 27.834 27.6481C27.834 27.6481 27.8876 27.6697 27.9269 27.6982C27.9661 27.7269 28.002 27.7843 27.9768 27.8344C27.9518 27.8846 27.866 27.8916 27.8267 27.8559C27.797 27.8289 27.762 27.7348 27.7552 27.6121C27.7528 27.5712 27.7481 27.508 27.7552 27.4685C27.7838 27.3109 27.8017 27.1673 27.7445 26.9557C27.6873 26.744 27.4157 26.6294 27.4157 26.6294C27.4157 26.6294 27.4443 26.6187 27.4157 26.4107C27.3869 26.2027 27.1868 26.0448 27.1046 26.009C27.0224 25.9732 26.8112 25.8727 26.7113 25.7973C26.6111 25.7219 26.5648 25.6144 26.6291 25.5643C26.6933 25.5141 26.7365 25.5392 26.7685 25.5893C26.8007 25.6397 26.7758 25.7543 26.7758 25.7543C26.7758 25.7543 26.9807 25.6431 26.9043 25.4601C26.8355 25.2952 26.5825 25.2568 26.454 25.428C26.3254 25.599 26.4181 25.7686 26.4181 25.7686C26.4181 25.7686 26.3788 25.8057 26.3716 25.8404C26.3645 25.8751 26.3859 25.9265 26.3859 25.9265C26.3859 25.9265 26.2751 25.9696 26.2894 26.07C26.3069 26.1919 26.4288 26.1705 26.4288 26.1705C26.4288 26.1705 26.4181 26.2183 26.4574 26.2674C26.4969 26.3164 26.5718 26.3031 26.5718 26.3031C26.5718 26.3031 26.6244 26.449 26.7183 26.4824C26.843 26.5268 26.9327 26.436 26.9327 26.436C26.9327 26.436 26.8362 26.4145 26.811 26.3858C26.7365 26.3001 26.767 26.2446 26.8362 26.1958C26.9052 26.1467 27.0245 26.16 27.1294 26.2746C27.1757 26.3254 27.1975 26.3878 27.2009 26.4325C27.2049 26.4889 27.1829 26.5221 27.1829 26.5221C27.1829 26.5221 27.1625 26.5204 27.133 26.515C27.1093 26.5107 27.08 26.5022 27.0471 26.5043C26.9733 26.509 26.9052 26.6048 26.7397 26.6262C26.574 26.6478 26.4788 26.5401 26.4788 26.5401C26.4788 26.5401 26.4322 26.6797 26.511 26.7661C26.6096 26.8738 26.722 26.8953 26.722 26.8953L26.6039 27.1069L26.8398 27.1106C26.8398 27.1106 26.7982 27.2635 26.8469 27.3724C26.9069 27.506 27.0149 27.505 27.0149 27.505C27.0149 27.505 27.0173 27.5144 27.0113 27.4619C27.0051 27.4094 27.0087 27.3376 27.0685 27.2432C27.1206 27.1607 27.2425 27.0949 27.2831 27.0746C27.3234 27.0542 27.3546 27.0064 27.3653 26.9705C27.376 26.9347 27.3939 26.8953 27.3939 26.8953C27.3939 26.8953 27.5333 26.9216 27.5726 27.0709C27.6119 27.2205 27.5763 27.292 27.5261 27.3434C27.4759 27.3948 27.3913 27.4128 27.3367 27.3434C27.2818 27.274 27.3403 27.1605 27.3403 27.1605C27.3403 27.1605 27.3151 27.1665 27.2938 27.1785C27.2722 27.1905 27.1806 27.2622 27.1864 27.3651C27.1923 27.4679 27.2615 27.5446 27.2615 27.5446C27.2615 27.5446 27.2186 27.5874 27.2293 27.6521C27.2412 27.7245 27.3008 27.7383 27.3008 27.7383C27.3008 27.7383 27.2325 27.8347 27.3008 27.9032C27.3817 27.9846 27.4866 27.8996 27.4866 27.8996C27.4866 27.8996 27.5069 27.9521 27.5508 27.9606C27.5797 27.9662 27.6333 27.957 27.6333 27.957C27.6333 27.957 27.6617 28.0071 27.7405 28.0575C27.8192 28.1076 27.9444 28.1042 28.0193 28.0791C28.0597 28.0656 28.1271 28.0138 28.1624 27.9321C28.1927 27.8619 28.2002 27.7749 28.1338 27.6811L28.1342 27.6804ZM27.1153 26.9501C26.9867 27.0362 26.84 26.9861 26.84 26.9861C26.84 26.9861 26.8906 26.8297 26.9758 26.7851C27.0999 26.7207 27.237 26.7601 27.237 26.7601C27.237 26.7601 27.1904 26.9 27.1153 26.9501Z" fill="white"/>
<path fill-rule="evenodd" clip-rule="evenodd" d="M26.9866 26.8102C26.9315 26.8436 26.8828 26.9608 26.8828 26.9608C26.8828 26.9608 27.0056 26.9868 27.0758 26.9428C27.1546 26.8936 27.1867 26.7849 27.1867 26.7849C27.1867 26.7849 27.0709 26.7586 26.9866 26.81V26.8102Z" fill="white"/>
<path fill-rule="evenodd" clip-rule="evenodd" d="M15.9421 25.171C16.044 25.2137 16.2336 25.3469 16.1817 25.5406C16.1298 25.7343 15.9278 25.8167 15.7314 25.8094C15.5347 25.8024 15.3773 25.6408 15.3773 25.6408L15.3487 25.6732C15.3487 25.6732 15.4649 25.77 15.5561 25.8058C15.6321 25.8356 15.8223 25.8829 15.9062 25.9313C15.9901 25.9798 16.0403 26.1072 16.0563 26.1644C16.0724 26.2218 16.2028 26.5732 16.2028 26.5732C16.2028 26.5732 15.7559 26.4299 15.6417 26.3795C15.5287 26.33 15.5166 26.2163 15.4414 26.0172C15.3662 25.8182 15.2734 25.7518 15.2734 25.7518L15.2484 25.7805C15.2484 25.7805 15.3861 25.9114 15.42 26.0927C15.4587 26.2983 15.3861 26.4478 15.2699 26.541C15.1538 26.6342 14.9501 26.6111 14.841 26.4478C14.7319 26.2846 14.7767 26.1179 14.7767 26.1179C14.7767 26.1179 14.9375 26.2919 15.0878 26.1824C15.3323 26.0044 15.1773 25.8489 15.1773 25.8489C15.1773 25.8489 15.145 25.8793 15.1094 25.8883C15.0737 25.8973 15.0272 25.8596 15.0272 25.8596C15.0272 25.8596 15.0504 25.854 15.0771 25.8416C15.104 25.8289 15.1307 25.8022 15.1307 25.8022C15.1307 25.8022 15.1271 25.7842 15.0592 25.752C14.9913 25.7197 14.9484 25.7233 14.9484 25.7233C14.9484 25.7233 15.0216 25.8094 14.9411 25.8596C14.9074 25.8806 14.7803 25.8613 14.7731 25.7591C14.7658 25.6569 14.8642 25.6372 14.9554 25.6336C15.0466 25.6299 15.195 25.7377 15.195 25.7377L15.2272 25.7053C15.2272 25.7053 15.1414 25.6282 15.1094 25.6158C15.0771 25.6031 15.0289 25.5747 15.0165 25.5547C15.0039 25.535 14.902 25.3144 14.902 25.3144C14.902 25.3144 15.1361 25.4129 15.1559 25.4255C15.1756 25.438 15.1882 25.465 15.2095 25.5151C15.2309 25.5652 15.3024 25.6226 15.3024 25.6226L15.3346 25.5903C15.3346 25.5903 15.2257 25.4594 15.2204 25.3285C15.2142 25.1745 15.3152 25.1672 15.3492 25.1672C15.3831 25.1672 15.4762 25.2407 15.4457 25.3321C15.4153 25.4236 15.3135 25.3429 15.3135 25.3429C15.3135 25.3429 15.3171 25.3896 15.3348 25.436C15.3528 25.4825 15.3993 25.5258 15.3993 25.5258C15.3993 25.5258 15.4185 25.5082 15.4279 25.4864C15.441 25.4558 15.4459 25.4183 15.4459 25.4183C15.4459 25.4183 15.4745 25.4236 15.4781 25.4864C15.4818 25.5492 15.4459 25.5725 15.4459 25.5725C15.4459 25.5725 15.571 25.6871 15.7284 25.5294C15.9161 25.3411 15.6961 25.1601 15.6961 25.1601C15.6961 25.1601 15.823 25.1207 15.9427 25.1708L15.9421 25.171Z" fill="white"/>
<path fill-rule="evenodd" clip-rule="evenodd" d="M15.6494 27.9316C15.6846 28.0132 15.7521 28.065 15.7924 28.0785C15.8676 28.1036 15.9925 28.1072 16.0713 28.0569C16.1501 28.0068 16.1785 27.9564 16.1785 27.9564C16.1785 27.9564 16.2318 27.9656 16.2607 27.9601C16.3049 27.9517 16.3252 27.899 16.3252 27.899C16.3252 27.899 16.4298 27.984 16.5109 27.9026C16.5792 27.8341 16.5109 27.7377 16.5109 27.7377C16.5109 27.7377 16.5705 27.724 16.5824 27.6516C16.5931 27.5871 16.5502 27.544 16.5502 27.544C16.5502 27.544 16.6194 27.4673 16.6254 27.3645C16.6313 27.2617 16.5395 27.1899 16.5182 27.1779C16.4968 27.1661 16.4718 27.1599 16.4718 27.1599C16.4718 27.1599 16.5301 27.2734 16.4753 27.3429C16.4204 27.4123 16.336 27.3943 16.2859 27.3429C16.2359 27.2914 16.2 27.2197 16.2393 27.0704C16.2786 26.9208 16.418 26.8947 16.418 26.8947C16.418 26.8947 16.436 26.9341 16.4466 26.9699C16.4573 27.0059 16.4883 27.0536 16.5289 27.074C16.5692 27.0943 16.6913 27.1601 16.7432 27.2426C16.8028 27.3371 16.8064 27.4088 16.8005 27.4613C16.7945 27.5138 16.7968 27.5044 16.7968 27.5044C16.7968 27.5044 16.9049 27.5052 16.9649 27.3718C17.0138 27.2629 16.9721 27.11 16.9721 27.11L17.2081 27.1063L17.09 26.8947C17.09 26.8947 17.2023 26.8735 17.3009 26.7655C17.3795 26.6794 17.3332 26.5395 17.3332 26.5395C17.3332 26.5395 17.238 26.647 17.0723 26.6256C16.9066 26.604 16.8387 26.5084 16.7648 26.5037C16.7319 26.5016 16.7027 26.5101 16.679 26.5144C16.6493 26.5198 16.629 26.5215 16.629 26.5215C16.629 26.5215 16.607 26.4883 16.6111 26.432C16.6143 26.3872 16.6363 26.3248 16.6826 26.2741C16.7874 26.1595 16.9066 26.1462 16.9758 26.1952C17.0447 26.2443 17.0755 26.2998 17.0007 26.3852C16.9758 26.414 16.879 26.4354 16.879 26.4354C16.879 26.4354 16.9689 26.5264 17.0936 26.4819C17.1878 26.4484 17.2401 26.3026 17.2401 26.3026C17.2401 26.3026 17.315 26.3156 17.3545 26.2668C17.3938 26.2177 17.3832 26.1699 17.3832 26.1699C17.3832 26.1699 17.5053 26.1914 17.5226 26.0695C17.5369 25.969 17.4261 25.9259 17.4261 25.9259C17.4261 25.9259 17.4474 25.8745 17.4404 25.8398C17.4333 25.8051 17.3938 25.7681 17.3938 25.7681C17.3938 25.7681 17.4869 25.5984 17.358 25.4274C17.2292 25.2565 16.9764 25.2946 16.9076 25.4596C16.8314 25.6425 17.0364 25.7537 17.0364 25.7537C17.0364 25.7537 17.0112 25.6391 17.0434 25.5887C17.0757 25.5386 17.1186 25.5133 17.1829 25.5637C17.2471 25.6138 17.2008 25.7214 17.1007 25.7968C17.0005 25.8722 16.7898 25.9724 16.7074 26.0084C16.6252 26.0444 16.4251 26.2021 16.3965 26.4101C16.3679 26.6181 16.3965 26.6288 16.3965 26.6288C16.3965 26.6288 16.1247 26.7434 16.0676 26.9551C16.0104 27.1668 16.0284 27.3103 16.057 27.468C16.064 27.5074 16.0593 27.5706 16.057 27.6115C16.0501 27.7343 16.0149 27.8285 15.9854 27.8553C15.9462 27.8911 15.8603 27.884 15.8353 27.8339C15.8104 27.7837 15.846 27.7263 15.8853 27.6976C15.9246 27.6689 15.9782 27.6475 15.9782 27.6475C15.9782 27.6475 15.89 27.6016 15.7995 27.6117C15.7568 27.6162 15.7089 27.6359 15.678 27.6798C15.6116 27.7737 15.619 27.8607 15.6494 27.9309V27.9316ZM16.5754 26.7602C16.5754 26.7602 16.7123 26.7207 16.8363 26.7852C16.9215 26.8296 16.9721 26.9862 16.9721 26.9862C16.9721 26.9862 16.8256 27.0363 16.6969 26.9502C16.6217 26.9 16.5754 26.7602 16.5754 26.7602Z" fill="white"/>
<path fill-rule="evenodd" clip-rule="evenodd" d="M16.826 26.8102C16.8811 26.8436 16.9298 26.9608 16.9298 26.9608C16.9298 26.9608 16.807 26.9868 16.7368 26.9428C16.658 26.8936 16.626 26.7849 16.626 26.7849C16.626 26.7849 16.7415 26.7586 16.8263 26.81L16.826 26.8102Z" fill="white"/>
<path fill-rule="evenodd" clip-rule="evenodd" d="M17.2509 25.56C17.2509 25.56 16.6609 25.0612 15.9819 23.8204C15.601 23.1242 15.3298 21.9643 15.3563 20.8508C15.3883 19.5108 15.8367 18.4883 16.3357 17.7162C17.1488 16.4582 18.1551 15.8905 18.1551 15.8905C18.1551 15.8905 15.7946 17.397 15.5277 20.5389C15.2546 23.7553 17.3079 25.5206 17.3079 25.5206L17.2506 25.56H17.2509Z" fill="white"/>
<path fill-rule="evenodd" clip-rule="evenodd" d="M26.5015 25.5206C26.5015 25.5206 28.555 23.7553 28.2819 20.5389C28.015 17.397 25.6543 15.8905 25.6543 15.8905C25.6543 15.8905 26.6608 16.4582 27.4737 17.7162C27.9729 18.4883 28.4215 19.5108 28.4533 20.8508C28.4798 21.9643 28.2089 23.1244 27.8277 23.8204C27.1485 25.0612 26.5588 25.56 26.5588 25.56L26.5013 25.5206H26.5015Z" fill="white"/>
<path fill-rule="evenodd" clip-rule="evenodd" d="M15.793 27.7042C14.0944 26.0739 13.0364 23.7772 13.0364 21.2323C13.0364 16.2864 17.0329 12.2767 21.9624 12.2767C26.8922 12.2767 30.8885 16.2862 30.8885 21.2323C30.8885 23.8151 29.7989 26.1423 28.0557 27.7768C28.0751 27.7998 28.0946 27.8229 28.1138 27.8463C29.8764 26.1952 30.9786 23.8432 30.9786 21.2323C30.9786 16.2363 26.942 12.1863 21.9624 12.1863C16.9829 12.1863 12.9463 16.2363 12.9463 21.2323C12.9463 23.8149 14.0248 26.1444 15.7545 27.7927C15.7684 27.806 15.8132 27.7239 15.7927 27.7042H15.793Z" fill="white"/>
<path fill-rule="evenodd" clip-rule="evenodd" d="M15.7118 27.9381C15.7306 27.9139 15.7496 27.8899 15.769 27.8659C14.0051 26.2074 12.9029 23.8491 12.9029 21.2321C12.9029 16.2118 16.9592 12.1421 21.9628 12.1421C26.9665 12.1421 31.0228 16.2118 31.0228 21.2321C31.0228 23.8564 29.9144 26.2209 28.1417 27.8801C28.1545 27.8961 28.1041 27.9902 28.1167 28.0062C28.1229 28.0144 28.1927 27.9443 28.1987 27.9523C29.9923 26.2759 31.1144 23.8853 31.1144 21.2321C31.1144 16.1613 27.0171 12.0504 21.9628 12.0504C16.9086 12.0504 12.8115 16.1613 12.8115 21.2321C12.8115 23.878 13.927 26.2624 15.7118 27.9381Z" fill="white"/>
<path d="M20.7058 25.2842H20.6456H20.7058C20.8709 25.2844 20.9973 25.318 21.0846 25.387C21.1813 25.4628 21.2439 25.5627 21.2712 25.6861C21.2798 25.7257 21.2842 25.7675 21.2842 25.8112C21.2842 25.8712 21.2757 25.9275 21.2578 25.98C21.2336 26.0513 21.1926 26.1143 21.1352 26.1692C21.0773 26.224 21.0107 26.2624 20.9358 26.2844C20.88 26.3005 20.8021 26.3088 20.7007 26.3088H20.6509H20.7007H20.6509C20.5495 26.3088 20.4714 26.3007 20.4158 26.2844C20.3407 26.2624 20.2741 26.2242 20.2164 26.1692C20.159 26.1145 20.1178 26.0513 20.0939 25.98C20.0759 25.9275 20.0674 25.8714 20.0674 25.8112C20.0674 25.7675 20.0717 25.7255 20.0804 25.6861C20.1077 25.5629 20.1703 25.4631 20.267 25.387C20.3544 25.318 20.4808 25.2844 20.6458 25.2842H20.706H20.7058Z" fill="white"/>
<path d="M20.6763 25.4343H20.7055C20.8311 25.4343 20.922 25.4579 20.978 25.504C21.0668 25.5776 21.1106 25.6745 21.1106 25.797C21.1106 25.8606 21.099 25.9166 21.076 25.9663C21.0531 26.0157 21.0183 26.0577 20.972 26.092C20.9124 26.1357 20.8219 26.1582 20.7004 26.1582H20.6524H20.7004H20.6524C20.5309 26.1582 20.4403 26.1357 20.3808 26.092C20.3344 26.058 20.2996 26.0157 20.2768 25.9663C20.2537 25.9163 20.2422 25.8604 20.2422 25.797C20.2424 25.6743 20.2862 25.5774 20.3748 25.504C20.4307 25.4577 20.5217 25.4343 20.6472 25.4343H20.6763Z" fill="#00755B"/>
<path d="M25.6018 26.2685L25.6041 25.3456L25.6009 25.3341C25.5998 25.3326 25.5962 25.3291 25.5913 25.3266L25.5635 25.3086L25.5605 25.3066V25.2865H25.8695V25.3066L25.8403 25.3263C25.8353 25.3298 25.8321 25.3332 25.8311 25.3356L25.8292 26.2552L25.8332 26.2698C25.8351 26.2724 25.8379 26.2756 25.8409 26.2777L25.8674 26.2959L25.8702 26.2979V26.3178H25.5612V26.2979L25.5915 26.278C25.5977 26.2743 25.6011 26.2709 25.6018 26.269V26.2685Z" fill="white"/>
<path d="M25.0691 25.8891L25.0705 25.3355C25.0716 25.3334 25.0748 25.3297 25.0795 25.3263L25.109 25.3066V25.2863H24.8V25.3066L24.803 25.3085L24.8306 25.3267C24.8355 25.3293 24.8389 25.3325 24.8399 25.3342L24.8431 25.3458L24.8404 26.2649C24.8395 26.2668 24.8361 26.2702 24.8301 26.2739L24.7998 26.2938V26.3137H25.1088V26.2938L25.106 26.2918L25.0795 26.2736C25.0765 26.2715 25.0735 26.2683 25.0718 26.2657L25.0678 26.2511L25.0682 26.1408C25.1946 26.0095 25.3693 25.833 25.4944 25.6956V25.716H25.5418V25.3752L25.0688 25.8889L25.0691 25.8891Z" fill="white"/>
<path d="M18.4399 26.2853V26.3082H18.1478V26.2853L18.1831 26.2517L18.1824 25.3493L18.1807 25.336L18.1724 25.3262L18.1463 25.3065L18.1436 25.3043V25.281L18.3987 25.2825L18.8712 25.2808L19.0017 25.492L18.9818 25.5001L18.9793 25.5012L18.9391 25.4708C18.9304 25.4646 18.9238 25.4605 18.9191 25.4588C18.9148 25.4571 18.9084 25.456 18.9003 25.456L18.3959 25.4532L18.4013 26.2514L18.4397 26.2851L18.4399 26.2853Z" fill="white"/>
<path d="M22.3661 26.2632L22.3638 25.3438L22.3663 25.3322C22.3672 25.3305 22.3702 25.3273 22.3742 25.3247L22.3973 25.3067L22.3999 25.3046V25.2844H22.1426V25.3046L22.1669 25.3243C22.171 25.3279 22.1738 25.3313 22.1746 25.3335L22.1765 26.2495L22.1733 26.2641C22.1718 26.2667 22.1695 26.2699 22.1669 26.272L22.1449 26.2902L22.1426 26.2922V26.3121H22.3999V26.2919L22.3747 26.272C22.3696 26.2684 22.3668 26.265 22.3661 26.263V26.2632Z" fill="white"/>
<path d="M22.9955 26.2922V26.3121H23.2535V26.2922L23.2223 26.263L23.2191 25.3438L23.2206 25.3324L23.228 25.3238L23.2509 25.3067L23.2535 25.3048V25.2844H22.9955V25.3046L23.0207 25.3245C23.029 25.3311 23.0318 25.3367 23.0318 25.3435V25.6557H22.4854L22.3701 25.8393L22.3876 25.8463L22.3898 25.8472L22.4252 25.8209C22.4329 25.8155 22.4389 25.8119 22.4429 25.8106C22.4468 25.8091 22.4523 25.808 22.4596 25.808H23.0318L23.0293 26.2626L22.9955 26.2919V26.2922Z" fill="white"/>
<path d="M24.6889 26.2644L24.6866 25.3451L24.6894 25.3335C24.6902 25.332 24.6932 25.3286 24.6971 25.326L24.7203 25.3078L24.7229 25.3059V25.2858H24.4658V25.3059L24.4902 25.3256C24.4942 25.329 24.4968 25.3327 24.4976 25.3348L24.4998 26.2509L24.4966 26.2654C24.4951 26.268 24.4927 26.2712 24.4899 26.2734L24.468 26.2916L24.4658 26.2935V26.3134H24.7229V26.2935L24.6977 26.2736C24.6926 26.2697 24.6898 26.2663 24.6889 26.2646V26.2644Z" fill="white"/>
<path fill-rule="evenodd" clip-rule="evenodd" d="M23.4205 26.2792L23.3867 26.2959V26.3126L23.5234 26.3124L23.934 26.312C24.0341 26.312 24.1505 26.3013 24.2372 26.2542C24.3034 26.2182 24.3546 26.17 24.3822 26.1068L24.3834 26.1072L24.3907 26.0838C24.3909 26.0834 24.3909 26.0832 24.3911 26.0828L24.3982 26.0609L24.3969 26.0605C24.4003 26.044 24.4022 26.0271 24.4022 26.0101C24.4022 25.9763 24.395 25.9431 24.3798 25.9118C24.358 25.8673 24.3217 25.8313 24.2777 25.8023C24.2293 25.7704 24.1742 25.7492 24.1155 25.7374C24.0781 25.7299 24.0384 25.7265 23.9995 25.7252L23.7134 25.7278C23.7102 25.7308 23.7072 25.7338 23.7049 25.737C23.7027 25.7402 23.7014 25.7436 23.7012 25.7479C23.7014 25.7805 23.7014 25.818 23.7017 25.8512C23.7777 25.8512 23.8537 25.8514 23.9295 25.8514C23.9895 25.8514 24.0698 25.8563 24.1223 25.8829C24.1503 25.8972 24.175 25.9159 24.1915 25.9405C24.2075 25.9643 24.2141 25.9902 24.2141 26.0176C24.2141 26.0774 24.1817 26.1198 24.1255 26.152C24.0762 26.1802 23.9912 26.1847 23.9333 26.1847H23.7079L23.5253 26.1852L23.4736 26.1854L23.42 26.1856L23.4205 26.279V26.2792Z" fill="white"/>
<path d="M23.6482 25.3263L23.6463 26.0821L23.6488 26.0915C23.6497 26.0928 23.6527 26.0956 23.6569 26.0977L23.6806 26.1125L23.6832 26.114V26.1307H23.4203V26.114L23.4451 26.0977C23.4494 26.0949 23.452 26.0921 23.453 26.0902L23.4547 25.337L23.4515 25.325C23.45 25.3228 23.4475 25.3203 23.4449 25.3183L23.4223 25.3035L23.4199 25.302V25.2858H23.6826V25.302L23.6569 25.3183C23.6518 25.3213 23.6488 25.3241 23.6482 25.3258V25.3263Z" fill="white"/>
<path fill-rule="evenodd" clip-rule="evenodd" d="M19.0642 25.3156L19.0303 25.2989V25.282L19.1669 25.2822L19.5771 25.2826C19.677 25.2826 19.7936 25.2933 19.8801 25.3405C19.9463 25.3765 19.9975 25.4247 20.0251 25.4879L20.0266 25.4874L20.0338 25.5108C20.034 25.5112 20.034 25.5114 20.0343 25.5119L20.0413 25.5337L20.04 25.5341C20.0434 25.5506 20.0451 25.5676 20.0451 25.5845C20.0451 25.6183 20.0381 25.6515 20.0227 25.6828C20.0009 25.7272 19.9644 25.7634 19.9207 25.7923C19.8722 25.8242 19.8171 25.8454 19.7582 25.8572C19.7208 25.8649 19.6811 25.8679 19.6422 25.8694L19.3561 25.8668C19.3529 25.8636 19.3499 25.8608 19.3476 25.8576C19.3454 25.8546 19.3441 25.8512 19.3439 25.8469C19.3441 25.8143 19.3441 25.7769 19.3441 25.7436C19.4202 25.7436 19.4962 25.7434 19.5722 25.7434C19.632 25.7434 19.7125 25.7385 19.765 25.7117C19.793 25.6974 19.8177 25.6787 19.8342 25.6541C19.8502 25.6303 19.8568 25.6044 19.8568 25.577C19.8568 25.5172 19.8246 25.4748 19.7682 25.4424C19.7189 25.4142 19.6339 25.4097 19.576 25.4097H19.3506L19.1684 25.4092L19.1165 25.409L19.0632 25.4088L19.0636 25.3152L19.0642 25.3156Z" fill="white"/>
<path d="M19.2908 26.2688L19.2888 25.513L19.2916 25.5036C19.2925 25.5023 19.2955 25.4995 19.2997 25.4974L19.3232 25.4826L19.3258 25.4811V25.4646H19.0629V25.4811L19.0877 25.4974C19.0918 25.5002 19.0945 25.5032 19.0954 25.5049L19.0971 26.2581L19.0939 26.2701C19.0924 26.2722 19.0898 26.2748 19.0873 26.2767L19.0648 26.2915L19.0625 26.293V26.3093H19.3253V26.2928L19.2997 26.2765C19.2946 26.2733 19.2916 26.2705 19.291 26.269L19.2908 26.2688Z" fill="white"/>
<path fill-rule="evenodd" clip-rule="evenodd" d="M21.3693 25.2805L21.3215 25.2807V25.4585H21.3418L21.3617 25.4392C21.3651 25.436 21.3687 25.4341 21.3708 25.4334L21.4802 25.4298L21.531 25.43H21.7063C21.7486 25.43 21.8126 25.4341 21.8481 25.4592C21.8897 25.4885 21.9113 25.5258 21.9113 25.5774C21.9113 25.6012 21.9068 25.6241 21.8952 25.6451C21.8839 25.6663 21.8662 25.6828 21.8461 25.6957C21.8203 25.7119 21.7842 25.7192 21.7498 25.722L21.5715 25.7239C21.5564 25.7239 21.5412 25.7239 21.5259 25.7239H21.5126V25.7372C21.5126 25.7426 21.5126 25.7477 21.5124 25.7546C21.5124 25.7779 21.5124 25.7991 21.5124 25.8203C21.5124 25.8257 21.5124 25.8311 21.5124 25.8366C21.5124 25.8441 21.5124 25.8501 21.5124 25.8561V25.8694H21.5259C21.541 25.8694 21.5562 25.8694 21.5713 25.8694L21.7498 25.8715C21.7842 25.8745 21.8203 25.8816 21.8459 25.8979C21.8662 25.9108 21.8837 25.927 21.8952 25.9482C21.9066 25.9695 21.9113 25.9922 21.9113 26.0159C21.9113 26.0676 21.8895 26.1048 21.8481 26.1344C21.8126 26.1595 21.7486 26.1635 21.7063 26.1635H21.531L21.3762 26.164C21.3717 26.164 21.3943 26.164 21.3898 26.164L21.335 26.1631L21.3232 26.161C21.3217 26.1603 21.3185 26.158 21.3157 26.1548L21.2965 26.1357L21.2754 26.1348V26.3133L21.3266 26.3135C21.3371 26.3135 21.2848 26.3135 21.2952 26.3135L21.4148 26.3133L21.7067 26.3131C21.7885 26.3129 21.8805 26.3019 21.9499 26.2552C22.0402 26.1944 22.084 26.1111 22.084 26.0095C22.084 25.9755 22.0782 25.9418 22.0658 25.9099C22.0483 25.8656 22.0191 25.8289 21.9811 25.7981C22.0191 25.7649 22.0486 25.728 22.0661 25.6839C22.0787 25.6522 22.0844 25.6183 22.0844 25.5843C22.0844 25.4791 22.0377 25.3975 21.9503 25.3385C21.8809 25.2918 21.7889 25.2809 21.7073 25.2807L21.4155 25.2803H21.335C21.3234 25.2803 21.3813 25.2803 21.3698 25.2803L21.3693 25.2805Z" fill="white"/>
<path d="M25.3728 25.3508L25.4708 25.2518L25.5234 25.2329L25.5296 25.2113L25.2242 25.2139L25.2189 25.2329L25.2548 25.2531L25.167 25.3501L25.3728 25.3508Z" fill="white"/>
<path d="M21.3672 9.65918L21.8944 9.13496L22.7771 10.0157L22.7803 10.0244C22.7795 10.0339 22.7592 10.0497 22.6874 10.0501H22.6723V10.0992H23.4896L22.7824 9.39396C22.7701 9.38153 22.8337 9.4428 22.8209 9.43038L22.4107 9.04048L22.2008 8.82925L23.1824 7.85022H22.3652V7.89928H22.3804C22.4521 7.89949 22.4724 7.91556 22.4733 7.92477L22.4649 7.94855C22.4615 7.95691 22.4592 7.95819 22.453 7.96162L21.8944 8.52162L21.3358 7.96162C21.3296 7.95819 21.3273 7.95691 21.3239 7.94855L21.3155 7.92477C21.3164 7.91556 21.3367 7.89949 21.4084 7.89928H21.4236V7.85022H20.6064L21.588 8.82925L21.3781 9.04048L21.0922 9.30655L21.3672 9.65918ZM21.3132 8.55525L21.2752 8.51904L20.9135 8.15485L21.2752 8.51904L21.3132 8.55525ZM22.8209 9.43038L22.4107 9.04048L22.2008 8.82925L23.1824 7.85022H22.3652V7.89928H22.3804C22.4521 7.89949 22.4724 7.91556 22.4733 7.92477L22.4649 7.94855C22.4615 7.95691 22.4592 7.95819 22.453 7.96162L21.8944 8.52162L21.3358 7.96162C21.3296 7.95819 21.3273 7.95691 21.3239 7.94855L21.3155 7.92477C21.3164 7.91556 21.3367 7.89949 21.4084 7.89928H21.4236V7.85022H20.6064L21.588 8.82925L21.3781 9.04048L21.0491 9.34683L21.3252 9.70095L21.8944 9.13496L22.7771 10.0157L22.7803 10.0244C22.7795 10.0339 22.7592 10.0497 22.6874 10.0501H22.6723V10.0992H23.4896L22.7824 9.39396C22.7701 9.38153 22.8337 9.4428 22.8209 9.43038Z" fill="white"/>
<path d="M18.7035 10.0499C18.6785 10.0441 18.6691 10.0357 18.6668 10.0278L19.7628 8.5929L19.5288 8.27991L18.1426 10.1021H18.7464V10.0531H18.7353C18.7227 10.0531 18.7112 10.0518 18.7035 10.0499Z" fill="white"/>
<path d="M19.6108 8.17208L19.8813 8.53348L20.1881 8.9206L19.6806 8.92103L19.4297 9.26679L19.4609 9.28714L19.466 9.29079L19.5256 9.25137C19.5328 9.24665 19.5401 9.24387 19.5452 9.24301C19.551 9.24151 19.5781 9.2413 19.6221 9.24151H20.4285L20.9925 9.99132C20.9971 9.99496 20.9989 9.99624 21.0014 10.0044L21.0076 10.028C21.007 10.0372 20.9918 10.0532 20.938 10.0532H20.9267V10.1023H21.5382L19.8463 7.86316L19.6108 8.17208Z" fill="white"/>
<path d="M28.165 8.24718L28.2028 8.26325L28.2071 8.26518L28.2844 8.21591C28.3104 8.19513 28.3348 8.18506 28.3598 8.18506H29.4176V9.96552L29.4107 9.9953C29.406 10.0024 29.3994 10.0094 29.3958 10.0118L29.3462 10.0523L29.3411 10.0564V10.0998H29.9037V10.0559L29.8463 10.0122L29.8282 9.99144C29.8292 9.99208 29.8277 9.98094 29.8277 9.96552V8.18506H30.7685C30.8082 8.19084 30.82 8.20455 30.8189 8.21591V8.26411H30.8541L31.124 7.85193H28.4161L28.165 8.24718Z" fill="white"/>
<path fill-rule="evenodd" clip-rule="evenodd" d="M24.2183 8.72184V8.76661H24.1318V8.02088L25.0049 9.19186L25.919 7.96582V8.69249H25.8347V8.649L25.0002 9.74221C24.7745 9.45386 24.4925 9.08389 24.2183 8.72205V8.72184Z" fill="white"/>
<path d="M24.0317 9.9927L24.0268 7.98172L24.0326 7.95644C24.0345 7.9528 24.0409 7.94573 24.0499 7.93995L24.1005 7.90031L24.1058 7.89603V7.85168H23.543V7.89603L23.5963 7.9393C23.6051 7.94702 23.6109 7.95451 23.613 7.95944L23.6175 9.96313L23.6104 9.99505C23.6072 10.0006 23.6017 10.0077 23.5963 10.0124L23.5481 10.052L23.5432 10.0561V10.0996H24.106V10.0559L24.0509 10.0122C24.0398 10.004 24.0334 9.99655 24.0319 9.99248L24.0317 9.9927Z" fill="white"/>
<path d="M26.4152 10.0452C26.3902 10.0392 26.3806 10.0308 26.3784 10.0229L27.4779 8.58371L27.2432 8.26965L25.8525 10.0979H26.4581V10.0488H26.4472C26.4344 10.0488 26.4229 10.0473 26.4152 10.0456V10.0452Z" fill="white"/>
<path d="M27.3258 8.16119L27.5972 8.52366L27.9049 8.91206L27.3958 8.91249L27.1445 9.25911L27.1755 9.27968L27.1808 9.28332L27.2404 9.24369C27.2479 9.23898 27.2549 9.23598 27.26 9.23533C27.266 9.23383 27.2931 9.23362 27.3371 9.23384H28.1462L28.7118 9.986C28.7165 9.98942 28.7182 9.99092 28.7207 9.99906L28.7269 10.0226C28.7265 10.0321 28.7111 10.0481 28.6571 10.0481H28.6458V10.0972H29.259L27.5618 7.8512L27.3256 8.16119H27.3258Z" fill="white"/>
<path d="M26.4205 9.26113L26.4201 7.96225L26.4233 7.93697L26.4395 7.91833L26.4897 7.88106L26.495 7.87699V7.83264H25.9307V7.87656L25.986 7.92005C26.0043 7.9344 26.0103 7.94661 26.0105 7.96161C26.0105 8.29431 26.0073 9.80527 26.008 9.80463C26.4011 9.28619 26.3342 9.38088 26.4203 9.26091L26.4205 9.26113Z" fill="white"/>
<path d="M15.5515 8.68787L15.5498 7.95541C15.5477 7.95049 15.5421 7.94299 15.5332 7.93528L15.4798 7.892V7.84766H16.0429V7.892L16.0375 7.89629L15.9869 7.93592C15.9782 7.9417 15.9718 7.94899 15.9696 7.95241L15.9639 7.97769L15.9626 9.86634C15.9626 9.87084 15.9626 9.84792 15.9626 9.85242V9.96874L15.9683 9.99402C15.9705 9.99745 15.9769 10.0047 15.9856 10.0105L16.0362 10.0502L16.0416 10.0547V10.0988H15.4785V10.0547L15.5319 10.0114C15.5409 10.0039 15.5466 9.99617 15.5486 9.99124L15.5515 8.61803C15.5515 8.59467 15.5515 8.71143 15.5515 8.68808V8.68787Z" fill="white"/>
<path fill-rule="evenodd" clip-rule="evenodd" d="M16.0287 8.81597L16.029 8.69321L16.6554 7.95883H16.62V7.85022H17.214L16.2813 8.94793L17.258 10.0973H16.6791V9.99123H16.7139L16.0285 9.1883L16.0283 8.81661L16.0287 8.81597Z" fill="white"/>
<path d="M13.792 9.27995L13.7905 9.97963C13.7883 9.98477 13.7826 9.99291 13.7738 10.0008L13.7205 10.0467V10.0936H14.2835V10.0467L14.2782 10.042L14.2276 9.99998C14.2188 9.99377 14.2124 9.98627 14.2103 9.98263L14.2045 9.95585L14.2034 8.49652L14.2036 8.01621L14.2094 7.98429C14.2115 7.97979 14.2177 7.9708 14.2267 7.96351L14.2773 7.91317L14.2827 7.90781V7.85168H13.7196V7.90781L13.773 7.96244C13.7819 7.97208 13.7877 7.98172 13.7896 7.98793L13.7918 9.3695L13.7916 9.07129C13.7916 9.00188 13.7918 9.21033 13.7918 9.27974L13.792 9.27995ZM14.4157 8.07341H14.2679H14.4157ZM13.7901 8.0672L13.7903 8.35641L13.7901 8.0672ZM13.5834 8.07363L13.7365 8.07256V8.35298L13.4365 8.3532C13.3427 8.3532 13.205 8.36305 13.1249 8.42518C13.0336 8.49609 12.9815 8.58928 12.9815 8.72039C12.9815 8.7808 12.9921 8.83736 13.018 8.88963C13.0447 8.94361 13.0848 8.98475 13.1303 9.01602C13.2155 9.07472 13.3457 9.08565 13.4427 9.08565C13.5631 9.08543 13.618 9.08758 13.7363 9.08779V9.3575C13.5407 9.36093 13.3276 9.38643 13.1414 9.33565C13.0459 9.30973 12.9567 9.26303 12.8783 9.19319C12.807 9.12956 12.7481 9.05051 12.7128 8.95261C12.6881 8.88406 12.6768 8.811 12.6768 8.73645C12.6768 8.69939 12.6793 8.66233 12.684 8.62548L12.6947 8.57621L12.7081 8.52394C12.7538 8.38555 12.8371 8.2795 12.9443 8.20045C13.0846 8.09719 13.2733 8.07363 13.4356 8.07363L13.7369 8.07341L13.5838 8.07363H13.5834ZM14.2681 8.3532L14.5628 8.35341C14.6565 8.35341 14.7942 8.36326 14.8743 8.42518C14.9655 8.4963 15.0178 8.58928 15.0178 8.7206C15.0178 8.78101 15.0069 8.83757 14.9813 8.88984C14.9546 8.94383 14.9145 8.98496 14.869 9.01624C14.7838 9.07494 14.6535 9.08565 14.5566 9.08565C14.4334 9.08565 14.3911 9.08672 14.2681 9.08693C14.2679 9.1602 14.2679 9.24246 14.2677 9.3138L14.2681 9.35665C14.4656 9.35943 14.6696 9.38728 14.8579 9.33565C14.9533 9.30952 15.0426 9.26303 15.1209 9.19298C15.1923 9.12956 15.2512 9.0503 15.2864 8.95261C15.3112 8.88384 15.3225 8.811 15.3225 8.73645C15.3225 8.69939 15.3199 8.66233 15.3152 8.62548L15.3046 8.576L15.2911 8.52394C15.2454 8.38555 15.1621 8.2795 15.055 8.20045C14.9147 8.09698 14.7259 8.07363 14.5636 8.07341L14.2677 8.07298V8.35298L14.2681 8.3532Z" fill="white"/>
<path d="M21.191 26.6155V27.3045H21.3264V26.5615C21.3264 26.5468 21.3194 26.5335 21.3055 26.5215C21.2916 26.5095 21.2758 26.5035 21.2587 26.5035H21.191V26.6157V26.6155ZM21.1601 26.5033H21.1221V26.6055H21.1601V26.5033ZM21.7291 26.6055H21.8681V26.5613C21.8681 26.5465 21.8604 26.5333 21.8448 26.5213C21.8293 26.5093 21.8088 26.5033 21.7829 26.5033H21.4769C21.4522 26.5033 21.4345 26.5093 21.4244 26.5213C21.4142 26.5333 21.4093 26.5465 21.4093 26.5613V26.8818C21.4093 26.9039 21.4144 26.9191 21.4244 26.9274C21.4345 26.9358 21.4522 26.9399 21.4769 26.9399H21.7315V27.2034H21.5756V27.3045H21.7829C21.8088 27.3045 21.8293 27.3004 21.8448 27.2921C21.8604 27.2837 21.8681 27.2685 21.8681 27.2464V26.6365H21.7315V26.8529H21.5446V26.6055H21.7315C21.7321 26.6055 21.7283 26.6055 21.7289 26.6055H21.7291ZM21.5446 27.1961V27.057H21.409V27.2462C21.409 27.2683 21.4161 27.2835 21.4302 27.2918C21.4441 27.3002 21.4599 27.3043 21.4769 27.3043H21.5444L21.5446 27.1961ZM22.2708 27.2032V26.8968H21.9484L21.9601 26.6363H22.0998L22.0853 26.7935H22.3236C22.3483 26.7935 22.3686 26.798 22.3842 26.807C22.3998 26.816 22.4075 26.8313 22.4075 26.8527V27.2462C22.4075 27.2683 22.3998 27.2835 22.3842 27.2918C22.3686 27.3002 22.3483 27.3043 22.3236 27.3043H22.271V27.1884C22.271 27.1834 22.271 27.2081 22.271 27.2032H22.2708ZM22.1026 26.6052H22.3571L22.4073 26.5031H21.9659L21.9614 26.6052H22.1141C22.1179 26.6052 22.0987 26.6052 22.1026 26.6052ZM22.2396 27.2032H22.0851V27.0429H21.9484V27.2462C21.9484 27.2683 21.9563 27.2835 21.9719 27.2918C21.9875 27.3002 22.0082 27.3043 22.0338 27.3043H22.2399V27.2032H22.2396ZM22.6174 27.2032V26.9257H22.8042V27.2032H22.6485V27.3043H22.8721C22.8971 27.3043 22.9144 27.3002 22.9246 27.2918C22.9349 27.2835 22.94 27.2683 22.94 27.2462V26.8816C22.94 26.8784 22.9381 26.8741 22.934 26.8692C22.9302 26.8642 22.9261 26.8593 22.9223 26.8546C22.9176 26.8492 22.912 26.8439 22.9058 26.8385C22.912 26.8298 22.9176 26.8218 22.9223 26.8145C22.9261 26.8079 22.93 26.801 22.934 26.7946C22.9381 26.788 22.94 26.7828 22.94 26.7796V26.6363H22.8044V26.8235H22.634V26.6052H22.94V26.5611C22.94 26.5463 22.9329 26.533 22.9191 26.521C22.905 26.5091 22.8894 26.5031 22.8723 26.5031H22.5676C22.5411 26.5031 22.523 26.5091 22.5134 26.521C22.5036 26.533 22.4989 26.5463 22.4989 26.5611V26.7794C22.4989 26.7826 22.5006 26.7878 22.504 26.7944C22.5076 26.801 22.5112 26.8077 22.5151 26.8143C22.5198 26.8216 22.5255 26.8298 22.5326 26.8383C22.5232 26.8437 22.5147 26.849 22.507 26.8544C22.5008 26.8591 22.495 26.8638 22.4895 26.869C22.4839 26.8741 22.4813 26.8782 22.4813 26.8814V27.246C22.4813 27.2681 22.489 27.2833 22.5046 27.2916C22.5202 27.3 22.5411 27.3041 22.5676 27.3041H22.6178V27.1972C22.6178 27.195 22.6178 27.2049 22.6178 27.2029L22.6174 27.2032Z" fill="white"/>
</svg>
