<svg width="44" height="44" viewBox="0 0 44 44" fill="none" xmlns="http://www.w3.org/2000/svg">
<path fill-rule="evenodd" clip-rule="evenodd" d="M22.0612 0L35.9359 22L22.0612 44L8.17188 22L22.0612 0Z" fill="white"/>
<path fill-rule="evenodd" clip-rule="evenodd" d="M22.0618 1.78943L34.8071 22.0001L22.0618 42.2108L9.30176 22.0001L22.0618 1.78943Z" fill="#1D3D90"/>
<path fill-rule="evenodd" clip-rule="evenodd" d="M13.8037 19.8001L17.045 17.7321L18.2917 25.5054C19.1717 24.8601 20.7264 23.4961 21.3277 22.6601C19.5237 20.7094 18.0717 17.3948 18.6144 14.5641C19.0397 12.3054 21.1957 10.0028 23.5864 9.92945C25.889 9.85611 27.8104 13.0974 27.6637 15.1361L24.9064 14.9748C24.965 14.4761 25.0237 13.9334 24.6717 13.4641C24.0704 12.6428 22.545 12.6281 21.8997 13.8894C20.7997 16.0161 21.973 19.1548 22.941 20.4748C23.6157 19.6681 24.4077 18.0694 24.613 17.0428L27.5904 16.9988C27.429 18.5388 26.197 20.9441 25.2144 22.2641C26.505 23.0414 28.4557 23.7601 30.0104 23.9801L29.9517 26.6641C27.5757 26.6788 24.8477 25.5788 23.2344 24.6548C23.0877 24.8454 22.193 25.9454 22.0024 26.1214C23.3224 27.4854 25.2584 28.9668 26.9157 30.0081L26.1384 32.4721C24.393 31.6214 21.6944 29.4801 19.9784 27.7494C18.3944 28.9814 17.3384 29.6708 15.769 30.3308L15.285 27.9108L16.1064 27.2801L15.0064 20.8561L13.833 21.4721L13.8037 19.8001Z" fill="white"/>
</svg>
