<svg width="44" height="44" viewBox="0 0 44 44" fill="none" xmlns="http://www.w3.org/2000/svg">
<path fill-rule="evenodd" clip-rule="evenodd" d="M12.6555 35.961C9.56232 35.5334 4.08005 34.6155 3.25017 30.9942C2.60889 28.2028 4.98538 24.5186 6.3811 22.1924C7.09782 20.9979 8.83303 18.4328 8.8959 17.0622C8.9462 16.094 8.70729 15.0504 8.46838 14.1199L5.97873 4.03556C9.09708 5.51929 10.7569 6.3869 14.3782 6.48749C17.6726 6.56294 19.5209 5.34326 21.998 3.39429C24.4877 5.34326 26.3235 6.56294 29.6179 6.48749C33.2392 6.39947 34.8989 5.53187 38.0173 4.03556L35.5276 14.1325C35.2887 15.0755 35.075 16.1066 35.1001 17.0748C35.163 18.4202 36.8856 20.9979 37.6149 22.205C39.0107 24.506 41.3997 28.2154 40.7459 31.0068C39.916 34.6281 34.4211 35.5586 31.3405 35.9735C27.5557 36.4891 24.2865 37.319 21.998 40.563C19.7095 37.3064 16.4277 36.4765 12.6555 35.961Z" fill="#FFF100"/>
<path fill-rule="evenodd" clip-rule="evenodd" d="M12.7309 35.3951C9.92694 35.0053 4.55784 34.1377 3.79082 30.8433C3.19985 28.2656 5.55118 24.6317 6.84631 22.469C7.6259 21.1487 9.36111 18.5962 9.43655 17.0873C9.48685 16.0688 9.24794 14.9749 8.99646 13.9816L6.80858 5.05401C9.63774 6.412 11.0586 6.96526 14.3656 7.05328C17.5719 7.12872 19.5461 6.00964 21.998 4.12354C24.4248 6.02221 26.3863 7.12872 29.6304 7.05328C32.9374 6.97783 34.3457 6.412 37.1874 5.06659L34.9869 14.0067C34.748 15.0001 34.4965 16.094 34.5468 17.1125C34.6097 18.6214 36.3324 21.1865 37.1371 22.4942C38.4448 24.6569 40.7961 28.3159 40.1926 30.8684C39.4256 34.1628 34.0565 35.0179 31.2525 35.4202C28.1215 35.8603 23.9092 36.8662 21.9854 39.5948C20.0742 36.8537 15.8493 35.8352 12.7309 35.3951Z" fill="#034EA1"/>
<path fill-rule="evenodd" clip-rule="evenodd" d="M21.9981 38.614C21.2311 37.5326 17.7984 35.5459 12.8065 34.8544C9.92709 34.4646 4.99808 33.597 4.34423 30.7427C3.84127 28.6051 5.65193 25.6125 7.33684 22.7833C8.20445 21.3625 9.92709 18.7848 10.0025 17.1376C10.0528 16.0185 9.78878 14.7863 9.54987 13.8809L7.63862 6.08504C9.18522 6.81433 10.7695 7.51847 14.3406 7.61907C18.402 7.70708 20.8288 5.73296 21.9981 4.84021C23.1549 5.74554 25.5943 7.71966 29.6557 7.61907C33.2267 7.53105 34.8362 6.81433 36.3702 6.08504L34.459 13.8809C34.2201 14.8114 33.956 16.0311 34.0063 17.1376C34.0818 18.7974 35.8044 21.3499 36.672 22.7833C38.3821 25.625 40.1676 28.6051 39.6646 30.7427C39.0108 33.597 34.0818 34.4646 31.2023 34.8544C26.1979 35.5459 22.7652 37.5326 21.9981 38.614Z" fill="#FFF100"/>
<path fill-rule="evenodd" clip-rule="evenodd" d="M25.883 8.77588C27.8949 8.77588 29.5043 10.4105 29.5043 12.3972C29.5043 14.409 27.8949 16.0185 25.883 16.0185C23.8712 16.0185 22.2617 14.409 22.2617 12.3972C22.2617 10.4105 23.8838 8.77588 25.883 8.77588Z" fill="white"/>
<path fill-rule="evenodd" clip-rule="evenodd" d="M26.6378 8.90175C27.518 9.09036 28.2725 9.59332 28.788 10.2975C28.6371 10.2472 28.4737 10.222 28.3353 10.1717C28.4108 10.6873 28.3228 11.1651 28.2473 11.5926C28.5868 11.8063 28.8886 12.1458 29.1275 12.5859C29.2407 12.4476 29.3664 12.2464 29.467 12.0327C29.4796 12.1584 29.4796 12.2716 29.4796 12.3973C29.4796 13.1769 29.2281 13.9062 28.8006 14.4972C28.8006 14.3463 28.788 14.1703 28.7754 14.0445C28.3102 14.2834 27.8324 14.3463 27.3923 14.384C27.2791 14.7864 27.0654 15.1636 26.7133 15.5157C26.8893 15.5785 27.1031 15.6414 27.3294 15.6666C26.8893 15.8552 26.3989 15.9683 25.9086 15.9683C25.5313 15.9683 25.1541 15.9055 24.8272 15.7923C24.9655 15.742 25.129 15.6791 25.2296 15.6414C24.8649 15.2642 24.6637 14.8367 24.4751 14.4343C24.0476 14.4595 23.6327 14.3714 23.1926 14.1325C23.1926 14.3086 23.1926 14.5349 23.2177 14.7612C22.6645 14.1325 22.325 13.3152 22.325 12.4099C22.413 12.5356 22.5261 12.6614 22.6016 12.7494C22.8405 12.2967 23.18 11.9698 23.5321 11.6555C23.3812 11.2657 23.3309 10.8256 23.4063 10.3352C23.2303 10.3855 23.0165 10.4609 22.8154 10.5741C23.2554 9.81965 23.947 9.25382 24.7895 8.97719C24.7015 9.10293 24.6134 9.25382 24.538 9.36699C25.0535 9.44243 25.4685 9.68134 25.8708 9.8951C26.1978 9.63104 26.5876 9.45501 27.0779 9.37956C26.9522 9.24125 26.8013 9.07779 26.6378 8.90175ZM25.8834 8.61255C27.9707 8.61255 29.6682 10.31 29.6682 12.3973C29.6682 14.4846 27.9707 16.1821 25.8834 16.1821C23.7961 16.1821 22.0986 14.4846 22.0986 12.3973C22.0986 10.31 23.7961 8.61255 25.8834 8.61255Z" fill="#034EA1"/>
<path fill-rule="evenodd" clip-rule="evenodd" d="M25.909 11.0017C26.3743 11.2658 26.8521 11.6178 27.267 12.0202C27.2041 12.5735 27.0155 13.1141 26.8018 13.6171C26.1856 13.68 25.6072 13.68 25.0414 13.6171C24.8277 13.1519 24.6642 12.5609 24.5762 12.0202C24.9408 11.6304 25.4186 11.2658 25.909 11.0017Z" fill="#034EA1"/>
<path fill-rule="evenodd" clip-rule="evenodd" d="M22.614 9.63098C19.8351 13.2397 22.878 18.9483 26.1473 20.3189L22.9786 23.6887C19.5836 20.0423 19.1813 13.1517 22.614 9.63098ZM21.7212 9.86989C18.6783 13.5666 19.483 20.5955 22.6768 24.0156L19.7345 27.134C15.5725 21.9787 16.9431 14.1576 21.7212 9.86989ZM19.4453 27.4483L16.4779 30.6044C10.6309 22.5571 15.0947 13.3529 20.6021 10.4609C16.1006 14.7612 15.4719 22.5948 19.4453 27.4483Z" fill="#034EA1"/>
<path d="M13.5605 32.5031C13.5605 32.2265 13.636 32.0002 13.8246 31.8241C14.0006 31.6732 14.227 31.5726 14.5036 31.5726H14.5539V31.3589H15.1323V31.5726H15.1826C15.4592 31.5726 15.6856 31.6481 15.8616 31.8241C16.0376 32.0002 16.1256 32.2139 16.1256 32.5031C16.1256 32.7923 16.0376 33.0187 15.8616 33.1821C15.6856 33.333 15.4592 33.4336 15.1826 33.4336H15.1323V33.6977H14.5539V33.421H14.5036C14.2395 33.421 14.0006 33.3456 13.8246 33.1821C13.636 33.0187 13.5605 32.7798 13.5605 32.5031ZM15.1323 32.0002V33.0187C15.258 33.0187 15.3335 32.9935 15.3964 32.9306C15.4718 32.8552 15.5095 32.7169 15.5095 32.5031C15.5095 32.3019 15.4844 32.1636 15.3964 32.0756C15.3335 32.0253 15.2455 32.0002 15.1323 32.0002ZM14.5287 33.0187V32.0002C14.403 32.0002 14.3276 32.0253 14.2647 32.0756C14.1892 32.1511 14.1515 32.2894 14.1515 32.5031C14.1515 32.7043 14.1767 32.8426 14.2647 32.9306C14.3276 32.9809 14.4282 33.0187 14.5287 33.0187ZM16.9807 31.3715V32.3774L17.5591 31.3715H18.1375L17.622 32.1385L18.1249 33.6851H17.5465L17.2322 32.6792L16.9807 33.0438V33.6851H16.4023V31.3589H16.9807V31.3715ZM19.9104 31.7738V32.3397H20.0236C20.1116 32.3397 20.2122 32.3271 20.2751 32.2768C20.3505 32.2265 20.4008 32.1511 20.4008 32.063C20.4008 31.975 20.3757 31.887 20.2876 31.8493C20.2248 31.799 20.1493 31.7864 20.0362 31.7864L19.9104 31.7738ZM19.3194 33.6851V31.3589H20.1996C20.4385 31.3589 20.6271 31.4092 20.7655 31.5098C20.9163 31.6229 21.0044 31.7864 21.0044 32.0127C21.0044 32.2642 20.9289 32.4528 20.7529 32.5786C20.6146 32.6917 20.4134 32.7546 20.1619 32.7546C20.0865 32.7546 20.011 32.7546 19.9481 32.742V33.6851H19.3194ZM21.1301 32.5283C21.1301 32.1888 21.193 31.9121 21.3187 31.6984C21.4696 31.4469 21.7085 31.3212 22.0229 31.3212C22.3372 31.3212 22.5761 31.4469 22.727 31.6984C22.8527 31.8996 22.9156 32.1888 22.9156 32.5283C22.9156 32.8678 22.8527 33.1444 22.727 33.3456C22.5761 33.5971 22.3372 33.7228 22.0229 33.7228C21.7085 33.7228 21.4696 33.5971 21.3187 33.3456C21.193 33.1444 21.1301 32.8803 21.1301 32.5283ZM21.7588 32.5283C21.7588 32.7923 21.7714 32.9809 21.8091 33.0815C21.8594 33.2198 21.9223 33.2953 22.048 33.2953C22.1612 33.2953 22.2366 33.2198 22.2618 33.0815C22.2869 32.9684 22.3121 32.7798 22.3121 32.5157C22.3121 32.2516 22.2995 32.063 22.2618 31.9499C22.2366 31.8116 22.1486 31.7361 22.048 31.7361C21.9348 31.7361 21.8594 31.8116 21.8342 31.9499C21.7965 32.0756 21.7588 32.2642 21.7588 32.5283ZM24.2987 32.8426L24.8017 32.8929C24.8017 33.1444 24.7263 33.3456 24.588 33.509C24.4496 33.6599 24.2485 33.748 23.997 33.748C23.67 33.748 23.4311 33.6222 23.2803 33.3707C23.1545 33.1695 23.0916 32.8803 23.0916 32.5408C23.0916 32.2139 23.1545 31.9247 23.2803 31.7235C23.4311 31.4595 23.67 31.3337 23.997 31.3337C24.261 31.3337 24.4622 31.4092 24.6131 31.5852C24.7388 31.7361 24.8017 31.9499 24.8017 32.2013H24.2485C24.2485 32.0882 24.2359 32.0002 24.1982 31.9373C24.1479 31.8241 24.085 31.7864 23.997 31.7864C23.8838 31.7864 23.8084 31.8618 23.7581 32.0253C23.7329 32.1385 23.7078 32.3271 23.7078 32.5786C23.7078 32.8426 23.7203 33.0312 23.7581 33.1444C23.8084 33.2827 23.8838 33.3456 24.0095 33.3456C24.1227 33.3456 24.1856 33.3204 24.2233 33.2198C24.2862 33.1067 24.2987 32.9809 24.2987 32.8426ZM24.9777 31.8116V31.3589H26.6124V31.8116H26.0968V33.6725H25.5184V31.8116H24.9777ZM26.7507 32.5283C26.7507 32.1888 26.8135 31.9121 26.9393 31.6984C27.0902 31.4469 27.3291 31.3212 27.6434 31.3212C27.9578 31.3212 28.1967 31.4469 28.3476 31.6984C28.4733 31.8996 28.5362 32.1888 28.5362 32.5283C28.5362 32.8678 28.4733 33.1444 28.3476 33.3456C28.1967 33.5971 27.9578 33.7228 27.6434 33.7228C27.3291 33.7228 27.0902 33.5971 26.9393 33.3456C26.8135 33.1444 26.7507 32.8803 26.7507 32.5283ZM27.3794 32.5283C27.3794 32.7923 27.392 32.9809 27.4297 33.0815C27.4548 33.2198 27.5428 33.2953 27.6686 33.2953C27.7817 33.2953 27.8572 33.2198 27.9075 33.0815C27.9326 32.9684 27.9578 32.7798 27.9578 32.5157C27.9578 32.2516 27.9452 32.063 27.9075 31.9499C27.8823 31.8116 27.7943 31.7361 27.6686 31.7361C27.5554 31.7361 27.48 31.8116 27.4548 31.9499C27.392 32.0756 27.3794 32.2642 27.3794 32.5283ZM28.8128 33.6851V31.3589H29.781C29.9822 31.3589 30.1582 31.4092 30.284 31.5098C30.4097 31.6229 30.4726 31.7487 30.4726 31.8996C30.4726 32.0379 30.4223 32.1511 30.3468 32.2642C30.2714 32.3522 30.1582 32.4151 30.0325 32.4528C30.1834 32.5031 30.2965 32.566 30.3971 32.654C30.4726 32.742 30.5229 32.8678 30.5229 33.0312C30.5229 33.2198 30.46 33.3707 30.3217 33.4965C30.1834 33.6096 30.0073 33.6725 29.7684 33.6725H28.8128V33.6851ZM29.4164 32.6666V33.245H29.6301C29.7056 33.245 29.7684 33.2324 29.8187 33.1821C29.8816 33.1318 29.9319 33.0564 29.9319 32.9432C29.9319 32.8552 29.9068 32.7923 29.8565 32.742C29.8062 32.6917 29.7307 32.6666 29.6427 32.6666H29.4164ZM29.4164 31.7738V32.2768H29.605C29.693 32.2768 29.781 32.2516 29.8187 32.2139C29.869 32.1636 29.8942 32.1008 29.8942 32.0253C29.8942 31.9373 29.869 31.8493 29.8062 31.8241C29.7559 31.799 29.693 31.7738 29.6176 31.7738H29.4164Z" fill="#034EA1"/>
<path d="M20.5763 34.7539V35.9987H20.7901V36.2502H19.9854V35.9987H20.1991V35.1186L19.9854 35.1814V34.9299C20.0356 34.9299 20.0985 34.9048 20.174 34.8671C20.262 34.8168 20.3248 34.7916 20.35 34.7539H20.5763ZM20.9787 35.873L21.293 35.8227C21.293 35.873 21.3056 35.9107 21.3182 35.9484C21.3308 35.9987 21.3811 36.0113 21.4314 36.0113C21.4942 36.0113 21.5194 35.9862 21.5571 35.8981C21.5823 35.8353 21.6074 35.7221 21.6074 35.5964C21.5571 35.6215 21.5194 35.6467 21.4691 35.6592C21.4188 35.6718 21.3811 35.6844 21.3308 35.6844C21.2176 35.6844 21.1296 35.6592 21.0667 35.5712C20.9913 35.4958 20.9535 35.3952 20.9535 35.2946C20.9535 35.1186 21.0038 34.9928 21.0919 34.8922C21.1799 34.8042 21.3056 34.7413 21.4817 34.7413C21.6703 34.7413 21.8086 34.8168 21.9092 34.9928C21.9846 35.1311 22.0223 35.2946 22.0223 35.4958C22.0223 35.697 21.972 35.873 21.8966 36.0113C21.8086 36.1873 21.6451 36.2754 21.4565 36.2754C21.1799 36.2628 21.029 36.137 20.9787 35.873ZM21.6074 35.3826C21.6074 35.2569 21.6074 35.1689 21.5948 35.1186C21.5823 35.0305 21.532 34.9928 21.4691 34.9928C21.4188 34.9928 21.3811 35.018 21.3433 35.0683C21.3308 35.1186 21.3182 35.1563 21.3182 35.2191C21.3182 35.282 21.3308 35.3449 21.3433 35.37C21.3559 35.3952 21.4062 35.4329 21.4565 35.4329C21.4817 35.4329 21.5068 35.4329 21.532 35.4203C21.5571 35.4203 21.5948 35.3952 21.6074 35.3826ZM22.3744 35.6215V35.37H22.4499C22.5253 35.37 22.5756 35.3575 22.6259 35.3197C22.6762 35.2946 22.6888 35.2443 22.6888 35.1689C22.6888 35.1186 22.6762 35.0808 22.6636 35.0431C22.6385 35.018 22.6007 34.9928 22.5504 34.9928C22.5002 34.9928 22.4624 35.0054 22.4247 35.0431C22.3996 35.0683 22.3744 35.1186 22.3618 35.1689L22.0852 35.0431C22.1355 34.9299 22.1984 34.8545 22.2864 34.8042C22.3744 34.7413 22.475 34.7288 22.5882 34.7288C22.7139 34.7288 22.8397 34.7539 22.9151 34.8419C23.0031 34.9174 23.0534 35.0305 23.0534 35.1563C23.0534 35.2317 23.0283 35.3072 22.9654 35.37C22.9025 35.4203 22.8397 35.4455 22.7516 35.4832C22.8648 35.4958 22.9528 35.5335 23.0031 35.5712C23.0786 35.6341 23.1163 35.7095 23.1163 35.8227C23.1163 35.961 23.0534 36.0742 22.9277 36.1496C22.8145 36.2251 22.6888 36.2628 22.5504 36.2628C22.4373 36.2628 22.3367 36.2376 22.2487 36.1873C22.1732 36.137 22.1104 36.0616 22.0475 35.9484L22.3115 35.8101C22.3367 35.8856 22.3744 35.9359 22.3996 35.9484C22.4247 35.961 22.4624 35.9736 22.5127 35.9736C22.6385 35.9736 22.7013 35.9107 22.7013 35.7976C22.7013 35.7221 22.6762 35.6592 22.6259 35.6215C22.6007 35.6089 22.5379 35.5964 22.4499 35.5964H22.3744V35.6215ZM23.1917 35.4958C23.1917 35.282 23.2169 35.106 23.2797 34.9677C23.3552 34.8168 23.4935 34.7288 23.7073 34.7288C23.8959 34.7288 24.0342 34.8042 24.1348 34.9677C24.1976 35.0934 24.2479 35.2694 24.2479 35.4958C24.2479 35.7095 24.2228 35.8981 24.1222 36.0239C24.0342 36.1748 23.9084 36.2376 23.7198 36.2376C23.5186 36.2376 23.3803 36.1622 23.2923 36.0239C23.2169 35.9107 23.1917 35.7347 23.1917 35.4958ZM23.7073 34.9802C23.657 34.9802 23.6318 34.9928 23.6192 35.0431C23.6067 35.0934 23.5941 35.1563 23.5941 35.2569V35.7095C23.5941 35.8227 23.6067 35.8981 23.6192 35.9484C23.6318 35.9987 23.6695 36.0113 23.7324 36.0113C23.7827 36.0113 23.8078 35.9987 23.8204 35.9484C23.833 35.8981 23.8456 35.8353 23.8456 35.7347V35.282C23.8456 35.1689 23.833 35.0934 23.8204 35.0431C23.7953 35.0054 23.7576 34.9802 23.7073 34.9802Z" fill="#034EA1"/>
<path fill-rule="evenodd" clip-rule="evenodd" d="M12.5927 8.14728C11.1844 7.93352 9.87673 7.61917 8.56903 7.09106L10.3671 14.3211C10.6689 15.5156 10.7066 16.333 10.7066 16.9491C10.7066 18.4705 9.63782 20.495 8.6822 22.1547C7.19846 24.7575 5.73988 26.87 5.4884 29.4728C5.21177 32.5283 10.2917 33.5845 12.5927 33.7983V8.14728Z" fill="#034EA1"/>
<path fill-rule="evenodd" clip-rule="evenodd" d="M31.416 8.14728C32.8243 7.93352 34.132 7.61917 35.4397 7.09106L33.6416 14.3211C33.3398 15.5156 33.3021 16.333 33.3021 16.9491C33.3021 18.4705 34.3709 20.495 35.3265 22.1547C36.8103 24.7575 38.2688 26.87 38.5203 29.4728C38.797 32.5283 33.7171 33.5845 31.416 33.7983V8.14728Z" fill="#034EA1"/>
</svg>
