<svg width="44" height="44" viewBox="0 0 44 44" fill="none" xmlns="http://www.w3.org/2000/svg">
<path fill-rule="evenodd" clip-rule="evenodd" d="M19.8463 7.54297L19.3287 8.59736L18.1715 8.76746L19.0088 9.58795L18.812 10.7444L19.8463 10.1729L20.8806 10.7446L20.6838 9.58795L21.5213 8.76746L20.3637 8.59736L19.8463 7.54297ZM15.6836 7.54297L15.1657 8.59736L14.0088 8.76746L14.8463 9.58795L14.6495 10.7444L15.6836 10.1729L16.7179 10.7446L16.5208 9.58795L17.3586 8.76746L16.201 8.59736L15.6836 7.54297ZM23.9847 7.54297L23.4668 8.59736L22.3097 8.76746L23.1472 9.58795L22.9502 10.7444L23.9849 10.1729L25.0185 10.7446L24.8224 9.58795L25.66 8.76746L24.5026 8.59736L23.9847 7.54297ZM28.1467 7.54297L27.6298 8.59736L26.4724 8.76746L27.3102 9.58795L27.1131 10.7444L28.1479 10.1729L29.1815 10.7446L28.9845 9.58795L29.822 8.76746L28.6646 8.59736L28.1467 7.54297Z" fill="#C8A979"/>
<path fill-rule="evenodd" clip-rule="evenodd" d="M21.9996 12.2609L0 24.4294L22.006 36.5987L44 24.4294L21.9996 12.2609Z" fill="white"/>
<path fill-rule="evenodd" clip-rule="evenodd" d="M22.0051 13.1093L1.47852 24.4599L22.0051 35.8106L42.5202 24.4599L22.0051 13.1093ZM4.21052 24.4599L21.9995 14.6102L39.8272 24.4599L21.9997 34.3104L4.21052 24.4599Z" fill="#D11F3D"/>
<path fill-rule="evenodd" clip-rule="evenodd" d="M24.0809 22.3759C23.8109 22.1005 23.4887 21.8816 23.1331 21.7321C22.7775 21.5825 22.3957 21.5054 22.0099 21.5051H22.0012C20.3885 21.5051 19.0733 22.826 19.0684 24.45C19.0644 26.0778 20.376 27.4067 21.9932 27.4112H22.0017C23.6138 27.4112 24.929 26.09 24.934 24.4665C24.9364 24.079 24.8624 23.6949 24.716 23.3361C24.5696 22.9773 24.3539 22.6509 24.0811 22.3757L24.0809 22.3759ZM21.1112 26.5963C21.1082 26.5956 20.7895 26.4673 20.5367 26.2831C20.2839 26.0985 20.1161 25.8441 20.115 25.8422L20.1083 25.8311C20.0911 25.6201 20.0816 25.3383 20.0965 25.1287C20.1095 24.9428 20.1242 24.7583 20.1572 24.5594L21.2624 24.051C21.4356 24.1948 21.6274 24.3252 21.8119 24.4639C21.9953 24.6028 22.1781 24.7458 22.3638 24.8724L22.2681 26.1385C21.9008 26.3133 21.2327 26.5677 21.1112 26.5963ZM19.8823 22.7161C19.7814 22.9194 19.6917 23.128 19.6136 23.341C19.5532 23.514 19.5015 23.6899 19.4587 23.8681L19.4565 23.8759C19.4152 23.9255 19.337 24.0217 19.2845 24.1058C19.3491 23.5946 19.5555 23.1118 19.8804 22.7119L19.8823 22.7161ZM19.4995 23.8549C19.5161 23.7868 19.5716 23.5676 19.6481 23.3533C19.7259 23.1411 19.8152 22.9332 19.9158 22.7308C19.9901 22.675 20.0683 22.6245 20.1497 22.5796C20.329 22.4764 20.4769 22.4119 20.6624 22.3355C20.7687 22.2914 20.8797 22.2413 20.9959 22.2269L21.686 22.8293C21.6404 22.9089 21.4795 23.2961 21.3014 23.8646C21.2851 23.9149 21.2716 23.9728 21.262 24.0103L20.1469 24.5235C19.9375 24.3179 19.5737 23.9243 19.4995 23.8549ZM22.3045 26.1411L22.4012 24.8653C22.4654 24.8275 22.6017 24.7427 22.627 24.7264C22.8101 24.6099 23.0003 24.4805 23.19 24.3522C23.2209 24.3316 23.3783 24.2182 23.4326 24.1769C23.4449 24.1677 23.4638 24.1575 23.4747 24.1462L24.3729 24.717C24.3925 24.8651 24.3826 25.0269 24.3748 25.1918C24.3662 25.3653 24.3482 25.5382 24.3209 25.7097C24.306 25.8025 24.2928 25.8845 24.2659 25.957L24.2612 25.9618C24.2588 25.9644 24.0414 26.202 23.7005 26.421C23.4643 26.5727 23.3091 26.6438 23.2535 26.6674C23.0575 26.5753 22.8616 26.4728 22.6747 26.3627C22.6358 26.34 22.3794 26.1843 22.3045 26.1411ZM23.5746 22.3606C23.6384 22.3618 23.6786 22.3904 23.7294 22.4192C23.8317 22.4759 23.9302 22.5364 24.0254 22.5992C24.4427 23.0595 24.6923 23.6472 24.7337 24.2671C24.6333 24.4174 24.5174 24.5568 24.388 24.6829L23.482 24.1072C23.4789 24.0871 23.4721 24.0632 23.4688 24.0472C23.4626 24.0203 23.4554 23.9937 23.4473 23.9673C23.3355 23.5761 23.2264 23.2246 23.0598 22.895L23.5708 22.3596L23.5746 22.3606ZM22.009 21.6993C22.4052 21.7001 22.7964 21.7878 23.155 21.9561C23.1697 21.967 23.1848 21.9764 23.1994 21.9887C23.2776 22.0525 23.3615 22.1298 23.4359 22.2037C23.4813 22.2486 23.5099 22.2876 23.5389 22.3396L23.0301 22.8735C22.7697 22.8236 22.502 22.8021 22.2233 22.7955C22.0503 22.7913 21.8982 22.792 21.7564 22.8059C21.7446 22.8071 21.7304 22.8076 21.7179 22.8085L21.0304 22.2077C21.1545 22.023 21.317 21.8763 21.4968 21.7468C21.6631 21.7154 21.8319 21.6995 22.0012 21.6993H22.009ZM19.677 25.9171C19.744 25.9153 19.8108 25.9092 19.8771 25.8989C19.9548 25.8862 20.0441 25.8717 20.0821 25.8595L20.0845 25.8623C20.1024 25.8895 20.2683 26.1319 20.5147 26.3126C20.7597 26.4912 21.063 26.6164 21.0975 26.6308L21.1039 26.6337C21.1157 26.7286 21.1693 26.8834 21.1802 26.9176C21.2015 26.9838 21.227 27.0483 21.252 27.1113C20.5969 26.9227 20.0354 26.497 19.677 25.9171ZM23.1198 26.9765C23.1694 26.9039 23.2351 26.7756 23.2649 26.7029C23.3169 26.6807 23.4761 26.6093 23.7204 26.4517C23.9188 26.325 24.1023 26.1763 24.2675 26.0085C23.9821 26.4313 23.5847 26.7664 23.1198 26.9765Z" fill="#D11F3D"/>
<path fill-rule="evenodd" clip-rule="evenodd" d="M32.1167 21.6683L25.6871 25.2227C25.3361 26.9499 23.8186 28.2495 21.9995 28.2495C19.9205 28.2495 18.2356 26.5523 18.2356 24.4586C18.2356 22.3655 19.9207 20.6685 21.9995 20.6685C23.3943 20.6685 24.611 21.4327 25.2614 22.5679H25.9879V19.4723L27.0647 18.877L21.9995 16.089L6.88184 24.4603L11.9239 27.2485L15.3141 25.3736C15.5163 26.5998 16.1336 27.6636 17.1294 28.4874C17.5074 28.7979 17.9216 29.0613 18.3631 29.2718L16.973 30.0401L21.9905 32.8285L37.1562 24.4565L32.1169 21.6688" fill="#D11F3D"/>
<path fill-rule="evenodd" clip-rule="evenodd" d="M21.4927 19.296C19.9023 19.296 18.4274 19.7912 17.3399 20.6899C16.1837 21.6462 15.5723 22.9489 15.5723 24.4579C15.5723 25.9663 16.1837 27.2692 17.3399 28.2256C18.4271 29.1243 19.9018 29.6195 21.4927 29.6195C23.1268 29.6195 24.6908 28.9934 25.7837 27.9024L25.7908 27.8955V26.6092H25.4964C24.7541 27.8308 23.4229 28.5854 21.9992 28.5854C19.7395 28.5854 17.901 26.7341 17.901 24.4586C17.901 22.183 19.7395 20.3313 21.9992 20.3313C23.4042 20.3313 24.6849 21.0386 25.4445 22.2279H25.6538V19.8491L25.1884 20.1061L25.0702 20.4099L24.898 20.297C23.9136 19.6516 22.7042 19.296 21.4927 19.296Z" fill="white"/>
</svg>
