<svg width="44" height="44" viewBox="0 0 44 44" fill="none" xmlns="http://www.w3.org/2000/svg">
<path d="M22.0615 4.91064C21.4996 4.91738 20.9376 4.93769 20.3774 4.97087C19.3919 5.02923 18.4092 5.16065 17.4293 5.29187C16.1566 5.4623 14.9229 5.82518 13.6908 6.183C12.2569 6.59944 10.8515 7.10157 9.50501 7.76993C9.35727 7.84327 9.29762 7.93052 9.30468 8.10047C9.31697 8.39629 9.31388 8.69322 9.30668 8.9894C9.29509 9.46641 9.19601 9.91692 8.81012 10.2246C8.65073 10.3517 8.60606 10.4915 8.60075 10.6841C8.57384 11.6588 8.54535 12.6336 8.50303 13.6077C8.45953 14.609 8.38233 15.6089 8.35122 16.6104C8.31759 17.6937 8.31517 18.7781 8.30816 19.8621C8.29722 21.5564 8.45077 23.2335 8.75773 24.9C9.26031 27.6284 10.4281 30.0082 12.1957 32.0782C13.4537 33.5515 14.9021 34.805 16.4634 35.9159C18.1866 37.1419 19.9942 38.2224 21.8687 39.1803C21.9207 39.2069 21.9911 39.2147 22.0615 39.209V4.91064Z" fill="url(#paint0_linear)"/>
<path d="M35.7485 15.9169C35.7376 15.9169 35.7267 15.9169 35.7159 15.9169C35.7035 15.6425 35.6898 15.3683 35.6788 15.0939C35.6192 13.6067 35.5627 12.1194 35.4959 10.6326C35.491 10.5222 35.4343 10.398 35.3659 10.3101C35.1789 10.0694 35.0121 9.81899 34.987 9.50495C34.9519 9.06651 34.9271 8.62647 34.9198 8.18672C34.9165 7.99224 34.8456 7.88733 34.6847 7.79967C33.7839 7.30904 32.8511 6.89717 31.8858 6.56567C30.0679 5.94136 28.224 5.42348 26.3172 5.19003C25.4049 5.07834 24.4898 4.95882 23.5732 4.92687C23.0701 4.90933 22.5658 4.90452 22.0615 4.91057V39.209C22.1248 39.2039 22.188 39.1881 22.2376 39.1641C22.5583 39.0093 22.8631 38.8195 23.1766 38.6484C24.9711 37.6691 26.7133 36.603 28.3487 35.3537C29.9267 34.1482 31.3822 32.8129 32.5846 31.1965C33.5307 29.9246 34.3082 28.5554 34.8137 27.0333C35.4821 25.0201 35.7197 22.9264 35.7752 20.8148C35.8181 19.1836 35.7611 17.5496 35.7485 15.9169Z" fill="url(#paint1_linear)"/>
<path d="M6.79482 17.9265C6.8501 16.7327 6.91225 15.5392 6.95897 14.3451C7.02181 12.7386 7.07672 11.1317 7.12463 9.52468C7.13206 9.27554 7.20263 9.10418 7.41906 8.97911C7.71561 8.80775 7.83555 8.50886 7.8545 8.17416C7.8782 7.75574 7.89794 7.33509 7.88228 6.91691C7.87018 6.59355 7.97921 6.4055 8.26247 6.26098C9.72993 5.51227 11.2732 4.98257 12.8381 4.50895C14.2015 4.09629 15.5742 3.72837 16.982 3.51633C18.3972 3.30318 19.8179 3.15336 21.2493 3.14696C22.2051 3.14269 23.1614 3.13571 24.1165 3.1638C25.9879 3.21884 27.8278 3.52039 29.6434 3.98688C31.5078 4.4659 33.3339 5.06314 35.0798 5.90273C35.378 6.04614 35.6634 6.21803 35.9564 6.37329C36.154 6.47799 36.2299 6.65135 36.2305 6.87016C36.2315 7.24078 36.2309 7.61139 36.2315 7.98201C36.2322 8.43513 36.3695 8.82507 36.6863 9.15286C36.7758 9.24547 36.8364 9.4061 36.844 9.53959C36.8926 10.3908 36.9288 11.2429 36.9573 12.0951C37.0133 13.765 37.086 15.4347 37.1063 17.1051C37.1264 18.7612 37.1546 20.4217 37.0648 22.0736C36.9186 24.7596 36.3693 27.364 35.1047 29.7418C34.0648 31.6972 32.6829 33.3865 31.0679 34.8652C29.4662 36.3317 27.7267 37.6024 25.8762 38.7057C24.6863 39.4152 23.4737 40.0836 22.2718 40.7715C22.0791 40.8818 21.8842 40.8854 21.6917 40.7838C19.1972 39.4681 16.7698 38.0359 14.5358 36.2776C13.0759 35.1287 11.7323 33.8488 10.5769 32.3664C9.45903 30.9321 8.54934 29.3751 7.96447 27.6247C7.48665 26.1946 7.17526 24.726 7.00873 23.224C6.81357 21.4638 6.76882 19.6971 6.79482 17.9265ZM7.25248 18.8846C7.1593 20.9666 7.30698 23.0304 7.69593 25.0768C8.23581 27.9171 9.43859 30.4162 11.2661 32.5944C12.4079 33.9551 13.704 35.1465 15.1032 36.2138C17.2017 37.8145 19.449 39.162 21.7738 40.3746C21.9202 40.451 22.0485 40.4457 22.192 40.3587C22.4296 40.2147 22.677 40.0882 22.9206 39.9548C24.6175 39.0251 26.2934 38.0578 27.8713 36.9206C29.6806 35.6166 31.3896 34.1905 32.8152 32.4324C34.0021 30.9687 34.9873 29.3743 35.6194 27.5691C36.3883 25.373 36.6803 23.0802 36.7392 20.7632C36.7844 18.986 36.7183 17.2049 36.6719 15.4263C36.6227 13.5396 36.5372 11.6539 36.4711 9.76769C36.4646 9.58484 36.4193 9.4341 36.2926 9.29704C36.0787 9.06567 35.9235 8.79004 35.8988 8.46535C35.8623 7.98537 35.8428 7.50371 35.8286 7.02237C35.8233 6.84127 35.7625 6.73135 35.6035 6.6437C34.4411 6.00303 33.2248 5.50036 31.9697 5.09534C30.1757 4.51641 28.3609 4.02888 26.4896 3.80474C25.6602 3.70539 24.8299 3.5867 23.9971 3.55208C22.9408 3.50817 21.8809 3.51764 20.8236 3.54603C19.3338 3.58604 17.8499 3.73517 16.3888 4.04109C15.2949 4.27011 14.2095 4.55042 13.1313 4.85044C11.5319 5.29551 9.97107 5.85984 8.47434 6.60378C8.32565 6.67769 8.26503 6.77352 8.26838 6.9438C8.27565 7.3142 8.27273 7.68508 8.26384 8.0555C8.25181 8.55691 8.0716 8.97366 7.68778 9.29708C7.6082 9.36413 7.54675 9.50086 7.54156 9.60882C7.5026 10.4185 7.48703 11.2293 7.4504 12.0392C7.38986 13.3775 7.30168 14.7148 7.25837 16.0537C7.22788 16.9963 7.25248 17.9409 7.25248 18.8846Z" fill="#1D1D1B"/>
<path d="M22.3687 4.95484C22.368 4.97022 22.3673 4.9856 22.3666 5.00097C22.3328 5.00097 22.2991 5.00181 22.2654 5.00085C20.3916 4.94747 18.5302 5.09528 16.6952 5.47907C15.5632 5.71581 14.4447 6.03162 13.3326 6.35732C12.0367 6.73682 10.7704 7.20859 9.56712 7.84684C9.38815 7.94177 9.30952 8.07399 9.31186 8.2783C9.31578 8.62084 9.31965 8.96395 9.30536 9.306C9.29027 9.66734 9.2474 10.0327 8.90353 10.2358C8.69365 10.3598 8.62883 10.5264 8.62397 10.7665C8.60317 11.7937 8.57258 12.8207 8.53623 13.8474C8.47269 15.6418 8.3753 17.4355 8.34208 19.2305C8.30621 21.1687 8.44728 23.0955 8.82937 25.0005C9.38916 27.7914 10.6557 30.1884 12.5341 32.2518C13.8823 33.7328 15.4099 34.9852 17.0518 36.0985C18.545 37.1111 20.1017 38.0046 21.6861 38.8501C21.8865 38.9571 22.0757 38.9765 22.2799 38.8637C23.9649 37.9325 25.6466 36.9966 27.2337 35.8893C29.2691 34.4693 31.1305 32.8598 32.6273 30.8182C33.5331 29.5828 34.2554 28.2575 34.7212 26.7853C35.3645 24.7522 35.6651 22.6557 35.6556 20.5233C35.6454 18.2592 35.564 15.9954 35.5045 13.7318C35.4782 12.7331 35.4343 11.7348 35.3838 10.7371C35.3775 10.612 35.3062 10.4675 35.2217 10.3743C35.0095 10.1402 34.871 9.87847 34.8569 9.55824C34.8394 9.16041 34.8311 8.76195 34.8283 8.36369C34.8268 8.1401 34.7554 7.97603 34.5515 7.8752C34.3268 7.7641 34.1132 7.6288 33.8881 7.51859C32.5694 6.87299 31.1934 6.39218 29.7905 5.9873C28.3157 5.56167 26.8205 5.23836 25.2955 5.10176C24.323 5.01466 23.3445 5.00128 22.3687 4.95484ZM7.2536 18.8845C7.2536 17.9408 7.229 16.9962 7.25949 16.0536C7.30279 14.7147 7.39097 13.3775 7.45152 12.0391C7.48815 11.2293 7.50372 10.4184 7.54268 9.60874C7.54787 9.50078 7.60932 9.36405 7.6889 9.297C8.07272 8.97359 8.25293 8.55684 8.26496 8.05542C8.27385 7.685 8.27677 7.31413 8.26949 6.94372C8.26615 6.77344 8.32676 6.67761 8.47546 6.6037C9.97219 5.85977 11.533 5.29544 13.1325 4.85036C14.2106 4.55034 15.296 4.27004 16.3899 4.04101C17.851 3.7351 19.3349 3.58597 20.8247 3.54596C21.882 3.51756 22.9419 3.50809 23.9982 3.55201C24.8311 3.58663 25.6613 3.70532 26.4908 3.80467C28.362 4.02881 30.1768 4.51633 31.9708 5.09526C33.2259 5.50029 34.4422 6.00295 35.6046 6.64362C35.7636 6.73127 35.8244 6.84119 35.8297 7.0223C35.8439 7.50364 35.8635 7.9853 35.9 8.46527C35.9247 8.78996 36.0799 9.0656 36.2937 9.29696C36.4204 9.43403 36.4658 9.58476 36.4722 9.76762C36.5384 11.6539 36.6238 13.5395 36.673 15.4262C36.7194 17.2048 36.7855 18.9859 36.7404 20.7632C36.6814 23.0801 36.3895 25.3729 35.6205 27.5691C34.9884 29.3742 34.0032 30.9686 32.8163 32.4324C31.3907 34.1905 29.6817 35.6166 27.8724 36.9206C26.2945 38.0578 24.6186 39.025 22.9217 39.9547C22.6782 40.0881 22.4307 40.2147 22.1931 40.3587C22.0496 40.4456 21.9214 40.4509 21.7749 40.3746C19.4501 39.1619 17.2028 37.8144 15.1044 36.2137C13.7051 35.1464 12.409 33.955 11.2672 32.5943C9.43971 30.4162 8.23693 27.917 7.69705 25.0767C7.3081 23.0304 7.16041 20.9665 7.2536 18.8845Z" fill="url(#paint2_linear)"/>
<path d="M22.3679 4.95496C23.3437 5.00139 24.3223 5.01478 25.2947 5.10188C26.8197 5.23848 28.315 5.56178 29.7898 5.98742C31.1926 6.39229 32.5687 6.8731 33.8873 7.51871C34.1124 7.62891 34.3261 7.76421 34.5508 7.87532C34.7547 7.97614 34.826 8.14021 34.8276 8.36381C34.8303 8.76206 34.8387 9.16052 34.8562 9.55835C34.8703 9.87859 35.0088 10.1403 35.221 10.3744C35.3055 10.4676 35.3767 10.6121 35.3831 10.7372C35.4336 11.7349 35.4775 12.7332 35.5037 13.7319C35.5633 15.9955 35.6446 18.2593 35.6548 20.5234C35.6644 22.6558 35.3638 24.7523 34.7205 26.7854C34.2546 28.2576 33.5323 29.5829 32.6266 30.8183C31.1298 32.8599 29.2684 34.4695 27.233 35.8894C25.6458 36.9967 23.9641 37.9326 22.2792 38.8638C22.075 38.9767 21.8858 38.9572 21.6853 38.8502C20.1009 38.0047 18.5442 37.1112 17.051 36.0987C15.4092 34.9853 13.8816 33.733 12.5333 32.2519C10.655 30.1885 9.38841 27.7915 8.82862 25.0006C8.44653 23.0957 8.30545 21.1688 8.34133 19.2306C8.37455 17.4356 8.47194 15.642 8.53548 13.8475C8.57183 12.8208 8.60242 11.7938 8.62322 10.7666C8.62808 10.5265 8.69289 10.3599 8.90277 10.2359C9.24665 10.0328 9.28951 9.66746 9.30461 9.30611C9.3189 8.96406 9.31503 8.62096 9.31111 8.27841C9.30877 8.07411 9.3874 7.94188 9.56637 7.84696C10.7697 7.20871 12.0359 6.73694 13.3318 6.35744C14.444 6.03173 15.5625 5.71592 16.6944 5.47918C18.5295 5.09539 20.3909 4.94759 22.2647 5.00097C22.2983 5.00193 22.3321 5.00109 22.3658 5.00109C22.3665 4.98571 22.3672 4.97033 22.3679 4.95496ZM35.2571 15.988C35.2466 15.988 35.2361 15.988 35.2256 15.988C35.2136 15.7227 35.2004 15.4574 35.1897 15.1919C35.132 13.7534 35.0774 12.3147 35.0128 10.8765C35.008 10.7697 34.9532 10.6496 34.8871 10.5645C34.7062 10.3317 34.5448 10.0895 34.5205 9.78569C34.4866 9.36159 34.4626 8.93593 34.4555 8.51055C34.4524 8.32243 34.3838 8.22094 34.2281 8.13615C33.3567 7.66156 32.4545 7.26315 31.5207 6.94249C29.7622 6.33859 27.9786 5.83763 26.1341 5.61181C25.2517 5.50378 24.3664 5.38817 23.4799 5.35726C22.4507 5.32138 21.4167 5.33885 20.3885 5.39974C19.4352 5.4562 18.4846 5.58332 17.5367 5.71026C16.3056 5.87511 15.1123 6.22613 13.9205 6.57225C12.5334 6.97508 11.1739 7.4608 9.87148 8.10731C9.72856 8.17826 9.67086 8.26265 9.67769 8.42705C9.68958 8.7132 9.68659 9.00042 9.67963 9.28692C9.66842 9.74834 9.57257 10.1841 9.1993 10.4817C9.04512 10.6047 9.00191 10.74 8.99677 10.9262C8.97074 11.8691 8.94319 12.812 8.90225 13.7543C8.86017 14.7228 8.78549 15.69 8.7554 16.6589C8.72286 17.7067 8.72052 18.7557 8.71375 19.8042C8.70316 21.4432 8.85169 23.0654 9.14862 24.6774C9.63477 27.3167 10.7644 29.6187 12.4742 31.621C13.6911 33.0461 15.0922 34.2587 16.6024 35.3332C18.2692 36.5191 20.0178 37.5644 21.831 38.491C21.9265 38.5397 22.0865 38.5244 22.1879 38.4754C22.4981 38.3256 22.7929 38.142 23.0962 37.9765C24.8321 37.0292 26.5173 35.998 28.0992 34.7895C29.6257 33.6234 31.0336 32.3318 32.1966 30.7682C33.1118 29.5379 33.864 28.2135 34.3528 26.7411C34.9995 24.7937 35.2292 22.7685 35.283 20.7259C35.3245 19.148 35.2693 17.5674 35.2571 15.988Z" fill="#1D1D1B"/>
<path d="M22.307 4.88682L20.8486 4.93774L20.852 5.03514L22.3104 4.98421L22.307 4.88682Z" fill="#1D1D1B"/>
<path d="M21.019 33.7816C20.733 33.7364 20.4465 33.6944 20.1611 33.6454C18.7605 33.4045 17.4507 32.9243 16.241 32.1706C15.6162 31.7813 15.0404 31.3358 14.496 30.8387C13.4079 29.845 12.5725 28.6714 11.9526 27.3434C11.5065 26.3876 11.2039 25.3826 11.0886 24.3308C11.0223 23.726 10.9486 23.1164 10.9578 22.5103C10.9784 21.1622 11.2578 19.8613 11.7615 18.6055C12.1766 17.5705 12.7317 16.6185 13.4397 15.7667C14.2462 14.7964 15.1784 13.9574 16.2663 13.301C17.3154 12.668 18.4351 12.2111 19.629 11.9495C20.1015 11.846 20.5878 11.7936 21.0708 11.7539C21.5595 11.7138 22.0528 11.6913 22.5424 11.709C23.3804 11.7391 24.211 11.861 25.011 12.1159C25.6469 12.3185 26.2948 12.5184 26.8846 12.8221C27.5493 13.1644 28.1847 13.5829 28.7776 14.0401C29.3239 14.4614 29.8413 14.9397 30.29 15.4629C30.7744 16.0277 31.1935 16.6555 31.5883 17.2887C32.1468 18.1845 32.518 19.169 32.7385 20.1998C32.8665 20.7978 32.9296 21.4108 33.0005 22.0196C33.0396 22.3561 33.0725 22.7012 33.0414 23.0362C32.9737 23.7653 32.9029 24.4982 32.7604 25.2151C32.568 26.1834 32.2065 27.1004 31.7306 27.9681C31.3671 28.631 30.9469 29.2524 30.4593 29.8342C29.7445 30.6873 28.9234 31.4101 27.9972 32.0216C26.833 32.7903 25.5584 33.2906 24.2029 33.5879C23.8323 33.6692 23.4477 33.6863 23.07 33.7357C23.0382 33.7398 23.0092 33.7658 22.9789 33.7816C22.3256 33.7816 21.6723 33.7816 21.019 33.7816ZM24.6351 26.0157C24.6143 25.5912 24.6011 25.2063 24.5742 24.8223C24.5611 24.637 24.5296 24.4519 24.4937 24.2693C24.4032 23.8094 24.3072 23.3506 24.2089 22.8923C24.191 22.809 24.1761 22.6946 24.1184 22.6552C23.7866 22.4284 23.4476 22.2109 23.1011 22.0072C22.3829 21.5851 21.5959 21.3325 20.801 21.1042C20.7362 21.0855 20.6415 21.1014 20.5836 21.1378C19.3483 21.9146 18.12 22.7028 16.8797 23.4715C16.6798 23.5953 16.6719 23.7458 16.6905 23.9273C16.7467 24.4779 16.8099 25.0278 16.8685 25.5782C16.9168 26.0328 16.9571 26.4884 17.0139 26.9419C17.0256 27.0356 17.07 27.1542 17.1402 27.2073C18.2896 28.0777 19.5412 28.7557 20.9182 29.1955C21.2137 29.2899 21.4691 29.3467 21.7869 29.1752C22.7928 28.6323 23.7087 27.9823 24.4844 27.1402C24.5267 27.0943 24.5682 27.0294 24.5732 26.9702C24.6009 26.6398 24.6173 26.3085 24.6351 26.0157ZM27.767 19.9416C27.7232 19.9971 27.6971 20.0422 27.6601 20.0752C27.2793 20.4154 26.8861 20.7424 26.5174 21.0952C26.0128 21.5779 25.5258 22.079 25.0343 22.5753C25.0031 22.6068 24.9766 22.6686 24.9844 22.7094C25.0884 23.2571 25.2097 23.8017 25.3051 24.3509C25.4474 25.1696 25.4882 25.9939 25.3989 26.8231C25.3919 26.8888 25.4334 26.9873 25.4855 27.0276C26.0569 27.4699 26.6797 27.8137 27.3941 27.9634C27.6798 28.0233 27.9783 28.1344 28.257 27.9716C29.2578 27.3873 30.0659 26.5922 30.7292 25.6474C30.8342 25.4979 30.9836 25.3747 30.9637 25.1451C30.9029 24.4406 30.873 23.7335 30.8191 23.0283C30.7844 22.5729 30.7319 22.1188 30.6801 21.6649C30.6688 21.566 30.6575 21.425 30.5933 21.3812C30.151 21.0796 29.7129 20.7622 29.2374 20.5213C28.7697 20.2843 28.2594 20.1316 27.767 19.9416ZM20.1991 20.396C20.2298 19.992 20.2465 19.5887 20.2941 19.1891C20.3791 18.4773 20.4844 17.7679 20.5755 17.0567C20.5825 17.0014 20.5637 16.9095 20.5257 16.8865C19.7797 16.4357 19.0366 15.9791 18.275 15.5559C18.0404 15.4255 17.8031 15.3005 17.4678 15.4651C16.8418 15.7727 16.2585 16.1357 15.7036 16.5495C15.5025 16.6995 15.2612 16.8555 15.16 17.067C14.9434 17.5202 14.789 18.0061 14.6401 18.4882C14.3968 19.2755 14.3017 20.0918 14.2321 20.9097C14.2244 21.0002 14.2754 21.1273 14.3433 21.1876C14.8874 21.6716 15.442 22.1437 15.9937 22.6192C16.3088 22.8908 16.3065 22.8866 16.6568 22.6618C17.8411 21.9019 19.0273 21.1451 20.1991 20.396ZM18.3861 14.7144C18.5521 14.7815 18.6767 14.8152 18.7845 14.8779C19.4532 15.2671 20.1351 15.6376 20.7764 16.0682C21.0513 16.2527 21.2725 16.2551 21.5641 16.177C22.1516 16.0196 22.7449 15.8762 23.3434 15.769C23.9303 15.6638 24.5268 15.612 25.1184 15.5317C25.1588 15.5262 25.2095 15.4854 25.2281 15.4476C25.4511 14.9946 25.6689 14.5392 25.903 14.0534C25.5029 13.7142 25.1177 13.3666 24.7092 13.0492C24.4524 12.8497 24.1788 12.6467 23.8793 12.5346C23.5861 12.4248 23.2513 12.3944 22.9336 12.3881C22.0344 12.3704 21.1317 12.3336 20.2426 12.522C20.0584 12.561 19.818 12.574 19.7115 12.6946C19.412 13.0335 19.1565 13.4143 18.9075 13.7941C18.7174 14.084 18.5637 14.3977 18.3861 14.7144ZM15.293 29.2481C15.4069 29.7307 15.512 30.2409 15.6543 30.7405C15.697 30.8902 15.8298 31.0241 15.9466 31.1397C16.0561 31.2482 16.1979 31.3247 16.3274 31.4124C17.5091 32.2133 18.8125 32.7194 20.2057 33.0016C20.3519 33.0312 20.5476 33.0656 20.6541 32.9961C21.0218 32.756 21.3626 32.474 21.7064 32.1988C21.7466 32.1666 21.7698 32.0689 21.7534 32.0166C21.5617 31.4074 21.3644 30.7999 21.1576 30.1958C21.136 30.1325 21.0526 30.0663 20.9847 30.0466C20.1825 29.8135 19.4001 29.5252 18.6747 29.1117C18.0674 28.7654 17.4873 28.3712 16.8987 27.9925C16.7763 27.9138 16.6812 27.8863 16.5364 27.9656C16.0673 28.2225 15.757 28.6502 15.3811 29.0066C15.3337 29.0516 15.3296 29.1424 15.293 29.2481ZM30.9802 20.6318C31.305 20.3347 31.5392 19.9287 31.639 19.4592C31.675 19.2898 31.745 19.0896 31.69 18.9453C31.4132 18.2201 31.0686 17.522 30.6072 16.896C30.2611 16.4265 29.8629 15.9958 29.4924 15.5441C29.1616 15.1407 28.7627 14.8548 28.2402 14.7513C27.7034 14.6449 27.1697 14.5224 26.6362 14.4073C26.4144 14.8547 26.2237 15.2518 26.0201 15.6422C25.9609 15.7557 25.9628 15.8317 26.04 15.9377C26.7261 16.8801 27.3406 17.8668 27.8351 18.9244C27.9117 19.0881 28.0105 19.1838 28.1874 19.2327C29.2095 19.5151 30.1478 19.9697 30.9802 20.6318ZM11.908 25.0331C12.2136 25.0646 12.2765 24.9129 12.3209 24.6979C12.4664 23.9918 12.6259 23.2896 12.9051 22.6188C13.0986 22.1537 13.2896 21.6822 13.4159 21.1964C13.5128 20.8242 13.5047 20.4249 13.5471 20.0381C13.6285 19.2955 13.7879 18.5689 14.0074 17.8556C14.1047 17.5396 14.2147 17.2276 14.3204 16.9094C14.2724 16.8832 14.2413 16.8631 14.2079 16.8485C13.7981 16.6687 13.5737 16.7165 13.3628 17.0892C13.0108 17.7112 12.6453 18.3304 12.3564 18.9822C11.8703 20.0789 11.6351 21.2433 11.6324 22.4446C11.6311 22.9707 11.6729 23.4985 11.725 24.0226C11.7593 24.3668 11.8469 24.7057 11.908 25.0331ZM31.8763 26.018C31.554 25.9087 31.5563 25.9103 31.3804 26.1692C31.2966 26.2926 31.2016 26.4085 31.1123 26.5282C30.498 27.352 29.7282 28.0084 28.8734 28.5637C28.7006 28.6759 28.6061 28.8011 28.5327 28.9786C28.2072 29.7658 27.8282 30.5248 27.3062 31.2037C27.1201 31.4457 27.1167 31.4431 27.3524 31.6498C29.5572 30.3356 31.0387 28.4375 31.8763 26.018ZM14.5843 29.9536C14.5308 29.6021 14.5898 29.2417 14.3373 28.9295C13.6221 28.0446 12.9987 27.0977 12.5154 26.0632C12.3979 25.8118 12.3942 25.8135 12.1522 25.9196C12.6293 27.4638 13.4228 28.8182 14.5843 29.9536ZM21.996 33.0999C23.6252 33.1368 25.1581 32.7911 26.6046 32.0638C26.576 32.0214 26.5396 31.9673 26.504 31.9146C26.1858 32.0042 25.8759 32.1085 25.5584 32.1779C24.6025 32.387 23.6416 32.5678 22.6589 32.5945C22.6092 32.5959 22.5474 32.6028 22.5128 32.6324C22.3366 32.7837 22.1676 32.9432 21.996 33.0999Z" fill="#1D1D1B"/>
<path d="M24.6359 26.0156C24.618 26.3083 24.6017 26.6397 24.5739 26.9701C24.569 27.0293 24.5275 27.0942 24.4852 27.1401C23.7095 27.9821 22.7936 28.6322 21.7877 29.175C21.4699 29.3465 21.2144 29.2897 20.919 29.1953C19.542 28.7555 18.2904 28.0776 17.141 27.2072C17.0708 27.1541 17.0264 27.0355 17.0146 26.9418C16.9579 26.4882 16.9176 26.0327 16.8692 25.5781C16.8106 25.0277 16.7474 24.4778 16.6912 23.9272C16.6727 23.7457 16.6806 23.5952 16.8804 23.4713C18.1207 22.7026 19.349 21.9145 20.5844 21.1377C20.6423 21.1013 20.7369 21.0854 20.8018 21.104C21.5966 21.3324 22.3837 21.585 23.1019 22.007C23.4484 22.2107 23.7873 22.4283 24.1192 22.655C24.1768 22.6944 24.1918 22.8088 24.2096 22.8922C24.3079 23.3504 24.4039 23.8093 24.4944 24.2691C24.5304 24.4518 24.5619 24.6368 24.5749 24.8222C24.6019 25.2062 24.6151 25.5911 24.6359 26.0156Z" fill="white"/>
<path d="M27.7674 19.9415C28.2598 20.1315 28.7701 20.2843 29.2378 20.5212C29.7133 20.7622 30.1513 21.0795 30.5937 21.3811C30.6579 21.4249 30.6692 21.566 30.6805 21.6648C30.7323 22.1187 30.7848 22.5729 30.8195 23.0283C30.8733 23.7335 30.9033 24.4406 30.9641 25.1451C30.984 25.3747 30.8346 25.4978 30.7296 25.6474C30.0663 26.5921 29.2581 27.3872 28.2574 27.9716C27.9786 28.1343 27.6801 28.0232 27.3945 27.9633C26.6801 27.8136 26.0573 27.4699 25.4859 27.0276C25.4338 26.9872 25.3923 26.8888 25.3993 26.823C25.4886 25.9938 25.4478 25.1695 25.3055 24.3508C25.2101 23.8017 25.0887 23.257 24.9848 22.7093C24.977 22.6685 25.0035 22.6067 25.0347 22.5752C25.5262 22.079 26.0132 21.5779 26.5177 21.0951C26.8864 20.7424 27.2797 20.4154 27.6605 20.0751C27.6975 20.0421 27.7236 19.997 27.7674 19.9415Z" fill="#F5F5F5"/>
<path d="M20.2001 20.3958C19.0284 21.145 17.8421 21.9018 16.6579 22.6617C16.3075 22.8865 16.3099 22.8907 15.9947 22.6191C15.4431 22.1436 14.8885 21.6715 14.3444 21.1875C14.2765 21.1271 14.2255 21.0001 14.2332 20.9096C14.3028 20.0917 14.3979 19.2754 14.6411 18.4881C14.7901 18.006 14.9444 17.5201 15.1611 17.0669C15.2623 16.8553 15.5036 16.6993 15.7047 16.5494C16.2595 16.1355 16.8428 15.7725 17.4689 15.465C17.8041 15.3003 18.0415 15.4254 18.2761 15.5558C19.0376 15.979 19.7808 16.4356 20.5267 16.8864C20.5648 16.9094 20.5836 17.0012 20.5765 17.0566C20.4854 17.7677 20.3801 18.4771 20.2952 19.189C20.2475 19.5886 20.2309 19.9919 20.2001 20.3958Z" fill="url(#paint3_linear)"/>
<path d="M18.3867 14.7143C18.5643 14.3975 18.718 14.0838 18.9081 13.794C19.1571 13.4141 19.4126 13.0334 19.7121 12.6944C19.8186 12.5738 20.059 12.5608 20.2432 12.5218C21.1323 12.3334 22.035 12.3702 22.9342 12.388C23.2519 12.3943 23.5867 12.4246 23.8799 12.5344C24.1794 12.6466 24.453 12.8495 24.7098 13.049C25.1183 13.3665 25.5035 13.7141 25.9036 14.0533C25.6695 14.539 25.4517 14.9945 25.2287 15.4474C25.2101 15.4852 25.1594 15.526 25.119 15.5315C24.5274 15.6119 23.9309 15.6636 23.344 15.7688C22.7455 15.876 22.1522 16.0194 21.5647 16.1768C21.2731 16.255 21.0519 16.2526 20.777 16.068C20.1357 15.6374 19.4538 15.267 18.785 14.8778C18.6773 14.8151 18.5527 14.7813 18.3867 14.7143Z" fill="url(#paint4_linear)"/>
<path d="M15.293 29.2479C15.3296 29.1423 15.3336 29.0514 15.381 29.0065C15.7569 28.6501 16.0672 28.2224 16.5364 27.9655C16.6812 27.8862 16.7763 27.9137 16.8987 27.9924C17.4872 28.371 18.0674 28.7653 18.6747 29.1115C19.4 29.5251 20.1825 29.8134 20.9847 30.0465C21.0525 30.0662 21.1359 30.1323 21.1576 30.1956C21.3643 30.7998 21.5617 31.4073 21.7533 32.0164C21.7698 32.0688 21.7466 32.1665 21.7063 32.1987C21.3626 32.4738 21.0218 32.7559 20.6541 32.9959C20.5476 33.0655 20.3518 33.031 20.2056 33.0014C18.8125 32.7192 17.5091 32.2132 16.3273 31.4123C16.1979 31.3245 16.0561 31.2481 15.9465 31.1396C15.8298 31.024 15.6969 30.8901 15.6543 30.7404C15.5119 30.2408 15.4068 29.7306 15.293 29.2479Z" fill="white"/>
<path d="M30.9801 20.6317C30.1478 19.9696 29.2094 19.5151 28.1873 19.2326C28.0104 19.1837 27.9116 19.0881 27.835 18.9243C27.3406 17.8668 26.7261 16.88 26.04 15.9377C25.9628 15.8316 25.9608 15.7557 26.02 15.6422C26.2236 15.2517 26.4144 14.8546 26.6362 14.4072C27.1697 14.5223 27.7033 14.6448 28.2402 14.7512C28.7626 14.8547 29.1615 15.1406 29.4924 15.5441C29.8628 15.9958 30.2611 16.4264 30.6071 16.8959C31.0685 17.5219 31.4131 18.22 31.6899 18.9453C31.745 19.0895 31.6749 19.2897 31.6389 19.4591C31.5391 19.9287 31.305 20.3346 30.9801 20.6317Z" fill="#F5F5F5"/>
<path d="M11.9085 25.0331C11.8474 24.7057 11.7597 24.3668 11.7255 24.0226C11.6734 23.4985 11.6316 22.9707 11.6328 22.4446C11.6356 21.2432 11.8708 20.0788 12.3569 18.9822C12.6458 18.3304 13.0112 17.7112 13.3633 17.0892C13.5742 16.7165 13.7986 16.6687 14.2084 16.8485C14.2418 16.8631 14.2729 16.8832 14.3208 16.9094C14.2152 17.2276 14.1052 17.5396 14.0079 17.8556C13.7884 18.5689 13.629 19.2955 13.5476 20.0381C13.5051 20.4249 13.5132 20.8242 13.4164 21.1964C13.29 21.6822 13.0991 22.1537 12.9056 22.6188C12.6264 23.2896 12.4669 23.9918 12.3213 24.6978C12.277 24.9129 12.2141 25.0646 11.9085 25.0331Z" fill="url(#paint5_linear)"/>
<path d="M31.8775 26.0179C31.0399 28.4374 29.5584 30.3355 27.3535 31.6498C27.1179 31.443 27.1212 31.4456 27.3074 31.2036C27.8294 30.5248 28.2083 29.7657 28.5339 28.9786C28.6073 28.801 28.7018 28.6758 28.8745 28.5636C29.7293 28.0083 30.4991 27.3519 31.1135 26.5281C31.2028 26.4084 31.2977 26.2926 31.3816 26.1691C31.5575 25.9102 31.5552 25.9087 31.8775 26.0179Z" fill="#F5F5F5"/>
<path d="M14.5845 29.9536C13.423 28.8182 12.6295 27.4638 12.1523 25.9196C12.3944 25.8135 12.3981 25.8118 12.5156 26.0632C12.9989 27.0977 13.6223 28.0446 14.3375 28.9295C14.5899 29.2417 14.531 29.6021 14.5845 29.9536Z" fill="#F5F5F5"/>
<path d="M21.9961 33.0999C22.1677 32.9432 22.3367 32.7837 22.5129 32.6324C22.5474 32.6028 22.6093 32.5958 22.659 32.5945C23.6416 32.5678 24.6026 32.387 25.5585 32.1779C25.876 32.1084 26.1859 32.0042 26.504 31.9146C26.5396 31.9673 26.5761 32.0214 26.6047 32.0638C25.1582 32.7911 23.6253 33.1368 21.9961 33.0999Z" fill="white"/>
<path d="M21.9478 38.2498C21.8206 37.7412 21.6934 37.2326 21.5663 36.724C21.5387 36.7261 21.5111 36.7281 21.4836 36.7302C21.4346 36.8954 21.3855 37.0606 21.325 37.2648C21.2199 36.7068 21.1985 36.1631 20.8509 35.686C20.7676 35.9064 20.6922 36.1059 20.6168 36.3054C20.5946 36.3011 20.5723 36.2969 20.5501 36.2926C20.5193 35.8556 20.5684 35.4017 20.2906 34.9755C20.1981 35.2155 20.1161 35.4284 20.0132 35.6954C19.9048 35.3188 19.811 34.993 19.7008 34.6104C19.622 34.7721 19.5657 34.8878 19.4982 35.0264C19.4017 34.6086 19.267 34.2304 18.9365 33.9288C18.896 34.0845 18.8617 34.2162 18.8275 34.3479C18.8046 34.3536 18.7817 34.3592 18.7588 34.3649C18.6456 34.0582 18.5325 33.7514 18.4193 33.4446C18.3986 33.4502 18.3779 33.4558 18.3572 33.4614C18.3788 33.6316 18.4003 33.8018 18.4266 34.009C17.883 33.5062 17.6493 32.914 17.648 32.219C17.6214 32.2178 17.5948 32.2166 17.5682 32.2155C17.5327 32.411 17.4739 32.6058 17.4682 32.8021C17.4625 32.9991 17.5098 33.1975 17.5338 33.3953C17.5125 33.4021 17.4912 33.4088 17.4698 33.4156C17.1626 32.7003 16.8555 31.985 16.5483 31.2697C16.5362 31.2685 16.5241 31.2673 16.5121 31.2661C16.4675 31.5837 16.4229 31.9012 16.3783 32.2188C16.3643 32.2268 16.3503 32.2348 16.3363 32.2427C16.2854 32.157 16.2345 32.0712 16.15 31.9291C16.15 32.2538 16.15 32.5221 16.15 32.7903C16.1277 32.7968 16.1053 32.8033 16.083 32.8098C16.0179 32.6853 15.93 32.5674 15.8919 32.4352C15.7611 31.982 15.6563 31.5213 15.5243 31.0685C15.4578 30.8407 15.354 30.6236 15.2671 30.4017C15.2422 30.4064 15.2173 30.4111 15.1925 30.4157C15.1614 30.6226 15.1304 30.8295 15.0993 31.0363C15.0846 31.0407 15.0698 31.045 15.055 31.0494C14.9708 30.9037 14.8867 30.758 14.7794 30.5722C14.7016 30.9683 14.6334 31.3256 14.559 31.6816C14.5486 31.7317 14.5082 31.7757 14.4817 31.8225C14.4502 31.7791 14.4067 31.74 14.389 31.6916C14.2033 31.183 14.1881 30.6476 14.1512 30.1165C14.1297 29.8062 14.1199 29.495 14.1095 29.184C14.1015 28.946 13.8856 28.9957 13.7441 28.9161C13.8519 28.7767 13.9582 28.6394 14.0801 28.4818C13.6707 28.302 13.2729 28.1272 12.8223 27.9293C14.0161 27.3595 14.3271 26.2575 14.6377 25.148C14.4673 25.1674 14.3643 25.235 14.2806 25.4227C14.2152 25.5694 14.1787 25.729 14.1302 25.8831C14.0828 26.0337 14.0365 26.1848 13.9898 26.3356C13.9731 26.333 13.9564 26.3305 13.9398 26.3279C13.9257 25.9395 13.8996 25.551 13.9017 25.1627C13.9032 24.882 14.0698 24.6707 14.2669 24.4848C14.4019 24.3576 14.5363 24.2297 14.6709 24.1022C14.658 24.0847 14.6451 24.0671 14.6322 24.0496C14.4797 24.137 14.3272 24.2244 14.1341 24.335C14.2096 24.0498 14.3341 23.8503 14.5547 23.7125C14.6866 23.6302 14.8304 23.5613 14.9461 23.4604C15.0474 23.3721 15.1171 23.2475 15.2161 23.1191C15.1306 23.1006 15.0928 23.0923 15.0546 23.084C15.0556 23.0688 15.0517 23.0531 15.0579 23.0454C15.1393 22.9449 15.1989 22.8455 15.1771 22.7008C15.1666 22.6313 15.2214 22.5473 15.2585 22.476C15.4547 22.0987 15.6513 21.7215 15.8547 21.3481C15.9528 21.1681 15.9556 20.9995 15.8789 20.8073C15.3104 19.3835 15.5913 18.0528 16.3616 16.792C16.4915 16.5793 16.7035 16.41 16.8983 16.2451C17.1353 16.0444 17.2589 16.0593 17.4804 16.2677C17.9342 16.6947 18.3806 17.1298 18.8411 17.5494C19.3014 17.9689 19.7723 18.3769 20.2443 18.7834C20.4867 18.9921 20.7567 19.0796 21.0617 18.9046C21.1084 18.8778 21.1598 18.8592 21.2094 18.8378C21.2119 18.8368 21.2187 18.8458 21.2324 18.8583C21.2055 18.9315 21.1768 19.0092 21.1339 19.1259C21.2284 19.0675 21.2874 19.0311 21.3598 18.9865C21.3914 19.0696 21.4204 19.1458 21.4601 19.2503C21.5286 19.1189 21.5832 19.014 21.645 18.8954C21.7144 18.9597 21.7717 19.0129 21.8483 19.084C21.9004 19.002 21.9482 18.9269 22.0028 18.8411C22.0549 18.9311 22.1039 19.0159 22.1616 19.1156C22.231 19.0547 22.2937 18.9997 22.3669 18.9355C22.4283 19.0479 22.4849 19.1517 22.5568 19.2833C22.5942 19.1799 22.6202 19.1077 22.6516 19.021C22.7289 19.0691 22.7935 19.1092 22.8907 19.1696C22.8432 19.0553 22.8109 18.9774 22.769 18.8765C22.8281 18.8923 22.8738 18.8946 22.9085 18.9153C23.259 19.125 23.5566 19.0123 23.8296 18.7652C24.598 18.0696 25.3651 17.3725 26.1317 16.6749C26.2669 16.5518 26.3954 16.4213 26.53 16.2975C26.7503 16.0949 26.8825 16.0944 27.1205 16.2682C27.7352 16.7171 28.0198 17.3661 28.2295 18.0633C28.5195 19.028 28.5282 19.9809 28.1115 20.9155C28.0365 21.0838 28.0848 21.2315 28.1633 21.3792C28.3568 21.7431 28.556 22.1042 28.7403 22.4726C28.7953 22.5827 28.8037 22.7152 28.8429 22.8342C28.8732 22.9261 28.9183 23.0132 28.9637 23.1185C28.9344 23.1266 28.89 23.139 28.8386 23.1533C28.9169 23.4168 29.1183 23.5517 29.3345 23.6683C29.5697 23.7951 29.7485 23.9698 29.8427 24.2228C29.8557 24.2578 29.8582 24.2967 29.872 24.3666C29.6959 24.2626 29.5479 24.1751 29.4 24.0877C29.3905 24.0951 29.381 24.1026 29.3715 24.1101C29.3893 24.1454 29.3998 24.188 29.4263 24.2148C29.5167 24.3063 29.6101 24.3953 29.7071 24.4798C30.0075 24.7412 30.1591 25.0576 30.1172 25.4654C30.0869 25.7594 30.085 26.0563 30.0685 26.3899C29.7961 25.9809 29.9303 25.3915 29.3645 25.1293C29.6894 26.2866 29.9926 27.3922 31.206 27.961C30.763 28.1536 30.357 28.3301 29.9342 28.514C30.0494 28.6632 30.1587 28.8047 30.264 28.9409C30.1474 28.9974 30.0084 29.0232 29.9481 29.106C29.8903 29.1854 29.9119 29.3238 29.9026 29.4366C29.8398 30.2019 29.8829 30.98 29.6268 31.7217C29.6093 31.7722 29.5705 31.8154 29.5416 31.8619C29.5115 31.8101 29.4656 31.7617 29.4537 31.706C29.3791 31.3565 29.312 31.0054 29.2348 30.6166C29.1346 30.7888 29.0498 30.9346 28.965 31.0804C28.9478 31.0767 28.9306 31.073 28.9134 31.0693C28.8841 30.8674 28.8548 30.6655 28.8255 30.4635C28.8068 30.4556 28.7881 30.4478 28.7695 30.4399C28.6868 30.6207 28.5807 30.7949 28.5262 30.9838C28.4142 31.3726 28.3348 31.7707 28.2322 32.1624C28.1685 32.4051 28.0899 32.6447 27.8785 32.8292C27.8785 32.5635 27.8785 32.2977 27.8785 32.032C27.8644 32.0277 27.8504 32.0234 27.8363 32.0191C27.7866 32.1069 27.7369 32.1947 27.6872 32.2824C27.6702 32.2781 27.6531 32.2738 27.6361 32.2695C27.5912 31.9481 27.5464 31.6266 27.4936 31.2483C27.1638 32.0173 26.8568 32.7332 26.5497 33.4491C26.5276 33.448 26.5055 33.4468 26.4834 33.4457C26.5072 33.0535 26.6362 32.651 26.3907 32.2682C26.3658 32.9582 26.1313 33.5504 25.5855 34.0495C25.6116 33.843 25.6331 33.6724 25.6547 33.5019C25.6361 33.4961 25.6176 33.4902 25.599 33.4844C25.4863 33.7886 25.3735 34.0929 25.2608 34.3971C25.2384 34.3961 25.2159 34.3951 25.1935 34.394C25.1568 34.2604 25.1201 34.1269 25.0784 33.975C24.7468 34.2692 24.615 34.6472 24.5187 35.0731C24.4514 34.9336 24.3971 34.8209 24.3164 34.6534C24.2087 35.0273 24.1156 35.3504 24.0052 35.7339C23.9019 35.4729 23.8184 35.2618 23.7242 35.0237C23.445 35.4367 23.507 35.8931 23.4632 36.3264C23.4419 36.3321 23.4206 36.3378 23.3993 36.3435C23.3244 36.1458 23.2496 35.9481 23.1667 35.7293C22.8174 36.1858 22.7965 36.7322 22.6869 37.3019C22.6275 37.0888 22.5828 36.9284 22.5381 36.7681C22.5224 36.7643 22.5067 36.7605 22.4909 36.7567C22.4409 36.8746 22.3743 36.9884 22.3443 37.1112C22.2772 37.3864 22.2356 37.6677 22.1685 37.9429C22.1417 38.0526 22.0752 38.1527 22.0267 38.2572C22.0004 38.2547 21.9741 38.2523 21.9478 38.2498ZM20.2464 32.7762C20.2695 32.7746 20.2925 32.773 20.3156 32.7715C20.5282 33.2153 20.7408 33.6591 20.9534 34.1029C20.9638 34.0985 20.9742 34.0941 20.9846 34.0897C20.9436 33.8158 20.9025 33.5419 20.8615 33.268C20.8766 33.2628 20.8916 33.2576 20.9067 33.2525C21.0896 33.5718 21.2725 33.8911 21.4555 34.2105C21.4786 34.2002 21.5016 34.1899 21.5247 34.1796C21.4704 34.0201 21.4161 33.8605 21.3497 33.6653C21.7933 33.7931 21.8288 34.1998 22.0175 34.4871C22.3878 33.7554 22.4175 33.7209 22.6551 33.7497C22.5975 33.9028 22.5403 34.0546 22.4832 34.2063C22.5069 34.2188 22.5306 34.2313 22.5543 34.2439C22.7392 33.9245 22.9241 33.6051 23.1091 33.2857C23.1243 33.2928 23.1396 33.2999 23.1549 33.307C23.1152 33.5787 23.0755 33.8504 23.0358 34.1221C23.0449 34.1249 23.054 34.1276 23.0631 34.1304C23.2755 33.6846 23.488 33.2388 23.7005 32.7931C23.7266 32.7974 23.7527 32.8017 23.7789 32.806C23.7862 32.9363 23.7935 33.0666 23.8022 33.2223C24.0726 32.7274 24.3705 32.2649 24.418 31.6536C24.6269 32.0624 24.5153 32.4264 24.4446 32.7954C24.7213 32.2524 24.998 31.7095 25.2746 31.1665C25.2859 31.1707 25.2971 31.1749 25.3084 31.1791C25.3136 31.296 25.3189 31.413 25.3259 31.5699C25.3663 31.5154 25.3824 31.497 25.3948 31.4764C25.6782 31.0084 25.9742 30.5473 26.2384 30.0686C26.3632 29.8424 26.4279 29.583 26.5171 29.3376C26.5331 29.2934 26.5358 29.2444 26.5446 29.1977C26.5613 29.1966 26.5779 29.1955 26.5946 29.1943C26.6437 29.3873 26.6928 29.5803 26.7507 29.8078C27.0688 29.2345 27.2282 28.6522 27.2947 27.9909C27.5687 28.5272 27.6614 29.0409 27.6357 29.5815C28.1843 28.5469 28.3534 27.4899 27.8213 26.3639C28.2865 26.5261 28.4826 26.9133 28.7794 27.1953C28.7151 26.783 28.6463 26.3776 28.5525 25.9779C28.392 25.294 28.1749 24.6333 27.6267 24.1439C27.4538 23.9894 27.2678 23.8495 27.0589 23.6794C27.0251 24.2251 27.1651 24.7386 26.8726 25.2376C26.8474 25.0675 26.8285 24.9401 26.8018 24.7595C26.6203 25.1972 26.7122 25.6771 26.3117 25.9725C26.3276 25.7803 26.3434 25.5881 26.3592 25.3959C26.3398 25.39 26.3203 25.3842 26.3009 25.3784C26.2621 25.4287 26.221 25.4774 26.185 25.5297C25.9663 25.8473 25.7529 26.1686 25.5299 26.4832C25.1888 26.9642 24.902 27.4561 25.1616 28.1104C24.6252 27.8392 24.6743 27.275 24.4081 26.8541C24.3785 27.195 24.3521 27.4995 24.3256 27.8039C24.0177 27.3452 23.7489 26.8787 23.4969 26.4034C23.4006 26.2219 23.4721 26.0762 23.6754 26.0064C23.9626 25.9078 24.2549 25.8238 24.5462 25.7374C24.5776 25.7281 24.6166 25.7445 24.6911 25.754C24.5252 25.946 24.3835 26.1099 24.2418 26.2738C24.2554 26.2897 24.269 26.3057 24.2826 26.3216C24.5323 26.132 24.782 25.9424 25.064 25.7283C25.0303 25.9258 25.0051 26.0731 24.9799 26.2204C24.996 26.2309 25.0121 26.2414 25.0282 26.2519C25.0392 26.2265 25.0454 26.1974 25.0618 26.1762C25.219 25.9727 25.399 25.7829 25.5291 25.5636C25.6216 25.4077 25.6718 25.2157 25.6963 25.0339C25.7229 24.8368 25.5803 24.7402 25.3967 24.8185C25.268 24.8734 25.1601 24.9762 25.0327 25.0356C24.7782 25.154 24.525 25.3083 24.2557 25.3525C23.9938 25.3955 23.7569 25.4511 23.5404 25.6017C23.4792 25.6443 23.4059 25.6696 23.2943 25.7243C23.3715 25.3752 23.4376 25.0766 23.5051 24.7714C23.4245 24.7714 23.3582 24.7714 23.2619 24.7714C23.2922 24.7248 23.3013 24.7001 23.3189 24.6854C23.7096 24.3606 24.0947 24.0285 24.4968 23.7184C24.6087 23.6321 24.7716 23.6117 24.9112 23.561C24.9176 23.5766 24.9241 23.5922 24.9305 23.6077C24.7956 23.7063 24.6607 23.8049 24.5258 23.9035C24.7888 23.9941 25.0332 24.0526 25.2806 24.0713C25.4897 24.0871 25.7146 23.8736 25.7284 23.6737C25.7429 23.4629 25.5612 23.4363 25.4215 23.3805C25.2687 23.3195 25.1114 23.2697 24.9183 23.2018C25.0876 23.1504 25.2109 23.1129 25.3342 23.0754C25.0432 22.9854 24.7515 22.9364 24.4593 22.8912C24.1908 22.8496 24.003 22.9541 23.8835 23.2003C23.6874 23.6039 23.3973 23.9058 22.9655 24.073C22.716 24.1695 22.6265 24.3793 22.703 24.6372C22.7482 24.7899 22.8428 24.9274 22.9061 25.0757C22.9713 25.2282 23.0253 25.3854 23.0842 25.5406C23.0694 25.5468 23.0545 25.5531 23.0396 25.5593C22.9602 25.4887 22.8809 25.4181 22.8015 25.3474C22.8776 25.482 23.0095 25.5879 23.0458 25.72C23.148 26.0925 23.2109 26.4757 23.2893 26.8547C23.2721 26.86 23.2549 26.8653 23.2377 26.8706C23.1369 26.6902 23.0361 26.5098 22.9353 26.3294C22.9267 26.3339 22.918 26.3383 22.9094 26.3428C23.0482 26.6676 23.1871 26.9923 23.326 27.3171C23.3141 27.3207 23.3023 27.3244 23.2905 27.328C23.1221 27.1428 22.9538 26.9576 22.7854 26.7724C22.7571 26.7907 22.7288 26.8089 22.7005 26.8272C22.7917 27.0246 22.8667 27.2319 22.9792 27.4163C23.0765 27.5758 23.2155 27.7102 23.338 27.854C23.4865 28.0284 23.5632 28.2197 23.4835 28.4713C23.3269 27.8941 22.7897 27.8665 22.3545 27.6435C22.5003 28.0864 22.6988 28.4606 23.0854 28.7261C22.7139 28.6715 22.3656 28.5308 22.0137 28.5209C21.6662 28.5112 21.315 28.6338 20.9423 28.7027C21.104 28.5204 21.2608 28.3756 21.3771 28.2035C21.4946 28.0297 21.5718 27.8288 21.6871 27.5993C21.2281 27.8401 20.6834 27.857 20.5339 28.4351C20.4545 28.1714 20.5393 27.9789 20.696 27.7985C20.8416 27.6309 20.9901 27.4613 21.105 27.273C21.1947 27.1259 21.2349 26.9488 21.2971 26.785C21.2729 26.7708 21.2487 26.7566 21.2244 26.7424C21.0624 26.9199 20.9005 27.0975 20.7385 27.2751C20.7263 27.2683 20.714 27.2615 20.7018 27.2546C20.834 26.9439 20.9661 26.6331 21.0983 26.3224C21.089 26.3181 21.0797 26.3138 21.0705 26.3095C20.9714 26.4898 20.8723 26.67 20.7732 26.8502C20.7568 26.8446 20.7404 26.839 20.724 26.8334C20.7871 26.5855 20.8503 26.3377 20.9114 26.0981C20.8945 26.1108 20.8696 26.1298 20.8446 26.1487C20.8275 26.1383 20.8105 26.1279 20.7934 26.1176C20.9161 25.8579 21.0388 25.5982 21.1446 25.3745C21.1093 25.4045 21.0381 25.4653 20.9374 25.5511C20.9612 25.4441 20.9651 25.3746 20.9919 25.3154C21.0753 25.1314 21.1662 24.9508 21.2562 24.7699C21.4293 24.4221 21.3344 24.1402 20.9745 23.9965C20.6648 23.8728 20.4343 23.6676 20.263 23.3886C20.1958 23.2792 20.1479 23.153 20.0624 23.0612C19.9804 22.973 19.8582 22.8572 19.7586 22.8618C19.3906 22.8786 19.0246 22.9403 18.6579 22.9851C18.6587 23.0038 18.6596 23.0224 18.6604 23.041C18.7843 23.0783 18.9082 23.1156 19.0798 23.1673C18.8469 23.2519 18.6571 23.3142 18.473 23.39C18.3592 23.4369 18.2375 23.5036 18.2854 23.6577C18.344 23.8463 18.4572 24.0326 18.6657 24.0327C18.9369 24.0328 19.208 23.965 19.4792 23.9264C19.4801 23.9011 19.481 23.8758 19.4819 23.8504C19.3473 23.7588 19.2128 23.6671 19.0732 23.572C19.3634 23.5443 20.4247 24.2859 20.735 24.7345C20.656 24.7345 20.5883 24.7345 20.5066 24.7345C20.5738 25.0424 20.6396 25.3441 20.7179 25.7024C20.6123 25.6426 20.5601 25.6173 20.5124 25.5854C20.2784 25.4286 20.035 25.3104 19.7395 25.324C19.6427 25.3285 19.5335 25.2978 19.4472 25.2514C19.2098 25.1235 18.9878 24.9664 18.7469 24.8465C18.6439 24.7952 18.4818 24.7592 18.3976 24.8066C18.3312 24.8439 18.3109 25.0241 18.326 25.1332C18.3891 25.5906 18.7523 25.8598 19.038 26.1847C19.0137 26.0365 18.9893 25.8884 18.9597 25.7082C19.2354 25.915 19.4862 26.1032 19.7371 26.2914C19.7502 26.2754 19.7633 26.2593 19.7764 26.2432C19.6322 26.0725 19.4879 25.9017 19.3437 25.7309C19.3544 25.7142 19.365 25.6976 19.3757 25.6809C19.6633 25.7664 19.9521 25.8478 20.2381 25.9383C20.567 26.0423 20.6241 26.18 20.4615 26.4786C20.297 26.7807 20.1256 27.0792 19.9554 27.3783C19.8781 27.5142 19.7965 27.6477 19.6988 27.8129C19.6779 27.6127 19.6596 27.4585 19.6464 27.3039C19.6334 27.1515 19.6256 26.9987 19.6121 26.7946C19.3465 27.2438 19.3843 27.7937 18.8644 28.0667C19.0527 27.5413 18.9302 27.1 18.6522 26.6881C18.4596 26.4026 18.2596 26.1221 18.0643 25.8384C17.9484 25.67 17.8353 25.4997 17.7209 25.3303C17.698 25.3373 17.6751 25.3442 17.6522 25.3512C17.6668 25.5425 17.6815 25.7339 17.6961 25.9253C17.6761 25.9303 17.656 25.9354 17.636 25.9404C17.3134 25.6246 17.3972 25.15 17.1981 24.774C17.1811 24.9023 17.1641 25.0306 17.141 25.2053C16.86 24.6976 16.987 24.185 16.9577 23.6662C16.342 24.0506 15.8817 24.5404 15.6758 25.2104C15.4788 25.8512 15.3468 26.5119 15.1862 27.1638C15.2046 27.1716 15.2229 27.1794 15.2412 27.1871C15.5325 26.8932 15.7276 26.4886 16.1762 26.344C15.6053 27.5815 15.9107 28.7671 16.4093 29.5894C16.3427 29.0083 16.458 28.5023 16.722 27.9608C16.7775 28.6394 16.9575 29.2182 17.2652 29.7791C17.322 29.5619 17.3725 29.3688 17.4154 29.2049C17.5507 29.5105 17.6699 29.8203 17.8229 30.1125C17.9475 30.3506 18.1193 30.5636 18.2578 30.7951C18.4014 31.0353 18.53 31.2843 18.6651 31.5295C18.6796 31.5261 18.6941 31.5227 18.7086 31.5192C18.7086 31.3989 18.7086 31.2785 18.7086 31.1581C18.7214 31.1563 18.7342 31.1545 18.747 31.1528C19.0203 31.6907 19.2936 32.2286 19.5669 32.7666C19.4406 32.0409 19.4407 31.9005 19.5989 31.6744C19.6483 32.2526 19.9505 32.7192 20.2464 33.2496C20.2464 33.0526 20.2464 32.9144 20.2464 32.7762ZM17.2722 19.3305C17.1786 19.029 17.1009 18.7789 17.012 18.4927C17.1196 18.5725 17.1874 18.6228 17.2551 18.673C17.2668 18.6626 17.2784 18.6522 17.2901 18.6417C17.2034 18.3 17.1167 17.9583 17.0276 17.6073C17.2483 17.5502 17.3741 17.6309 17.4339 17.8069C17.6445 18.4266 17.8486 19.0485 18.054 19.6699C18.0949 19.7936 18.1308 19.9188 18.169 20.0433C18.1824 20.0406 18.1959 20.0379 18.2093 20.0352C18.2173 19.9635 18.2252 19.8917 18.2369 19.7866C18.3121 19.9661 18.3732 20.1117 18.4412 20.274C18.5712 20.2088 18.6765 20.156 18.8039 20.092C18.3866 19.3264 17.9917 18.5731 17.565 17.8382C17.4507 17.6413 17.2505 17.4872 17.0699 17.3372C16.8614 17.164 16.7009 17.2178 16.6022 17.4751C16.3908 18.0261 16.2327 18.5904 16.2019 19.1838C16.1749 19.7039 16.2548 20.2084 16.439 20.695C16.4959 20.8453 16.579 20.9764 16.7903 20.9133C16.7457 20.7661 16.7034 20.6268 16.6567 20.4728C16.8499 20.4537 17.0202 20.4368 17.2 20.419C17.1084 20.1263 16.8434 20.1937 16.658 20.117C16.6544 20.0952 16.6509 20.0733 16.6473 20.0514C16.8383 19.9966 17.0294 19.9419 17.2231 19.8863C17.1006 19.7705 16.9415 19.6652 16.8479 19.5184C16.7581 19.3775 16.7363 19.1935 16.6846 19.0285C16.7032 19.0205 16.7217 19.0125 16.7403 19.0045C16.9004 19.1026 17.0605 19.2007 17.2722 19.3305ZM26.9754 18.4988C26.9926 18.5062 27.0097 18.5136 27.0269 18.5211C26.9534 18.7669 26.88 19.0128 26.7939 19.3013C26.9978 19.1767 27.1567 19.0795 27.3259 18.976C27.3689 19.4042 27.1651 19.6797 26.821 19.9067C27.0546 19.9705 27.2936 19.942 27.4182 20.1912C27.2068 20.2291 26.9646 20.172 26.8491 20.4352C27.0419 20.4507 27.2074 20.4639 27.3951 20.479C27.3447 20.6444 27.3027 20.7821 27.2568 20.9328C27.4859 20.9557 27.5267 20.7905 27.5768 20.6502C27.9685 19.5541 27.7815 18.4947 27.3594 17.454C27.2925 17.2889 27.1532 17.2485 27.0137 17.3564C26.8383 17.4922 26.6343 17.6249 26.5265 17.8081C26.0827 18.5619 25.6707 19.3344 25.2398 20.113C25.3656 20.1743 25.4607 20.2207 25.5643 20.2711C25.637 20.0924 25.7032 19.9298 25.788 19.7215C25.8109 19.8346 25.8231 19.8948 25.842 19.9879C26.0217 19.4143 26.1839 18.873 26.3628 18.3373C26.4405 18.1043 26.4872 17.8439 26.7121 17.692C26.7796 17.6463 26.8748 17.6414 26.9573 17.6179C26.9612 17.6912 26.982 17.7685 26.966 17.8372C26.9026 18.1089 26.8276 18.378 26.7569 18.648C26.7687 18.6534 26.7805 18.6588 26.7923 18.6642C26.8533 18.6091 26.9144 18.5539 26.9754 18.4988ZM19.866 24.4626C19.8173 24.5898 19.787 24.7019 19.7313 24.7995C19.7048 24.8461 19.6274 24.8933 19.5779 24.8887C19.5303 24.8843 19.4681 24.8208 19.4495 24.7698C19.4146 24.674 19.4066 24.5685 19.385 24.4544C19.2231 24.573 19.2097 24.7954 19.329 24.9442C19.4369 25.0788 19.6874 25.1023 19.8263 24.9909C19.9807 24.867 20.0092 24.6211 19.866 24.4626ZM24.7081 24.5403C24.6881 24.5378 24.6681 24.5353 24.6481 24.5329C24.6291 24.6293 24.623 24.731 24.5864 24.8203C24.5633 24.8764 24.4954 24.9496 24.4461 24.9507C24.384 24.9521 24.2992 24.9023 24.2624 24.8485C24.2031 24.7617 24.175 24.6536 24.122 24.5265C24.0469 24.7571 24.0958 24.9475 24.234 25.0248C24.3713 25.1017 24.5155 25.0966 24.631 24.9925C24.7741 24.8635 24.7563 24.6999 24.7081 24.5403Z" fill="black"/>
<path d="M20.2467 32.7763C20.2467 32.9145 20.2467 33.0526 20.2467 33.2496C19.9508 32.7192 19.6486 32.2526 19.5992 31.6745C19.4409 31.9006 19.4409 32.0409 19.5672 32.7666C19.2939 32.2287 19.0206 31.6907 18.7473 31.1528C18.7345 31.1546 18.7217 31.1564 18.7089 31.1582C18.7089 31.2786 18.7089 31.3989 18.7089 31.5193C18.6944 31.5227 18.6799 31.5261 18.6654 31.5296C18.5303 31.2844 18.4017 31.0353 18.2581 30.7952C18.1196 30.5636 17.9478 30.3507 17.8232 30.1126C17.6702 29.8204 17.551 29.5106 17.4157 29.2049C17.3728 29.3688 17.3223 29.5619 17.2655 29.7792C16.9578 29.2183 16.7778 28.6395 16.7223 27.9609C16.4583 28.5023 16.343 29.0084 16.4095 29.5894C15.911 28.7672 15.6056 27.5816 16.1765 26.3441C15.7279 26.4886 15.5328 26.8933 15.2415 27.1872C15.2231 27.1794 15.2048 27.1716 15.1865 27.1638C15.3471 26.5119 15.4791 25.8513 15.676 25.2105C15.882 24.5404 16.3423 24.0507 16.958 23.6662C16.9873 24.1851 16.8603 24.6976 17.1413 25.2054C17.1644 25.0307 17.1814 24.9024 17.1983 24.774C17.3975 25.1501 17.3136 25.6247 17.6363 25.9404C17.6563 25.9354 17.6763 25.9304 17.6964 25.9253C17.6818 25.734 17.6671 25.5426 17.6525 25.3512C17.6754 25.3443 17.6983 25.3373 17.7211 25.3304C17.8355 25.4998 17.9487 25.67 18.0646 25.8384C18.2599 26.1221 18.4599 26.4026 18.6525 26.6881C18.9305 27.1001 19.053 27.5414 18.8647 28.0668C19.3846 27.7938 19.3468 27.2439 19.6124 26.7947C19.6259 26.9988 19.6336 27.1516 19.6467 27.3039C19.6599 27.4586 19.6782 27.6128 19.6991 27.8129C19.7968 27.6478 19.8784 27.5143 19.9557 27.3784C20.1259 27.0793 20.2973 26.7808 20.4618 26.4786C20.6244 26.1801 20.5673 26.0424 20.2384 25.9383C19.9524 25.8479 19.6636 25.7664 19.376 25.681C19.3653 25.6976 19.3546 25.7143 19.344 25.7309C19.4882 25.9017 19.6325 26.0725 19.7767 26.2433C19.7636 26.2594 19.7505 26.2754 19.7374 26.2915C19.4865 26.1033 19.2357 25.9151 18.96 25.7082C18.9896 25.8884 19.014 26.0366 19.0383 26.1847C18.7526 25.8599 18.3894 25.5906 18.3262 25.1332C18.3112 25.0242 18.3315 24.8439 18.3978 24.8066C18.4821 24.7593 18.6442 24.7953 18.7472 24.8465C18.9881 24.9664 19.2101 25.1236 19.4474 25.2514C19.5338 25.2979 19.643 25.3285 19.7398 25.3241C20.0353 25.3104 20.2786 25.4286 20.5127 25.5854C20.5604 25.6174 20.6126 25.6427 20.7181 25.7024C20.6399 25.3442 20.5741 25.0424 20.5068 24.7345C20.5885 24.7345 20.6563 24.7345 20.7353 24.7345C20.425 24.286 19.3637 23.5443 19.0735 23.5721C19.213 23.6671 19.3476 23.7588 19.4822 23.8505C19.4813 23.8758 19.4804 23.9011 19.4795 23.9264C19.2083 23.965 18.9371 24.0328 18.666 24.0327C18.4575 24.0327 18.3443 23.8464 18.2857 23.6577C18.2377 23.5036 18.3595 23.4369 18.4733 23.3901C18.6574 23.3142 18.8472 23.2519 19.0801 23.1674C18.9085 23.1157 18.7846 23.0784 18.6607 23.0411C18.6598 23.0224 18.659 23.0038 18.6582 22.9852C19.0249 22.9404 19.3909 22.8787 19.7589 22.8618C19.8584 22.8573 19.9806 22.9731 20.0627 23.0613C20.1482 23.1531 20.196 23.2793 20.2633 23.3887C20.4346 23.6676 20.6651 23.8728 20.9748 23.9965C21.3347 24.1402 21.4296 24.4222 21.2565 24.7699C21.1665 24.9509 21.0755 25.1315 20.9922 25.3155C20.9654 25.3746 20.9615 25.4442 20.9377 25.5512C21.0384 25.4653 21.1096 25.4046 21.1449 25.3745C21.0391 25.5983 20.9164 25.8579 20.7937 26.1176C20.8108 26.128 20.8278 26.1384 20.8449 26.1488C20.8698 26.1298 20.8948 26.1109 20.9117 26.0981C20.8506 26.3378 20.7874 26.5856 20.7243 26.8334C20.7407 26.839 20.7571 26.8446 20.7735 26.8502C20.8726 26.67 20.9717 26.4898 21.0708 26.3096C21.08 26.3139 21.0893 26.3181 21.0985 26.3224C20.9664 26.6332 20.8343 26.9439 20.7021 27.2547C20.7143 27.2615 20.7265 27.2683 20.7387 27.2751C20.9007 27.0976 21.0627 26.92 21.2247 26.7424C21.249 26.7567 21.2732 26.7709 21.2974 26.7851C21.2352 26.9489 21.195 27.126 21.1053 27.2731C20.9903 27.4614 20.8418 27.6309 20.6962 27.7986C20.5396 27.9789 20.4548 28.1715 20.5342 28.4352C20.6837 27.857 21.2283 27.8402 21.6873 27.5993C21.5721 27.8289 21.4949 28.0298 21.3774 28.2035C21.2611 28.3757 21.1042 28.5205 20.9426 28.7027C21.3153 28.6339 21.6665 28.5113 22.014 28.521C22.3659 28.5308 22.7142 28.6715 23.0857 28.7262C22.6991 28.4607 22.5006 28.0864 22.3548 27.6436C22.79 27.8666 23.3272 27.8941 23.4838 28.4714C23.5635 28.2198 23.4868 28.0285 23.3383 27.8541C23.2158 27.7102 23.0768 27.5758 22.9795 27.4164C22.8669 27.2319 22.792 27.0246 22.7008 26.8273C22.7291 26.809 22.7574 26.7907 22.7857 26.7724C22.954 26.9577 23.1224 27.1429 23.2907 27.3281C23.3026 27.3244 23.3144 27.3208 23.3263 27.3171C23.1874 26.9924 23.0485 26.6676 22.9096 26.3429C22.9183 26.3384 22.9269 26.3339 22.9356 26.3294C23.0364 26.5098 23.1372 26.6902 23.2379 26.8706C23.2552 26.8653 23.2724 26.8601 23.2896 26.8548C23.2112 26.4758 23.1483 26.0926 23.0461 25.7201C23.0098 25.588 22.8779 25.4821 22.8018 25.3475C22.8811 25.4181 22.9605 25.4887 23.0399 25.5593C23.0548 25.5531 23.0696 25.5469 23.0845 25.5407C23.0256 25.3855 22.9716 25.2282 22.9064 25.0757C22.8431 24.9275 22.7485 24.79 22.7033 24.6373C22.6268 24.3793 22.7163 24.1695 22.9657 24.073C23.3976 23.9059 23.6877 23.604 23.8837 23.2004C24.0033 22.9542 24.191 22.8497 24.4596 22.8913C24.7518 22.9365 25.0434 22.9855 25.3345 23.0754C25.2112 23.1129 25.0879 23.1504 24.9186 23.2019C25.1116 23.2698 25.269 23.3195 25.4218 23.3805C25.5615 23.4363 25.7432 23.463 25.7287 23.6738C25.7149 23.8737 25.49 24.0871 25.2809 24.0714C25.0335 24.0527 24.7891 23.9942 24.5261 23.9035C24.661 23.805 24.7959 23.7064 24.9308 23.6078C24.9243 23.5922 24.9179 23.5767 24.9115 23.5611C24.7719 23.6117 24.609 23.6322 24.4971 23.7185C24.0949 24.0285 23.7099 24.3607 23.3192 24.6855C23.3016 24.7001 23.2925 24.7249 23.2622 24.7714C23.3585 24.7714 23.4248 24.7714 23.5054 24.7714C23.4379 25.0766 23.3718 25.3753 23.2946 25.7244C23.4062 25.6696 23.4795 25.6443 23.5407 25.6017C23.7572 25.4511 23.9941 25.3955 24.2559 25.3526C24.5253 25.3084 24.7785 25.1541 25.0329 25.0356C25.1604 24.9762 25.2682 24.8735 25.397 24.8186C25.5805 24.7403 25.7232 24.8368 25.6966 25.0339C25.6721 25.2158 25.6219 25.4078 25.5294 25.5637C25.3993 25.783 25.2193 25.9727 25.0621 26.1763C25.0457 26.1975 25.0395 26.2265 25.0285 26.2519C25.0124 26.2414 24.9963 26.231 24.9802 26.2205C25.0054 26.0732 25.0306 25.9259 25.0643 25.7284C24.7823 25.9425 24.5326 26.132 24.2828 26.3216C24.2692 26.3057 24.2556 26.2898 24.2421 26.2739C24.3837 26.1099 24.5254 25.946 24.6914 25.754C24.6168 25.7446 24.5779 25.7282 24.5465 25.7375C24.2552 25.8239 23.9629 25.9079 23.6757 26.0065C23.4724 26.0763 23.4009 26.2219 23.4971 26.4035C23.7492 26.8788 24.018 27.3453 24.3259 27.804C24.3523 27.4995 24.3788 27.1951 24.4084 26.8542C24.6746 27.2751 24.6254 27.8393 25.1619 28.1104C24.9023 27.4562 25.1891 26.9643 25.5302 26.4832C25.7532 26.1687 25.9666 25.8473 26.1853 25.5297C26.2212 25.4775 26.2624 25.4288 26.3012 25.3784C26.3206 25.3843 26.3401 25.3901 26.3595 25.3959C26.3437 25.5881 26.3278 25.7803 26.312 25.9725C26.7125 25.6772 26.6206 25.1972 26.8021 24.7595C26.8288 24.9401 26.8477 25.0675 26.8729 25.2377C27.1653 24.7386 27.0254 24.2252 27.0592 23.6795C27.2681 23.8495 27.454 23.9895 27.627 24.1439C28.1752 24.6334 28.3923 25.2941 28.5528 25.978C28.6465 26.3776 28.7154 26.7831 28.7797 27.1953C28.4829 26.9133 28.2868 26.5261 27.8216 26.364C28.3537 27.4899 28.1846 28.547 27.636 29.5815C27.6617 29.041 27.5689 28.5272 27.295 27.9909C27.2284 28.6523 27.0691 29.2345 26.751 29.8078C26.6931 29.5804 26.644 29.3874 26.5949 29.1944C26.5782 29.1955 26.5615 29.1966 26.5449 29.1977C26.536 29.2445 26.5334 29.2935 26.5174 29.3376C26.4282 29.583 26.3635 29.8425 26.2386 30.0687C25.9745 30.5473 25.6784 31.0084 25.3951 31.4765C25.3827 31.4971 25.3666 31.5155 25.3262 31.57C25.3192 31.413 25.3139 31.2961 25.3087 31.1792C25.2974 31.175 25.2862 31.1708 25.2749 31.1666C24.9982 31.7095 24.7216 32.2525 24.4449 32.7955C24.5156 32.4265 24.6272 32.0625 24.4183 31.6537C24.3708 32.2649 24.0729 32.7274 23.8025 33.2224C23.7937 33.0666 23.7864 32.9364 23.7791 32.8061C23.753 32.8018 23.7269 32.7974 23.7008 32.7931C23.4883 33.2389 23.2758 33.6847 23.0634 34.1304C23.0543 34.1277 23.0452 34.1249 23.0361 34.1222C23.0758 33.8505 23.1155 33.5787 23.1551 33.307C23.1399 33.2999 23.1246 33.2928 23.1094 33.2857C22.9244 33.6051 22.7395 33.9245 22.5546 34.2439C22.5309 34.2314 22.5072 34.2189 22.4835 34.2063C22.5406 34.0546 22.5978 33.9029 22.6554 33.7497C22.4177 33.721 22.3881 33.7554 22.0178 34.4872C21.8291 34.1999 21.7936 33.7931 21.35 33.6653C21.4164 33.8605 21.4707 34.0201 21.525 34.1797C21.5019 34.19 21.4788 34.2002 21.4558 34.2105C21.2728 33.8912 21.0899 33.5719 20.907 33.2525C20.8919 33.2577 20.8768 33.2629 20.8618 33.268C20.9028 33.5419 20.9438 33.8158 20.9849 34.0897C20.9745 34.0941 20.9641 34.0985 20.9537 34.1029C20.7411 33.6591 20.5285 33.2153 20.3159 32.7715C20.2928 32.7731 20.2697 32.7747 20.2467 32.7763ZM24.4296 29.0831C24.4012 28.9487 24.3784 28.8402 24.3555 28.7318C24.3419 28.7297 24.3283 28.7277 24.3146 28.7256C24.2387 29.0557 24.1629 29.3858 24.087 29.716C24.0748 29.7135 24.0626 29.7111 24.0504 29.7086C23.9988 29.5055 23.9471 29.3024 23.8852 29.0589C23.8422 29.1231 23.8192 29.1422 23.816 29.1643C23.7234 29.7994 23.3448 30.2662 22.8807 30.6613C22.7538 30.7694 22.5214 30.7542 22.3374 30.7956C22.3058 30.653 22.2413 30.5086 22.2494 30.3684C22.2655 30.0936 22.3069 30.0752 22.5872 30.0555C22.6587 30.0505 22.745 30.0423 22.7965 30.0009C23.0493 29.7973 23.1095 29.1358 22.6953 28.978C22.2001 28.7893 21.6882 28.7856 21.1926 28.9857C20.9618 29.0788 20.8556 29.3622 20.9246 29.6458C21.0098 29.9967 21.0813 30.0431 21.3884 30.073C21.4759 30.0815 21.6057 30.1591 21.6281 30.232C21.6819 30.4067 21.7327 30.6028 21.5885 30.7701C21.5693 30.7924 21.5256 30.8111 21.4981 30.8058C21.3478 30.7771 21.1598 30.7864 21.0564 30.6987C20.5858 30.2994 20.195 29.8371 20.0911 29.1972C20.0858 29.1648 20.0604 29.1357 20.0197 29.0578C19.9537 29.3134 19.9002 29.5208 19.8467 29.7281C19.8352 29.7269 19.8238 29.7257 19.8124 29.7244C19.7377 29.3978 19.663 29.0712 19.5883 28.7445C19.5754 28.7453 19.5624 28.7462 19.5495 28.747C19.5246 28.8545 19.4998 28.962 19.4749 29.0695C19.4485 29.0695 19.4222 29.0695 19.3958 29.0695C19.3635 28.7346 19.3312 28.3996 19.293 28.0039C19.2062 28.179 19.1184 28.3061 19.0779 28.4468C18.9391 28.9285 19.0618 29.3678 19.3881 29.7289C19.7411 30.1194 20.1395 30.4685 20.502 30.851C20.7673 31.1309 21.0846 31.2993 21.4595 31.3308C21.7879 31.3585 22.1225 31.3592 22.4508 31.3307C22.7787 31.3023 23.0789 31.1754 23.3216 30.9362C23.625 30.637 23.9349 30.3443 24.2389 30.0456C24.4966 29.7924 24.7296 29.5205 24.8287 29.162C24.9433 28.7479 24.8829 28.3705 24.5708 27.9989C24.5564 28.3869 24.6263 28.7417 24.4296 29.0831Z" fill="url(#paint6_linear)"/>
<path d="M17.2717 19.3306C17.06 19.2008 16.8999 19.1027 16.7398 19.0046C16.7212 19.0126 16.7027 19.0206 16.6841 19.0285C16.7358 19.1936 16.7576 19.3776 16.8474 19.5184C16.941 19.6653 17.1001 19.7705 17.2226 19.8864C17.0289 19.9419 16.8378 19.9967 16.6468 20.0515C16.6504 20.0733 16.6539 20.0952 16.6575 20.1171C16.8428 20.1937 17.1079 20.1264 17.1995 20.4191C17.0197 20.4369 16.8494 20.4537 16.6562 20.4728C16.7029 20.6268 16.7452 20.7662 16.7898 20.9133C16.5785 20.9765 16.4954 20.8453 16.4385 20.6951C16.2542 20.2085 16.1744 19.704 16.2014 19.1838C16.2322 18.5904 16.3903 18.0262 16.6017 17.4751C16.7004 17.2179 16.8609 17.1641 17.0694 17.3373C17.2499 17.4873 17.4502 17.6413 17.5645 17.8382C17.9912 18.5732 18.3861 19.3265 18.8034 20.0921C18.676 20.156 18.5707 20.2089 18.4407 20.274C18.3727 20.1118 18.3116 19.9662 18.2364 19.7867C18.2247 19.8917 18.2167 19.9635 18.2088 20.0353C18.1953 20.038 18.1819 20.0407 18.1685 20.0434C18.1303 19.9189 18.0944 19.7936 18.0535 19.67C17.8481 19.0486 17.644 18.4267 17.4334 17.807C17.3736 17.6309 17.2478 17.5502 17.0271 17.6074C17.1162 17.9584 17.2029 18.3001 17.2896 18.6418C17.2779 18.6522 17.2663 18.6627 17.2546 18.6731C17.1869 18.6228 17.1191 18.5726 17.0114 18.4927C17.1004 18.779 17.1781 19.0291 17.2717 19.3306Z" fill="url(#paint7_linear)"/>
<path d="M26.9758 18.499C26.9148 18.5541 26.8537 18.6092 26.7927 18.6644C26.7809 18.659 26.7691 18.6535 26.7573 18.6481C26.828 18.3781 26.903 18.1091 26.9664 17.8374C26.9824 17.7687 26.9616 17.6914 26.9577 17.6181C26.8752 17.6416 26.78 17.6465 26.7125 17.6921C26.4876 17.8441 26.4409 18.1044 26.3632 18.3375C26.1843 18.8732 26.0221 19.4145 25.8424 19.9881C25.8235 19.895 25.8113 19.8348 25.7884 19.7217C25.7037 19.9299 25.6375 20.0926 25.5647 20.2713C25.4612 20.2208 25.366 20.1745 25.2402 20.1132C25.6711 19.3346 26.0831 18.5621 26.5269 17.8082C26.6347 17.6251 26.8387 17.4924 27.0141 17.3566C27.1536 17.2486 27.2929 17.2891 27.3598 17.4542C27.7819 18.4949 27.9689 19.5543 27.5772 20.6504C27.5271 20.7906 27.4863 20.9559 27.2572 20.9329C27.3031 20.7822 27.3451 20.6446 27.3955 20.4792C27.2078 20.4641 27.0423 20.4508 26.8495 20.4354C26.965 20.1722 27.2072 20.2292 27.4186 20.1914C27.294 19.9421 27.055 19.9707 26.8214 19.9069C27.1655 19.6799 27.3693 19.4043 27.3263 18.9762C27.1571 19.0797 26.9982 19.1768 26.7943 19.3015C26.8804 19.013 26.9539 18.7671 27.0273 18.5212C27.0101 18.5138 26.993 18.5064 26.9758 18.499Z" fill="url(#paint8_linear)"/>
<path d="M19.8661 24.4626C20.0093 24.621 19.9808 24.867 19.8263 24.9909C19.6875 25.1023 19.4369 25.0787 19.329 24.9441C19.2098 24.7954 19.2232 24.573 19.385 24.4543C19.4066 24.5685 19.4147 24.674 19.4495 24.7697C19.4681 24.8208 19.5304 24.8842 19.5779 24.8887C19.6274 24.8933 19.7049 24.846 19.7314 24.7995C19.787 24.7018 19.8173 24.5898 19.8661 24.4626Z" fill="white"/>
<path d="M24.7072 24.5403C24.7554 24.6999 24.7732 24.8635 24.6301 24.9925C24.5145 25.0966 24.3703 25.1017 24.233 25.0248C24.0948 24.9475 24.046 24.7571 24.1211 24.5265C24.1741 24.6537 24.2022 24.7617 24.2615 24.8485C24.2983 24.9023 24.3831 24.9522 24.4452 24.9508C24.4944 24.9497 24.5624 24.8765 24.5854 24.8203C24.622 24.7311 24.6281 24.6293 24.6471 24.5329C24.6671 24.5354 24.6872 24.5378 24.7072 24.5403Z" fill="white"/>
<path d="M24.4286 29.083C24.6253 28.7417 24.5554 28.3868 24.5698 27.9988C24.8819 28.3704 24.9423 28.7478 24.8277 29.1619C24.7286 29.5204 24.4955 29.7923 24.2379 30.0455C23.9339 30.3442 23.624 30.6369 23.3205 30.9361C23.0779 31.1754 22.7777 31.3022 22.4498 31.3306C22.1215 31.3591 21.7869 31.3584 21.4585 31.3307C21.0836 31.2992 20.7663 31.1308 20.501 30.8509C20.1385 30.4684 19.7401 30.1193 19.3871 29.7288C19.0608 29.3677 18.9381 28.9284 19.0769 28.4467C19.1174 28.306 19.2052 28.1789 19.292 28.0038C19.3302 28.3995 19.3625 28.7345 19.3948 29.0694C19.4211 29.0694 19.4475 29.0694 19.4739 29.0694C19.4988 28.9619 19.5236 28.8544 19.5485 28.7469C19.5614 28.7461 19.5744 28.7452 19.5873 28.7444C19.662 29.0711 19.7367 29.3977 19.8114 29.7243C19.8228 29.7256 19.8342 29.7268 19.8457 29.728C19.8992 29.5207 19.9527 29.3133 20.0187 29.0577C20.0594 29.1356 20.0848 29.1647 20.0901 29.1971C20.194 29.837 20.5848 30.2993 21.0554 30.6986C21.1588 30.7863 21.3468 30.777 21.4971 30.8057C21.5246 30.811 21.5683 30.7923 21.5875 30.77C21.7317 30.6027 21.6809 30.4066 21.6271 30.2319C21.6047 30.159 21.4749 30.0815 21.3874 30.0729C21.0803 30.043 21.0088 29.9966 20.9235 29.6457C20.8546 29.3621 20.9608 29.0788 21.1916 28.9856C21.6872 28.7855 22.1991 28.7892 22.6943 28.9779C23.1085 29.1357 23.0483 29.7973 22.7955 30.0008C22.744 30.0422 22.6577 30.0504 22.5862 30.0554C22.3059 30.0751 22.2645 30.0935 22.2484 30.3683C22.2403 30.5085 22.3048 30.653 22.3364 30.7955C22.5204 30.7541 22.7528 30.7693 22.8797 30.6612C23.3438 30.2661 23.7224 29.7993 23.815 29.1642C23.8182 29.1421 23.8412 29.123 23.8842 29.0588C23.9461 29.3023 23.9978 29.5054 24.0494 29.7086C24.0616 29.711 24.0738 29.7134 24.086 29.7159C24.1619 29.3858 24.2377 29.0556 24.3136 28.7255C24.3273 28.7276 24.3409 28.7296 24.3545 28.7317C24.3774 28.8401 24.4002 28.9486 24.4286 29.083Z" fill="black"/>
<path d="M12.592 10.1966C12.657 10.354 12.691 10.5069 12.6939 10.6552C12.6969 10.8036 12.6689 10.9444 12.6099 11.0778C12.5509 11.2112 12.4606 11.3364 12.339 11.4534C12.2175 11.5704 12.0651 11.6752 11.8819 11.7677L12.0161 12.0926C12.0221 12.107 12.0226 12.1216 12.0177 12.1363C12.0128 12.151 12.0012 12.1659 11.983 12.1811C11.9647 12.1962 11.9377 12.2128 11.9021 12.2309C11.8665 12.249 11.822 12.2691 11.7686 12.2912C11.7137 12.3138 11.668 12.331 11.6314 12.3428C11.5948 12.3545 11.5644 12.3616 11.54 12.364C11.5157 12.3665 11.4967 12.3646 11.4832 12.3583C11.4696 12.3521 11.4596 12.3411 11.453 12.3252L11.3188 12.0003C11.1246 12.0704 10.9453 12.1119 10.7808 12.1249C10.6163 12.1379 10.4675 12.1204 10.3344 12.0722C10.2012 12.0241 10.0829 11.9454 9.97945 11.836C9.87596 11.7266 9.78815 11.5846 9.71598 11.4098C9.65455 11.2611 9.62294 11.114 9.62117 10.9685C9.6194 10.8231 9.64799 10.6836 9.70699 10.5502C9.76602 10.4169 9.8556 10.2911 9.97584 10.173C10.0961 10.0549 10.2482 9.94854 10.4323 9.85389L10.3052 9.54634C10.2993 9.53193 10.2989 9.51772 10.3041 9.50372C10.3093 9.48975 10.3215 9.47538 10.3408 9.46065C10.3601 9.44596 10.387 9.42933 10.4216 9.41081C10.4563 9.39232 10.5003 9.37198 10.5537 9.34991C10.6071 9.32787 10.653 9.31103 10.6913 9.2994C10.7296 9.28785 10.7604 9.28063 10.7838 9.27771C10.8071 9.27486 10.8255 9.27654 10.8391 9.28275C10.8526 9.28899 10.8624 9.29934 10.8684 9.31375L10.9954 9.6213C11.1902 9.55271 11.3697 9.51278 11.5341 9.50147C11.6985 9.49026 11.8473 9.50777 11.9805 9.55413C12.1138 9.60052 12.2317 9.67732 12.3343 9.78454C12.4369 9.89173 12.5228 10.0291 12.592 10.1966ZM10.619 10.2813C10.5125 10.3388 10.4292 10.402 10.3689 10.4708C10.3086 10.5397 10.2667 10.6111 10.2431 10.685C10.2196 10.759 10.2118 10.8353 10.2198 10.914C10.2278 10.9927 10.2479 11.071 10.2801 11.1489C10.3195 11.2443 10.3652 11.3255 10.4175 11.3926C10.4697 11.4598 10.5305 11.5117 10.5996 11.5481C10.6688 11.5846 10.7486 11.6049 10.839 11.609C10.9294 11.6131 11.0329 11.5986 11.1494 11.5657L10.619 10.2813ZM12.0279 10.4575C11.9903 10.3665 11.946 10.288 11.8951 10.222C11.8442 10.156 11.7843 10.1051 11.7154 10.0693C11.6465 10.0335 11.567 10.014 11.4769 10.0106C11.3868 10.0073 11.2827 10.0224 11.1647 10.0559L11.6953 11.3403C11.7996 11.2819 11.8821 11.2187 11.9427 11.1506C12.0033 11.0824 12.0454 11.0106 12.0691 10.9348C12.0927 10.8592 12.1002 10.7809 12.0913 10.7C12.0824 10.6192 12.0613 10.5384 12.0279 10.4575Z" fill="white"/>
<path d="M15.7483 10.8714C15.7531 10.888 15.7526 10.9031 15.7468 10.917C15.741 10.9308 15.7276 10.9449 15.7065 10.9591C15.6854 10.9733 15.6559 10.9879 15.618 11.0029C15.58 11.0179 15.5302 11.0343 15.4687 11.052C15.4041 11.0706 15.3514 11.0838 15.3106 11.0915C15.2697 11.0992 15.236 11.1024 15.2097 11.1011C15.1833 11.0997 15.162 11.0937 15.1459 11.0828C15.1298 11.072 15.1157 11.057 15.1037 11.0377L14.6826 10.4567C14.6223 10.3716 14.565 10.3024 14.5106 10.249C14.4562 10.1956 14.4014 10.1553 14.3464 10.128C14.2914 10.1008 14.2338 10.0869 14.1735 10.0864C14.1132 10.0859 14.0485 10.0956 13.9795 10.1155L13.8466 10.1538L14.1827 11.3202C14.1875 11.3367 14.187 11.3519 14.1812 11.3657C14.1755 11.3796 14.1625 11.3939 14.1424 11.4086C14.1222 11.4234 14.0939 11.438 14.0575 11.4526C14.021 11.4671 13.9736 11.4829 13.915 11.4997C13.8579 11.5162 13.8097 11.528 13.7704 11.5353C13.731 11.5426 13.6989 11.5453 13.674 11.5436C13.6491 11.5418 13.6302 11.5367 13.6172 11.5282C13.6041 11.5198 13.5953 11.5073 13.5905 11.4908L12.797 8.73696C12.7922 8.72046 12.793 8.70517 12.7996 8.69108C12.8061 8.67702 12.8195 8.66299 12.8399 8.64899C12.8602 8.63499 12.889 8.62062 12.9262 8.6058C12.9634 8.59104 13.0105 8.57543 13.0676 8.55899C13.1261 8.54211 13.1747 8.53018 13.2133 8.52308C13.2519 8.51605 13.2836 8.51301 13.3083 8.51403C13.3329 8.51507 13.3514 8.51988 13.3636 8.52853C13.3759 8.53721 13.3844 8.54981 13.3892 8.56631L13.7045 9.66065L13.8374 9.62237C13.9049 9.60289 13.9616 9.5768 14.0075 9.54409C14.0533 9.51134 14.0912 9.46954 14.1213 9.41859C14.1513 9.3677 14.1743 9.30621 14.1901 9.23416C14.2059 9.16215 14.2164 9.0758 14.2215 8.97513L14.25 8.33774C14.2515 8.31459 14.2554 8.29435 14.2618 8.27703C14.2682 8.25977 14.2818 8.24365 14.3027 8.22868C14.3236 8.21373 14.3526 8.19885 14.3898 8.18406C14.4271 8.1693 14.4779 8.15258 14.5425 8.13396C14.601 8.11711 14.65 8.10505 14.6893 8.09776C14.7287 8.09048 14.7602 8.08709 14.7839 8.08757C14.8076 8.08804 14.8249 8.09282 14.8356 8.10191C14.8464 8.11103 14.8541 8.12383 14.8589 8.14033C14.8645 8.15986 14.8681 8.18488 14.8695 8.21531C14.871 8.24581 14.8702 8.28669 14.8671 8.33796L14.8204 8.9123C14.8121 9.01877 14.7996 9.11095 14.7831 9.18888C14.7665 9.26681 14.7451 9.33518 14.719 9.39392C14.6928 9.45267 14.6619 9.50346 14.6263 9.54621C14.5906 9.58902 14.5487 9.62797 14.5002 9.66303L14.5009 9.66528C14.5683 9.67351 14.631 9.68672 14.6891 9.70492C14.7472 9.72316 14.8047 9.75084 14.8618 9.78805C14.9189 9.82526 14.9773 9.87428 15.0371 9.93508C15.0969 9.99591 15.1622 10.073 15.233 10.1664L15.6456 10.7011C15.6873 10.7557 15.7138 10.794 15.725 10.816C15.7362 10.838 15.744 10.8565 15.7483 10.8714Z" fill="white"/>
<path d="M18.7653 7.61614C18.772 7.66098 18.7758 7.69949 18.7768 7.73172C18.7777 7.76399 18.7757 7.79034 18.7709 7.8108C18.7661 7.83132 18.7586 7.84702 18.7484 7.85804C18.7382 7.86906 18.7262 7.87562 18.7123 7.87771L17.9616 7.99101L18.3263 10.4078C18.3286 10.4232 18.3257 10.4379 18.3175 10.4518C18.3093 10.4657 18.2942 10.4782 18.2722 10.4894C18.2502 10.5006 18.2199 10.5115 18.1812 10.5221C18.1425 10.5327 18.0938 10.5424 18.0351 10.5512C17.9764 10.5601 17.927 10.5652 17.8869 10.5665C17.8468 10.5678 17.8146 10.5664 17.7903 10.5621C17.7659 10.5579 17.7478 10.5504 17.7359 10.5395C17.724 10.5287 17.7169 10.5155 17.7146 10.5001L17.3498 8.08332L16.5991 8.19662C16.5836 8.19894 16.5698 8.19631 16.5576 8.18864C16.5454 8.18101 16.5339 8.16816 16.5233 8.14998C16.5127 8.13187 16.503 8.10726 16.4944 8.07613C16.4858 8.0451 16.4781 8.00713 16.4713 7.96232C16.4643 7.91599 16.4603 7.87631 16.4593 7.84329C16.4582 7.81026 16.4601 7.78353 16.4649 7.76304C16.4697 7.74258 16.4769 7.72726 16.4864 7.71712C16.4959 7.70702 16.5085 7.70078 16.5239 7.69844L18.6371 7.37952C18.651 7.37743 18.6644 7.37978 18.6773 7.38652C18.6901 7.39327 18.7019 7.40571 18.7125 7.42386C18.7232 7.44203 18.7329 7.46699 18.7416 7.49884C18.7504 7.5307 18.7583 7.56981 18.7653 7.61614Z" fill="white"/>
<path d="M21.6128 9.97721C21.6352 10.0321 21.6498 10.0758 21.6566 10.1082C21.6634 10.1406 21.6588 10.1656 21.6427 10.183C21.6266 10.2006 21.5969 10.2127 21.5535 10.2195C21.5101 10.2262 21.4502 10.2321 21.3739 10.2371C21.2944 10.2424 21.2323 10.2452 21.1878 10.2458C21.1432 10.2464 21.109 10.2439 21.0851 10.2385C21.0613 10.233 21.0443 10.2243 21.0341 10.2125C21.0239 10.2006 21.015 10.1848 21.0075 10.1649L20.7641 9.57029L19.6277 9.64496L19.4748 10.2491C19.47 10.2714 19.463 10.2902 19.4539 10.3057C19.4447 10.3212 19.4291 10.334 19.4071 10.344C19.385 10.354 19.3534 10.362 19.3123 10.3678C19.2712 10.3737 19.2172 10.3788 19.1501 10.3832C19.0784 10.3879 19.0221 10.3892 18.9813 10.3872C18.9404 10.3852 18.9117 10.3758 18.8949 10.3589C18.8781 10.342 18.871 10.317 18.8735 10.2839C18.8761 10.2509 18.8849 10.2065 18.9 10.1507L19.6567 7.405C19.6643 7.37793 19.6738 7.35576 19.6852 7.33857C19.6966 7.32137 19.7157 7.30763 19.7424 7.29724C19.7691 7.28689 19.8065 7.27894 19.8547 7.27343C19.9028 7.26792 19.9667 7.26254 20.0462 7.25731C20.1382 7.25126 20.2115 7.24762 20.2662 7.24639C20.3209 7.24515 20.3638 7.24784 20.3948 7.2544C20.4257 7.26098 20.4484 7.27242 20.4628 7.28866C20.4771 7.30497 20.49 7.32761 20.5013 7.35659L21.6128 9.97721ZM20.078 7.84939L20.0757 7.84951L19.7323 9.16369L20.5905 9.10732L20.078 7.84939Z" fill="white"/>
<path d="M25.4858 10.3194C25.4848 10.3351 25.4796 10.3488 25.4703 10.3607C25.4609 10.3727 25.4447 10.3818 25.4216 10.3882C25.3985 10.3945 25.3681 10.3988 25.3304 10.4011C25.2927 10.4035 25.2449 10.4028 25.1873 10.3991C25.1311 10.3955 25.0845 10.3903 25.0474 10.3832C25.0103 10.3761 24.981 10.3681 24.9597 10.3588C24.9384 10.3497 24.9234 10.3386 24.9149 10.3255C24.9063 10.3124 24.9025 10.2981 24.9035 10.2825L25.0598 7.81989L25.0551 7.8196L24.022 10.2242C24.0145 10.2441 24.0033 10.2602 23.9884 10.2726C23.9735 10.2849 23.9537 10.2942 23.9291 10.3005C23.9044 10.3067 23.8733 10.3099 23.8357 10.3098C23.7982 10.3098 23.7529 10.3081 23.6999 10.3047C23.6469 10.3013 23.6018 10.2965 23.5646 10.2903C23.5274 10.284 23.497 10.2758 23.4734 10.2657C23.4498 10.2556 23.4314 10.2439 23.4181 10.2305C23.4049 10.2171 23.3965 10.2017 23.3929 10.1843L22.7024 7.67026L22.6978 7.66997L22.5414 10.1326C22.5405 10.1482 22.5353 10.1619 22.5259 10.1738C22.5166 10.1858 22.5 10.1949 22.4761 10.2012C22.4522 10.2075 22.4217 10.2118 22.3848 10.2142C22.3479 10.2166 22.3006 10.2159 22.2429 10.2122C22.1868 10.2087 22.1402 10.2034 22.1031 10.1963C22.0659 10.1893 22.0363 10.1811 22.0142 10.1719C21.9921 10.1627 21.9771 10.1516 21.9694 10.1385C21.9616 10.1255 21.9581 10.1112 21.9592 10.0956L22.1303 7.39916C22.1354 7.31964 22.1602 7.26017 22.205 7.22075C22.2498 7.18132 22.3072 7.16384 22.3774 7.16828L22.7796 7.19383C22.8513 7.19836 22.9126 7.20811 22.9633 7.22309C23.014 7.23804 23.0572 7.26036 23.0929 7.29C23.1286 7.31967 23.1575 7.35752 23.1796 7.40353C23.2017 7.44954 23.2201 7.50588 23.2346 7.57257L23.775 9.41723L23.7844 9.4178L24.5767 7.66244C24.6011 7.59825 24.6268 7.54432 24.6539 7.50062C24.6809 7.45695 24.7113 7.42209 24.7451 7.39606C24.7788 7.37003 24.8179 7.35254 24.8623 7.34361C24.9067 7.33468 24.9577 7.33206 25.0154 7.33573L25.4293 7.36198C25.4715 7.36467 25.5074 7.37246 25.5371 7.38526C25.5668 7.39811 25.5907 7.41569 25.6088 7.43795C25.627 7.46024 25.6402 7.48691 25.6484 7.51794C25.6566 7.54901 25.6594 7.58403 25.657 7.62298L25.4858 10.3194Z" fill="white"/>
<path d="M28.373 10.0098C28.3472 10.1448 28.3007 10.264 28.2334 10.3673C28.166 10.4706 28.0781 10.5544 27.9696 10.6189C27.8611 10.6833 27.7311 10.7249 27.5797 10.7439C27.4282 10.7627 27.2388 10.7506 27.0117 10.7074L26.2268 10.558C26.1715 10.5475 26.1294 10.524 26.1006 10.4875C26.0718 10.451 26.0642 10.3967 26.0779 10.3246L26.5707 7.73474C26.5835 7.66722 26.6101 7.62178 26.6503 7.59841C26.6905 7.57504 26.7359 7.5682 26.7866 7.57783L28.4717 7.89842C28.487 7.90134 28.4998 7.90777 28.5098 7.91761C28.5198 7.92749 28.5272 7.94279 28.5321 7.96359C28.5368 7.9844 28.5383 8.01008 28.5364 8.04077C28.5346 8.07142 28.5293 8.10977 28.5205 8.15581C28.5124 8.19878 28.5035 8.23485 28.4939 8.26405C28.4844 8.29325 28.4736 8.31665 28.4615 8.33422C28.4494 8.3518 28.4368 8.36374 28.4237 8.36994C28.4106 8.37621 28.3972 8.37802 28.3833 8.37539L27.1218 8.13539L26.9808 8.87665L27.4757 8.97082C27.6675 9.0073 27.8221 9.05579 27.9394 9.11627C28.0567 9.17675 28.1515 9.25127 28.2237 9.33974C28.2959 9.42822 28.3452 9.52902 28.3713 9.64213C28.3975 9.75528 28.398 9.87783 28.373 10.0098ZM27.7508 9.93198C27.7634 9.86601 27.7639 9.80449 27.7525 9.74745C27.7411 9.69039 27.7183 9.63918 27.684 9.59368C27.6497 9.54821 27.6019 9.50926 27.5404 9.47689C27.479 9.44456 27.3938 9.41799 27.2848 9.39725L26.8958 9.32324L26.7324 10.1819L27.1284 10.2572C27.2266 10.2759 27.3093 10.2821 27.3765 10.2758C27.4437 10.2695 27.5023 10.252 27.5523 10.2234C27.6022 10.1947 27.6446 10.1559 27.6794 10.1068C27.7142 10.0578 27.738 9.99952 27.7508 9.93198Z" fill="white"/>
<path d="M31.6368 10.3283C31.5637 10.569 31.4685 10.7752 31.3512 10.9469C31.2338 11.1186 31.096 11.2527 30.9377 11.3492C30.7795 11.4457 30.6027 11.5023 30.4075 11.519C30.2123 11.5357 30.0003 11.5093 29.7715 11.4399C29.5458 11.3715 29.3578 11.2822 29.2075 11.1721C29.0572 11.0621 28.9444 10.9295 28.869 10.7744C28.7936 10.6193 28.7562 10.4398 28.7568 10.2359C28.7575 10.0321 28.7966 9.80228 28.8741 9.54663C28.9453 9.31195 29.0392 9.10985 29.156 8.94034C29.2726 8.77089 29.41 8.63827 29.568 8.54254C29.726 8.44681 29.9027 8.39022 30.0983 8.37277C30.2937 8.35535 30.5066 8.38154 30.7368 8.45137C30.9566 8.51803 31.1417 8.60603 31.2922 8.71534C31.4427 8.82466 31.556 8.95696 31.6321 9.11232C31.7083 9.26765 31.7471 9.44634 31.7487 9.64844C31.7502 9.85054 31.7129 10.0771 31.6368 10.3283ZM31.0083 10.172C31.0546 10.0195 31.0846 9.8772 31.0986 9.74509C31.1125 9.61304 31.1042 9.49378 31.0737 9.38735C31.0431 9.28098 30.9873 9.18895 30.9064 9.11134C30.8255 9.03375 30.7132 8.97314 30.5697 8.92963C30.4247 8.88562 30.2953 8.87621 30.1816 8.90129C30.0679 8.92637 29.9672 8.97546 29.8798 9.04851C29.7924 9.12157 29.7178 9.21527 29.6562 9.32962C29.5946 9.444 29.5431 9.56921 29.5018 9.70522C29.4538 9.86371 29.4225 10.0097 29.4082 10.1433C29.3937 10.2769 29.4013 10.3971 29.431 10.504C29.4605 10.611 29.516 10.7025 29.5975 10.7786C29.6789 10.8547 29.792 10.9148 29.9371 10.9588C30.082 11.0027 30.2113 11.0126 30.3249 10.9882C30.4383 10.9639 30.539 10.9145 30.627 10.8399C30.7148 10.7653 30.7899 10.6701 30.8519 10.5543C30.914 10.4384 30.9661 10.311 31.0083 10.172Z" fill="white"/>
<path d="M33.9649 12.0027C33.9228 12.1019 33.871 12.186 33.8095 12.2549C33.748 12.3239 33.68 12.3791 33.6056 12.4205C33.5312 12.4619 33.4511 12.4907 33.3653 12.5069C33.2795 12.5231 33.1903 12.5285 33.0976 12.5231C33.0048 12.5177 32.9098 12.5024 32.8128 12.4773C32.7156 12.4523 32.611 12.4159 32.4988 12.3683L31.7567 12.0535C31.7093 12.0333 31.6753 12.0024 31.6549 11.9606C31.6344 11.9188 31.6376 11.8663 31.6644 11.803L32.6969 9.36968C32.7238 9.30641 32.7593 9.26762 32.8036 9.2533C32.8478 9.23899 32.8937 9.2419 32.9411 9.26204L33.6422 9.55949C33.8134 9.6321 33.9521 9.70798 34.0586 9.78708C34.1651 9.86622 34.2465 9.9521 34.3031 10.0448C34.3596 10.1375 34.3905 10.2376 34.3958 10.3451C34.4012 10.4526 34.3782 10.5667 34.3269 10.6875C34.2982 10.7551 34.2627 10.8151 34.22 10.8674C34.1775 10.9198 34.1293 10.9634 34.0754 10.9983C34.0216 11.0331 33.9626 11.059 33.8987 11.076C33.8346 11.093 33.7667 11.0998 33.6952 11.0966C33.7681 11.1445 33.8305 11.2007 33.8821 11.265C33.9337 11.3293 33.9723 11.4004 33.9978 11.4783C34.0233 11.5562 34.0343 11.6393 34.0307 11.7277C34.0271 11.8161 34.0052 11.9078 33.9649 12.0027ZM33.3677 11.7722C33.3952 11.7075 33.409 11.6451 33.4091 11.5848C33.4092 11.5247 33.3957 11.4684 33.3686 11.4162C33.3415 11.364 33.2997 11.3149 33.2429 11.2687C33.186 11.2225 33.1059 11.1775 33.0024 11.1336L32.6658 10.9908L32.329 11.7846L32.7389 11.9585C32.8179 11.9921 32.888 12.012 32.949 12.0184C33.0099 12.0247 33.067 12.0201 33.1203 12.0045C33.1736 11.9889 33.2216 11.9618 33.2643 11.9231C33.307 11.8843 33.3415 11.8341 33.3677 11.7722ZM33.7303 10.5158C33.7541 10.4598 33.7668 10.4058 33.7685 10.3538C33.7702 10.302 33.76 10.2539 33.738 10.2098C33.716 10.1657 33.6821 10.1246 33.6363 10.0865C33.5905 10.0484 33.5237 10.0107 33.436 9.9735L33.1491 9.85175L32.8416 10.5766L33.1587 10.7111C33.2407 10.7459 33.3102 10.7639 33.3674 10.7653C33.4245 10.7666 33.4764 10.7573 33.5231 10.7372C33.5698 10.7171 33.6106 10.6878 33.6457 10.6492C33.6807 10.6106 33.7089 10.5662 33.7303 10.5158Z" fill="white"/>
<defs>
<linearGradient id="paint0_linear" x1="8.30762" y1="22.0607" x2="22.0615" y2="22.0607" gradientUnits="userSpaceOnUse">
<stop stop-color="#85150E"/>
<stop offset="1" stop-color="#E20613"/>
</linearGradient>
<linearGradient id="paint1_linear" x1="22.0615" y1="22.0585" x2="35.7909" y2="22.0585" gradientUnits="userSpaceOnUse">
<stop stop-color="#28348A"/>
<stop offset="1" stop-color="#14133B"/>
</linearGradient>
<linearGradient id="paint2_linear" x1="7.22656" y1="21.975" x2="36.7555" y2="21.975" gradientUnits="userSpaceOnUse">
<stop stop-color="#D3792D"/>
<stop offset="0.0098396" stop-color="#D6812A"/>
<stop offset="0.0613637" stop-color="#E5A31B"/>
<stop offset="0.11398" stop-color="#F0BD0F"/>
<stop offset="0.167486" stop-color="#F9D007"/>
<stop offset="0.222406" stop-color="#FDDC02"/>
<stop offset="0.2809" stop-color="#FFDF00"/>
<stop offset="0.668539" stop-color="#FFDC4E"/>
<stop offset="0.88764" stop-color="#FFDF00"/>
<stop offset="1" stop-color="#D3792D"/>
</linearGradient>
<linearGradient id="paint3_linear" x1="18.8116" y1="21.4262" x2="15.8826" y2="16.3531" gradientUnits="userSpaceOnUse">
<stop stop-color="white"/>
<stop offset="0.26586" stop-color="#FDFDFD"/>
<stop offset="0.407777" stop-color="#F5F5F5"/>
<stop offset="0.520394" stop-color="#E7E7E7"/>
<stop offset="0.617737" stop-color="#D4D4D4"/>
<stop offset="0.705147" stop-color="#BCBCBB"/>
<stop offset="0.785476" stop-color="#9D9D9C"/>
<stop offset="0.860366" stop-color="#797977"/>
<stop offset="0.930165" stop-color="#4F4F4E"/>
<stop offset="0.995043" stop-color="#21211F"/>
<stop offset="1" stop-color="#1D1D1B"/>
</linearGradient>
<linearGradient id="paint4_linear" x1="23.3893" y1="16.5387" x2="20.7987" y2="12.0517" gradientUnits="userSpaceOnUse">
<stop stop-color="white"/>
<stop offset="0.170069" stop-color="#FCFCFC"/>
<stop offset="0.306713" stop-color="#F2F2F2"/>
<stop offset="0.431733" stop-color="#E1E1E1"/>
<stop offset="0.549932" stop-color="#C9C9C9"/>
<stop offset="0.663236" stop-color="#ABABAA"/>
<stop offset="0.77287" stop-color="#868684"/>
<stop offset="0.87962" stop-color="#595958"/>
<stop offset="0.981506" stop-color="#272725"/>
<stop offset="1" stop-color="#1D1D1B"/>
</linearGradient>
<linearGradient id="paint5_linear" x1="12.9768" y1="16.7473" x2="12.9768" y2="25.0372" gradientUnits="userSpaceOnUse">
<stop stop-color="#1D1D1B"/>
<stop offset="0.0921571" stop-color="#474745"/>
<stop offset="0.213824" stop-color="#777776"/>
<stop offset="0.338853" stop-color="#A1A1A0"/>
<stop offset="0.465067" stop-color="#C3C3C2"/>
<stop offset="0.592885" stop-color="#DDDDDD"/>
<stop offset="0.723024" stop-color="#F0F0F0"/>
<stop offset="0.856834" stop-color="#FBFBFB"/>
<stop offset="1" stop-color="white"/>
</linearGradient>
<linearGradient id="paint6_linear" x1="21.9831" y1="22.8617" x2="21.9831" y2="34.4872" gradientUnits="userSpaceOnUse">
<stop stop-color="white"/>
<stop offset="0.170069" stop-color="#FCFCFC"/>
<stop offset="0.306713" stop-color="#F2F2F2"/>
<stop offset="0.431733" stop-color="#E1E1E1"/>
<stop offset="0.549932" stop-color="#C9C9C9"/>
<stop offset="0.663236" stop-color="#ABABAA"/>
<stop offset="0.77287" stop-color="#868684"/>
<stop offset="0.87962" stop-color="#595958"/>
<stop offset="0.981506" stop-color="#272725"/>
<stop offset="1" stop-color="#1D1D1B"/>
</linearGradient>
<linearGradient id="paint7_linear" x1="16.1963" y1="19.0832" x2="18.8034" y2="19.0832" gradientUnits="userSpaceOnUse">
<stop stop-color="white"/>
<stop offset="0.170069" stop-color="#FCFCFC"/>
<stop offset="0.306713" stop-color="#F2F2F2"/>
<stop offset="0.431733" stop-color="#E1E1E1"/>
<stop offset="0.549932" stop-color="#C9C9C9"/>
<stop offset="0.663236" stop-color="#ABABAA"/>
<stop offset="0.77287" stop-color="#868684"/>
<stop offset="0.87962" stop-color="#595958"/>
<stop offset="0.981506" stop-color="#272725"/>
<stop offset="1" stop-color="#1D1D1B"/>
</linearGradient>
<linearGradient id="paint8_linear" x1="28.1318" y1="18.1887" x2="25.7238" y2="20.5968" gradientUnits="userSpaceOnUse">
<stop stop-color="white"/>
<stop offset="0.170069" stop-color="#FCFCFC"/>
<stop offset="0.306713" stop-color="#F2F2F2"/>
<stop offset="0.431733" stop-color="#E1E1E1"/>
<stop offset="0.549932" stop-color="#C9C9C9"/>
<stop offset="0.663236" stop-color="#ABABAA"/>
<stop offset="0.77287" stop-color="#868684"/>
<stop offset="0.87962" stop-color="#595958"/>
<stop offset="0.981506" stop-color="#272725"/>
<stop offset="1" stop-color="#1D1D1B"/>
</linearGradient>
</defs>
</svg>
