<svg width="44" height="44" viewBox="0 0 44 44" fill="none" xmlns="http://www.w3.org/2000/svg">
<path fill-rule="evenodd" clip-rule="evenodd" d="M38.6075 27.8835C38.6075 29.0024 38.331 30.0332 37.7024 30.9635C36.8224 32.2709 35.4144 33.1258 34.0064 33.7795C32.4224 34.5338 30.7252 35.0869 29.091 35.7281C26.5767 36.6961 23.723 37.9407 22.2395 40.3418L21.9252 40.8572L21.611 40.3418C21.3721 39.9521 21.0955 39.5875 20.7938 39.2607C19.235 37.5509 16.8841 36.5452 14.7721 35.7281C13.1378 35.0995 11.4407 34.5338 9.85667 33.7795C8.47381 33.1258 7.06581 32.2584 6.18581 30.9635C5.55724 30.0332 5.28067 29.0024 5.28067 27.8835C5.2681 26.1864 5.55724 24.5898 6.02238 22.9555C6.42467 21.5098 6.96524 20.1144 7.35495 18.6812C7.74467 17.2355 7.98352 15.8401 7.88295 14.3315C7.76981 12.4584 7.16638 10.6984 6.3241 9.03895L6.19838 8.78752L12.4464 3.14294L12.6601 3.25609C19.1595 6.51209 24.8041 6.47437 31.3035 3.25609L31.5172 3.14294L37.6395 8.78752L37.5138 9.03894C36.6715 10.6984 36.0681 12.4584 35.955 14.3315C35.867 15.8275 36.0932 17.2355 36.483 18.6812C36.8727 20.1269 37.4132 21.5224 37.8155 22.9555C38.331 24.5898 38.6201 26.1738 38.6075 27.8835Z" fill="white"/>
<path fill-rule="evenodd" clip-rule="evenodd" d="M21.9381 40.1407C25.7975 33.8676 38.1301 35.2253 38.2432 27.8836C38.2307 20.7681 33.0387 17.1224 37.2249 8.86301L31.4924 3.58301C24.9049 6.85158 19.1472 6.91444 12.5221 3.58301L6.66379 8.86301C10.8375 17.1099 5.65808 20.7556 5.64551 27.8836C5.75865 35.2253 18.0787 33.8676 21.9381 40.1407Z" fill="#F48120"/>
<path fill-rule="evenodd" clip-rule="evenodd" d="M21.9127 38.6824C18.3676 33.0755 6.71385 34.4081 6.61328 27.7829C6.62585 20.9315 11.8556 17.3235 7.75728 9.20236L12.5596 4.72693C15.3127 5.99664 19.1721 7.1155 21.9001 7.10293V7.09036C24.6533 7.10293 28.5127 6.00921 31.2659 4.7395L36.1436 9.17721C32.0453 17.2984 37.2624 20.9064 37.275 27.7578C37.1619 34.4081 25.483 33.0504 21.9253 38.6572L21.9127 38.6824Z" fill="#231F20" stroke="white" stroke-width="0.7076" stroke-miterlimit="22.9256"/>
<path fill-rule="evenodd" clip-rule="evenodd" d="M21.9448 37.5511C18.5379 32.2082 7.53795 33.9179 7.4248 27.5945C7.4248 25.5956 7.91509 23.8733 8.4808 22.2013C9.75052 18.3796 11.4225 14.8973 8.66938 9.52935L12.9688 5.64478C15.6088 6.85163 19.3174 7.9202 21.9322 7.90763V7.89506C24.5722 7.90763 28.2808 6.8642 30.9208 5.64478L35.2202 9.52935C31.2728 17.2733 36.4397 21.0699 36.4648 27.6071C36.3517 33.9431 25.3642 32.2082 21.9448 37.5636H21.9322V37.5511H21.9448Z" fill="#231F20"/>
<path fill-rule="evenodd" clip-rule="evenodd" d="M21.9254 37.5508C20.3037 35.024 17.0351 34.0434 13.9802 33.088C19.2854 33.088 24.6031 33.088 29.9082 33.088C26.8408 34.0434 23.5597 35.024 21.9505 37.5508H21.9254ZM13.0751 32.8114C12.2579 32.5474 11.4911 32.2834 10.7619 31.944C18.2042 31.944 25.6591 31.944 33.1014 31.944C32.3974 32.2583 31.6054 32.5348 30.7882 32.8114C24.8922 32.8114 18.9837 32.8114 13.0751 32.8114ZM9.98251 31.5668C9.55508 31.328 9.16537 31.0766 8.82594 30.8126C17.5631 30.8126 26.3128 30.8126 35.0374 30.8126C34.6979 31.0891 34.2957 31.3406 33.8808 31.5668C25.9231 31.5668 17.9528 31.5668 9.98251 31.5668ZM8.32308 30.3097C8.13451 30.1086 7.95851 29.8823 7.82023 29.656C17.2237 29.656 26.6522 29.656 36.0808 29.656C35.9425 29.8948 35.7665 30.1086 35.5779 30.3097C26.4762 30.3097 17.3997 30.3097 8.32308 30.3097ZM7.51851 29.0651C7.44308 28.8891 7.3928 28.7006 7.34251 28.4994C17.0854 28.4994 26.8031 28.4994 36.5459 28.4994C36.4957 28.7006 36.4328 28.8891 36.3574 29.0651C26.7402 29.0651 17.1357 29.0651 7.51851 29.0651ZM7.22937 27.8206C7.2168 27.6948 7.2168 27.5817 7.2168 27.456C7.2168 27.4308 7.2168 27.3931 7.2168 27.368C17.0351 27.368 26.8534 27.368 36.6717 27.368C36.6717 27.3931 36.6717 27.4308 36.6717 27.456C36.6717 27.5817 36.6591 27.7074 36.6591 27.8206C26.8408 27.8206 17.0351 27.8206 7.22937 27.8206ZM7.22937 26.5886C7.24194 26.4628 7.24194 26.3371 7.25451 26.2114C17.0225 26.2114 26.8157 26.2114 36.5837 26.2114C36.5962 26.3371 36.5962 26.4628 36.6088 26.5886C26.8408 26.5886 17.0351 26.5886 7.22937 26.5886ZM7.3928 25.344C7.40537 25.256 7.41794 25.1554 7.44308 25.08C17.0979 25.08 26.7779 25.08 36.4454 25.08C36.4579 25.168 36.4705 25.256 36.4956 25.344C26.7905 25.344 17.0854 25.344 7.3928 25.344ZM7.64423 24.0868C7.6568 24.024 7.66937 23.9737 7.69451 23.9108C17.1985 23.9108 26.7025 23.9108 36.1939 23.9108C36.2065 23.9737 36.2191 24.024 36.2442 24.0868C26.7025 24.0868 17.1734 24.0868 7.64423 24.0868ZM7.98365 22.8423C7.98365 22.8171 7.99622 22.792 7.99622 22.7668C17.2739 22.7668 26.5642 22.7668 35.8419 22.7668C35.8419 22.792 35.8545 22.8171 35.8545 22.8423C26.5894 22.8423 17.2865 22.8423 7.98365 22.8423Z" fill="#F48120"/>
<path fill-rule="evenodd" clip-rule="evenodd" d="M12.4398 25.4195H12.3644H12.289L12.2136 25.4069L12.1256 25.3944H12.0501L11.9747 25.3818L11.9118 25.3567L11.8364 25.3441L11.7484 25.3315L11.6856 25.3189L11.6101 25.2812L10.9941 25.0927L10.969 21.4218L11.409 21.7487L10.9313 20.8309L10.9061 20.7932L10.8936 20.7555L10.8684 20.7052H10.1016V18.0778H15.6204V16.5441H18.5747H18.7633H18.9267L19.1153 16.5692H19.2913L19.4673 16.5818L19.6181 16.5944L19.7941 16.6321L19.9576 16.6572L20.0958 16.6698L20.2467 16.7201L20.3976 16.7578L20.5358 16.7955L20.6616 16.8458L20.7998 16.9087L20.9256 16.9715L21.0513 17.0344L21.1896 17.1098L21.3153 17.2229L21.441 17.3235L21.5541 17.4492L21.6673 17.5749L21.7553 17.7007L21.8056 17.7761L22.0318 17.0972H21.793V14.4572H26.3816L26.8844 16.2549L27.6764 16.4561L27.7016 16.4184V16.3555L27.7141 16.2927L27.7267 16.2298V16.1544V16.0664L27.7393 15.9658V15.8778V15.7772L27.7644 15.6641V15.5384V15.4127V15.2869V15.1612V15.0858H27.1107V12.4458H33.7861V15.0858H33.2707V17.0344H33.7861V19.6744H29.5621V19.3601L29.537 19.3852L29.4364 19.4481L29.3358 19.5109L29.2353 19.5738L29.1221 19.6241L29.0216 19.6744L28.9084 19.6995L28.7953 19.7372L28.6821 19.7624L28.5564 19.7875L28.4558 19.8001L28.3427 19.8127H28.2296V21.6858H20.7496V21.4595L20.7118 21.4847L20.5484 21.5224L20.3976 21.5727L20.2216 21.6229L20.0581 21.6481V23.7727H15.6204V22.8298L15.5953 22.8675L15.5198 23.0561L15.4444 23.2195L15.3816 23.3955L15.3061 23.5715L15.2181 23.7098L15.1427 23.8732L15.0673 24.0115L15.0044 24.1498L14.929 24.2755L14.841 24.3887L14.7656 24.5144L14.6776 24.6275L14.577 24.7281L14.489 24.8287L14.4136 24.9041L14.313 24.9795L14.225 25.0424L14.1244 25.1052L14.0113 25.1681L13.9107 25.2184L13.7976 25.2687L13.6844 25.2938L13.5713 25.3315L13.4707 25.3567L13.3576 25.3944L13.2444 25.4069L13.1187 25.4195L13.0056 25.4447H12.8798H12.7793H12.6787H12.6033H12.5278L12.4398 25.4195Z" fill="#231F20"/>
<path d="M12.8804 25.5069L12.5162 25.5052L12.4342 25.4818H12.2896L12.1199 25.4562L12.0507 25.4566L11.968 25.4434L11.8959 25.4157L11.6662 25.3765L11.5907 25.3387L10.9504 25.1434L10.9245 21.3506L11.2808 21.6153L10.8646 20.8251L10.8418 20.7675H10.0576V18.051H15.5765V16.5174H18.9273L19.1218 16.5429L19.2918 16.5425L19.6224 16.5678L19.804 16.6063L19.9649 16.631L20.1005 16.6433L20.2613 16.6956L20.5481 16.7704L20.6786 16.8223L21.0717 17.0124L21.2114 17.0885L21.3456 17.2076L21.4694 17.3065L21.7009 17.5629L21.7927 17.6935L21.9707 17.1595H21.749V14.4305H26.4159L26.9209 16.2359L27.6574 16.423L27.6576 16.4227V16.3733L27.6836 16.2389L27.6828 16.0841L27.6957 15.978L27.6954 15.795L27.7216 15.6722L27.7205 15.1481H27.0668V12.4191H33.8312V15.1481H33.3158V17.0076H33.8312V19.7366H29.5182V19.4669L29.2594 19.6293L29.042 19.7319L28.9186 19.7607L28.8099 19.7972L28.5657 19.8489L28.3482 19.8746L28.2746 19.8748V21.7481H20.7056V21.5496L20.559 21.5835L20.4122 21.6327L20.2343 21.6835L20.1032 21.7039V23.8348H15.5765V23.0528L15.5617 23.0905L15.4854 23.256L15.424 23.4282L15.3476 23.6068L15.2562 23.7515L15.1837 23.9097L15.1069 24.0506L15.0455 24.1859L14.9678 24.3161L14.8767 24.4337L14.8043 24.555L14.7133 24.6726L14.609 24.7773L14.5231 24.8758L14.4456 24.9532L14.2514 25.0964L14.1485 25.1607L13.9312 25.2759L13.8163 25.3271L13.6946 25.3551L13.5859 25.3915L13.4821 25.4175L13.3722 25.4544L13.1237 25.4816L13.0158 25.5059L12.8804 25.5069ZM12.5347 25.418H13.0061L13.1096 25.3939L13.3533 25.3679L13.4572 25.3322L13.561 25.3062L13.6709 25.2694L13.7885 25.243L13.992 25.1461L14.1034 25.0841L14.202 25.0225L14.3875 24.8862L14.4582 24.815L14.5441 24.7165L14.6467 24.6139L14.731 24.5049L14.8035 24.3836L14.8945 24.266L14.9668 24.1447L15.0273 24.0109L15.1042 23.8697L15.1783 23.7089L15.2692 23.5653L15.3412 23.3957L15.4031 23.2223L15.48 23.0552L15.5545 22.8688L15.6655 22.7004V23.7459H20.0142V21.6277L20.2154 21.5968L20.386 21.5477L20.5349 21.4979L20.6945 21.4609L20.7946 21.3943V21.6591H28.1856V19.7859H28.3433L28.5515 19.7611L28.7862 19.7116L28.8949 19.6751L29.0125 19.6487L29.1028 19.6021L29.2178 19.551L29.514 19.3653L29.6072 19.2704V19.6476H33.7422V17.0966H33.2268V15.0591H33.7422V12.5081H27.1558V15.0591H27.8095V15.6819L27.7833 15.8046L27.7844 15.9836L27.7714 16.0896L27.7718 16.2476L27.7458 16.382L27.7466 16.4496L27.6966 16.5247L26.8491 16.3095L26.3484 14.5195H21.8381V17.0705H22.0942L21.8196 17.8942L21.6314 17.6182L21.4085 17.371L21.2881 17.2755L21.1604 17.1607L20.7805 16.9662L20.6437 16.9041L20.5199 16.8546L20.2365 16.781L20.0823 16.7298L19.9541 16.7193L19.788 16.6938L19.6094 16.6557L19.2887 16.6314L19.1159 16.6315L18.9214 16.6059L18.5753 16.6064H15.6655V18.14H10.1466V20.6785H10.8965L10.9689 20.8241L11.5384 21.9176L11.0147 21.5284L11.039 25.0774L11.6237 25.2565L11.7006 25.2943L11.9198 25.3306L11.9918 25.3584L12.058 25.3683L12.1261 25.3677L12.297 25.3935L12.4467 25.3929L12.5347 25.418Z" fill="#F6921E"/>
<path fill-rule="evenodd" clip-rule="evenodd" d="M13.0815 9.67011C13.2079 9.67011 13.3185 9.7096 13.3896 9.78859C13.4765 9.88338 13.5239 10.0177 13.5239 10.2073C13.5239 10.3889 13.4765 10.5311 13.3975 10.6259C13.3185 10.7049 13.2158 10.7444 13.0815 10.7444H12.5523V10.8866H12.1336V10.7444H11.6123C11.478 10.7444 11.3753 10.7049 11.2963 10.6259C11.2094 10.5311 11.1699 10.3889 11.1699 10.2073C11.1699 10.0177 11.2094 9.88338 11.2963 9.78859C11.3753 9.7096 11.478 9.67011 11.6123 9.67011H12.1336V9.53582H12.5523V9.67011H13.0815ZM12.1336 10.0177H11.7545C11.6992 10.0177 11.6597 10.0335 11.636 10.0572C11.6044 10.0888 11.5886 10.1441 11.5886 10.2152C11.5886 10.2941 11.6044 10.3415 11.636 10.381C11.6597 10.4047 11.6992 10.4205 11.7545 10.4205H12.1336V10.0177ZM12.5523 10.0177V10.4205H12.9393C12.9867 10.4205 13.0262 10.4047 13.0499 10.381C13.0894 10.3494 13.1052 10.2941 13.1052 10.2152C13.1052 10.1441 13.0894 10.0967 13.0578 10.0651C13.0262 10.0335 12.9867 10.0177 12.9393 10.0177H12.5523ZM15.2143 9.53582H15.6883L15.1985 10.3968C15.1037 10.5627 15.0563 10.6575 15.0405 10.6733C14.9852 10.7523 14.9299 10.8076 14.8667 10.8392C14.7878 10.8708 14.6851 10.8866 14.5508 10.8866H14.1084V10.539H14.5666C14.5982 10.539 14.6219 10.539 14.6298 10.5311C14.6377 10.5232 14.6456 10.5153 14.6614 10.4995L13.7688 9.53582H14.3533L14.8351 10.0967C14.843 10.1046 14.8509 10.1283 14.8667 10.1836C14.8667 10.1994 14.8746 10.2152 14.8825 10.2152C14.8825 10.2152 14.8904 10.1915 14.8904 10.152C14.8904 10.1125 14.8983 10.0888 14.9062 10.073L15.2143 9.53582ZM15.8778 9.88338V9.53582H17.513V9.88338H16.9047V10.8866H16.4861V9.88338H15.8778ZM18.2476 10.3494V10.5627H18.9822C19.0612 10.5627 19.1007 10.5311 19.1007 10.46C19.1007 10.4126 19.0928 10.3889 19.0691 10.3731C19.0533 10.3573 19.0217 10.3494 18.9822 10.3494H18.2476ZM17.8289 10.8866V9.53582H19.4009V9.85969H18.2476V10.0493H19.1007C19.2429 10.0493 19.3535 10.0809 19.4246 10.1441C19.4878 10.2073 19.5194 10.3099 19.5194 10.4442C19.5194 10.6101 19.4799 10.7286 19.4009 10.7997C19.3377 10.855 19.235 10.8866 19.1007 10.8866H17.8289ZM21.6995 10.2152C21.6995 10.539 21.66 10.7365 21.5732 10.7997C21.4863 10.8708 21.2256 10.9103 20.7911 10.9103C20.4752 10.9103 20.2619 10.8945 20.1592 10.8708C20.0407 10.8471 19.9617 10.7839 19.9222 10.6812C19.8985 10.6101 19.8906 10.4521 19.8906 10.2152C19.8906 9.88338 19.9301 9.6859 20.0091 9.62271C20.096 9.55162 20.3567 9.51212 20.7911 9.51212C21.2256 9.51212 21.4863 9.55162 21.5732 9.62271C21.6522 9.6859 21.6995 9.88338 21.6995 10.2152ZM20.3093 10.2152C20.3093 10.3889 20.3251 10.4837 20.3646 10.5153C20.412 10.539 20.5463 10.5548 20.7911 10.5548C21.036 10.5548 21.1782 10.539 21.2177 10.5153C21.2572 10.4837 21.273 10.3889 21.273 10.2152C21.273 10.0414 21.2572 9.93868 21.2177 9.90708C21.1782 9.88338 21.036 9.86759 20.7911 9.86759C20.5463 9.86759 20.412 9.88338 20.3646 9.90708C20.3251 9.93868 20.3093 10.0414 20.3093 10.2152ZM23.7928 9.53582V10.8866H23.3663V9.88338H22.6238C22.6238 10.2783 22.5843 10.5469 22.5211 10.6891C22.4579 10.8234 22.3552 10.8866 22.1972 10.8866H21.9997V10.539C22.1024 10.539 22.1577 10.4995 22.1735 10.4126C22.1893 10.3257 22.1972 10.0335 22.1972 9.53582H23.7928ZM24.2194 10.8866V9.53582H24.638V9.86759H25.2463C25.4754 9.86759 25.6175 9.89128 25.6965 9.94658C25.7834 10.0177 25.8308 10.1599 25.8308 10.381C25.8308 10.5943 25.7834 10.7365 25.6965 10.8076C25.6254 10.8629 25.4754 10.8866 25.2463 10.8866H24.2194ZM24.638 10.2152V10.539H25.2463C25.3016 10.539 25.3332 10.5311 25.3569 10.5074C25.3885 10.4837 25.4043 10.4363 25.4043 10.381C25.4043 10.3178 25.3885 10.2783 25.3569 10.2467C25.3332 10.2231 25.3016 10.2152 25.2463 10.2152H24.638ZM26.1547 9.53582H26.5733V10.0098H27.4818V9.53582H27.9004V10.8866H27.4818V10.3573H26.5733V10.8866H26.1547V9.53582ZM30.1201 9.53582H30.5387V10.8866H30.1201V9.53582ZM28.2796 10.8866V9.53582H28.6982V9.86759H29.3144C29.5355 9.86759 29.6856 9.89128 29.7567 9.94658C29.8436 10.0177 29.891 10.1599 29.891 10.381C29.891 10.5943 29.8436 10.7365 29.7567 10.8076C29.6856 10.8629 29.5355 10.8866 29.3144 10.8866H28.2796ZM28.6982 10.2152V10.539H29.3144C29.3618 10.539 29.4013 10.5311 29.425 10.5074C29.4566 10.4837 29.4645 10.4442 29.4645 10.381C29.4645 10.3178 29.4566 10.2783 29.425 10.2546C29.4013 10.2309 29.3618 10.2152 29.3144 10.2152H28.6982ZM30.8705 9.53582H31.2892V10.4679C31.2813 10.4995 31.2655 10.539 31.2576 10.5706C31.2576 10.5864 31.2576 10.5943 31.2576 10.6101C31.2655 10.6101 31.2734 10.6022 31.2813 10.5864C31.2892 10.5706 31.2971 10.5469 31.305 10.5311L32.0238 9.53582H32.7189V10.8866H32.2924V9.95448C32.2924 9.95448 32.3082 9.91498 32.324 9.85179C32.324 9.83599 32.324 9.82019 32.3319 9.81229C32.3161 9.81229 32.3082 9.82019 32.3003 9.83599C32.2924 9.85179 32.2845 9.86759 32.2766 9.88338L31.5577 10.8866H30.8705V9.53582ZM32.1739 9.27515H31.4945V9.45683H32.1739V9.27515ZM18.0106 11.3605H18.4293V11.8345H18.6505L19.1244 11.3605H19.709L19.0217 12.0083L19.7958 12.7113H19.1797L18.6505 12.182H18.4293V12.7113H18.0106V11.3605ZM21.8654 11.3605V12.7113H21.4468V11.7081H20.6963C20.6963 12.1031 20.6648 12.3716 20.5937 12.5138C20.5384 12.6481 20.4278 12.7113 20.2777 12.7113H20.0802V12.3637C20.175 12.3637 20.2382 12.3242 20.254 12.2373C20.2698 12.1584 20.2777 11.8582 20.2777 11.3605H21.8654ZM23.6191 11.3605H24.093L23.6033 12.2215C23.5085 12.3874 23.4611 12.4822 23.4453 12.498C23.39 12.577 23.3347 12.6323 23.2636 12.6639C23.1925 12.6955 23.0898 12.7113 22.9555 12.7113H22.5132V12.3637H22.9713C23.0029 12.3637 23.0266 12.3637 23.0345 12.3558C23.0424 12.3558 23.0503 12.34 23.0661 12.3242L22.1735 11.3605H22.758L23.2399 11.9214C23.2478 11.9293 23.2557 11.953 23.2636 12.0083C23.2715 12.0241 23.2794 12.0399 23.2873 12.0399C23.2873 12.0399 23.2873 12.0162 23.2952 11.9767C23.2952 11.9372 23.3031 11.9135 23.311 11.8977L23.6191 11.3605ZM24.7486 12.1742V12.3874H25.4754C25.5544 12.3874 25.5938 12.3558 25.5938 12.2847C25.5938 12.2373 25.5859 12.2136 25.5702 12.1978C25.5465 12.182 25.5149 12.1742 25.4754 12.1742H24.7486ZM24.3221 12.7113V11.3605H25.894V11.6844H24.7486V11.874H25.5938C25.7439 11.874 25.8466 11.9056 25.9177 11.9688C25.9809 12.032 26.0204 12.1347 26.0204 12.2689C26.0204 12.4348 25.9809 12.5533 25.9019 12.6244C25.8308 12.6797 25.7281 12.7113 25.5938 12.7113H24.3221Z" fill="#FEFEFE"/>
<path d="M16.6494 30.1864C16.3097 28.7482 16.5941 27.2942 17.3211 26.1247C18.056 24.9552 19.2414 24.0544 20.6954 23.7146C22.1573 23.3748 23.6191 23.6593 24.7966 24.3784C25.9819 25.1053 26.8906 26.2749 27.2383 27.7131C27.5781 29.1592 27.2937 30.6052 26.5667 31.7748C25.8318 32.9443 24.6543 33.8372 23.1924 34.177C21.7384 34.5168 20.2765 34.2402 19.0912 33.5211C17.9059 32.7941 16.9971 31.6246 16.6494 30.1864ZM17.3923 26.1642C16.6653 27.318 16.3887 28.7482 16.7285 30.1706C17.0683 31.5851 17.9612 32.7388 19.1307 33.45C20.3002 34.1691 21.7384 34.4378 23.1766 34.1059C24.6148 33.774 25.7764 32.889 26.4955 31.7353C27.2225 30.5815 27.4991 29.1513 27.1593 27.7368C26.8195 26.3144 25.9266 25.1607 24.7571 24.4416C23.5954 23.7304 22.1493 23.4538 20.7112 23.7936C19.2809 24.1255 18.1113 25.0105 17.3923 26.1642Z" fill="#2B2A29"/>
<path d="M17.3919 26.1642C16.6649 27.318 16.3884 28.7483 16.7282 30.1706C17.068 31.5851 17.9609 32.7388 19.1304 33.45C20.2999 34.1691 21.7381 34.4378 23.1763 34.1059C24.6145 33.774 25.7761 32.889 26.4952 31.7353C27.2222 30.5816 27.4988 29.1513 27.159 27.7368C26.8192 26.3144 25.9263 25.1607 24.7567 24.4416C23.5951 23.7304 22.149 23.4538 20.7108 23.7936C19.2806 24.1255 18.111 25.0105 17.3919 26.1642Z" fill="#FEFEFE"/>
<path fill-rule="evenodd" clip-rule="evenodd" d="M26.6534 31.5456C25.9422 32.8099 24.7174 33.7819 23.1844 34.1454C22.971 34.1928 22.7577 34.2244 22.5522 34.2481L21.9991 33.0865C22.0228 32.9521 22.0386 32.8257 22.0544 32.6993L21.5486 34.2718C19.2649 34.098 17.242 32.4938 16.6888 30.1785C16.2858 28.4874 16.752 26.7806 17.803 25.5399L18.2693 26.1168C17.3684 26.7489 17.2736 28.7877 18.4668 30.1627C18.609 31.6483 19.7391 33.2919 22.0702 32.5412C22.1255 32.0039 22.0939 31.506 22.0544 30.866C22.3547 33.4026 24.5199 34.0663 26.6534 31.5456ZM23.4847 29.1907L23.0738 27.8157C23.8956 28.7482 24.425 29.167 25.6499 29.6965C24.9466 29.5621 24.2196 29.3962 23.4847 29.1907ZM21.0903 27.6735C20.5293 27.0176 19.9761 26.4092 19.5178 25.6901C20.0235 26.1405 20.6241 26.6146 21.3432 26.9149L23.1212 27.0018L21.0903 27.6735Z" fill="#EBECEC"/>
<path d="M22.742 34.2245C22.173 34.3114 21.612 34.3035 21.0667 34.2087C20.7822 33.9874 20.5373 33.7266 20.3476 33.4501C19.9525 33.3315 19.5811 33.1498 19.2413 32.9127C18.949 32.7073 18.6882 32.4465 18.4669 32.1383C18.1271 32.162 17.7715 32.0672 17.4712 31.9407C17.1157 31.4192 16.847 30.8186 16.6889 30.1786C16.6257 29.8941 16.5783 29.6096 16.5625 29.3251C16.6652 29.0407 16.8154 28.8352 17.1157 28.5507C17.1473 28.2188 17.2184 27.8553 17.3448 27.5076C17.4475 27.1916 17.5898 26.8834 17.7715 26.591C17.7004 26.3144 17.6688 26.0062 17.6688 25.698C18.214 25.0027 18.9252 24.4337 19.7629 24.0623C20.0394 24.0781 20.3239 24.1255 20.6242 24.2124C20.9719 24.1334 21.3433 24.1255 21.7226 24.1413C22.0466 24.165 22.3785 24.2045 22.7183 24.2519C23.1134 24.1176 23.4927 24.007 23.9115 23.9833C24.5042 24.2124 25.0573 24.5522 25.5314 24.971C25.7211 25.3978 25.8396 25.8798 25.8396 26.3223C25.974 26.5831 26.1004 26.8439 26.2031 27.1125C26.3059 27.3812 26.4007 27.6578 26.4797 27.9344C26.7879 28.3611 27.1119 28.7088 27.3331 29.2066C27.2936 29.9889 27.0803 30.7396 26.7247 31.4192C26.4086 31.5377 26.0846 31.6168 25.7685 31.6484C25.7132 31.6958 25.6658 31.7353 25.6184 31.7827C25.0889 32.2726 24.5753 32.7468 23.8957 33.1182C23.5638 33.5765 23.4374 33.7345 22.9158 34.1296L22.742 34.2245ZM22.0703 32.5018C22.094 32.241 22.1019 31.9882 22.1019 31.7274C22.094 31.4508 22.0703 31.1821 22.0387 30.9135L22.0782 30.9056C22.1098 31.1742 22.1335 31.4508 22.1414 31.7274C22.1493 31.9724 22.1335 32.2252 22.1098 32.4781C22.6156 32.731 23.1134 33.213 23.8878 33.0708C24.5595 32.7073 25.0652 32.241 25.5947 31.7511C25.6342 31.7116 25.6816 31.6642 25.729 31.6247C25.808 30.953 25.7922 30.305 25.5868 29.6965C25.3102 29.6649 25.0178 29.6096 24.7254 29.5385C24.4568 29.4753 24.1802 29.3963 23.9352 29.3093C23.6665 29.7281 22.8289 30.3287 22.0545 30.8977C21.1299 30.5342 20.4267 30.0126 19.8893 29.3567L18.5143 30.2023C18.3879 30.7238 18.3089 31.3402 18.4748 32.083C18.6961 32.407 18.9648 32.6677 19.265 32.8811C19.589 33.1103 19.9446 33.2762 20.316 33.3947C20.316 33.3947 20.3081 33.3947 20.3081 33.3868C20.9798 33.2525 21.5567 32.8969 22.0703 32.5018ZM17.1552 28.5507C17.3922 29.1908 18.0402 29.7044 18.4985 30.1628L19.8814 29.3172C20.0474 28.4954 20.0948 27.8158 20.6321 27.1441C20.4741 26.9624 20.316 26.7885 20.1659 26.5989C19.9525 26.3381 19.7471 26.0773 19.5653 25.8087C19.0043 25.8798 18.3879 26.1485 17.7873 26.6384C17.6214 26.915 17.4871 27.2153 17.3764 27.5155C17.2579 27.8711 17.1868 28.2188 17.1552 28.5507ZM20.6637 24.244C20.1501 24.7024 19.8577 25.2002 19.6127 25.8087C19.7945 26.0694 19.992 26.3223 20.1975 26.5752C20.3476 26.7569 20.4978 26.9387 20.6558 27.1125C20.6637 27.1046 20.6795 27.0888 20.6874 27.0809C21.7463 26.7964 22.9079 26.8676 23.0818 26.9308C23.5796 27.9344 23.7851 28.4638 23.9431 29.2698C24.1881 29.3567 24.4568 29.4358 24.7412 29.499C25.0257 29.5701 25.3181 29.6254 25.5947 29.657C25.9898 29.2619 26.3454 28.7404 26.456 27.9897C26.3691 27.6973 26.2742 27.4128 26.1636 27.1283C26.0688 26.8755 25.9503 26.6305 25.8238 26.3855C25.247 26.0141 24.5674 25.8877 23.9194 25.8008C23.8088 25.943 23.6981 26.0773 23.5954 26.2196C23.4216 26.4567 23.2556 26.7016 23.0976 26.9387L23.066 26.915C23.224 26.6779 23.39 26.4329 23.5638 26.1959C23.6665 26.0536 23.7772 25.9193 23.8878 25.785C23.6823 25.2871 23.4137 24.7261 22.7815 24.2994C22.4259 24.2519 22.0703 24.2045 21.7226 24.1808C21.3512 24.165 20.9956 24.1729 20.6637 24.244Z" fill="#2B2A29"/>
<path fill-rule="evenodd" clip-rule="evenodd" d="M16.3124 19.9128C16.031 19.9128 15.8591 19.9831 15.7965 20.1082C15.734 20.2724 15.6871 20.4209 15.6324 20.5538L15.0383 22.1484C14.6475 23.1958 14.2957 23.8759 13.9752 24.1807C13.7095 24.4387 13.3265 24.5637 12.8106 24.5637C12.4432 24.5637 12.1227 24.5168 11.8413 24.4308L11.8335 22.9926C11.9585 23.0864 12.0914 23.1489 12.2243 23.188C12.2947 23.2114 12.3728 23.2192 12.4432 23.2192C12.5839 23.2192 12.6933 23.1958 12.7793 23.1489C12.8653 23.1098 12.9356 23.0238 12.9903 22.8988L11.7006 20.4678C11.6459 20.3662 11.5912 20.2567 11.5443 20.1551C11.4426 19.991 11.3098 19.9128 11.13 19.9128H10.958V18.8966H13.6938V19.9128H13.6C13.5453 19.9128 13.5062 19.9206 13.475 19.9362C13.4359 19.9441 13.4203 19.9831 13.4203 20.0457C13.4203 20.0926 13.4359 20.1395 13.4593 20.1864C13.4828 20.2333 13.4984 20.2645 13.5062 20.288L14.0847 21.3823L14.4599 20.3896C14.4911 20.2958 14.5146 20.2255 14.538 20.1629C14.5537 20.0926 14.5615 20.0535 14.5615 20.0379C14.5615 19.991 14.5459 19.9519 14.5224 19.9362C14.4911 19.9206 14.4286 19.9128 14.327 19.9128H14.2254V18.8966H16.3124V19.9128ZM21.3776 19.2562C21.3776 19.7955 21.2213 20.202 20.9008 20.4678C20.5178 20.7804 19.783 20.9446 18.6965 20.9446V21.6012C18.6965 21.7419 18.72 21.8279 18.759 21.8591C18.7981 21.8904 18.8763 21.906 18.9857 21.906H19.2828V22.93H16.4453V21.906H16.7502C16.8518 21.906 16.9143 21.8904 16.9456 21.867C17.0003 21.8279 17.0237 21.7341 17.0237 21.6012V18.7168C17.0237 18.6074 17.0159 18.5292 16.9847 18.4823C16.9534 18.4354 16.8752 18.412 16.7502 18.412H16.4453V17.388H18.5793C19.5407 17.388 20.2286 17.5131 20.6507 17.7632C21.1353 18.0446 21.3776 18.5449 21.3776 19.2562ZM19.572 19.1546C19.572 18.9044 19.4938 18.7403 19.3453 18.6465C19.189 18.5527 18.9779 18.5058 18.6965 18.5058V19.8268C18.9935 19.8268 19.2202 19.7721 19.3609 19.6705C19.5016 19.5689 19.572 19.3969 19.572 19.1546ZM27.4043 20.8742H24.7388V19.8503H24.9264C25.0046 19.8503 25.0593 19.8424 25.0906 19.8346C25.1296 19.8268 25.1453 19.7877 25.1453 19.7252C25.1453 19.7017 25.1375 19.6783 25.1375 19.6548C25.114 19.5767 25.0984 19.5141 25.0906 19.4672H23.4334C23.4256 19.5063 23.41 19.5376 23.4022 19.5689C23.3943 19.5923 23.3865 19.6236 23.3865 19.6548C23.3865 19.733 23.41 19.7877 23.449 19.8112C23.496 19.8346 23.5507 19.8503 23.6132 19.8503H23.6992V20.8742H21.5496V19.8503H21.6825C21.8232 19.8503 21.9326 19.8112 21.9951 19.7174C22.0577 19.6314 22.128 19.4516 22.214 19.178L22.9957 16.7314C23.0348 16.5829 23.0582 16.4969 23.0582 16.4656C23.0582 16.4266 23.0348 16.4031 22.9957 16.3875C22.9566 16.364 22.8628 16.3562 22.7221 16.3562H22.5814V15.3322H25.755L26.8806 19.3813C26.9197 19.522 26.9431 19.6158 26.9666 19.6627C27.0291 19.7877 27.1307 19.8503 27.287 19.8503H27.4043V20.8742ZM24.7623 18.3495L24.3089 16.7705H24.2698L23.7852 18.3495H24.7623ZM32.9307 18.8966H30.3277V17.8726H30.4215C30.5231 17.8726 30.5935 17.8648 30.6404 17.8336C30.7107 17.7945 30.742 17.7007 30.742 17.5522V14.4724H29.8353C29.8353 15.809 29.7727 16.8174 29.6399 17.5131C29.5461 17.9821 29.4054 18.3416 29.2099 18.5761C28.9598 18.881 28.6237 19.0295 28.186 19.0295C28.0843 19.0295 27.9984 19.0217 27.928 19.0139C27.7717 18.9826 27.6153 18.9357 27.4512 18.8575V17.2786C27.4981 17.2942 27.5684 17.3098 27.6701 17.3255C27.7717 17.3489 27.842 17.3567 27.8889 17.3567C28.1625 17.3567 28.3423 17.1535 28.4283 16.7392C28.4986 16.4187 28.5377 15.8794 28.5377 15.1055V14.8476C28.5377 14.6678 28.5221 14.5427 28.483 14.4802C28.4517 14.4099 28.3501 14.3786 28.186 14.3786H27.8889V13.3624H32.9229V14.3786H32.7353C32.5789 14.3786 32.4773 14.4177 32.4382 14.5037C32.4226 14.5349 32.4148 14.6053 32.4148 14.7147V17.5443C32.4148 17.6929 32.4382 17.7788 32.4929 17.8179C32.5398 17.857 32.618 17.8726 32.7353 17.8726H32.9307V18.8966Z" fill="#FEFEFE"/>
</svg>
