<svg width="44" height="44" viewBox="0 0 44 44" fill="none" xmlns="http://www.w3.org/2000/svg">
<path d="M21.9753 40.6813C15.941 40.6813 11.0382 35.9167 10.749 29.9578V3.31897H33.1513V29.8195C33.1764 35.4264 28.173 40.6813 21.9753 40.6813Z" fill="white"/>
<path d="M33.3516 29.8195C33.3516 32.7109 32.0316 35.5269 29.907 37.5887C27.8579 39.5749 25.067 40.8572 21.9619 40.8572C18.907 40.8572 16.1413 39.6504 14.0921 37.6892C12.0304 35.7155 10.7104 32.9875 10.5596 29.9578V29.9452V3.31894V3.14294H10.7356H33.1379H33.3139V3.31894V29.8195H33.3516ZM10.9493 29.9452C11.0876 32.8869 12.3699 35.5144 14.3687 37.4252C16.3424 39.3235 19.0327 40.4801 21.987 40.4801C24.9916 40.4801 27.6944 39.2355 29.6681 37.3121C31.7173 35.3258 32.9996 32.6229 32.9996 29.8195V3.52009H10.9493V29.9452Z" fill="#92AE2A"/>
<path d="M32.459 29.8195C32.459 35.0115 27.7824 39.9647 21.9619 39.9647C16.3173 39.9647 11.7036 35.5144 11.4521 29.9327V13.3132H32.459V29.8195ZM11.4647 6.21038V4.02295H32.4716V6.21038H11.4647Z" fill="#B91222"/>
<path d="M21.9614 20.5544C26.8642 20.5544 30.8368 24.5396 30.8368 29.4299C30.8368 34.3202 26.8642 38.3179 21.9614 38.3179C17.0585 38.3179 13.0859 34.3327 13.0859 29.4424C13.0985 24.5396 17.0585 20.5544 21.9614 20.5544Z" fill="white"/>
<path d="M21.9619 21.1957C26.5002 21.1957 30.1837 24.8791 30.1837 29.4425C30.1837 33.9808 26.5002 37.6894 21.9619 37.6894C17.4237 37.6894 13.7402 34.006 13.7402 29.4425C13.7402 24.8917 17.4237 21.1957 21.9619 21.1957Z" fill="#92AE2A"/>
<path d="M28.901 25.3693L26.9776 28.0344L29.9822 29.3922L26.9902 30.7499L28.9136 33.415L25.6576 33.0882L25.9719 36.3567L23.3319 34.4584L21.949 37.4379L20.6165 34.4584L17.9387 36.3819L18.2656 33.1259L14.9845 33.4527L16.9205 30.7876L13.9033 29.4299L16.8953 28.0847L14.9719 25.4196L18.2405 25.7464L17.9136 22.4653L20.5536 24.3887L21.9239 21.3716L23.2565 24.3762L25.9467 22.4276L25.6199 25.6962L28.901 25.3693Z" fill="#B91222"/>
<path d="M21.9379 34.2321C24.5971 34.2321 26.7528 32.0708 26.7528 29.4047C26.7528 26.7386 24.5971 24.5773 21.9379 24.5773C19.2787 24.5773 17.123 26.7386 17.123 29.4047C17.123 32.0708 19.2787 34.2321 21.9379 34.2321Z" fill="white"/>
<path fill-rule="evenodd" clip-rule="evenodd" d="M18.5048 29.4048C18.5048 27.5191 20.0385 25.9728 21.9368 25.9728C23.8225 25.9728 25.3688 27.5065 25.3688 29.4048C25.3688 31.3031 23.8225 32.8368 21.9368 32.8368C20.0385 32.8368 18.5048 31.3156 18.5048 29.4048ZM17.5996 29.4048C17.5996 31.7933 19.5482 33.7419 21.9368 33.7419C24.3253 33.7419 26.2739 31.7933 26.2739 29.4048C26.2739 27.0162 24.3253 25.0676 21.9368 25.0676C19.5482 25.0928 17.5996 27.0162 17.5996 29.4048Z" fill="#92AE2A"/>
<path fill-rule="evenodd" clip-rule="evenodd" d="M19.8502 29.4046C19.8502 28.2606 20.7679 27.3429 21.9119 27.3429C23.0559 27.3429 23.9736 28.2606 23.9736 29.4046C23.9736 30.5486 23.0559 31.4663 21.9119 31.4663C20.7931 31.4915 19.8502 30.5486 19.8502 29.4046ZM18.9199 29.4046C18.9199 31.064 20.2651 32.4217 21.9371 32.4217C23.5965 32.4217 24.9542 31.0766 24.9542 29.4046C24.9542 27.7452 23.6091 26.3875 21.9371 26.3875C20.2651 26.4 18.9199 27.7452 18.9199 29.4046Z" fill="#92AE2A"/>
<path fill-rule="evenodd" clip-rule="evenodd" d="M21.2204 29.4047C21.2204 29.0024 21.5347 28.6881 21.937 28.6881C22.3393 28.6881 22.6536 29.015 22.6536 29.4047C22.6536 29.807 22.3393 30.1212 21.937 30.1212C21.5347 30.1338 21.2204 29.807 21.2204 29.4047ZM20.3027 29.4047C20.3027 30.3098 21.0319 31.039 21.937 31.039C22.8422 31.039 23.5713 30.3098 23.5713 29.4047C23.5713 28.4995 22.8422 27.7704 21.937 27.7704C21.0319 27.7955 20.3027 28.5247 20.3027 29.4047Z" fill="#92AE2A"/>
<path fill-rule="evenodd" clip-rule="evenodd" d="M18.9191 10.7361V9.24011C18.9191 7.90754 18.3786 7.56812 17.2094 7.56812H15.1351C13.8403 7.56812 13.3877 7.95783 13.3877 9.24011V10.7235C13.3877 11.8675 13.8654 12.3453 15.1351 12.3453H17.2094C18.5294 12.3453 18.9191 11.9178 18.9191 10.7361ZM17.7877 10.6104C17.7877 11.2515 17.6243 11.415 16.8951 11.415H15.3991C14.7203 11.415 14.5066 11.2515 14.5066 10.623V9.36583C14.5066 8.68697 14.6951 8.52354 15.4117 8.52354H16.87C17.5363 8.52354 17.7751 8.68697 17.7751 9.36583V10.6104H17.7877Z" fill="#B91222"/>
<path fill-rule="evenodd" clip-rule="evenodd" d="M24.7531 10.7361V9.24011C24.7531 7.90754 24.2125 7.56812 23.0434 7.56812H20.9691C19.6743 7.56812 19.2217 7.95783 19.2217 9.24011V10.7235C19.2217 11.8675 19.6994 12.3453 20.9691 12.3453H23.0434C24.3634 12.3453 24.7531 11.9178 24.7531 10.7361ZM23.6217 10.6104C23.6217 11.2515 23.4583 11.415 22.7291 11.415H21.2331C20.5543 11.415 20.3405 11.2515 20.3405 10.623V9.36583C20.3405 8.68697 20.5291 8.52354 21.2457 8.52354H22.704C23.3703 8.52354 23.6091 8.68697 23.6091 9.36583V10.6104H23.6217Z" fill="#B91222"/>
<path fill-rule="evenodd" clip-rule="evenodd" d="M30.5861 10.7361V9.24011C30.5861 7.90754 30.0455 7.56812 28.8764 7.56812H26.8021C25.5073 7.56812 25.0547 7.95783 25.0547 9.24011V10.7235C25.0547 11.8675 25.5324 12.3453 26.8021 12.3453H28.8764C30.209 12.3453 30.5861 11.9178 30.5861 10.7361ZM29.4673 10.6104C29.4673 11.2515 29.3038 11.415 28.5747 11.415H27.0787C26.3998 11.415 26.1861 11.2515 26.1861 10.623V9.36583C26.1861 8.68697 26.3747 8.52354 27.0913 8.52354H28.5495C29.2284 8.52354 29.4547 8.68697 29.4547 9.36583V10.6104H29.4673Z" fill="#B91222"/>
<path d="M18.1654 9.56689H14.1426V10.4092H18.1654V9.56689Z" fill="#B91222"/>
<path d="M29.8197 9.56689H25.7969V10.4092H29.8197V9.56689Z" fill="#B91222"/>
<path d="M22.4399 7.98303H21.5977V12.0059H22.4399V7.98303Z" fill="#B91222"/>
<path d="M32.459 6.21033H11.4521V7.00233H32.459V6.21033Z" fill="#92AE2A"/>
<path d="M32.459 15.8651H11.4521V16.6571H32.459V15.8651Z" fill="#92AE2A"/>
<path d="M32.459 12.8984H11.4521V13.3133H32.459V12.8984Z" fill="#92AE2A"/>
<path fill-rule="evenodd" clip-rule="evenodd" d="M13.4388 14.6207V14.5075C13.4388 14.2687 13.3382 14.2058 13.1245 14.2058H12.8605V14.1304H12.6593V14.2058H12.3953C12.1816 14.2058 12.0811 14.2687 12.0811 14.5075V14.6207C12.0811 14.8344 12.1565 14.9224 12.3953 14.9224H12.6593V14.9978H12.8731V14.9224H13.1371C13.3633 14.8972 13.4388 14.8344 13.4388 14.6207ZM13.2376 14.5955C13.2376 14.7087 13.2125 14.7464 13.0742 14.7464H12.8605V14.3692H13.0742C13.1873 14.3692 13.2376 14.3944 13.2376 14.5201V14.5955ZM12.6593 14.7338H12.4456C12.3073 14.7338 12.2822 14.7087 12.2822 14.5829V14.5075C12.2822 14.3944 12.3325 14.3567 12.4456 14.3567H12.6593V14.7338Z" fill="white"/>
<path fill-rule="evenodd" clip-rule="evenodd" d="M14.4311 14.1304H14.1923L13.9283 14.6207L13.6266 14.1304H13.3877L13.79 14.7338C13.8026 14.7464 13.8026 14.7589 13.8026 14.7841C13.8026 14.8092 13.7774 14.8469 13.6894 14.8469H13.6391V15.0104H13.7146C13.8654 15.0104 13.9031 14.9852 14.0288 14.7967L14.4311 14.1304Z" fill="white"/>
<path fill-rule="evenodd" clip-rule="evenodd" d="M15.3874 14.2938V14.1304H14.4697V14.2938H14.8217V14.9978H15.0354V14.2938H15.3874Z" fill="white"/>
<path fill-rule="evenodd" clip-rule="evenodd" d="M16.3299 14.7212C16.3299 14.4949 16.2294 14.4572 16.0157 14.4572H15.6385V14.2938H16.2294V14.1304H15.4248V14.9978H16.0031C16.2294 14.9978 16.3299 14.9349 16.3299 14.7212ZM16.1288 14.7087C16.1288 14.7841 16.1162 14.8092 16.0157 14.8092H15.6637V14.6207H16.0157C16.1162 14.6207 16.1288 14.6458 16.1288 14.7087Z" fill="white"/>
<path fill-rule="evenodd" clip-rule="evenodd" d="M17.3983 14.6961V14.4321C17.3983 14.1932 17.2977 14.1304 17.084 14.1304H16.7069C16.468 14.1304 16.3926 14.2058 16.3926 14.4321V14.6961C16.3926 14.9098 16.4806 14.9978 16.7069 14.9978H17.084C17.3354 14.9978 17.3983 14.8972 17.3983 14.6961ZM17.1971 14.6709C17.1971 14.7841 17.172 14.8218 17.0337 14.8218H16.7697C16.6566 14.8218 16.6063 14.7967 16.6063 14.6709V14.4447C16.6063 14.3315 16.6314 14.2938 16.7697 14.2938H17.0337C17.1469 14.2938 17.1971 14.3189 17.1971 14.4447V14.6709Z" fill="white"/>
<path fill-rule="evenodd" clip-rule="evenodd" d="M18.4422 14.9978V14.1304H17.5497V14.6458C17.5497 14.7589 17.5371 14.8092 17.4365 14.8092V14.9852H17.5245C17.6754 14.9852 17.7634 14.8972 17.7634 14.6709V14.2938H18.2411V14.9727C18.2411 14.9978 18.4422 14.9978 18.4422 14.9978Z" fill="white"/>
<path fill-rule="evenodd" clip-rule="evenodd" d="M19.4227 14.7212C19.4227 14.4949 19.3222 14.4572 19.1084 14.4572H18.7313V14.1304H18.5176V14.9978H19.0959C19.3221 14.9978 19.4227 14.9349 19.4227 14.7212ZM19.2216 14.7087C19.2216 14.7841 19.209 14.8092 19.1084 14.8092H18.7564V14.6207H19.1084C19.1964 14.6207 19.2216 14.6458 19.2216 14.7087Z" fill="white"/>
<path fill-rule="evenodd" clip-rule="evenodd" d="M20.4166 14.9978V14.1304H20.2155V14.4572H19.6875V14.1304H19.4863V14.9978H19.6875V14.6332H20.2155V14.9978H20.4166Z" fill="white"/>
<path fill-rule="evenodd" clip-rule="evenodd" d="M21.7986 14.1304H21.5849V14.9978H21.7986V14.1304ZM21.3964 14.7212C21.3964 14.4949 21.2958 14.4572 21.0821 14.4572H20.7049V14.1304H20.4912V14.9978H21.0695C21.2958 14.9978 21.3964 14.9349 21.3964 14.7212ZM21.1952 14.7087C21.1952 14.7841 21.1826 14.8092 21.0821 14.8092H20.7301V14.6207H21.0821C21.1701 14.6207 21.1952 14.6458 21.1952 14.7087Z" fill="white"/>
<path fill-rule="evenodd" clip-rule="evenodd" d="M23.0058 14.9979V14.1305H22.6664L22.151 14.8093H22.1258V14.1305H21.9121V14.9979H22.2641L22.7795 14.319H22.8047V14.9979H23.0058ZM22.7041 13.879H22.5407C22.5407 13.9545 22.5155 13.967 22.4024 13.967C22.2893 13.967 22.2641 13.967 22.2641 13.879H22.1007V13.8916C22.1007 14.0299 22.151 14.0676 22.4024 14.0676C22.6915 14.0676 22.7041 13.9922 22.7041 13.879Z" fill="white"/>
<path fill-rule="evenodd" clip-rule="evenodd" d="M24.4645 14.9978L23.9365 14.5327L24.4393 14.1304H24.1376L23.7605 14.4447H23.6473V14.1304H23.4336V14.9978H23.6473V14.6207H23.7605L24.1627 14.9978H24.4645Z" fill="white"/>
<path fill-rule="evenodd" clip-rule="evenodd" d="M25.4696 14.9978V14.1304H24.577V14.6458C24.577 14.7589 24.5644 14.8092 24.4639 14.8092V14.9852H24.5519C24.7027 14.9852 24.7907 14.8972 24.7907 14.6709V14.2938H25.2684V14.9727C25.2559 14.9978 25.4696 14.9978 25.4696 14.9978Z" fill="white"/>
<path fill-rule="evenodd" clip-rule="evenodd" d="M26.5251 14.1304H26.2863L26.0223 14.6207L25.7457 14.1304H25.5068L25.9091 14.7338C25.9217 14.7464 25.9217 14.7589 25.9217 14.7841C25.9217 14.8092 25.8966 14.8469 25.8086 14.8469H25.7583V15.0104H25.8337C25.9846 15.0104 26.0223 14.9852 26.148 14.7967L26.5251 14.1304Z" fill="white"/>
<path fill-rule="evenodd" clip-rule="evenodd" d="M27.4559 14.7212C27.4559 14.4949 27.3554 14.4572 27.1416 14.4572H26.7645V14.2938H27.3554V14.1304H26.5508V14.9978H27.1291C27.3554 14.9978 27.4559 14.9349 27.4559 14.7212ZM27.2548 14.7087C27.2548 14.7841 27.2422 14.8092 27.1416 14.8092H26.7896V14.6207H27.1416C27.2548 14.6207 27.2548 14.6458 27.2548 14.7087Z" fill="white"/>
<path fill-rule="evenodd" clip-rule="evenodd" d="M29.3032 14.1304H29.0643L28.8003 14.6207L28.4986 14.1304H28.2598L28.6621 14.7338C28.6746 14.7464 28.6746 14.7589 28.6746 14.7841C28.6746 14.8092 28.6495 14.8469 28.5615 14.8469H28.5112V15.0104H28.5866C28.7375 15.0104 28.7752 14.9978 28.9009 14.7967L29.3032 14.1304Z" fill="white"/>
<path fill-rule="evenodd" clip-rule="evenodd" d="M30.5617 14.6081V14.4949C30.5617 14.2561 30.4611 14.1932 30.2474 14.1932H29.9834V14.1304H29.7697V14.2058H29.5057C29.292 14.2058 29.1914 14.2687 29.1914 14.5201V14.6332C29.1914 14.8469 29.2668 14.9349 29.5057 14.9349H29.7697V15.0104H29.9834V14.9349H30.2474C30.4863 14.8972 30.5617 14.8344 30.5617 14.6081ZM30.348 14.5955C30.348 14.7087 30.3228 14.7464 30.1845 14.7464H29.9708V14.3692H30.1845C30.2977 14.3692 30.348 14.3944 30.348 14.5201V14.5955ZM29.7697 14.7338H29.556C29.4177 14.7338 29.3925 14.7087 29.3925 14.5829V14.5075C29.3925 14.3944 29.4428 14.3567 29.556 14.3567H29.7697V14.7338Z" fill="white"/>
<path fill-rule="evenodd" clip-rule="evenodd" d="M31.6805 14.9728L31.2405 14.1053H30.9388L30.4736 14.9728H30.7125L30.8131 14.7465H31.3159L31.4165 14.9728H31.6805ZM31.2279 14.6082H30.8885L31.0519 14.2939H31.0645L31.2279 14.6082Z" fill="white"/>
<path d="M27.9332 14.0424H27.7949V15.0606H27.9332V14.0424Z" fill="#92AE2A"/>
<path d="M31.9947 14.0299H31.8564V15.0482H31.9947V14.0299Z" fill="#92AE2A"/>
</svg>
