<svg width="14" height="14" viewBox="0 0 14 14" fill="none" xmlns="http://www.w3.org/2000/svg">
<path d="M7 0C5.09942 0 4.8593 0.0081419 4.11454 0.0407095C3.36977 0.0732771 2.86105 0.191335 2.41744 0.366386C1.95349 0.545507 1.56279 0.785694 1.17616 1.1765C0.785465 1.56325 0.545349 1.95406 0.366279 2.41407C0.191279 2.85781 0.0732558 3.36668 0.0406977 4.11166C0.00813953 4.85664 0 5.09683 0 6.99796C0 8.8991 0.00813953 9.13929 0.0406977 9.88427C0.0732558 10.6293 0.191279 11.1381 0.366279 11.5819C0.545349 12.0419 0.785465 12.4327 1.17209 12.8235C1.56279 13.2143 1.95349 13.4545 2.41337 13.6336C2.85698 13.8087 3.3657 13.9267 4.11454 13.9593C4.8593 13.9919 5.09942 14 7 14C8.90058 14 9.1407 13.9919 9.88546 13.9593C10.6302 13.9267 11.139 13.8087 11.5866 13.6336C12.0465 13.4545 12.4372 13.2143 12.8238 12.8235C13.2145 12.4327 13.4506 12.0419 13.6337 11.5819C13.8047 11.1381 13.9227 10.6293 13.9593 9.88427C13.9919 9.13929 14 8.8991 14 6.99796C14 5.09683 13.9919 4.85664 13.9593 4.11166C13.9227 3.36668 13.8047 2.85781 13.6337 2.41407C13.4547 1.95406 13.2145 1.56325 12.8238 1.17243C12.4331 0.781623 12.0465 0.545507 11.5826 0.366386C11.1349 0.191335 10.6262 0.0732771 9.8814 0.0407095C9.13663 0.0081419 8.90058 0 7 0ZM6.37326 1.26199C6.56047 1.26199 6.76802 1.26199 7 1.26199C8.86802 1.26199 9.09186 1.27014 9.82849 1.3027C10.5122 1.33527 10.8826 1.44926 11.1267 1.54289C11.4523 1.66909 11.6843 1.81972 11.9326 2.06804C12.1767 2.3123 12.3273 2.54842 12.4576 2.87409C12.5552 3.12242 12.6692 3.49288 12.6977 4.17272C12.7302 4.90957 12.7384 5.13347 12.7384 7.00204C12.7384 8.8706 12.7302 9.09043 12.6977 9.83135C12.6651 10.5153 12.5512 10.8857 12.4576 11.13C12.3314 11.4557 12.1767 11.6877 11.9326 11.936C11.6884 12.1803 11.4564 12.3309 11.1267 12.4612C10.8785 12.5589 10.5081 12.6729 9.82849 12.7014C9.09186 12.7339 8.86802 12.7421 7 12.7421C5.13198 12.7421 4.90814 12.7339 4.17151 12.7014C3.48779 12.6688 3.11744 12.5548 2.87326 12.4612C2.54767 12.335 2.31163 12.1844 2.06744 11.936C1.82326 11.6918 1.67267 11.4597 1.54244 11.13C1.44477 10.8817 1.33081 10.5112 1.30233 9.83135C1.26977 9.0945 1.26163 8.8706 1.26163 7.00204C1.26163 5.13347 1.26977 4.91364 1.30233 4.17272C1.33488 3.48881 1.44884 3.11835 1.54244 2.87409C1.6686 2.54842 1.82326 2.3123 2.06744 2.06804C2.31163 1.82379 2.54767 1.67316 2.87326 1.54289C3.12151 1.44519 3.49186 1.3312 4.17151 1.3027C4.8186 1.27014 5.06686 1.26199 6.37326 1.26199ZM10.736 2.42629C10.2721 2.42629 9.89768 2.80081 9.89768 3.2649C9.89768 3.72899 10.2721 4.10352 10.736 4.10352C11.2 4.10352 11.5744 3.72899 11.5744 3.2649C11.5744 2.80081 11.2 2.42222 10.736 2.42629ZM7 3.40739C5.01395 3.40739 3.4064 5.01541 3.4064 7.00204C3.4064 8.98866 5.01395 10.5967 7 10.5967C8.98605 10.5967 10.5936 8.98866 10.5936 7.00204C10.5936 5.01541 8.98605 3.40739 7 3.40739ZM7 4.66938C8.29012 4.66938 9.33198 5.71562 9.33198 7.00204C9.33198 8.29253 8.28605 9.33469 7 9.33469C5.70988 9.33469 4.66802 8.28846 4.66802 7.00204C4.66802 5.71154 5.70988 4.66938 7 4.66938Z" fill="white"/>
</svg>
