<svg width="14" height="14" viewBox="0 0 14 14" fill="none" xmlns="http://www.w3.org/2000/svg">
<path d="M6.30984 9.85608C5.22347 9.74413 4.24492 9.47461 3.41148 8.81947C3.30782 8.73654 3.20001 8.65776 3.10465 8.56654C2.73976 8.21409 2.70244 7.81188 2.99269 7.39724C3.24148 7.04065 3.65612 6.94528 4.0915 7.1526C4.17443 7.19407 4.25321 7.23968 4.33199 7.29358C5.89105 8.36751 8.03476 8.39653 9.60211 7.34334C9.75553 7.22309 9.92138 7.12772 10.1163 7.07797C10.4894 6.9826 10.8377 7.11943 11.0409 7.447C11.269 7.82018 11.269 8.18506 10.9829 8.47531C10.5516 8.91898 10.0292 9.24241 9.44869 9.46631C8.90136 9.67778 8.30013 9.78559 7.70719 9.85608C7.79841 9.95559 7.83987 10.0012 7.89378 10.0593C8.69818 10.8678 9.51089 11.6764 10.3111 12.4891C10.5848 12.7669 10.6429 13.1069 10.4894 13.4303C10.3236 13.7828 9.95455 14.015 9.59381 13.9901C9.36576 13.9735 9.18746 13.8615 9.02575 13.6998C8.41623 13.0862 7.79841 12.4891 7.20132 11.863C7.02717 11.6805 6.94424 11.7178 6.79083 11.8754C6.17715 12.5057 5.55933 13.1235 4.93322 13.7413C4.65127 14.0191 4.31955 14.0689 3.99198 13.9113C3.64783 13.7454 3.42392 13.3888 3.44051 13.0364C3.45295 12.7959 3.56905 12.6135 3.7349 12.4476C4.53102 11.6515 5.32713 10.8512 6.12325 10.0551C6.18545 9.99291 6.2352 9.93901 6.30984 9.85608Z" fill="white"/>
<path d="M6.9736 7.08213C5.0372 7.07383 3.45326 5.46916 3.46156 3.53277C3.47399 1.57565 5.06208 -0.0041383 7.01506 8.14362e-06C8.97218 0.00415458 10.5437 1.60883 10.5354 3.58668C10.523 5.52307 8.92657 7.09042 6.9736 7.08213ZM8.73169 3.53692C8.72754 2.57495 7.96045 1.80786 7.00262 1.80786C6.03235 1.80786 5.26111 2.58739 5.26941 3.55765C5.2777 4.51548 6.04894 5.27843 7.01091 5.27428C7.96874 5.27013 8.73583 4.49889 8.73169 3.53692Z" fill="white"/>
</svg>
