<svg width="14" height="14" viewBox="0 0 14 14" fill="none" xmlns="http://www.w3.org/2000/svg">
<path d="M9.89319 4.07608C7.26471 1.44759 3.76737 0 0.0454493 0V2.73849C3.03589 2.73849 5.84554 3.90121 7.95682 6.01249C10.0681 8.12377 11.2308 10.9334 11.2308 13.9238H13.9693C13.9693 10.2019 12.5217 6.70456 9.89319 4.07608Z" fill="white"/>
<path d="M0.016526 4.63414V7.37263C3.62886 7.37263 6.56776 10.3115 6.56776 13.9239H9.30625C9.30625 8.8015 5.13893 4.63414 0.016526 4.63414Z" fill="white"/>
<path d="M1.96139 14C3.04464 14 3.92279 13.1219 3.92279 12.0386C3.92279 10.9554 3.04464 10.0772 1.96139 10.0772C0.878146 10.0772 0 10.9554 0 12.0386C0 13.1219 0.878146 14 1.96139 14Z" fill="white"/>
</svg>
