<svg width="14" height="14" viewBox="0 0 14 14" fill="none" xmlns="http://www.w3.org/2000/svg">
<path fill-rule="evenodd" clip-rule="evenodd" d="M10.1534 0V0.0118184C10.1534 0.224883 10.2173 3.30599 13.4898 3.49825C13.4898 6.36463 13.4913 3.49825 13.4913 5.87858C13.2455 5.89306 11.3368 5.75673 10.1492 4.71022L10.1455 9.3447C10.1748 11.4432 8.99227 13.5013 6.77831 13.9159C6.15805 14.0325 5.59879 14.0451 4.66191 13.8427C-0.73911 12.2467 1.05595 4.3332 6.47871 5.18013C6.47871 7.7349 6.48023 5.18013 6.48023 7.7349C4.23914 7.40931 3.49031 9.24966 4.0858 10.5687C4.62771 11.7688 6.85835 12.0291 7.6365 10.3356C7.72445 10.0047 7.76843 9.62712 7.76843 9.20288V0H10.1534Z" fill="white"/>
</svg>
