<svg width="14" height="14" viewBox="0 0 14 14" fill="none" xmlns="http://www.w3.org/2000/svg">
<path d="M0 11.505C1.26627 12.3074 2.77075 12.7754 4.38388 12.7754C8.90985 12.7754 12.5833 9.10617 12.5833 4.57602C12.5833 4.46319 12.5791 4.35035 12.5749 4.23752C12.7379 4.10796 13.7534 3.29722 14 2.77483C14 2.77483 13.1767 3.11752 12.3743 3.19692H12.3701C12.3701 3.19692 12.3701 3.19692 12.3743 3.19274C12.4496 3.14259 13.486 2.43632 13.6281 1.59632C13.6281 1.59632 13.0472 1.90557 12.2322 2.17722C12.0985 2.22319 11.9564 2.26498 11.8101 2.30677C11.2794 1.75095 10.5313 1.3999 9.70388 1.3999C8.11582 1.3999 6.82866 2.68707 6.82866 4.27513C6.82866 4.5008 6.85373 4.71811 6.90388 4.92707C6.68239 4.91871 3.30149 4.72647 0.998806 1.94319C0.998806 1.94319 -0.376119 3.81961 1.81791 5.75035C1.81791 5.75035 1.14925 5.72528 0.576716 5.37841C0.576716 5.37841 0.363582 7.65185 2.85015 8.23274C2.85015 8.23274 2.36119 8.41662 1.5797 8.28707C1.5797 8.28707 2.01433 10.1259 4.22507 10.2972C4.2209 10.2972 2.47821 11.8769 0 11.505Z" fill="white"/>
</svg>
