<svg width="14" height="14" viewBox="0 0 14 14" fill="none" xmlns="http://www.w3.org/2000/svg">
<path fill-rule="evenodd" clip-rule="evenodd" d="M13.6787 3.36884C13.7761 3.04097 13.6787 2.80005 13.2156 2.80005H11.684C11.2945 2.80005 11.115 3.00817 11.0176 3.23767C11.0176 3.23767 10.2387 5.15569 9.13537 6.40157C8.7784 6.76221 8.61612 6.87696 8.4214 6.87696C8.32406 6.87696 8.17801 6.76221 8.17801 6.43437V3.36884C8.17801 2.9754 8.07011 2.80005 7.74555 2.80005H5.33874C5.09538 2.80005 4.94902 2.98266 4.94902 3.15572C4.94902 3.5287 5.50068 3.61471 5.55754 4.6639V6.94256C5.55754 7.44215 5.46824 7.53273 5.27352 7.53273C4.7543 7.53273 3.49129 5.60614 2.74221 3.40162C2.59541 2.97313 2.44817 2.80005 2.05673 2.80005H0.525127C0.0875257 2.80005 0 3.00817 0 3.23767C0 3.64751 0.519249 5.68028 2.41771 8.36877C3.68334 10.2048 5.46652 11.2 7.08915 11.2C8.06272 11.2 8.18315 10.979 8.18315 10.5982V9.21057C8.18315 8.76847 8.27538 8.68024 8.58368 8.68024C8.81084 8.68024 9.20028 8.79499 10.109 9.68022C11.1474 10.7294 11.3186 11.2 11.9028 11.2H13.4344C13.872 11.2 14.0908 10.979 13.9646 10.5428C13.8264 10.108 13.3306 9.47718 12.6727 8.72941C12.3157 8.30319 11.7803 7.8442 11.618 7.61465C11.3908 7.31961 11.4557 7.18843 11.618 6.92616C11.618 6.92616 13.484 4.27045 13.6787 3.36884Z" fill="white"/>
</svg>
