<svg width="14" height="14" viewBox="0 0 14 14" fill="none" xmlns="http://www.w3.org/2000/svg">
<g clip-path="url(#clip0)">
<path fill-rule="evenodd" clip-rule="evenodd" d="M12.2446 2.29401C12.9777 2.37595 13.5867 2.92526 13.7581 3.66981C14 4.72148 14 5.86868 14 6.95251V6.97923C14 8.07076 13.9991 9.22804 13.755 10.2884C13.5836 11.0329 12.9745 11.5822 12.2418 11.6641C10.506 11.8581 8.74915 11.8591 6.99949 11.8581C5.25013 11.8591 3.49281 11.8581 1.75688 11.6641C1.02375 11.5821 0.41505 11.0328 0.243943 10.2884C0 9.22818 0 8.0709 0 6.97923C0 5.88755 0.00274581 4.73012 0.246689 3.66981C0.418085 2.92526 1.02664 2.37595 1.75934 2.29401C3.49541 2.10022 5.25287 2.09921 7.00224 2.10022C8.75132 2.09921 10.5085 2.10022 12.2446 2.29401ZM5.26847 9.27405L9.55122 7.20237C9.68028 7.14033 9.68028 6.95418 9.55462 6.88869L5.27186 4.68603C5.15978 4.62743 5.02393 4.71016 5.02393 4.84114V9.11548C5.02393 9.24647 5.15299 9.3292 5.26847 9.27405Z" fill="white"/>
</g>
<defs>
<clipPath id="clip0">
<rect width="14" height="14" fill="white"/>
</clipPath>
</defs>
</svg>
