<svg width="12" height="8" viewBox="0 0 12 8" fill="none" xmlns="http://www.w3.org/2000/svg">
<path d="M11.8081 6.01143L6.4631 0.666475C6.33958 0.542963 6.1749 0.475159 5.99549 0.475159C5.81968 0.475159 5.6549 0.542963 5.53159 0.666475L0.191511 6.00636C0.0679997 6.12996 0 6.29474 0 6.47055C0 6.64635 0.0679022 6.81123 0.191511 6.93474L0.584778 7.32801C0.70829 7.45152 0.873167 7.51971 1.04897 7.51971C1.22478 7.51971 1.38956 7.45152 1.51316 7.32801L5.99734 2.84383L10.4865 7.33318C10.61 7.45659 10.7748 7.52469 10.9507 7.52469C11.1265 7.52469 11.2912 7.45659 11.4148 7.33318L11.8081 6.93972C12.064 6.68382 12.064 6.26733 11.8081 6.01143Z" fill="black"/>
</svg>
