<svg width="19" height="19" viewBox="0 0 19 19" fill="none" xmlns="http://www.w3.org/2000/svg">
<path d="M9.5 0C4.25335 0 0 4.25335 0 9.5C0 14.7466 4.25335 19 9.5 19C14.7466 19 19 14.7466 19 9.5C18.9941 4.25583 14.7442 0.00587567 9.5 0ZM9.83909 2.73883L13.1417 1.41866C13.5165 1.58828 13.8791 1.78372 14.2268 2.0036L14.2355 2.00901C14.5772 2.22548 14.9037 2.46499 15.213 2.72584L15.2396 2.74903C15.3783 2.86716 15.5131 2.98947 15.6442 3.11564C15.6608 3.13188 15.6781 3.14734 15.6946 3.16388C15.8321 3.2981 15.9652 3.43648 16.094 3.57889C16.1047 3.59095 16.1149 3.60363 16.1256 3.61569C16.2386 3.74233 16.3473 3.87345 16.4528 4.00673C16.4781 4.03843 16.5035 4.07013 16.5281 4.10182C16.6425 4.24995 16.7532 4.40071 16.8577 4.55626L16.1993 7.35492L12.9601 8.43481L9.83986 5.93812L9.83909 2.73883ZM2.47164 4.10368C2.49622 4.07198 2.52127 4.04028 2.54663 4.00874C2.65085 3.87654 2.75862 3.74758 2.86995 3.62172C2.88201 3.60842 2.89314 3.59482 2.90505 3.58152C3.03307 3.4388 3.16558 3.30057 3.30289 3.16667C3.31866 3.1512 3.33443 3.13497 3.35098 3.12074C3.48101 2.99535 3.61476 2.87381 3.75222 2.7563L3.78392 2.7297C4.09038 2.47071 4.41385 2.23275 4.75216 2.0172L4.76453 2.00932C5.11027 1.78991 5.47054 1.59478 5.84318 1.425L9.16091 2.73883V5.93719L6.04048 8.43341L2.80129 7.35554L2.14291 4.55688C2.24836 4.40164 2.35784 4.25119 2.47164 4.10368ZM2.09003 14.3593C1.99695 14.2174 1.90789 14.0728 1.823 13.9254L1.80243 13.8899C1.71801 13.7433 1.63807 13.5942 1.56277 13.4429L1.56014 13.4381C1.4015 13.1196 1.26218 12.7918 1.14312 12.4564V12.4533C1.08684 12.295 1.03551 12.1328 0.988037 11.9696L0.970874 11.9095C0.927425 11.7562 0.887996 11.6013 0.852742 11.4447C0.84965 11.4294 0.845785 11.4148 0.842692 11.3997C0.764917 11.0459 0.709098 10.6878 0.675391 10.3271L2.60863 8.00728L5.8254 9.07943L6.75901 12.8136L5.225 14.8546L2.09003 14.3593ZM11.6087 18.1111C11.4504 18.1504 11.2879 18.1842 11.1254 18.2147C11.1027 18.2192 11.0795 18.2229 11.0567 18.227C10.9184 18.2518 10.7784 18.273 10.6382 18.2903C10.6008 18.2951 10.5636 18.3002 10.5264 18.3047C10.3962 18.3198 10.2648 18.3313 10.133 18.3407C10.0916 18.3435 10.0506 18.3476 10.0092 18.3503C9.84079 18.3606 9.67101 18.3667 9.5 18.3667C9.34337 18.3667 9.18766 18.3625 9.03289 18.3543C9.01418 18.3543 8.99624 18.3512 8.97753 18.3498C8.83976 18.3419 8.70261 18.3316 8.56577 18.3183L8.55 18.3153C8.25019 18.2829 7.95208 18.2352 7.65706 18.1729L5.78396 15.2402L7.29385 13.2269H11.7062L13.2408 15.2535L11.6087 18.1111ZM18.1596 11.4C18.1564 11.4152 18.1527 11.4298 18.1494 11.445C18.114 11.6015 18.0746 11.7564 18.0313 11.9098L18.0143 11.9699C17.9667 12.1331 17.9155 12.2946 17.859 12.4536V12.4567C17.74 12.7921 17.6008 13.1199 17.442 13.4384L17.4394 13.4432C17.3636 13.5947 17.2838 13.7438 17.1997 13.8902L17.1792 13.9258C17.0947 14.0736 17.0058 14.2178 16.9126 14.359L13.7883 14.8516L12.2436 12.8123L13.1768 9.07912L16.3935 8.00697L18.3268 10.3268C18.2932 10.6877 18.2374 11.0461 18.1596 11.4Z" fill="#9A9A9A"/>
</svg>
