<svg width="21" height="25" viewBox="0 0 36 44" fill="none" xmlns="http://www.w3.org/2000/svg">
<path d="M17.9956 43.4286C17.7254 43.4286 17.4549 43.3439 17.2279 43.1745L5.60113 34.5045C3.67267 33.0664 2.23213 31.1379 1.31961 28.7723C0.538678 26.7477 0.142578 24.3944 0.142578 21.778V6.9945C0.142578 6.54883 0.382227 6.13652 0.772028 5.91123C6.68104 2.49566 12.4634 0.701554 17.9588 0.578284C23.9039 0.444879 29.7307 2.25403 35.2735 5.95472C35.6232 6.18818 35.833 6.5776 35.833 6.9945V21.7825C35.833 24.3974 35.4375 26.7493 34.6576 28.7729C33.7461 31.1373 32.3072 33.0654 30.3804 34.5035L18.7636 43.1742C18.5365 43.3439 18.266 43.4286 17.9956 43.4286Z" fill="#CBCBCB"/>
</svg>
