<svg width="195" height="57" viewBox="0 0 195 57" fill="none" xmlns="http://www.w3.org/2000/svg">
<path d="M195 55.4955V36.6501H189.204H106.712H100.916V55.4955H195Z" fill="#007E32"/>
<path d="M109.965 40.5619H113.575C116.186 40.5619 117.617 41.5281 117.617 43.9355V44.5251C117.617 46.8015 116.436 48.2101 113.342 48.2101H112.56V51.5019H110.564V42.3633H109.316L109.965 40.5619ZM113.342 46.4249C114.939 46.4249 115.621 45.8844 115.621 44.5251V44.0175C115.621 42.7564 114.955 42.3633 113.641 42.3633H112.56V46.4249H113.342Z" fill="white"/>
<path d="M120.81 47.604V51.5019H118.814V40.5619H122.141C124.686 40.5619 126 41.4626 126 43.8209V44.3286C126 45.3113 125.601 46.4249 124.62 47.0636L126.682 51.5019H124.387L122.557 47.604H120.81ZM120.81 45.8681H122.274C122.989 45.8681 124.004 45.688 124.004 44.2795V43.8209C124.004 42.5599 123.106 42.3633 122.025 42.3633H120.81V45.8681Z" fill="white"/>
<path d="M135.432 44.6726V47.4731C135.432 50.4865 133.719 51.7966 131.473 51.7966C129.228 51.7966 127.515 50.4865 127.515 47.4731V44.6726C127.515 41.6591 129.228 40.349 131.473 40.349C133.719 40.349 135.432 41.6591 135.432 44.6726ZM129.511 47.0309C129.511 49.2418 130.209 49.8314 131.473 49.8314C132.738 49.8314 133.436 49.2418 133.436 47.0309V45.1147C133.436 42.9038 132.738 42.3142 131.473 42.3142C130.209 42.3142 129.511 42.9038 129.511 45.1147V47.0309Z" fill="white"/>
<path d="M145.58 48.4557C145.58 46.1138 140.623 47.7351 140.623 43.5753C140.623 41.3152 142.12 40.349 143.949 40.349C145.945 40.349 147.193 41.2661 147.642 43.5262L145.829 43.9029C145.58 43.0184 145.064 42.2815 144.032 42.2815C143.034 42.2815 142.585 42.6909 142.585 43.4442C142.585 45.95 147.526 44.1812 147.526 48.4065C147.526 50.9123 145.945 51.7966 144.032 51.7966C142.036 51.7966 140.839 50.8468 140.356 48.6194L142.203 48.2264C142.486 49.1599 142.885 49.7986 143.866 49.8641C145.014 49.8641 145.58 49.5366 145.58 48.4557Z" fill="white"/>
<path d="M149.073 40.5619H155.494L154.845 42.3633H151.086V45.0656H154.662L154.03 46.8343H151.086V49.7003H155.677L155.028 51.5019H149.073V40.5619Z" fill="white"/>
<path d="M158.737 47.604V51.5019H156.741V40.5619H160.068C162.613 40.5619 163.927 41.4626 163.927 43.8209V44.3286C163.927 45.3113 163.528 46.4249 162.546 47.0636L164.609 51.5019H162.314L160.484 47.604H158.737ZM158.737 45.8681H160.201C160.916 45.8681 161.931 45.688 161.931 44.2795V43.8209C161.931 42.5599 161.033 42.3633 159.952 42.3633H158.737V45.8681Z" fill="white"/>
<path d="M169.134 49.7003H170.715V51.5019H165.558V49.7003H167.138V42.3633H165.325L165.974 40.5619H170.715V42.3633H169.134V49.7003Z" fill="white"/>
<path d="M172.478 40.5619H178.898L178.249 42.3633H174.49V45.0656H178.067L177.434 46.8343H174.49V49.7003H179.081L178.432 51.5019H172.478V40.5619Z" fill="white"/>
<path d="M184.538 48.4557C184.538 46.1138 179.581 47.7351 179.581 43.5753C179.581 41.3152 181.078 40.349 182.907 40.349C184.903 40.349 186.151 41.2661 186.6 43.5262L184.787 43.9029C184.538 43.0184 184.022 42.2815 182.99 42.2815C181.992 42.2815 181.543 42.6909 181.543 43.4442C181.543 45.95 186.484 44.1812 186.484 48.4065C186.484 50.9123 184.903 51.7966 182.99 51.7966C180.994 51.7966 179.797 50.8468 179.314 48.6194L181.161 48.2264C181.444 49.1599 181.843 49.7986 182.824 49.8641C183.972 49.8641 184.538 49.5366 184.538 48.4557Z" fill="white"/>
<path d="M31.7798 19.8811C31.3736 19.1828 30.6231 18.7526 29.8109 18.7526C28.9988 18.7526 28.2483 19.1828 27.8421 19.8811C27.5826 20.3274 26.3151 22.5032 24.1251 26.2691C23.7631 26.8915 23.5734 27.5988 23.5752 28.3174C23.5821 31.1252 23.5911 33.8008 23.5974 35.7256C23.6175 41.9022 36.0266 41.8722 36.0344 35.7006C36.0369 33.8042 36.0424 31.156 36.0467 28.3218C36.0478 27.6044 35.8581 26.8986 35.4968 26.2774L35.2202 25.8018H35.2229L31.7798 19.8811ZM33.7518 32.7363C33.3506 34.3772 32.9515 35.6175 32.2742 37.2438C32.2572 37.2846 32.2184 37.3127 32.1739 37.3161C30.4732 37.4478 29.1502 37.448 27.4478 37.3161C27.4033 37.3127 27.3645 37.2846 27.3475 37.2438C26.6703 35.6175 26.2712 34.3772 25.87 32.7363C25.8594 32.6931 25.8743 32.6476 25.9084 32.6189C27.1983 31.5305 28.2493 30.7617 29.7489 29.8468C29.7868 29.8237 29.8349 29.8237 29.8729 29.8469C31.3726 30.7617 32.4234 31.5305 33.7134 32.6189C33.7474 32.6477 33.7623 32.6931 33.7518 32.7363Z" fill="white"/>
<path d="M38.44 22.4732C38.4718 22.4999 38.5153 22.508 38.5547 22.4948C38.5941 22.4814 38.6236 22.4484 38.6322 22.4081L39.3922 18.8583C39.4009 18.8173 39.387 18.7747 39.3556 18.7466C39.3241 18.7185 39.2801 18.7092 39.2399 18.7221L35.5603 19.9091C35.5184 19.9226 35.4876 19.958 35.4802 20.001C35.4728 20.0441 35.49 20.0876 35.525 20.1141C36.3513 20.7424 37.2557 21.4784 38.44 22.4732Z" fill="white"/>
<path d="M24.0639 19.9091L20.3844 18.7221C20.3441 18.7092 20.3001 18.7185 20.2687 18.7466C20.2372 18.7747 20.2233 18.8173 20.2321 18.8583L20.992 22.4079C21.0007 22.4484 21.0301 22.4813 21.0696 22.4947C21.109 22.508 21.1525 22.4998 21.1842 22.4731C22.3687 21.4783 23.2736 20.7419 24.0993 20.1141C24.1341 20.0876 24.1513 20.0441 24.144 20.001C24.1366 19.958 24.1057 19.9225 24.0639 19.9091Z" fill="white"/>
<path d="M13.1869 47.8124H18.3162C13.2547 44.2743 8.61024 40.6323 3.3524 36.1827C5.07593 29.0855 6.7828 23.13 8.97441 16.9083C9.50575 15.4 10.2251 13.9945 11.0974 12.7106C10.2732 10.9986 7.84773 6.83333 10.0268 3.28184C11.0848 1.55769 13.3857 1.06486 15.0685 2.2095C16.7499 3.35324 18.4231 4.50884 20.1421 5.71537C21.9775 5.05859 23.9362 4.67279 26.0052 4.62828C28.5401 4.5736 31.0896 4.57366 33.6223 4.62828C35.6912 4.67279 37.65 5.05859 39.4854 5.71537C41.2043 4.50884 42.8776 3.35324 44.5591 2.2095C46.2417 1.06486 48.5427 1.55769 49.6007 3.28184C51.7797 6.83333 49.3543 10.9986 48.53 12.7106C49.4023 13.9945 50.1217 15.4 50.653 16.9083C52.8446 23.13 54.5515 29.0855 56.2751 36.1827C47.3659 43.7223 40.2283 48.9456 29.8137 55.2675C30.7757 55.8514 31.74 56.4285 32.706 57C39.3087 52.9429 44.7191 49.2348 50.3863 44.8303H47.932C48.5732 44.3424 49.2173 43.8445 49.864 43.3393H52.2793C55.4278 40.8325 57.7821 38.8258 59.6277 37.2639C59.1474 35.2865 58.7597 33.6698 58.1745 31.4112H58.1732C57.6119 31.4112 58.0736 31.4112 57.5121 31.4112C56.39 27.1087 55.256 23.2498 54.0079 19.483C54.8588 19.483 54.6272 19.483 55.4916 19.483C54.8889 17.712 54.2264 15.5117 52.2693 12.9316C53.0762 11.1451 53.7898 9.51968 53.9098 7.55475H53.119L53.1124 7.55487C53.2222 5.95256 52.8434 4.60431 52.1408 3.55553C52.1364 3.54826 52.1336 3.54122 52.1291 3.53394C52.099 3.48504 52.0617 3.43851 52.0299 3.39015C52.017 3.37231 52.0054 3.3533 51.9923 3.33564C50.2464 0.748659 45.9552 -1.0228 43.4815 0.660084C42.0225 1.65251 40.604 2.63027 39.1684 3.63306C37.3741 3.08693 35.5243 2.79028 33.6565 2.75008C31.1964 2.69712 28.5841 2.69367 25.9636 2.75008C24.0958 2.79028 22.246 3.08693 20.4516 3.63306C19.016 2.63027 17.5976 1.65251 16.1386 0.660084C13.6014 -1.06598 9.14435 0.839247 7.49101 3.53394C7.48506 3.54354 7.48145 3.55273 7.47563 3.56228C6.34829 5.22721 5.97794 7.77893 7.48056 11.3701C7.70048 11.8959 7.92895 12.4154 8.16203 12.9317C6.66421 14.9058 5.75523 16.9644 4.92845 19.483H6.5124C5.86698 21.4307 5.24953 23.4018 4.65114 25.4471H3.08934C2.1848 28.5647 1.3147 31.8508 0.43233 35.4834L0 37.2639L1.40384 38.4515C5.59519 41.9987 9.37258 45.0082 13.1869 47.8124Z" fill="white"/>
<path d="M15.2441 49.3034C18.8968 51.9081 22.6556 54.3785 26.9104 56.9931C27.8789 56.4201 28.8495 55.853 29.8141 55.2675C26.4113 53.2019 23.3616 51.2535 20.4823 49.3034H15.2441Z" fill="white"/>
<path d="M85.3497 25.7514L83.1627 23.5801L80.3941 26.3287L77.6255 23.5801L75.4385 25.7514L78.207 28.5L75.4385 31.2486L77.6255 33.4199L80.3941 30.6713L83.1627 33.4199L85.3497 31.2486L82.5811 28.5L85.3497 25.7514Z" fill="white"/>
<path d="M100.916 1.282V31.1718H106.712V6.7369H189.204V31.1718H195V1.282H100.916Z" fill="white"/>
<path d="M165.431 26.1955H165.216L165.215 19.8139H163.019V31.1718H164.951L167.36 25.0852H167.575V31.1716H169.772V19.8139H167.814L165.431 26.1955Z" fill="white"/>
<path d="M123.153 26.1955H122.938L122.937 19.8139H120.74V31.1718H122.673L125.082 25.0852H125.297V31.1716H127.494V19.8139H125.535L123.153 26.1955Z" fill="white"/>
<path d="M155.578 16.9908L152.895 31.1691H155.219L157.058 19.298H157.272L159.191 31.1691H161.523L158.861 16.9908H155.578Z" fill="white"/>
<path d="M178.92 19.8132L176.525 31.1718H178.735L179.008 29.719H181.948L182.218 31.1718H184.434L182.054 19.8132H178.92ZM179.362 27.8342L180.383 21.8076H180.59L181.599 27.8342H179.362Z" fill="white"/>
<path d="M176.762 19.8132H171.784V31.1715H173.982V21.8076H176.762V19.8132Z" fill="white"/>
<path d="M117.103 31.1718L114.517 25.1061H114.136V31.1718H111.933V16.9908H114.136V23.2664H114.413L116.992 16.9908H119.387L116.369 24.0623L119.498 31.1718H117.103Z" fill="white"/>
<path d="M147.429 27.4285H149.482C150.699 27.4285 151.549 26.3327 151.549 25.5436L151.549 23.5855V21.8457C151.549 20.7255 150.628 19.8141 149.495 19.8141H145.231V31.1718H147.429V27.4285ZM147.305 21.8112H148.777C149.026 21.8112 149.228 22.0121 149.228 22.2592V25.0959C149.228 25.3428 149.026 25.5436 148.777 25.5436H147.305V21.8112Z" fill="white"/>
<path d="M133.695 23.6546H131.641V21.9954H134.683V19.8142L129.444 19.8141V31.1718H133.708C134.841 31.1718 135.762 30.2604 135.762 29.1402V27.4004L135.762 25.5394C135.762 24.7504 134.912 23.6546 133.695 23.6546ZM133.564 28.7267C133.564 28.9737 133.362 29.1747 133.113 29.1747H131.641V25.5394H133.113C133.362 25.5394 133.564 25.7402 133.564 25.9872V28.7267Z" fill="white"/>
<path d="M143.503 29.1669H139.78V25.5623H142.002V23.6774H139.78V21.8112H143.503V19.8142H137.583V31.1717H143.503V29.1669Z" fill="white"/>
</svg>
